<?xml version="1.0" encoding="UTF-8"?>
<svg id="Layer_1" data-name="Layer 1" xmlns="http://www.w3.org/2000/svg" viewBox="0 0 1848.42 970.01">
  <defs>
    <style>
      .cls-1, .cls-2, .cls-3 {
        stroke: #03361f;
        stroke-miterlimit: 10;
        stroke-width: .25px;
      }

      .cls-1, .cls-4 {
        fill: #03361f;
      }

      .cls-2 {
        fill: #aaba95;
      }

      .cls-4 {
        stroke-width: 0px;
      }

      .cls-3 {
        fill: none;
      }
    </style>
  </defs>
  <g>
    <path class="cls-3" d="M1557.6,371.73c-1.64,3.12-1.37,5.12,2.59,36.29,4.07,32,4.32,34.15,3.89,38.88-2.07,22.7-13.91,39.97-16.85,44.06-13.16,18.34-19.75,27.51-25.92,32.4,0,0,0,0,0,0,0,0-4.44,3.97-4.21,5.51.15,1.02,2.53,2.18,13.29,2.48,4.34-4.58,10.41-11.57,16.48-20.9,10.86-16.7,15.41-31.22,15.41-31.22s-4.55,14.52-15.41,31.22c-6.07,9.33-12.14,16.32-16.48,20.9-.01.24-.19,5.33,2.91,6.91,1.89.96,4.04.14,5.18-.32,5.36-2.16,5.37-6.87,10.37-8.42.58-.18,3.54-1.1,5.18.32,1.6,1.39.3,3.55,1.62,5.18,1.93,2.4,5.96-.74,12.64.65,4.75.99,5.68,3.2,10.04,2.92,2.11-.14,4.02-.79,5.51-1.3,4.54-1.55,6.53-3.45,7.78-2.59,1.02.7.04,2.23.97,3.56,1.57,2.25,5.98.29,13.61.32,2.74.01,5.93.33,12.31.97,2.39.24,4.65.5,7.45-.32.5-.15,1.57-.49,5.18-2.59,5.18-3.01,7.81-5.12,8.42-4.54.53.5-1.25,2.2-.65,4.21.5,1.68,2.33,2.52,3.24,2.92,2.47,1.09,4.35.71,8.75.32,5.78-.51,8.66-.76,10.69-.32,3.93.84,5.25,2.52,7.13,1.62,2-.96,1.32-3.25,3.56-5.18,2.91-2.51,6.36-.65,7.45-2.27,1.57-2.33-4.07-8.4-8.1-14.26-7.65-11.1-4.15-13.95-13.7-34.95-4.21-9.27-5.07-9.11-8.69-17.92-2.73-6.65-5.63-13.85-6.77-22.95-1.02-8.16-.48-14.39.32-18.47,3.63-18.42,7.87-39.95,2.59-50.87-11.07-22.92-76.23-24.24-87.8-2.27Z"/>
    <path class="cls-1" d="M1367.25,422.18c-.45-1.74.28-3.81-.49-8.26-.74-4.28-3.26-5.3-4.86-8.75-2.78-5.97.14-12.9,1.46-16.04,4.07-9.67,11.71-11.98,20.9-19.44,12.03-9.76,9.77-14.59,21.38-27.7,9.73-10.99,20.26-16.88,41.31-28.67,7.9-4.42,22-12.25,41.79-19.92,40.31-15.63,75.06-19.3,90.88-20.41,27.02-1.89,46.51.35,77.27,3.89,20.67,2.38,32.3,3.78,48.11,8.75,23.33,7.33,40.06,17.5,53.46,25.76,20.78,12.81,15.3,12.93,43.74,31.59,7.33,4.81,14.28,10.66,28.19,22.35,8.42,7.08,14.9,12.93,14.58,20.41-.19,4.32-2.57,7.67-4.37,10.21h0s-9.32,9.32-16.04,14.09c-4.77,3.39-78.54,20.12-182.86,26.44.03-1.45.05-2.9.08-4.35,20.47-1.28,48.42-3.36,76.86-6.6,13.73-1.57,22.51-2.83,29.86-4,14.27-2.28,15.54-3.01,35.82-6.72,25.08-4.59,34.65-5.57,34.57-7.27-.07-1.47-9.14-2.69-27.27-5.13-8.96-1.21-11.58-1.35-18.22-2.5-10.26-1.79-17.74-3.72-20.14-4.34-17.92-4.59-47.97-8.96-78.25-13.5-77.43-11.6-69.09-11.16-77.01-11.79,0,0-67.02-5.39-146.18,15.95-18.72,5.05-33.53,13.61-33.53,13.61h0c-3.51,2.08-8.66,4.96-15.12,7.88-17.05,7.71-28.95,9.33-28.73,10.84.24,1.65,14.6,0,37.16.6,10.95.29,18.31,1.16,28.11,1.82,21.79,1.48,24.01,7.58,50.38,9.94,8.13.73,12.31,1.07,17.96.25,16.48-2.39,27.95-11.61,29.48-9.56,1.26,1.69-6.48,8.2-4.86,10.69,1.19,1.82,6.23-.25,13.71-1.06,6.83-.74,12.64-.11,16.81.66.11.96.22,1.91.33,2.87-7.73-1.54-13.04-1.14-16.54-.43-3.47.7-7.07.54-10.56,1.16-1.74.31-3.3.64-4.47-.27-1.56-1.22-1.54-4-1.05-5.87,1.03-3.92,4.68-5.69,4.43-6.07-.38-.58-8.27,5.2-19.08,8.31,0,0-3.52,1.01-8.11,1.7-16.47,2.47-54.19-5.62-61.25-7.02-39.88-7.91-77.46,4.27-79.62-4.1Z"/>
    <path class="cls-2" d="M1441.31,349.56c-1.4-1.17-2.34-1.97-2.28-3.1.08-1.31,1.48-2.42,2.79-2.82,1.54-.48,2.09.27,3.93.15,3.17-.21,3.59-2.58,6.32-2.67,2.49-.08,4.4,1.82,4.95,2.37.7.69,1.83,1.82,1.71,3.26-.12,1.4-1.38,2.31-2.68,3.23-1.83,1.28-4.97,3.49-8.93,2.85-2.35-.38-3.78-1.58-5.81-3.26Z"/>
    <path class="cls-2" d="M1740.06,349.06c-1.3-1.1-2.17-1.86-2.11-2.92.07-1.24,1.37-2.27,2.58-2.66,1.43-.45,1.94.25,3.64.14,2.96-.2,3.61-2.72,5.85-2.51,1.24.12,2.43,1,2.66,1.93.15.61-.17,1.04-1.08,2.58-1.65,2.8-1.28,2.53-1.85,3.26-1.05,1.37-2.37,3.08-4.31,3.24-1.73.15-3-1.06-5.37-3.07Z"/>
    <path class="cls-2" d="M1395.93,381.46c1.3-1.1,2.17-1.86,2.11-2.92-.07-1.24-1.37-2.27-2.58-2.66-1.43-.45-1.94.25-3.64.14-2.96-.2-3.61-2.72-5.85-2.51-1.24.12-2.43,1-2.66,1.93-.15.61.17,1.04,1.08,2.58,1.65,2.8,1.28,2.53,1.85,3.26,1.05,1.37,2.37,3.08,4.31,3.24,1.73.15,3-1.06,5.37-3.07Z"/>
    <path class="cls-3" d="M1554.04,529.83c3.5-10.53,7-21.06,10.51-31.59"/>
    <path class="cls-3" d="M1589.49,475.57c-2.02,8.63-3.82,20.89-2.55,35.43.81,9.31,2.69,17.3,4.68,23.69"/>
    <path class="cls-3" d="M1633.36,474.27c-1.49,8.68-2.55,21.21-.05,35.87,1.48,8.68,3.87,16.06,6.26,21.95"/>
    <path class="cls-3" d="M1652.72,498.82c-.34,5.57,0,10.29.47,13.82.85,6.49,2.38,11.27,3.39,14.35,1.63,4.99,3.46,9.11,5.01,12.23"/>
    <path class="cls-3" d="M1556.98,381.51c-10.68,7.13-23.21,14.53-37.61,21.44-22.19,10.64-42.84,17.26-60.15,21.47"/>
    <path class="cls-3" d="M1424.25,396.7c19.86-2.47,40.91-5.74,62.97-10.04,25.12-4.9,48.55-10.55,70.19-16.56"/>
    <path class="cls-3" d="M1374.71,417.54c31.58-5.39,65.04-12.21,100.08-20.84,28.92-7.12,56.3-14.83,82.05-22.84"/>
    <path class="cls-3" d="M1556.68,377.38c-17.83,9.24-39.06,18.77-63.54,27.11-21.71,7.4-41.92,12.47-59.86,16"/>
    <path class="cls-3" d="M1549.83,431.85c1.97-3.83,3.98-8.28,5.8-13.34,1.85-5.14,3.16-9.93,4.08-14.19"/>
    <path class="cls-3" d="M1558.65,395.82c-2.55,4.38-5.88,9.37-10.21,14.54-3.76,4.49-7.51,8.21-10.92,11.23"/>
    <path class="cls-3" d="M1492.07,430.23c11.01-5.33,22.76-11.57,34.98-18.88,11.35-6.8,21.68-13.67,31-20.37"/>
    <path class="cls-3" d="M1644.26,417.37c.03,2.91.37,6.46,1.46,10.37.41,1.46.87,2.81,1.36,4.04"/>
    <path class="cls-3" d="M1647.83,385.84c10.17,7.59,24.66,16.64,43.47,23.39,31.31,11.24,58.99,10.52,74.95,8.82"/>
    <path class="cls-3" d="M1669,430.22c-4.17-2.13-9.13-5.11-14.25-9.28-3.83-3.12-6.96-6.26-9.47-9.1"/>
    <path class="cls-3" d="M1705.19,428.2c-10.59-3.39-23.38-8.57-36.89-16.66-8.08-4.84-15.02-9.88-20.89-14.67"/>
    <path class="cls-3" d="M1646.88,378.43c24.12,5.36,49.52,10.36,76.15,14.81,30.72,5.13,60.17,9.04,88.15,11.97"/>
    <path class="cls-3" d="M1647.33,380.53c16.4,9.25,40.65,20.53,71.7,27.17,35.36,7.56,65.5,6.1,85.43,3.56"/>
    <path class="cls-2" d="M1652.12,282.21c-1.8.29-3.02.51-3.54,1.51-.6,1.17.05,2.83.97,3.85,1.08,1.2,1.94.83,3.46,1.87,2.62,1.79,1.77,4.05,4.08,5.51,2.1,1.33,4.72.67,5.47.48.95-.24,2.51-.64,3.13-1.94.61-1.27-.01-2.69-.67-4.14-.92-2.03-2.51-5.54-6.24-6.99-2.22-.86-4.06-.57-6.66-.15Z"/>
    <path class="cls-2" d="M1822.5,376.97c-3.45-2.55-4.44-2.5-4.82-3.71-.58-1.82.88-4.45,3.04-5.49,2.44-1.18,5.37-.13,6.82,1.48,1.63,1.81.5,3.36,2.32,6.4,1.49,2.49,3.19,3.02,2.9,3.84-.39,1.11-3.92,1.39-6.71.13-1.22-.55-1.15-.89-3.56-2.67Z"/>
    <path class="cls-2" d="M1452.84,310.04c-2.26-.91-2.43-1.53-3.24-1.21-1.22.49-2.51,2.59-2.7,4.38-.21,2.02,1.03,3.32,2.3,3.45,1.43.15,2.14-1.25,4.36-1.55,1.82-.25,2.48.54,2.92-.02.6-.75.04-3.02-1.3-4.12-.59-.48-.78-.29-2.35-.92Z"/>
    <path class="cls-2" d="M1700.31,276.77c-1.21-.42-2.29-.09-3.66.33-1.56.48-3.16.97-4.25,2.48-1.18,1.64-1.66,4.32-.52,5.51.79.82,1.64.19,4.57.82,2.43.53,2.56,1.12,4.1,1.11,1.51,0,3.88-.59,4.49-2.21.43-1.12-.12-2.37-.59-3.46-.4-.93-.88-1.54-1.28-2.05-.92-1.17-1.66-2.12-2.86-2.53Z"/>
    <path class="cls-2" d="M1561.01,269.42c-2.19.8-3.68,1.37-4.51,2.9-.96,1.79-.55,4.01.32,5.25.22.32.45.54.69.69,1.24.82,2.38,1.1,2.99,1.22,2.56.51,2.44,2.12,4.74,2.7,2.9.73,5.66-1.19,6.33-1.65,1.03-.71,2.66-1.84,3.14-3.75.84-3.35-2.28-7.47-5.87-8.58-2.43-.75-4.68.07-7.83,1.22Z"/>
    <path class="cls-2" d="M1503.4,311.18c-1.16-1.1-1.93-1.86-1.88-2.92.06-1.24,1.22-2.27,2.3-2.66,1.27-.45,1.73.25,3.24.14,2.64-.2,3.22-2.72,5.21-2.51,1.11.12,2.16,1,2.37,1.93.13.61-.15,1.04-.96,2.58-1.47,2.8-1.15,2.53-1.65,3.26-.94,1.37-2.12,3.08-3.84,3.24-1.54.15-2.68-1.06-4.79-3.07Z"/>
    <path class="cls-2" d="M1796.74,347.84c-1.4-.79-2.89-1.61-2.8-2.61.09-1.11,1.82-2.04,3.43-2.38.59-.13,2.53-.69,4.83.12,1.96.69,5.03,2.67,4.71,4.91-.17,1.16-1.22,2.23-2.35,2.53-.76.2-1.14-.05-3.97-1.08-2.63-.96-2.91-.96-3.85-1.49Z"/>
    <path class="cls-3" d="M1671.64,519.31c-7.65-11.1-4.15-13.95-13.7-34.95-4.21-9.27-5.07-9.11-8.69-17.92-2.73-6.65-5.63-13.85-6.77-22.95-1.02-8.16-.48-14.39.32-18.47,3.63-18.42,7.87-39.95,2.59-50.87-11.07-22.92-76.23-24.24-87.8-2.27-1.64,3.12-1.37,5.12,2.59,36.29,4.07,32,4.32,34.15,3.89,38.88-2.07,22.7-13.91,39.97-16.85,44.06-13.16,18.34-19.75,27.51-25.92,32.4,0,0,0,0,0,0,0,0-4.44,3.97-4.21,5.51.15,1.02,2.53,2.18,13.29,2.48-.01.24-.19,5.33,2.91,6.91,1.89.96,4.04.14,5.18-.32,5.36-2.16,5.37-6.87,10.37-8.42.58-.18,3.54-1.1,5.18.32,1.6,1.39.3,3.55,1.62,5.18.61.76,1.44.96,2.49.93,3.16,17,7.54,38.21-1.84,65.16-3,8.61-7.02,16.72-9.07,31.1,0,0-1.85,12.95,0,46.65-4.06,15.39-2.59,18.14-2.59,18.14,2.37,4.44,17.47,10.02,12.96,7.78,0,0,17.8-5.29,34.99-1.3,6.69,1.56,6.52,2.95,12.96,3.89,9.22,1.35,17-.42,20.73-1.3,7.39-1.74,6.45-2.89,15.55-5.18,7.76-1.95,10.13-1.54,12.96-3.89,3.84-3.18,4.62-8.2,5.18-14.26,1.64-17.64,2.78-29.95-2.59-47.95-3.1-10.38-3.93-7.79-6.48-16.85-4.52-16.02-1.21-21.59-2.59-47.95-.85-16.23-2.21-16.18-2.56-30.07,1.34,0,2.92-.19,5.16-.39,5.78-.51,8.66-.76,10.69-.32,3.93.84,5.25,2.52,7.13,1.62,2-.96,1.32-3.25,3.56-5.18,2.91-2.51,6.36-.65,7.45-2.27,1.57-2.33-4.07-8.4-8.1-14.26Z"/>
  </g>
  <g>
    <g>
      <path class="cls-3" d="M1689.22,654.86c.92.36,5.14,2.11,5.45,5.03.16,1.54-.83,2.1-2.39,5.03-1.62,3.05-1.16,3.65-3.75,11.23-.38,1.11-.94,2.76-1.7,4.73-1.79,4.65-3.33,8.63-5.84,12.42-3.11,4.7-4.13,3.68-8.14,9.16-1.55,2.13-3.85,5.3-5.45,9.76-1.03,2.87-2.87,7.98-1.7,14.19,1.41,7.52,6.4,12.28,10.57,16.26,5.01,4.79,9.21,8.79,15.34,9.16,4.76.29,5.51-1.1,11.59-1.18,8.26-.12,9.08,2.99,18.71,4.56,9.14,1.49,10.61-.95,22.88.76,6.26.87,5.49,1.37,9.54,1.77,11.29,1.13,20.84-3.49,25.22-5.62,6.5-3.15,4.34-3.56,16.7-11.23,9.18-5.7,11.37-6.09,13.29-9.46,2.87-5.04,3-12.25-.34-16.26-.65-.78-1.92-2.03-3.57-4.39,0,0-.81-1.17-1.55-2.41-2.88-4.88-4.03-13.76-8.18-21.58,0,0-7.4-13.92-7.84-16.86-.01-.1-.03-.2-.03-.2-.2-1.81.46-2.86.7-3.94.26-1.12-.02-3.26-4.09-8.28"/>
      <path class="cls-4" d="M1732.53,661.67c12.84.05,15.58.11,22.66,0,14.67-.22,22.13-.36,27.89-1.51,12.52-2.51,20.88-7.98,26.58-11.72,5.64-3.69,25.52-17.09,33.12-41.19,5.05-16.02,2.17-28.82-.87-42.33-2.65-11.78-6.82-30.31-23.53-48.75-19.58-21.61-44.19-29.65-54.47-32.88-11.29-3.54-23.08-7.25-38.78-6.05-20.12,1.54-34.4,10.18-48.81,18.9-10.92,6.61-19.39,11.73-27.02,21.54-8.3,10.67-11.01,20.98-13.94,32.12-.66,2.52-3.37,13.13-3.92,27.59-.43,11.33-.73,19.05,2.18,29.1,4.89,16.89,15.19,27.84,18.74,31.37,2.42,2.4,8.28,7.92,17.43,13.23,3.61,2.09,10.59,6.08,20.05,8.69,7.44,2.06,11.04,1.77,42.71,1.89Z"/>
      <path class="cls-2" d="M1700.82,491.78c1.7,1.77,5.26,2.43,8.21,1.5,3.63-1.15,5.29-4.37,5.28-6.9,0-.47-.02-2.8-1.82-4.34-1.12-.95-1.8-.64-3.32-1.72-2.15-1.52-1.91-2.92-3.26-3.24-1.67-.4-3.72,1.37-4.64,2.45-2.18,2.55-2.39,6.26-2.39,6.26h0s-.01,3.97,1.94,6Z"/>
    </g>
    <path class="cls-2" d="M1802.16,598.37c.01-1.23.02-2.45.7-3.27,1.65-2.01,6.58-.73,9.4,0,3.95,1.02,6.22,1.61,7.31,3.6,1.21,2.22.25,4.91-.7,7.53-.73,2.03-1.1,3.04-2.09,3.93-3.53,3.16-10.25.87-13.22-.65-1.34-.69-3.46-1.77-3.49-3.28-.03-1.56,2.23-2.03,2.56-4.3.19-1.29-.48-1.52-.46-3.55Z"/>
    <path class="cls-2" d="M1714.66,582.95c2.49-2.71,2.16-6.89.35-9.56-.27-.4-2.15-3.19-4.91-3.3-1.85-.07-2.18,1.14-4.91,1.65-2.95.55-4.02-.59-5.26.33-1.42,1.05-1.42,3.58-.85,5.19.47,1.31,1.04,1.27,1.9,3.06,1.02,2.13.46,2.73,1.26,3.72,1.59,1.96,5.39,1.54,6.45,1.43,1.38-.15,4.07-.45,5.97-2.51Z"/>
    <path class="cls-2" d="M1675.53,519.77c3.45-.86,4.38-.17,5.38-1.17,1.38-1.38.97-4.11,0-5.83-1.59-2.83-5.6-4.57-9.1-3.5-3.43,1.04-4.65,4.23-4.96,5.06-.4,1.03-1.24,3.25,0,5.06.95,1.39,2.61,1.77,2.83,1.82,1.85.4,2.62-.61,5.86-1.43Z"/>
    <path class="cls-2" d="M1812.59,530.74c-1.56,1.96,0,6.31,0,6.31.12.75.95,2.67,1.18,3.22.72,1.72,1.71,1.31,2.79,3.23.95,1.7.49,2.57,1.41,3.25,1.07.79,2.73.35,3.6.14,3.21-.77,7.71-3.57,7.79-7.75.06-2.81-1.91-4.81-3-5.92-3.14-3.19-7.18-3.59-8.24-3.66-1.71-.11-4.36-.29-5.52,1.17Z"/>
    <path class="cls-2" d="M1840.43,579.37c-.93.93-2.76,2.78-3.38,5.72-.09.42-1.23,6.11,1.89,7.77,1.61.86,3.54.22,4.18,0,2.86-.96,4.68-3.67,5.08-6.18.7-4.43-2.88-9.16-5.38-8.99-.77.05-1.31.6-2.39,1.69Z"/>
    <path class="cls-2" d="M1745.39,482.76c2.06-.52,2.62-.1,3.22-.7.83-.83.58-2.46,0-3.49-.95-1.69-3.35-2.73-5.45-2.09-2.05.62-2.78,2.53-2.97,3.03-.24.62-.74,1.94,0,3.03.57.83,1.56,1.06,1.69,1.09,1.11.24,1.57-.37,3.51-.85Z"/>
    <path class="cls-2" d="M1658.78,638.43c1.79,1.09,2.46.86,2.83,1.59.52,1.03-.25,2.51-1.14,3.32-1.46,1.34-4.08,1.63-5.87.42-1.75-1.18-1.82-3.21-1.84-3.74-.02-.66-.07-2.06.99-2.88.81-.63,1.83-.56,1.96-.55,1.13.09,1.37.8,3.06,1.82Z"/>
    <path class="cls-2" d="M1733.36,534.9c1.82-1.35,1.58-3.44.26-4.78-.2-.2-1.58-1.6-3.59-1.65-1.35-.03-1.59.57-3.59.82-2.16.27-2.94-.29-3.85.16-1.04.52-1.04,1.79-.62,2.59.34.66.76.63,1.39,1.53.75,1.07.34,1.37.92,1.86,1.16.98,3.94.77,4.72.71,1.01-.08,2.98-.22,4.37-1.25Z"/>
    <path class="cls-2" d="M1778.28,634.36c0-.61-.01-1.22-.35-1.63-.83-1-3.32-.36-4.74,0-1.99.51-3.14.8-3.69,1.8-.61,1.11-.12,2.45.35,3.75.37,1.01.55,1.52,1.05,1.96,1.78,1.57,5.18.43,6.68-.33.68-.34,1.75-.88,1.76-1.63.01-.78-1.12-1.01-1.29-2.14-.1-.64.24-.76.23-1.77Z"/>
    <path class="cls-2" d="M1768.9,535.27c1.7,1.42,5.26,1.95,8.21,1.2,3.63-.92,5.29-3.51,5.28-5.54,0-.37-.02-2.24-1.82-3.48-1.12-.77-1.8-.51-3.32-1.38-2.15-1.22-1.91-2.35-3.26-2.6-1.67-.32-3.72,1.1-4.64,1.96-2.18,2.04-2.39,5.02-2.39,5.02h0s-.01,3.18,1.94,4.81Z"/>
    <path class="cls-2" d="M1635.78,584.27c1.1-1.45.96-3.68.16-5.11-.12-.21-.95-1.71-2.18-1.76-.82-.04-.97.61-2.18.88-1.31.29-1.78-.31-2.33.18-.63.56-.63,1.91-.38,2.77.21.7.46.68.84,1.63.45,1.14.2,1.46.56,1.99.71,1.05,2.39.82,2.86.76.61-.08,1.81-.24,2.65-1.34Z"/>
    <path class="cls-2" d="M1764.07,568.45c0-.45,0-.89.25-1.19.6-.73,2.4-.27,3.42,0,1.44.37,2.27.59,2.66,1.31.44.81.09,1.79-.25,2.74-.27.74-.4,1.11-.76,1.43-1.29,1.15-3.74.32-4.82-.24-.49-.25-1.26-.65-1.27-1.19-.01-.57.81-.74.93-1.57.07-.47-.18-.56-.17-1.29Z"/>
    <path class="cls-2" d="M1726.48,658.95c-3.8.52-4.84.1-5.94.7-1.53.83-1.07,2.46,0,3.49,1.76,1.69,6.18,2.73,10.05,2.09,3.78-.62,5.13-2.53,5.48-3.03.44-.62,1.37-1.94,0-3.03-1.05-.83-2.88-1.06-3.12-1.09-2.04-.24-2.89.37-6.47.85Z"/>
    <path class="cls-2" d="M1665.55,553.83c1.02,1.22,0,3.93,0,3.93-.08.46-.62,1.66-.77,2.01-.47,1.07-1.12.82-1.82,2.01-.62,1.06-.32,1.6-.92,2.03-.7.49-1.79.22-2.35.09-2.1-.48-5.04-2.22-5.09-4.83-.04-1.75,1.25-2.99,1.96-3.69,2.05-1.99,4.69-2.24,5.39-2.28,1.12-.07,2.85-.18,3.61.73Z"/>
    <path class="cls-2" d="M1690.95,635.87c-1.68,1.82-1.45,4.64-.24,6.44.18.27,1.45,2.15,3.31,2.22,1.25.05,1.47-.77,3.31-1.11,1.99-.37,2.71.39,3.55-.22.96-.71.96-2.41.57-3.49-.31-.88-.7-.85-1.28-2.06-.69-1.43-.31-1.84-.85-2.5-1.07-1.32-3.64-1.04-4.35-.96-.93.1-2.75.3-4.03,1.69Z"/>
    <path class="cls-2" d="M1807.42,641.76c0-.69.01-1.38.32-1.84.77-1.13,3.07-.41,4.39,0,1.84.58,2.9.91,3.41,2.03.57,1.25.12,2.77-.32,4.24-.34,1.14-.51,1.71-.97,2.21-1.65,1.78-4.79.49-6.17-.37-.63-.39-1.62-1-1.63-1.85-.01-.88,1.04-1.14,1.19-2.42.09-.73-.22-.86-.21-2Z"/>
    <path class="cls-2" d="M1791.41,499.68c.46.58,1.38,1.73,3.1,2.4.24.1,3.59,1.36,4.96-.02.71-.71.53-1.77.48-2.12-.26-1.57-1.71-2.82-3.2-3.32-2.63-.89-5.92.35-6.1,1.64-.06.4.22.74.76,1.42Z"/>
  </g>
  <g>
    <g>
      <path class="cls-1" d="M895.77,180.82c-.35-1.59-2.69-11.69-11.5-19.4-5.41-4.74-9.6-1.62-15.81-6.83-4.52-3.8-7.24-8.89-9.04-8.12-.69.29-1.03,1.34-.98,2.16.19,3.02,5.86,3.43,6.72,6.96.16.67.16,1.48-.83,3.85-2.2,5.25-5.41,8.71-6.47,10.06-4.64,5.96-6.87,8.47-8.06,10.02-9.75,12.68-5.33,32.6-4.35,37,1.47,6.64,2.7,12.18,7.02,17.65,1.45,1.83,8.61,10.46,10.97,14.69.89,1.6,1.51,2.72,1.97,4.43.52,1.93.38,2.95.84,3.07.57.16,1.54-1.2,4-6.02,1.72-3.36,2.83-5.8,3.23-6.65,2.37-5.02,5.05-7.95,6.83-10.24,7.5-9.67,11.64-24.33,12.57-27.66,2.91-10.33,4.69-16.64,2.87-24.97ZM884.81,212.67c-.41,0-.09-2.85-1.57-7.85-1.13-3.84-2.85-6.83-6.28-12.81,0,0-1.06-1.85-2.89-4.05-1.33-1.6-1.99-2.39-2.48-2.31-.89.15-1.67,2.79-1.49,12.73,2.14,1.94,8.2,7.96,8.68,16.95.26,4.96-1.26,9.14-1.82,9.09-.87-.07,1.21-10.24-4.71-17.94-.88-1.14-1.75-1.99-2.4-2.56-.28,2.84-.55,5.68-.83,8.52.15.45.37,1.14.66,1.98,1.27,3.72,2.22,6.11,2.51,6.92,2.06,5.64.72,12,.46,12.01-.22,0,.41-4.75-2.23-9.76-.84-1.59-1.79-2.79-2.55-3.64-.83,10.2-1.66,20.4-2.49,30.6.08-10.75.17-21.5.25-32.24-.31-.03-.78-.04-1.32.08-.71.16-1.32.51-2.15,1.24-.99.87-1.78,1.83-2.56,2.98-1.28,1.88-1.52,2.8-1.82,2.73-.42-.1-.71-2.16,0-4.05.86-2.29,2.93-3.69,5.04-5.13,1.92-1.3,2.58-1.36,3.14-2.4.58-1.07.2-1.6.25-4.38.06-3.06.57-5.3-.08-5.54-.2-.07-.33.11-1.24.25-.46.07-.78.07-.99.08,0,0-1.24.05-2.65.41-.95.24-1.61.91-3.31,3.22-1.7,2.31-2.06,3.03-3.22,4.63-.96,1.33-3.21,4.41-3.72,4.13-.48-.26.7-3.41,1.65-5.46,1.17-2.53,2.39-5.16,5.04-7.44.89-.76,2.52-1.72,5.79-3.64,1.5-.88,2.76-1.59,3.64-2.07-.19-4.16-.39-8.32-.58-12.48-2.81,1.26-4.9,2.67-6.37,3.8-1.62,1.25-2.95,2.56-5.54,5.13-3.66,3.62-4.93,5.16-5.37,4.88-.49-.31.44-2.58.91-3.72,1.59-3.9,3.59-6.62,4.55-7.85,2.35-3.04,4.58-5.93,8.43-8.43,3.24-2.1,4.76-2.07,5.95-4.13.96-1.66.83-3.45.58-7.03-.33-4.7-1.49-5.08-2.48-10.67-.11-.59-.29-1.7-1.03-2.88-.73-1.17-1.56-1.71-2.63-2.57-.94-.77-2.24-1.93-3.66-3.58,2.08,1.8,4.17,3.59,6.25,5.39,1.52,2.15,3.74,5.88,4.87,11.01.94,4.23.79,7.84.5,10.25,2.29,1.43,10.27,6.81,13.64,17.44,3.28,10.35.44,20.17-.33,20.17Z"/>
      <path class="cls-1" d="M929.39,168.43c-.75-.95-1.53-1.91-1.53-1.91-.88-1.07-1.52-1.82-1.8-2.16-2.54-3.03-3.6-5.6-4.58-7.45-3.4-6.45-9.51-11.28-11.4-12.77-3.8-3-9.84-7.78-18.38-8.47-4.61-.37-8.48.56-13.28,1.72-4.6,1.11-3.36,1.38-11.36,3.73-4.51,1.33-7.89,2.13-7.93,3.42-.02.53.56,1.07,1.1,1.28,2,.77,3.96-2.76,6.49-2.27.48.09,1.01.34,2.24,1.68,2.74,2.98,4.01,6.08,4.57,7.16,2.03,3.94,1.82,3.64,2,3.96,3.22,5.56,8.45,8.22,9.43,8.7,2.7,1.32,4.05,1.22,10.18,2.17,7.13,1.1,5.48,1.27,14.74,2.87,12.61,2.18,14.55,1.68,19.17,4.09,3.53,1.84,5.89,3.96,6.36,3.46.67-.72-3.4-5.89-6.03-9.22ZM907.42,161.52c.37.65.83,1.24,1.41,1.88.95,1.04,1.48,1.39,1.39,1.5-.14.15-1.48-.28-2.55-1.08-1.28-.97-1.79-2.23-2.31-3.5-.47-1.16-.39-1.46-.94-1.97-.57-.53-.97-.51-2.71-1.28-1.92-.84-3.23-1.66-3.5-1.44-.08.07.01.17-.07.59-.04.21-.09.35-.13.44,0,0-.19.54-.22,1.23-.02.47.28.93,1.43,2.26,1.15,1.34,1.53,1.68,2.33,2.6.66.76,2.19,2.54,1.93,2.68-.25.13-2.01-1.21-3.13-2.16-1.38-1.17-2.81-2.39-3.77-4.12-.32-.58-.63-1.53-1.24-3.42-.28-.87-.5-1.59-.64-2.09-2.65-1.03-5.3-2.06-7.95-3.09.29,1.53.79,2.79,1.24,3.71.5,1.02,1.08,1.93,2.22,3.71,1.61,2.52,2.35,3.47,2.1,3.58-.28.12-1.54-.88-2.17-1.38-2.16-1.72-3.51-3.29-4.12-4.02-1.49-1.81-2.9-3.52-3.78-5.82-.74-1.93-.44-2.57-1.53-3.62-.87-.85-2.02-1.27-4.31-2.12-3.01-1.11-3.46-.73-7.15-1.8-.39-.11-1.12-.33-2-.33-.87,0-1.36.21-2.09.43-.65.19-1.61.43-2.91.59,1.5-.4,3.01-.81,4.51-1.21,1.62-.07,4.37-.01,7.79.88,2.82.73,5.07,1.76,6.53,2.53,1.31-.59,6.13-2.53,13.42-1.12,7.09,1.38,12.76,5.2,12.62,5.53-.08.18-1.81-.72-5.22-1.43-2.61-.54-4.8-.62-9.18-.76,0,0-1.36-.05-3.07.14-1.24.14-1.86.21-1.9.43-.07.42,1.45,1.45,7.73,4.03,1.61-.39,6.48-1.35,12.21.85,3.16,1.21,5.52,2.97,5.39,3.2-.2.35-6.22-3.25-12.12-2.8-.88.07-1.57.21-2.04.33,1.73.87,3.47,1.75,5.2,2.62.31.06.78.15,1.37.25,2.57.46,4.24.69,4.8.78,3.91.63,7.67,2.9,7.63,3.01-.04.1-2.91-1.44-6.53-1.66-1.15-.07-2.08,0-2.75.11,6.26,3.08,12.52,6.15,18.78,9.23-6.74-2.91-13.48-5.81-20.22-8.72-.08.13-.17.32-.19.58-.02.35.08.7.39,1.24Z"/>
    </g>
    <g>
      <path class="cls-1" d="M740.22,194.72c-1.01-.39-7.49-2.79-14.62-1.11-4.38,1.03-3.91,4.23-8.8,5.49-3.57.92-7.31.48-7.44,1.65-.05.45.44.99.93,1.26,1.78.97,3.78-1.72,6.05-.9.43.16.89.44,1.93,1.78,2.31,2.96,3.27,5.79,3.71,6.8,1.95,4.43,2.69,6.44,3.2,7.58,4.18,9.36,16.9,14.2,19.71,15.27,4.24,1.61,7.77,2.96,12.23,2.73,1.49-.08,8.63-.61,11.77-.29,1.18.12,2.02.21,3.14.58,1.26.42,1.8.85,2.01.67.27-.23-.21-1.19-2.18-4.13-1.38-2.05-2.42-3.47-2.78-3.97-2.12-2.96-2.95-5.34-3.7-7.04-3.17-7.18-10.23-14.43-11.83-16.08-4.97-5.11-8.01-8.24-13.32-10.28ZM754.94,211.47c-.13.21-1.65-.96-4.96-1.99-2.54-.79-4.77-.99-9.25-1.39,0,0-1.39-.12-3.21.01-1.32.1-1.98.15-2.09.42-.2.5,1.07,1.82,6.78,5.25,1.77-.38,7.08-1.29,12.35,1.65,2.9,1.62,4.81,3.86,4.61,4.13-.31.41-5.45-4.23-11.68-3.99-.92.04-1.68.17-2.2.29,1.53,1.14,3.06,2.29,4.59,3.43.3.09.77.22,1.34.37,2.51.68,4.17,1.05,4.72,1.19,3.85.96,7.06,3.89,6.98,4.02-.07.11-2.57-1.88-6.25-2.34-1.16-.14-2.15-.09-2.87-.01,5.55,4.02,11.09,8.05,16.64,12.07-6.09-3.85-12.18-7.69-18.28-11.54-.12.15-.27.38-.36.69-.13.42-.12.84.04,1.51.19.8.49,1.54.9,2.34.67,1.3,1.12,1.75.99,1.88-.19.18-1.45-.41-2.31-1.43-1.04-1.24-1.19-2.77-1.35-4.34-.14-1.42.03-1.77-.39-2.42-.43-.67-.85-.67-2.42-1.68-1.73-1.11-2.84-2.16-3.18-1.92-.11.08-.04.21-.24.71-.1.25-.2.42-.26.53,0,0-.36.64-.59,1.47-.16.56.02,1.13.81,2.8.79,1.67,1.08,2.1,1.63,3.25.45.95,1.51,3.17,1.2,3.32-.3.15-1.72-1.56-2.59-2.76-1.07-1.48-2.19-3.02-2.67-5.16-.16-.71-.2-1.87-.27-4.18-.03-1.06-.04-1.94-.04-2.55-2.43-1.38-4.86-2.75-7.29-4.13-.16,1.86,0,3.4.18,4.53.21,1.25.54,2.38,1.19,4.59.92,3.11,1.4,4.29,1.1,4.42-.33.13-1.33-1.13-1.83-1.77-1.72-2.18-2.65-4.14-3.06-5.06-1-2.25-1.95-4.39-2.18-7.2-.19-2.36.3-3.11-.5-4.44-.64-1.07-1.7-1.64-3.82-2.78-2.78-1.5-3.35-1.05-6.84-2.53-.37-.16-1.06-.46-1.96-.5-.89-.05-1.46.18-2.28.41-.73.2-1.79.44-3.18.56,1.67-.41,3.34-.81,5.01-1.22,1.7,0,4.51.21,7.78,1.46,2.7,1.03,4.71,2.38,5.99,3.38,1.53-.64,7.07-2.73,14.17-.65,6.91,2.02,11.62,6.92,11.38,7.3Z"/>
      <path class="cls-1" d="M743.63,173.51c-.77.04-1.56.09-1.56.09-.88.06-1.51.12-1.79.14-2.51.2-4.31-.18-5.66-.34-4.73-.58-9.38.77-10.81,1.18-2.89.84-7.49,2.17-10.54,6.2-1.64,2.17-2.32,4.44-3.15,7.25-.8,2.69-.26,2.17-1.41,7-.65,2.72-1.24,4.7-.52,5.18.3.2.78.1,1.07-.1,1.06-.73-.34-2.96.73-4.05.2-.21.5-.38,1.65-.53,2.55-.32,4.71.14,5.5.25,2.87.37,2.64.38,2.88.4,4.17.36,7.31-1.32,7.89-1.64,1.59-.88,1.96-1.6,4.4-4.33,2.85-3.18,2.43-2.29,6.22-6.36,5.16-5.54,5.49-6.69,8.29-8.15,2.15-1.11,4.09-1.54,3.95-1.96-.2-.59-4.41-.38-7.13-.25ZM732.86,182.06c.49.05.97.03,1.51-.04.89-.11,1.25-.25,1.29-.16.04.12-.62.64-1.41.89-.95.3-1.83.11-2.71-.08-.81-.17-.95-.32-1.41-.23-.48.1-.59.31-1.57.9-1.08.66-1.95,1.03-1.91,1.24.01.06.1.05.32.24.11.1.17.17.21.22,0,0,.25.29.63.54.26.17.62.19,1.73.08,1.12-.1,1.43-.17,2.21-.24.64-.06,2.13-.2,2.13-.02,0,.17-1.31.58-2.2.8-1.09.27-2.24.56-3.52.43-.43-.04-1.06-.23-2.34-.59-.58-.17-1.06-.31-1.39-.42l-4.23,2.88c.96.4,1.83.59,2.5.69.74.11,1.44.14,2.81.2,1.93.08,2.71.05,2.69.22-.02.18-.98.46-1.46.6-1.65.47-2.97.59-3.57.64-1.49.11-2.91.21-4.49-.17-1.33-.31-1.6-.69-2.54-.52-.75.13-1.35.56-2.55,1.41-1.57,1.11-1.49,1.47-3.25,2.94-.19.16-.54.44-.81.88-.27.43-.3.75-.41,1.2-.09.39-.25.96-.57,1.67.24-.9.48-1.79.72-2.69.47-.84,1.35-2.19,2.92-3.59,1.3-1.15,2.58-1.91,3.47-2.37.07-.86.47-3.96,3.54-7.11,2.99-3.06,6.93-4.54,7.07-4.36.08.1-.97.65-2.44,2.1-1.12,1.12-1.85,2.19-3.29,4.33,0,0-.45.66-.87,1.59-.31.67-.46,1.01-.35,1.1.22.18,1.28-.21,4.7-2.44.28-.94,1.25-3.72,4.28-5.81,1.67-1.15,3.41-1.71,3.5-1.56.14.22-3.78,1.96-5.36,5.08-.23.46-.37.86-.45,1.14l3.11-1.67c.13-.13.33-.34.57-.6,1.06-1.12,1.71-1.88,1.94-2.13,1.58-1.73,4.04-2.81,4.09-2.75.04.05-1.72.95-2.98,2.68-.4.55-.64,1.04-.79,1.41,3.7-2.04,7.4-4.09,11.1-6.13-3.75,2.34-7.5,4.69-11.25,7.03.05.08.13.2.27.3.19.13.42.2.83.24Z"/>
    </g>
    <g>
      <path class="cls-1" d="M782.71,180.02c1.24-.12,9.12-.97,15.58-6.34,3.97-3.3,1.85-6.35,6.23-10.15,3.19-2.77,7.26-4.23,6.79-5.5-.18-.48-.96-.79-1.59-.82-2.32-.09-3,3.7-5.75,4.02-.52.06-1.15,0-2.89-.83-3.88-1.86-6.32-4.27-7.29-5.08-4.27-3.55-6.05-5.24-7.16-6.15-9.09-7.47-24.62-5.94-28.05-5.6-5.18.51-9.49.94-13.96,3.45-1.5.84-8.55,5.04-11.94,6.32-1.28.48-2.18.82-3.52,1.01-1.51.21-2.28.04-2.41.35-.16.38.82,1.12,4.36,3.13,2.46,1.4,4.26,2.33,4.88,2.66,3.69,1.96,5.77,3.97,7.41,5.33,6.93,5.75,17.89,9.58,20.38,10.46,7.72,2.71,12.44,4.36,18.93,3.73ZM759.03,170.35c.03-.28,2.19.14,6.11-.49,3.01-.49,5.41-1.43,10.21-3.3,0,0,1.49-.58,3.28-1.66,1.31-.78,1.96-1.17,1.93-1.5-.05-.61-2.03-1.33-9.65-1.92-1.62,1.3-6.61,4.95-13.52,4.62-3.81-.18-6.92-1.51-6.85-1.88.11-.58,7.76,1.55,14.03-1.88.93-.51,1.63-1.03,2.11-1.43-2.16-.39-4.31-.78-6.47-1.17-.35.07-.9.17-1.56.3-2.93.58-4.82,1.05-5.46,1.19-4.45.98-9.24-.38-9.22-.55.01-.15,3.61.62,7.61-.8,1.27-.45,2.25-1,2.95-1.46-7.75-1.29-15.51-2.59-23.26-3.88,8.22.83,16.44,1.66,24.67,2.49.04-.21.08-.52.02-.9-.08-.49-.31-.93-.81-1.54-.6-.73-1.29-1.33-2.12-1.94-1.36-1-2.04-1.23-1.97-1.42.1-.28,1.7-.32,3.1.29,1.7.74,2.64,2.24,3.6,3.76.88,1.39.88,1.84,1.64,2.29.78.47,1.21.25,3.34.48,2.34.26,4.02.77,4.25.34.07-.13-.07-.23-.11-.85-.02-.31,0-.53,0-.67,0,0,.04-.84-.15-1.81-.13-.66-.6-1.15-2.26-2.46-1.66-1.31-2.19-1.6-3.34-2.5-.95-.74-3.17-2.48-2.93-2.8.23-.3,2.56.72,4.07,1.51,1.86.97,3.8,1.98,5.38,3.93.53.65,1.16,1.82,2.42,4.16.58,1.07,1.04,1.97,1.35,2.6,3.2.17,6.4.34,9.59.51-.79-1.98-1.73-3.49-2.51-4.56-.86-1.18-1.77-2.17-3.57-4.1-2.54-2.72-3.64-3.69-3.39-3.97.27-.3,1.95.48,2.79.88,2.88,1.35,4.84,2.9,5.72,3.63,2.18,1.8,4.25,3.51,5.92,6.28,1.4,2.33,1.28,3.35,2.79,4.3,1.21.76,2.59.81,5.34.9,3.62.12,3.98-.63,8.32-.9.46-.03,1.32-.07,2.27-.49.94-.41,1.41-.93,2.14-1.59.65-.58,1.62-1.37,2.97-2.2l-4.52,3.82c-1.74.87-4.74,2.09-8.73,2.49-3.29.33-6.05-.04-7.88-.41-1.24,1.44-5.87,6.42-14.22,7.92-8.13,1.46-15.47-1.16-15.42-1.68Z"/>
      <path class="cls-1" d="M790.06,203.54c.77-.43,1.56-.89,1.56-.89.88-.51,1.49-.89,1.76-1.05,2.48-1.49,4.51-2.02,5.99-2.54,5.15-1.83,9.23-5.59,10.5-6.75,2.54-2.34,6.58-6.06,7.65-11.76.58-3.07.11-5.75-.47-9.06-.56-3.18-.84-2.36-2.13-7.91-.73-3.13-1.13-5.46-2.12-5.58-.4-.05-.85.3-1.05.65-.72,1.29,1.87,2.86,1.33,4.53-.1.32-.32.65-1.43,1.39-2.45,1.63-4.91,2.26-5.77,2.56-3.14,1.09-2.91.96-3.16,1.06-4.46,1.77-6.83,5.09-7.26,5.72-1.18,1.72-1.19,2.64-2.3,6.7-1.3,4.72-1.32,3.6-3.13,9.71-2.47,8.33-2.21,9.67-4.34,12.6-1.63,2.24-3.41,3.68-3.05,4.03.51.5,4.73-1.87,7.44-3.39ZM796.74,189.25c-.52.2-1,.47-1.53.81-.86.56-1.16.9-1.24.83-.11-.1.3-.98.99-1.64.83-.79,1.82-1.05,2.83-1.3.92-.23,1.14-.16,1.57-.49.44-.34.45-.62,1.15-1.73.77-1.23,1.47-2.05,1.33-2.25-.05-.06-.13,0-.45-.09-.16-.04-.26-.09-.33-.12,0,0-.4-.17-.93-.23-.36-.05-.73.12-1.82.8-1.09.67-1.38.91-2.14,1.38-.63.39-2.08,1.29-2.17,1.1-.09-.18,1.05-1.27,1.85-1.95.98-.84,2.01-1.72,3.4-2.24.46-.17,1.21-.31,2.7-.59.69-.13,1.25-.22,1.64-.28l2.87-5.13c-1.19.08-2.18.33-2.92.57-.81.26-1.55.59-2.98,1.23-2.03.91-2.8,1.33-2.87,1.15-.08-.2.77-.97,1.19-1.36,1.45-1.33,2.74-2.13,3.34-2.48,1.48-.87,2.88-1.7,4.7-2.13,1.52-.36,1.99-.11,2.87-.77.7-.52,1.1-1.27,1.9-2.75,1.04-1.95.78-2.27,1.83-4.68.11-.25.32-.73.38-1.32.06-.58-.07-.93-.19-1.44-.11-.45-.23-1.12-.27-2,.21,1.04.43,2.08.64,3.12-.05,1.1-.27,2.94-1.16,5.18-.74,1.85-1.67,3.29-2.35,4.21.37.93,1.55,4.31,0,9.11-1.5,4.67-4.79,8.21-5.03,8.09-.13-.06.67-1.16,1.43-3.41.58-1.72.78-3.19,1.17-6.13,0,0,.12-.91.08-2.07-.03-.85-.04-1.27-.21-1.31-.31-.08-1.2.87-3.58,4.91.2,1.11.62,4.46-1.43,8.16-1.13,2.04-2.63,3.5-2.79,3.4-.25-.16,2.88-3.95,2.91-7.96,0-.59-.06-1.07-.12-1.4l-2.34,3.31c-.06.2-.16.52-.28.9-.51,1.7-.8,2.8-.91,3.18-.73,2.59-2.71,4.96-2.79,4.92-.07-.03,1.29-1.85,1.69-4.28.13-.77.12-1.4.09-1.86-2.75,3.99-5.5,7.98-8.25,11.97,2.65-4.33,5.3-8.65,7.95-12.98-.09-.06-.23-.14-.43-.17-.26-.04-.54,0-.98.17Z"/>
    </g>
    <g>
      <path class="cls-1" d="M679.38,212.82c-.57-.87-4.23-6.35-10.76-9.02-4.01-1.65-5.49,1.11-10.03-.65-3.31-1.28-5.98-3.71-6.75-2.87-.29.32-.23,1.02,0,1.49.82,1.75,3.94.77,5.24,2.68.25.36.44.84.48,2.46.09,3.59-.79,6.32-1.02,7.35-1.04,4.53-1.62,6.5-1.88,7.67-2.13,9.61,4.99,20.46,6.56,22.86,2.37,3.62,4.35,6.63,7.96,8.95,1.21.78,7.08,4.35,9.35,6.35.85.75,1.46,1.29,2.11,2.2.74,1.03.91,1.66,1.18,1.64.34-.03.53-1.04.68-4.43.11-2.36.11-4.05.12-4.63.06-3.48.78-5.8,1.17-7.53,1.66-7.34.34-16.92.04-19.09-.93-6.75-1.5-10.87-4.46-15.41ZM681.2,234.05c-.22.09-.73-1.67-2.72-4.32-1.52-2.03-3.15-3.43-6.41-6.24,0,0-1.01-.87-2.51-1.78-1.09-.66-1.63-.99-1.87-.84-.44.28-.22,2.01,2.26,7.86,1.6.69,6.26,2.95,8.67,8.18,1.33,2.88,1.52,5.69,1.22,5.78-.48.15-1.81-6.33-6.8-9.62-.74-.49-1.41-.8-1.89-1,.53,1.74,1.07,3.48,1.6,5.22.19.23.47.6.83,1.03,1.57,1.93,2.64,3.14,2.99,3.56,2.45,2.9,3.26,6.96,3.13,7.02-.12.05-.92-2.9-3.52-5.3-.82-.76-1.62-1.27-2.23-1.61,2,6.22,4.01,12.44,6.01,18.66-2.53-6.39-5.07-12.77-7.6-19.16-.17.05-.43.14-.68.33-.34.25-.58.59-.84,1.2-.32.73-.51,1.47-.65,2.31-.23,1.39-.14,1.98-.31,2.01-.25.03-.89-1.13-.97-2.4-.09-1.54.67-2.82,1.45-4.12.71-1.19,1.04-1.36,1.09-2.1.05-.76-.28-.99-.92-2.65-.7-1.83-.97-3.26-1.37-3.26-.13,0-.15.14-.6.41-.23.14-.4.21-.51.26,0,0-.65.3-1.31.81-.45.35-.64.89-.98,2.62-.35,1.73-.37,2.24-.6,3.44-.19.99-.65,3.3-.98,3.25-.32-.05-.44-2.17-.43-3.59.02-1.75.03-3.57.89-5.49.29-.64.93-1.56,2.2-3.4.59-.84,1.09-1.53,1.44-2.01l-3.3-7.27c-1.19,1.35-1.96,2.63-2.47,3.62-.56,1.09-.95,2.15-1.71,4.23-1.07,2.93-1.38,4.12-1.68,4.05-.33-.08-.38-1.62-.41-2.4-.09-2.65.32-4.69.53-5.63.52-2.31,1.01-4.5,2.46-6.81,1.21-1.94,2.03-2.25,2.17-3.73.11-1.19-.38-2.22-1.38-4.29-1.3-2.71-2.01-2.69-3.87-5.79-.2-.33-.56-.94-1.24-1.49-.67-.54-1.24-.68-2.01-.96-.68-.25-1.65-.66-2.8-1.34l4.61,1.85c1.32.95,3.39,2.68,5.23,5.47,1.51,2.3,2.3,4.48,2.72,5.97,1.56.36,7.09,1.83,11.43,7.41,4.22,5.43,5.07,11.86,4.66,12.02Z"/>
      <path class="cls-1" d="M694.26,198.26c-.62-.4-1.27-.8-1.27-.8-.72-.45-1.24-.75-1.47-.89-2.08-1.25-3.25-2.54-4.22-3.43-3.35-3.09-7.75-4.64-9.11-5.12-2.74-.96-7.09-2.5-11.79-1.07-2.54.77-4.37,2.16-6.64,3.87-2.18,1.65-1.45,1.54-5.14,4.65-2.07,1.75-3.68,2.96-3.39,3.73.12.32.55.51.89.52,1.25.03,1.44-2.49,2.9-2.74.28-.05.61-.02,1.59.51,2.17,1.18,3.59,2.74,4.14,3.26,2.02,1.89,1.84,1.77,2.01,1.92,3.05,2.6,6.46,3.06,7.1,3.13,1.75.2,2.44-.15,5.93-.9,4.05-.88,3.21-.43,8.51-1.47,7.22-1.42,8.13-2.13,11.16-1.7,2.31.33,4.08,1.08,4.21.69.18-.57-3.22-2.76-5.41-4.17ZM680.94,198.89c.35.31.74.56,1.2.81.76.41,1.12.51,1.1.59-.04.12-.85.16-1.61-.09-.91-.3-1.49-.93-2.07-1.58-.53-.59-.56-.78-.97-.97-.43-.19-.64-.09-1.74-.17-1.22-.09-2.11-.29-2.2-.1-.03.06.05.1.11.36.03.13.03.23.04.29,0,0,.03.36.18.78.1.28.37.49,1.3,1.03.93.55,1.22.67,1.86,1.04.53.31,1.77,1.03,1.67,1.17-.1.13-1.36-.28-2.18-.61-1.01-.4-2.07-.81-2.99-1.63-.31-.27-.7-.77-1.48-1.76-.36-.46-.65-.84-.84-1.1l-4.96-.12c.52.84,1.09,1.48,1.55,1.93.51.5,1.04.91,2.07,1.72,1.46,1.14,2.08,1.55,1.97,1.67-.12.13-1.03-.19-1.48-.35-1.56-.55-2.65-1.19-3.15-1.5-1.22-.75-2.39-1.46-3.4-2.64-.85-.99-.85-1.43-1.68-1.82-.66-.32-1.38-.32-2.8-.33-1.87-.01-2.01.31-4.23.47-.23.02-.67.04-1.14.23-.46.19-.67.41-1.01.7-.3.26-.75.6-1.4.98.7-.56,1.4-1.12,2.11-1.69.85-.39,2.32-.95,4.35-1.16,1.68-.17,3.11-.05,4.07.09.56-.63,2.65-2.82,6.86-3.55,4.1-.71,8.02.34,8.03.56,0,.12-1.13-.04-3.11.27-1.52.24-2.7.67-5.06,1.52,0,0-.73.26-1.59.74-.63.35-.94.52-.91.66.06.26,1.12.55,5.07.73.76-.58,3.12-2.19,6.69-2.12,1.97.04,3.64.58,3.63.74-.02.25-4.08-.59-7.11.95-.45.23-.78.46-1.01.63l3.39.44c.18-.03.45-.08.79-.15,1.47-.28,2.42-.5,2.74-.57,2.23-.47,4.77.07,4.77.14,0,.06-1.89-.23-3.87.42-.63.21-1.1.45-1.43.65,4.06.48,8.12.95,12.18,1.43-4.28-.27-8.55-.55-12.83-.82-.01.09-.01.23.04.39.07.21.21.39.51.65Z"/>
    </g>
    <g>
      <path class="cls-1" d="M654.25,50.36c-.49-.69-3.67-5.04-9.75-6.88-3.74-1.13-5.32,1.25-9.56.06-3.09-.87-5.5-2.73-6.29-1.99-.3.28-.28.86-.09,1.24.68,1.41,3.72.41,4.85,1.92.21.29.37.68.32,2.02-.12,2.98-1.13,5.32-1.42,6.19-1.26,3.83-1.94,5.51-2.25,6.5-2.62,8.13,3.55,16.76,4.91,18.66,2.06,2.87,3.77,5.27,7.08,6.98,1.11.57,6.52,3.2,8.56,4.73.77.58,1.32.99,1.89,1.71.64.81.77,1.33,1.04,1.3.33-.05.57-.9.91-3.73.24-1.97.35-3.38.39-3.87.26-2.91,1.09-4.88,1.57-6.35,2.03-6.22,1.34-14.12,1.18-15.92-.49-5.57-.79-8.97-3.35-12.58ZM654.72,67.94c-.22.09-.6-1.35-2.34-3.44-1.34-1.6-2.81-2.67-5.76-4.82,0,0-.91-.66-2.29-1.33-1-.48-1.5-.73-1.74-.59-.44.26-.33,1.69,1.7,6.42,1.49.48,5.82,2.09,7.81,6.3,1.1,2.32,1.12,4.65.82,4.74-.47.15-1.36-5.17-5.94-7.61-.68-.36-1.3-.59-1.75-.72.41,1.42.81,2.84,1.22,4.26.16.18.42.47.73.81,1.38,1.52,2.34,2.46,2.65,2.79,2.17,2.27,2.71,5.6,2.57,5.66-.12.05-.71-2.36-3.06-4.21-.74-.58-1.47-.96-2.04-1.21,1.55,5.07,3.09,10.13,4.64,15.2-2.04-5.17-4.09-10.34-6.13-15.51-.17.05-.42.14-.67.32-.34.23-.59.52-.88,1.05-.35.63-.57,1.25-.76,1.97-.3,1.17-.25,1.66-.42,1.69-.24.04-.79-.88-.79-1.94,0-1.28.81-2.39,1.63-3.52.75-1.03,1.08-1.2,1.17-1.81.09-.63-.21-.81-.72-2.15-.57-1.48-.73-2.66-1.12-2.64-.12,0-.15.12-.6.38-.23.13-.39.2-.5.25,0,0-.64.29-1.3.76-.45.32-.66.78-1.1,2.24-.44,1.46-.48,1.89-.78,2.9-.25.84-.82,2.79-1.14,2.77-.3-.02-.3-1.78-.2-2.97.12-1.46.25-2.98,1.18-4.63.31-.55.98-1.36,2.31-2.96.61-.74,1.13-1.34,1.49-1.76l-2.72-5.86c-1.22,1.2-2.04,2.31-2.58,3.17-.6.94-1.04,1.85-1.89,3.63-1.2,2.51-1.57,3.51-1.85,3.47-.31-.05-.27-1.33-.25-1.98.07-2.21.59-3.93.84-4.72.63-1.95,1.23-3.81,2.76-5.82,1.28-1.69,2.08-1.99,2.3-3.24.18-1-.24-1.83-1.06-3.49-1.09-2.18-1.76-2.12-3.36-4.59-.17-.26-.48-.75-1.1-1.16-.61-.41-1.15-.49-1.87-.68-.64-.17-1.54-.45-2.6-.95l4.3,1.27c1.21.71,3.09,2.03,4.67,4.25,1.31,1.83,1.93,3.59,2.25,4.81,1.47.2,6.67,1.1,10.49,5.49,3.72,4.27,4.14,9.58,3.74,9.74Z"/>
      <path class="cls-1" d="M669.36,37.33c-.57-.3-1.17-.59-1.17-.59-.67-.33-1.14-.55-1.36-.65-1.91-.92-2.96-1.92-3.83-2.61-3.03-2.37-7.14-3.4-8.41-3.72-2.56-.64-6.63-1.66-11.22-.18-2.47.79-4.31,2.06-6.58,3.62-2.18,1.5-1.48,1.37-5.19,4.18-2.09,1.59-3.7,2.68-3.47,3.31.09.26.5.39.82.38,1.19-.05,1.52-2.16,2.94-2.46.27-.06.59-.05,1.49.33,2,.85,3.27,2.07,3.77,2.47,1.82,1.46,1.66,1.36,1.81,1.48,2.76,1.99,6,2.16,6.6,2.19,1.66.06,2.35-.27,5.73-1.11,3.93-.98,3.1-.55,8.23-1.73,6.99-1.61,7.91-2.26,10.78-2.08,2.2.14,3.84.66,3.98.32.21-.49-2.92-2.11-4.93-3.15ZM656.57,38.65c.32.23.67.42,1.1.6.7.3,1.04.36,1.01.43-.04.1-.83.18-1.54.02-.86-.2-1.37-.69-1.89-1.19-.47-.46-.49-.62-.87-.75-.4-.13-.61-.04-1.66-.04-1.16,0-2-.11-2.1.04-.03.05.04.08.08.3.02.11.02.19.02.24,0,0,0,.3.13.64.08.23.33.38,1.18.78.86.4,1.12.48,1.72.76.49.23,1.64.75,1.52.88-.1.12-1.28-.15-2.05-.37-.94-.27-1.93-.55-2.76-1.18-.28-.21-.62-.6-1.31-1.38-.32-.36-.57-.66-.74-.87l-4.74.19c.45.67.95,1.17,1.37,1.52.46.38.94.7,1.88,1.31,1.33.87,1.9,1.17,1.79,1.27-.12.12-.97-.1-1.4-.2-1.46-.37-2.47-.84-2.93-1.06-1.13-.55-2.2-1.08-3.1-2-.76-.77-.73-1.14-1.5-1.42-.62-.22-1.3-.19-2.66-.11-1.79.1-1.94.38-4.07.64-.23.03-.65.08-1.1.26-.45.18-.67.38-1.01.65-.3.23-.76.55-1.4.9.71-.51,1.41-1.02,2.12-1.53.83-.38,2.27-.93,4.23-1.22,1.61-.24,2.98-.22,3.89-.16.57-.56,2.7-2.51,6.77-3.36,3.96-.84,7.66-.19,7.65,0,0,.1-1.08.03-3,.41-1.47.29-2.62.72-4.93,1.57,0,0-.72.26-1.57.72-.62.33-.93.49-.91.61.04.21,1.04.39,4.81.3.76-.52,3.11-2.01,6.53-2.17,1.88-.09,3.45.26,3.43.4-.04.21-3.87-.25-6.86,1.21-.44.22-.78.43-1,.59l3.22.16c.17-.04.44-.1.76-.17,1.43-.32,2.34-.56,2.65-.64,2.16-.52,4.56-.23,4.56-.16,0,.05-1.79-.08-3.73.58-.61.21-1.08.44-1.41.63,3.86.16,7.72.31,11.57.47-4.07.03-8.15.05-12.22.08-.02.08-.03.19.02.32.05.17.18.32.45.51Z"/>
    </g>
    <g>
      <path class="cls-1" d="M603.77,18.22c.76.16,5.62,1.23,9.33,5.24,2.28,2.47.78,4.38,3.28,7.2,1.83,2.06,4.27,3.3,3.91,4.12-.14.31-.65.47-1.04.45-1.45-.09-1.65-2.67-3.35-3.06-.32-.07-.71-.07-1.85.38-2.53,1-4.19,2.47-4.84,2.95-2.86,2.12-4.08,3.13-4.82,3.67-6.1,4.44-15.68,2.43-17.79,1.98-3.19-.67-5.86-1.23-8.49-3.2-.88-.66-5.03-3.93-7.06-5-.77-.4-1.31-.69-2.13-.9-.93-.24-1.42-.17-1.48-.38-.07-.26.58-.7,2.9-1.82,1.62-.78,2.79-1.29,3.2-1.47,2.41-1.08,3.83-2.3,4.92-3.11,4.65-3.42,11.7-5.3,13.3-5.73,4.97-1.33,8-2.14,12.01-1.31ZM588.45,23.22c0,.19,1.37.04,3.78.72,1.84.52,3.28,1.3,6.16,2.86,0,0,.89.48,1.95,1.32.77.61,1.15.91,1.11,1.13-.07.41-1.34.76-6.12.68-.93-.98-3.83-3.74-8.15-3.96-2.38-.12-4.4.57-4.37.83.03.4,4.93-.55,8.63,2.15.55.4.96.8,1.23,1.09-1.37.13-2.73.25-4.1.38-.22-.07-.55-.17-.95-.3-1.79-.58-2.94-1.01-3.33-1.15-2.71-.94-5.77-.33-5.78-.21,0,.1,2.28-.19,4.69,1.02.76.38,1.34.81,1.75,1.16-4.91.38-9.81.76-14.72,1.13,5.17-.04,10.34-.08,15.51-.11.01.14.02.36-.04.6-.08.33-.25.6-.6.98-.42.45-.88.81-1.43,1.17-.9.58-1.34.69-1.31.83.05.19,1.04.32,1.95,0,1.1-.39,1.78-1.34,2.47-2.3.63-.88.65-1.18,1.15-1.43.51-.26.77-.09,2.11-.11,1.47-.03,2.55-.26,2.66.04.04.09-.05.15-.12.57-.03.21-.04.36-.04.45,0,0-.02.56-.2,1.21-.12.43-.44.73-1.55,1.51-1.11.77-1.46.94-2.23,1.47-.64.44-2.12,1.46-1.99,1.7.13.22,1.64-.32,2.62-.75,1.21-.53,2.48-1.09,3.58-2.3.37-.4.83-1.15,1.75-2.64.42-.68.76-1.26.99-1.66,2,.09,4,.18,6,.26-.61,1.28-1.28,2.23-1.83,2.9-.6.74-1.23,1.34-2.47,2.52-1.74,1.67-2.48,2.25-2.35,2.45.15.22,1.24-.2,1.79-.41,1.88-.73,3.18-1.64,3.78-2.07,1.46-1.07,2.85-2.09,4.06-3.84,1.01-1.47.99-2.17,1.99-2.71.8-.44,1.66-.38,3.38-.26,2.26.15,2.44.68,5.13,1.13.28.05.82.13,1.39.47.56.33.82.71,1.24,1.2.37.43.93,1.02,1.72,1.67l-2.59-2.85c-1.03-.69-2.83-1.7-5.29-2.22-2.03-.43-3.77-.36-4.93-.23-.69-1.04-3.28-4.68-8.39-6.22-4.98-1.49-9.7-.2-9.7.15Z"/>
      <path class="cls-1" d="M609.72,2.91c.46.34.92.7.92.7.52.4.87.69,1.04.82,1.46,1.16,2.69,1.64,3.58,2.09,3.1,1.55,5.42,4.33,6.14,5.19,1.45,1.73,3.74,4.48,4.07,8.38.18,2.1-.27,3.86-.83,6.05-.53,2.1-.66,1.53-1.79,5.17-.64,2.05-1.02,3.59-1.65,3.61-.25,0-.51-.26-.61-.5-.37-.91,1.33-1.8,1.09-2.96-.05-.22-.16-.46-.81-1.02-1.43-1.25-2.92-1.83-3.45-2.08-1.89-.93-1.75-.83-1.9-.91-2.68-1.47-3.96-3.85-4.19-4.3-.64-1.23-.59-1.85-1.04-4.64-.53-3.25-.61-2.5-1.38-6.71-1.05-5.74-.81-6.63-1.97-8.73-.89-1.61-1.91-2.68-1.67-2.9.35-.31,2.83,1.55,4.44,2.75ZM613.05,12.92c-.31-.17-.6-.38-.9-.64-.5-.43-.67-.68-.72-.63-.07.06.13.68.52,1.16.47.58,1.07.82,1.69,1.05.56.22.7.18.95.43.25.26.25.44.61,1.23.41.87.8,1.47.69,1.59-.03.04-.08,0-.28.03-.1.02-.17.04-.21.06,0,0-.26.09-.59.1-.23,0-.45-.13-1.09-.65-.64-.52-.81-.7-1.25-1.06-.37-.3-1.22-1-1.29-.88-.06.11.58.92,1.04,1.43.56.63,1.15,1.28,1.98,1.72.28.15.73.29,1.65.57.42.13.77.23,1.01.29l1.49,3.62c-.74-.13-1.34-.36-1.79-.57-.49-.23-.93-.49-1.79-1.01-1.21-.74-1.67-1.07-1.72-.96-.06.13.42.7.66.99.83.99,1.58,1.6,1.94,1.88.87.68,1.69,1.32,2.8,1.72.93.34,1.23.2,1.74.7.41.4.61.92,1.02,1.96.54,1.37.35,1.58.86,3.26.05.18.16.51.16.91,0,.39-.1.62-.21.95-.09.3-.21.74-.29,1.33.19-.69.39-1.37.58-2.06.03-.74,0-1.99-.42-3.55-.35-1.29-.85-2.31-1.22-2.98.28-.6,1.22-2.79.54-6.11-.66-3.23-2.5-5.81-2.66-5.75-.08.03.35.82.69,2.38.26,1.19.3,2.19.37,4.18,0,0,.02.62-.07,1.4-.07.57-.1.85-.21.87-.2.03-.7-.66-1.94-3.52.19-.73.65-2.95-.41-5.56-.58-1.44-1.43-2.51-1.54-2.46-.17.09,1.56,2.83,1.34,5.52-.03.4-.1.71-.16.93l-1.26-2.37c-.03-.14-.07-.36-.12-.62-.22-1.17-.33-1.93-.38-2.19-.3-1.78-1.4-3.5-1.45-3.48-.05.02.69,1.33.8,2.98.03.52,0,.95-.05,1.25-1.48-2.85-2.96-5.7-4.44-8.56,1.4,3.07,2.8,6.14,4.19,9.21-.06.03-.15.08-.28.08-.17.01-.34-.04-.6-.18Z"/>
    </g>
    <path class="cls-3" d="M.12,269.77c20.03-18,38.95-24.75,49.63-27.57,10.71-2.83,16.39-4.19,23.83-2.47,15.99,3.71,17.41,14.48,36.21,21.06,8.81,3.08,15.72,3.18,20.08,2.96,11.88-.59,16.09-5.13,36.85-15.42,16.37-8.11,27.97-13.76,44.13-16.99,9.08-1.82,17.21-2.39,22.1-2.72,18.19-1.23,21.27.99,31.3.22,16.33-1.26,19.84-8.07,54.77-24.42,10.04-4.7,17.22-8.06,26.46-11.42,20.21-7.34,45.62-16.58,71.99-11.59,9.92,1.88,24.53,10.6,53.76,28.04,28.41,16.96,31.84,21.59,45.15,24.35,18.43,3.82,34.23-.42,51.05-4.93,27.85-7.47,31.47-15.79,53.59-17.48,15.92-1.22,16.51,2.9,34.97,2.49,31.33-.7,54.29-13.1,54-14.13-.22-.76-13.46,4.18-33.56,3.46-1.8-.06-23.19-.94-23.84-5.9-.26-1.97,2.94-3.26,6.98-6.65,8.74-7.34,9.11-14.24,13.48-20.31,11.41-15.86,41.42-14.09,55.64-13.25,7.3.43,4.87.99,23.02,3.02,17.51,1.97,26.47,2.94,37.06,2.36,8.67-.47,8.47-1.42,30.74-5.65,29.4-5.59,42.59-6.38,42.75-9.8.1-2.05-4.53-4.24-8.06-4.87-5.53-.99-10.22,1.49-11.71,2.24-2.59,1.29-12.09,2.49-31.1,4.9-21.54,2.72-44.75-.84-74.73-5.44-22.56-3.46-25.82-5.17-35.35-3.64-15.81,2.54-28.12,10.65-38.34,17.51-14.46,9.72-14.66,13.28-26.6,21.93-15.62,11.3-29.64,15.6-48.77,21.46-30.13,9.23-45.19,13.85-60.99,10.98-18.54-3.37-18.96-11.47-57.14-33.45-28.15-16.21-42.22-24.31-56.89-24.67-13.47-.33-17.43,3.64-56.46,7.9-17.93,1.96-15.56.95-20.55,2.06-20.19,4.5-25.21,13.43-56.19,27.45-3.51,1.59-16.9,7.47-29.99,4.66-1.99-.43-7.25-1.62-8.04-4.74-.59-2.31,1.66-4.19,4.18-8.47,2.88-4.91,3.34-8.27,4.52-11.74,2.89-8.55,11-20.35,20.88-28.17,8.58-6.79,16.59-9.08,29.27-12.55,15.95-4.37,28.55-5.44,38.5-6.24,63.11-5.04,72.64-3.24,86.42-12.64,8.08-5.51,6.39-7.21,21.3-18.78,12.65-9.81,22.96-17.66,37.85-21.56,9.94-2.61,17.65-2.34,28.09-1.97,24.24.85,28.19,6.95,44.14,5.25,5.88-.63,14.45-4.37,31.35-11.82,25.35-11.17,41.92-18.48,40.88-23.18-.6-2.7-6.92-4.05-11.62-3.54-6.59.72-10.93,5.19-13.26,7.35-16.35,15.14-41.3,15.77-43.78,15.83-8.92.23-6.4-2.35-28.23-7.21-18.31-4.07-31.89-6.95-46.87-3.17-5.82,1.47-11.4,4.63-22.57,10.97-26.48,15.02-30.89,22.66-47.35,29.16-8.52,3.36-16.48,4.36-32.07,6.22-39.79,4.74-55.88.08-96.26,5.3-24.39,3.15-32.86,6.71-38.38,13.79-6.7,8.59-4.22,16.15-13.04,28.33-5.74,7.92-10.36,9.66-21.74,18.2-23.48,17.63-20.22,22.57-34.88,31.81-4.09,2.58-26.99,16.47-53.52,12.24-18.09-2.89-18.11-11.05-41-16.42-18.58-4.36-36.37-1.93-43.17-.83-17.37,2.8-31.2,8.77-40.86,14.03v68.3Z"/>
    <g>
      <path class="cls-1" d="M534.93,213.38c-.4-.51-3.05-3.73-8.51-4.79-3.36-.65-4.96,1.32-8.77.65-2.78-.49-4.87-1.8-5.64-1.16-.29.24-.31.7-.16.98.54,1.06,3.39.09,4.33,1.2.18.21.3.51.16,1.57-.3,2.35-1.37,4.25-1.69,4.96-1.4,3.1-2.12,4.46-2.48,5.26-2.92,6.56,2.2,12.96,3.33,14.37,1.7,2.13,3.12,3.91,6.06,5.04.98.38,5.78,2.1,7.56,3.18.67.41,1.15.69,1.62,1.22.54.6.62,1,.87.95.31-.06.58-.74,1.08-2.99.35-1.57.54-2.68.61-3.07.42-2.3,1.31-3.91,1.84-5.09,2.26-5.02,2.12-11.19,2.09-12.59-.09-4.35-.15-7-2.27-9.68ZM534.24,227.19c-.2.08-.46-1.02-1.93-2.55-1.12-1.17-2.41-1.92-4.98-3.43,0,0-.8-.46-2.02-.9-.89-.32-1.33-.48-1.56-.35-.42.23-.41,1.35,1.15,4.94,1.34.28,5.21,1.27,6.77,4.46.86,1.76.73,3.59.45,3.68-.44.15-.92-3.98-4.96-5.61-.6-.24-1.15-.38-1.56-.46.28,1.09.57,2.18.85,3.27.14.13.35.34.62.59,1.17,1.11,1.99,1.79,2.26,2.03,1.85,1.65,2.13,4.24,2,4.29-.11.05-.5-1.81-2.54-3.12-.64-.41-1.29-.66-1.79-.82,1.1,3.89,2.2,7.77,3.29,11.66-1.55-3.94-3.09-7.88-4.64-11.81-.16.05-.39.14-.64.29-.33.2-.57.45-.87.88-.36.51-.61,1.02-.82,1.6-.35.94-.34,1.32-.49,1.36-.22.05-.67-.65-.6-1.48.08-1.01.89-1.93,1.72-2.87.75-.86,1.07-1.01,1.19-1.5.13-.51-.14-.62-.53-1.65-.42-1.13-.5-2.05-.86-2-.11.01-.15.11-.57.34-.22.12-.37.18-.48.23,0,0-.6.27-1.24.68-.43.28-.66.65-1.15,1.83-.49,1.18-.56,1.51-.9,2.33-.28.68-.93,2.25-1.22,2.25-.27,0-.16-1.38,0-2.32.2-1.15.41-2.36,1.38-3.72.32-.45.98-1.13,2.31-2.48.61-.62,1.12-1.13,1.48-1.48l-2.13-4.44c-1.2,1.02-2.01,1.95-2.57,2.65-.61.78-1.07,1.52-1.96,2.97-1.26,2.05-1.66,2.86-1.92,2.85-.28-.02-.16-1.03-.1-1.54.21-1.74.79-3.13,1.07-3.77.7-1.58,1.37-3.08,2.9-4.75,1.28-1.41,2.03-1.7,2.31-2.69.23-.79-.1-1.42-.75-2.68-.86-1.65-1.48-1.56-2.79-3.4-.14-.19-.39-.56-.93-.85-.53-.28-1.02-.31-1.67-.42-.58-.09-1.39-.26-2.33-.58l3.87.72c1.06.48,2.71,1.4,4.02,3.05,1.08,1.36,1.54,2.71,1.76,3.64,1.34.07,6.05.44,9.28,3.65,3.14,3.12,3.19,7.27,2.82,7.43Z"/>
      <path class="cls-1" d="M549.62,202.18c-.51-.2-1.03-.39-1.03-.39-.59-.22-1.01-.36-1.2-.43-1.7-.6-2.6-1.33-3.35-1.81-2.63-1.68-6.34-2.22-7.49-2.39-2.31-.34-5.98-.88-10.28.57-2.32.78-4.08,1.89-6.27,3.27-2.1,1.32-1.45,1.17-5.03,3.62-2.02,1.38-3.56,2.35-3.39,2.83.07.2.43.28.73.25,1.1-.12,1.54-1.8,2.85-2.12.25-.06.54-.08,1.35.17,1.79.54,2.87,1.42,3.3,1.71,1.58,1.03,1.43.97,1.57,1.05,2.41,1.39,5.37,1.32,5.92,1.3,1.52-.05,2.17-.36,5.32-1.23,3.67-1.02,2.88-.63,7.66-1.88,6.52-1.71,7.4-2.28,10.02-2.32,2.01-.03,3.48.28,3.63,0,.22-.39-2.54-1.47-4.32-2.17ZM537.8,204.03c.28.16.59.29.97.41.62.19.93.21.9.27-.04.08-.77.19-1.41.11-.77-.1-1.21-.46-1.65-.82-.4-.33-.41-.45-.75-.53-.36-.08-.55,0-1.52.07-1.07.07-1.83.04-1.93.17-.03.04.03.06.05.23.01.09,0,.15,0,.19,0,0-.01.23.08.49.06.17.28.28,1.04.54.76.26,1,.31,1.53.49.44.15,1.45.49,1.34.59-.1.1-1.17-.04-1.86-.16-.85-.15-1.73-.31-2.46-.76-.24-.15-.53-.43-1.12-1-.27-.26-.48-.48-.63-.64l-4.36.45c.37.5.8.86,1.16,1.11.39.27.82.49,1.64.91,1.16.6,1.67.8,1.56.89-.12.1-.89-.01-1.27-.07-1.32-.2-2.21-.5-2.62-.65-1-.36-1.95-.71-2.72-1.37-.65-.56-.6-.85-1.29-1.02-.55-.14-1.18-.06-2.43.08-1.64.19-1.81.42-3.78.77-.21.04-.6.1-1.03.28-.43.17-.64.34-.96.57-.29.2-.73.48-1.34.8.68-.45,1.36-.89,2.04-1.34.79-.35,2.14-.87,3.96-1.23,1.5-.29,2.75-.37,3.58-.38.56-.48,2.64-2.14,6.43-3.08,3.69-.91,7.04-.64,7.02-.49-.01.08-.99.1-2.78.51-1.36.32-2.45.73-4.62,1.55,0,0-.67.25-1.49.66-.59.3-.89.45-.87.54.03.17.93.24,4.39-.07.73-.46,2.98-1.78,6.13-2.12,1.73-.19,3.15-.01,3.12.1-.05.17-3.54.05-6.37,1.39-.42.2-.74.39-.95.53l2.94-.08c.16-.04.41-.1.71-.18,1.33-.34,2.19-.59,2.48-.67,2.02-.55,4.2-.47,4.19-.42,0,.04-1.64.05-3.45.69-.57.2-1.02.42-1.33.59,3.53-.12,7.06-.24,10.59-.37-3.74.28-7.48.56-11.22.84-.02.06-.03.15,0,.25.04.13.14.24.38.38Z"/>
    </g>
    <g>
      <path class="cls-1" d="M572.65,82.56c-.35-.53-2.63-3.9-6.72-5.52-2.51-1-3.46.71-6.31-.35-2.08-.77-3.74-2.26-4.23-1.74-.19.2-.15.63-.01.92.51,1.07,2.47.46,3.28,1.63.15.22.27.52.29,1.52.04,2.22-.53,3.91-.68,4.55-.68,2.8-1.05,4.02-1.22,4.75-1.4,5.95,3.03,12.62,4,14.09,1.47,2.22,2.7,4.08,4.96,5.49.76.47,4.43,2.65,5.85,3.87.53.46.91.79,1.32,1.35.46.63.56,1.02.74,1.01.22-.02.34-.65.45-2.74.08-1.46.09-2.5.1-2.86.05-2.15.52-3.59.78-4.66,1.09-4.55.31-10.46.13-11.8-.55-4.17-.88-6.71-2.72-9.5ZM573.68,95.67c-.14.06-.45-1.03-1.69-2.65-.95-1.25-1.96-2.1-4-3.82,0,0-.63-.53-1.57-1.09-.68-.4-1.02-.6-1.17-.51-.28.17-.15,1.24,1.38,4.85,1.01.42,3.93,1.79,5.41,5.01.82,1.77.93,3.51.73,3.57-.3.09-1.11-3.9-4.23-5.91-.46-.3-.88-.49-1.18-.61.33,1.07.65,2.15.98,3.22.12.14.29.37.51.63.97,1.19,1.65,1.93,1.87,2.19,1.52,1.78,2.01,4.28,1.93,4.32-.07.03-.56-1.79-2.19-3.26-.51-.47-1.01-.78-1.39-.98,1.23,3.83,2.46,7.67,3.68,11.5-1.56-3.93-3.12-7.87-4.68-11.8-.11.03-.27.09-.43.21-.21.16-.37.37-.54.74-.2.45-.33.91-.42,1.43-.15.86-.1,1.23-.21,1.24-.16.02-.56-.69-.6-1.48-.05-.95.44-1.75.93-2.55.45-.74.66-.85.7-1.3.04-.47-.17-.61-.56-1.63-.43-1.13-.59-2.01-.85-2.01-.08,0-.09.09-.38.26-.14.09-.25.13-.32.16,0,0-.41.19-.83.51-.28.22-.4.55-.63,1.63-.23,1.07-.24,1.38-.4,2.13-.13.61-.42,2.05-.64,2.01-.2-.03-.27-1.34-.25-2.22.02-1.08.04-2.21.59-3.4.18-.4.59-.97,1.4-2.11.37-.53.69-.95.91-1.25-.68-1.49-1.36-2.98-2.04-4.48-.76.84-1.25,1.64-1.57,2.25-.36.68-.61,1.33-1.1,2.62-.69,1.82-.89,2.55-1.08,2.51-.21-.05-.23-1-.24-1.48-.04-1.64.23-2.9.36-3.48.34-1.43.66-2.79,1.58-4.22.77-1.21,1.29-1.4,1.39-2.32.08-.73-.23-1.37-.84-2.64-.81-1.67-1.25-1.65-2.41-3.56-.12-.2-.35-.58-.77-.91-.42-.33-.78-.41-1.26-.58-.43-.15-1.04-.4-1.76-.81l2.89,1.12c.83.58,2.12,1.64,3.26,3.35.94,1.42,1.42,2.75,1.68,3.67.98.21,4.45,1.09,7.15,4.51,2.63,3.33,3.13,7.3,2.87,7.41Z"/>
      <path class="cls-1" d="M582.09,73.48c-.39-.24-.79-.49-.79-.49-.45-.27-.78-.46-.92-.54-1.3-.76-2.03-1.55-2.64-2.1-2.09-1.89-4.85-2.82-5.71-3.11-1.72-.58-4.45-1.5-7.41-.59-1.6.49-2.76,1.36-4.2,2.43-1.38,1.03-.92.96-3.26,2.9-1.32,1.1-2.33,1.85-2.15,2.32.07.2.35.31.56.32.79.01.92-1.55,1.84-1.71.18-.03.39-.01,1,.31,1.36.72,2.24,1.67,2.59,1.99,1.26,1.16,1.15,1.08,1.26,1.17,1.9,1.59,4.05,1.85,4.45,1.9,1.1.12,1.54-.11,3.73-.59,2.55-.57,2.02-.28,5.36-.95,4.55-.91,5.13-1.36,7.03-1.11,1.45.19,2.56.65,2.64.4.12-.35-2.01-1.69-3.38-2.55ZM573.71,73.94c.22.19.46.34.75.49.47.25.7.31.69.36-.02.07-.54.1-1.01-.05-.57-.18-.93-.57-1.29-.96-.33-.36-.35-.48-.61-.59-.27-.12-.4-.05-1.1-.1-.77-.05-1.33-.17-1.39-.05-.02.04.03.06.06.22.02.08.02.14.02.18,0,0,.02.22.11.48.06.17.23.3.81.63.58.33.76.41,1.17.63.33.19,1.11.63,1.04.72-.06.08-.85-.17-1.37-.36-.63-.24-1.3-.49-1.87-.99-.19-.17-.44-.47-.92-1.08-.22-.28-.4-.51-.53-.68l-3.12-.05c.32.52.68.91.97,1.19.32.3.65.56,1.29,1.05.91.7,1.3.95,1.23,1.02-.08.08-.65-.11-.93-.21-.98-.33-1.66-.72-1.97-.91-.77-.46-1.49-.89-2.13-1.61-.53-.6-.53-.88-1.05-1.12-.42-.19-.86-.19-1.76-.19-1.17,0-1.27.2-2.66.31-.15.01-.42.03-.72.15-.29.12-.42.26-.64.44-.19.16-.48.38-.89.61.44-.35.89-.7,1.33-1.05.53-.25,1.46-.6,2.74-.74,1.06-.12,1.96-.05,2.56.04.35-.39,1.68-1.76,4.33-2.23,2.58-.46,5.05.17,5.05.31,0,.07-.71-.02-1.96.19-.96.16-1.7.43-3.19.97,0,0-.46.17-1.01.47-.4.22-.59.33-.57.42.04.16.7.33,3.19.42.48-.36,1.97-1.37,4.22-1.35,1.24.01,2.29.34,2.28.44-.02.15-2.56-.34-4.48.62-.28.14-.49.29-.64.4l2.13.25c.11-.02.28-.05.49-.09.93-.18,1.52-.32,1.73-.37,1.41-.3,3,.02,3,.06,0,.04-1.19-.13-2.44.28-.39.13-.69.29-.91.41,2.55.27,5.11.55,7.66.82-2.69-.15-5.38-.29-8.07-.44,0,.06,0,.14.02.24.04.13.13.24.31.4Z"/>
    </g>
    <g>
      <path class="cls-1" d="M284.76,223.24c-.91-.1-6.71-.69-11.84.59-3.15.79-1.84,2.19-5.33,3.12-2.54.68-5.62.76-5.37,1.3.09.2.64.41,1.1.5,1.68.3,2.47-1.05,4.5-.86.39.04.83.13,2.04.65,2.68,1.16,4.27,2.35,4.91,2.77,2.83,1.84,4,2.69,4.73,3.16,6.03,3.89,17.46,5.11,19.99,5.38,3.81.41,6.99.75,10.43.31,1.16-.15,6.62-.92,9.19-1.01.97-.03,1.65-.06,2.64.03,1.11.1,1.66.25,1.78.15.14-.12-.51-.52-2.93-1.69-1.68-.82-2.92-1.38-3.35-1.57-2.53-1.17-3.89-2.18-4.98-2.88-4.6-2.98-12.28-5.71-14.02-6.33-5.41-1.92-8.72-3.1-13.49-3.62ZM301.25,229.66c-.04.1-1.58-.31-4.49-.52-2.23-.17-4.05-.09-7.69.07,0,0-1.13.05-2.52.25-1.01.14-1.52.22-1.52.35,0,.24,1.37.74,6.88,1.85,1.28-.3,5.2-1.11,10.21-.18,2.76.51,4.92,1.37,4.84,1.51-.12.21-5.53-1.49-10.37-.92-.72.08-1.27.2-1.65.3,1.54.4,3.08.8,4.62,1.2.26.02.67.04,1.16.07,2.18.12,3.59.16,4.07.18,3.31.14,6.7,1.22,6.67,1.28-.02.06-2.58-.65-5.6-.58-.96.02-1.72.12-2.26.21,5.55,1.39,11.09,2.78,16.64,4.18-5.92-1.27-11.85-2.54-17.77-3.81-.05.07-.1.19-.09.34.02.2.15.39.47.68.38.35.83.65,1.39.98.91.54,1.39.7,1.33.77-.09.09-1.26-.08-2.24-.47-1.18-.48-1.75-1.16-2.33-1.85-.53-.63-.49-.8-1.01-1.06-.53-.27-.86-.24-2.39-.57-1.69-.37-2.87-.76-3.06-.62-.06.04.03.1.01.34,0,.12-.04.2-.05.26,0,0-.09.31-.03.7.04.26.35.51,1.45,1.19,1.11.69,1.47.86,2.24,1.34.64.39,2.12,1.31,1.91,1.4-.19.09-1.81-.57-2.85-1.04-1.28-.58-2.61-1.19-3.61-2.12-.33-.31-.7-.82-1.44-1.86-.34-.47-.6-.87-.78-1.14-2.32-.44-4.63-.87-6.95-1.31.42.84.99,1.53,1.47,2.02.53.55,1.12,1.03,2.28,1.97,1.63,1.33,2.36,1.82,2.16,1.9-.22.08-1.38-.41-1.96-.66-1.99-.85-3.3-1.66-3.88-2.04-1.45-.94-2.82-1.82-3.82-3.07-.84-1.05-.67-1.42-1.69-1.96-.82-.43-1.82-.61-3.82-.96-2.63-.46-2.95-.22-6.13-.63-.34-.04-.96-.13-1.69-.08-.72.05-1.1.19-1.68.35-.52.14-1.28.33-2.34.49l3.59-.92c1.34-.13,3.61-.24,6.55.07,2.42.26,4.41.72,5.71,1.07,1.02-.4,4.77-1.75,10.97-1.35,6.03.39,11.18,2.24,11.1,2.43Z"/>
      <path class="cls-1" d="M303.73,260.86c-.17-.71-.37-1.43-.37-1.43-.22-.81-.39-1.38-.46-1.64-.66-2.3-.43-3.95-.42-5.2.04-4.34-2.5-8.59-3.28-9.9-1.58-2.65-4.09-6.85-9.99-9.61-3.18-1.49-6.34-2.09-10.25-2.83-3.75-.71-2.96-.22-9.63-1.24-3.76-.57-6.51-1.1-7.04-.43-.22.27,0,.72.3.98,1.15.97,3.92-.34,5.56.63.31.18.59.46.97,1.51.82,2.33.54,4.32.53,5.04-.05,2.64-.1,2.42-.09,2.64.17,3.82,2.91,6.69,3.44,7.22,1.43,1.45,2.45,1.78,6.51,4,4.72,2.58,3.46,2.21,9.52,5.65,8.25,4.69,9.85,4.98,12.25,7.54,1.83,1.96,2.72,3.74,3.25,3.6.76-.19-.18-4.05-.78-6.53ZM290.56,251.05c.01.45.12.89.29,1.38.28.81.53,1.15.42,1.18-.16.04-.96-.56-1.42-1.28-.55-.87-.43-1.67-.31-2.49.11-.74.28-.87.08-1.3-.21-.44-.5-.54-1.46-1.43-1.06-.98-1.69-1.78-1.96-1.74-.09.01-.06.09-.28.29-.11.1-.2.16-.26.2,0,0-.35.23-.63.58-.19.24-.15.57.16,1.59.31,1.02.45,1.31.67,2.02.18.59.6,1.95.35,1.95-.23,0-.99-1.2-1.42-2.01-.54-1-1.1-2.05-1.12-3.22,0-.39.14-.98.43-2.15.13-.54.26-.98.34-1.28-1.51-1.29-3.03-2.57-4.54-3.86-.38.88-.51,1.69-.54,2.3-.04.68.03,1.32.17,2.57.19,1.77.36,2.48.13,2.47-.25-.01-.77-.89-1.03-1.33-.9-1.51-1.26-2.71-1.41-3.27-.37-1.37-.73-2.67-.47-4.12.22-1.22.67-1.47.3-2.33-.3-.69-.96-1.23-2.29-2.33-1.74-1.43-2.21-1.35-4.46-2.95-.24-.17-.68-.49-1.31-.74-.62-.24-1.06-.27-1.67-.36-.55-.08-1.33-.23-2.33-.51,1.24.21,2.48.42,3.72.64,1.2.42,3.16,1.22,5.28,2.65,1.75,1.18,2.98,2.35,3.73,3.16,1.17.06,5.4.4,10.11,3.19,4.58,2.72,7.19,6.32,6.96,6.45-.12.07-1.02-.89-3.21-2.22-1.68-1.02-3.23-1.68-6.33-2.98,0,0-.96-.41-2.27-.79-.95-.28-1.42-.42-1.54-.31-.21.2.49,1.17,4.02,4.29,1.31.25,5.19,1.12,8.48,3.88,1.81,1.53,2.83,3.11,2.65,3.19-.28.13-3.23-3.45-7.66-4.88-.66-.21-1.21-.33-1.6-.4.91.95,1.83,1.89,2.74,2.84.2.12.51.3.89.52,1.68.96,2.79,1.56,3.16,1.76,2.58,1.43,4.41,3.68,4.34,3.73-.06.04-1.54-1.57-4.07-2.71-.8-.36-1.5-.58-2.02-.72,3.33,3.37,6.65,6.75,9.98,10.12-3.74-3.42-7.47-6.84-11.21-10.26-.1.04-.24.12-.36.25-.15.17-.21.39-.2.76Z"/>
    </g>
  </g>
  <g>
    <g>
      <path class="cls-1" d="M461.41,310.39c-.89-.47-6.62-3.36-14.58-1.69-4.9,1.03-5.65,4.64-11.16,5.91-4.02.93-7.69.32-8.27,1.63-.22.5.07,1.13.47,1.44,1.45,1.15,4.54-1.82,6.56-.83.38.19.75.53,1.3,2.06,1.23,3.4,1.13,6.61,1.19,7.75.29,5.04.28,7.32.36,8.62.69,10.65,11.88,16.48,14.35,17.76,3.73,1.94,6.84,3.56,11.51,3.44,1.56-.04,9.1-.42,12.2.03,1.17.17,2,.29,3,.75,1.13.51,1.51,1.01,1.81.81.36-.25.25-1.35-.65-4.71-.63-2.34-1.15-3.97-1.32-4.55-1.03-3.39-.97-6.1-1.09-8.03-.49-8.16-4.94-16.53-5.95-18.44-3.14-5.9-5.05-9.5-9.72-11.95ZM470.06,329.67c-.21.23-1.32-1.13-4.32-2.39-2.3-.96-4.52-1.26-8.96-1.84,0,0-1.37-.18-3.3-.08-1.4.07-2.09.11-2.31.41-.39.55.39,2.08,4.94,6.11,1.97-.38,7.77-1.24,12.04,2.23,2.36,1.91,3.45,4.49,3.14,4.78-.48.45-3.97-4.92-10.45-4.84-.96.01-1.79.14-2.38.26,1.13,1.33,2.26,2.66,3.39,3.99.28.11.7.27,1.23.46,2.32.84,3.87,1.31,4.39,1.48,3.58,1.2,5.75,4.58,5.62,4.73-.11.13-1.92-2.19-5.52-2.81-1.14-.2-2.17-.17-2.94-.1,4.14,4.69,8.29,9.38,12.43,14.07-4.77-4.51-9.55-9.01-14.32-13.52-.18.16-.42.42-.64.77-.29.46-.45.94-.55,1.7-.12.91-.09,1.75.02,2.65.19,1.49.47,2,.29,2.14-.26.19-1.33-.5-1.82-1.68-.59-1.42-.15-3.15.29-4.92.4-1.61.71-1.99.54-2.73-.18-.76-.62-.77-1.84-1.96-1.34-1.3-2.08-2.52-2.52-2.25-.14.08-.12.23-.52.79-.2.28-.37.46-.47.58,0,0-.61.71-1.17,1.64-.38.63-.42,1.27-.25,3.17.17,1.9.3,2.39.42,3.71.1,1.08.33,3.61-.05,3.77-.36.16-1.17-1.8-1.6-3.18-.53-1.7-1.09-3.47-.75-5.88.11-.81.52-2.11,1.34-4.71.37-1.2.7-2.19.94-2.87-1.96-1.62-3.93-3.24-5.89-4.86-.87,2.08-1.32,3.82-1.56,5.1-.27,1.42-.36,2.69-.54,5.19-.25,3.52-.22,4.87-.57,5-.39.14-.93-1.32-1.2-2.05-.93-2.5-1.12-4.74-1.19-5.77-.16-2.56-.31-5,.54-8.16.72-2.66,1.51-3.49,1.2-5.01-.25-1.22-1.12-1.89-2.85-3.24-2.28-1.77-3.04-1.28-6.05-3.05-.32-.19-.91-.54-1.82-.62-.9-.08-1.57.16-2.5.39-.83.2-2.01.44-3.48.54,1.87-.41,3.75-.82,5.62-1.22,1.74.05,4.55.37,7.43,1.87,2.37,1.24,3.92,2.82,4.85,3.98,1.81-.67,8.32-2.86,14.81-.31,6.32,2.48,9.26,8.13,8.87,8.55Z"/>
      <path class="cls-1" d="M473.08,286.65c-.81.02-1.64.06-1.64.06-.93.04-1.59.08-1.89.1-2.66.15-4.35-.33-5.68-.56-4.63-.79-9.92.58-11.56,1.01-3.29.86-8.52,2.21-13.21,6.66-2.53,2.4-4.09,4.93-6.03,8.06-1.86,3-1.1,2.43-4.15,7.83-1.71,3.04-3.09,5.25-2.53,5.81.23.23.77.13,1.14-.08,1.37-.79.79-3.34,2.31-4.53.29-.23.67-.42,1.9-.54,2.74-.28,4.78.3,5.55.44,2.81.51,2.57.5,2.8.53,4.14.52,8.01-1.26,8.73-1.61,1.97-.94,2.62-1.74,6.19-4.74,4.15-3.49,3.37-2.5,8.84-6.96,7.44-6.07,8.21-7.36,11.65-8.91,2.63-1.19,4.79-1.61,4.81-2.08.02-.67-4.38-.56-7.22-.49ZM458.73,295.94c.48.07.98.06,1.56,0,.95-.09,1.38-.24,1.38-.15,0,.14-.88.71-1.79.96-1.09.31-1.92.07-2.76-.17-.76-.22-.85-.39-1.37-.3-.53.09-.73.33-1.96.97-1.36.71-2.4,1.1-2.44,1.33-.01.07.08.06.23.28.07.11.11.2.13.25,0,0,.14.33.44.63.2.2.56.23,1.75.15,1.19-.08,1.54-.15,2.36-.21.68-.05,2.26-.16,2.19.05-.07.19-1.57.61-2.57.84-1.23.28-2.51.56-3.78.37-.42-.06-1.01-.29-2.17-.73-.54-.2-.97-.38-1.27-.51l-5.46,3.12c.83.48,1.66.72,2.3.85.71.15,1.42.2,2.8.31,1.95.15,2.76.14,2.68.32-.09.21-1.18.49-1.73.63-1.88.48-3.27.58-3.91.61-1.57.07-3.07.14-4.55-.32-1.24-.39-1.38-.82-2.41-.66-.83.13-1.6.59-3.16,1.51-2.04,1.2-2.1,1.61-4.47,3.21-.25.17-.72.48-1.17.97-.44.48-.6.84-.88,1.33-.25.44-.63,1.07-1.23,1.86.59-1,1.18-2,1.77-3,.8-.93,2.23-2.42,4.39-3.95,1.78-1.26,3.39-2.07,4.48-2.56.41-.97,2.01-4.44,6.37-7.89,4.25-3.35,8.87-4.9,8.94-4.69.04.11-1.25.7-3.32,2.29-1.58,1.22-2.74,2.4-5.05,4.76,0,0-.71.73-1.51,1.76-.58.74-.86,1.12-.78,1.23.15.21,1.39-.2,5.77-2.61.65-1.05,2.71-4.14,6.64-6.4,2.16-1.25,4.16-1.82,4.19-1.65.05.26-4.64,2.09-7.46,5.55-.42.51-.71.95-.9,1.27,1.28-.6,2.56-1.19,3.84-1.79.18-.15.47-.37.81-.65,1.52-1.23,2.48-2.06,2.81-2.33,2.29-1.9,5.23-3.04,5.26-2.97.02.06-2.14,1.01-4.09,2.93-.62.61-1.06,1.15-1.36,1.57,4.59-2.19,9.17-4.37,13.76-6.56-4.75,2.52-9.51,5.05-14.26,7.57.02.09.06.23.17.34.14.16.36.24.76.3Z"/>
    </g>
    <g>
      <path class="cls-1" d="M299.67,374.24c-.7.16-5.13,1.23-8.55,5.37-2.1,2.54-.74,4.54-3.05,7.46-1.68,2.13-3.92,3.4-3.59,4.25.13.33.59.49.94.47,1.32-.08,1.53-2.76,3.07-3.16.29-.07.65-.07,1.68.41,2.29,1.06,3.79,2.59,4.38,3.1,2.59,2.22,3.69,3.28,4.36,3.85,5.52,4.66,14.27,2.64,16.2,2.19,2.92-.67,5.35-1.24,7.76-3.26.81-.68,4.62-4.04,6.48-5.14.7-.41,1.2-.71,1.95-.92.85-.24,1.29-.17,1.35-.39.07-.27-.52-.73-2.62-1.91-1.47-.82-2.53-1.36-2.9-1.55-2.19-1.14-3.47-2.42-4.46-3.27-4.21-3.58-10.62-5.59-12.08-6.05-4.52-1.42-7.27-2.28-10.93-1.45ZM313.59,379.54c0,.2-1.25.03-3.45.72-1.69.52-3,1.33-5.64,2.93,0,0-.82.5-1.79,1.36-.7.62-1.06.94-1.02,1.17.06.42,1.22.8,5.57.75.86-1.01,3.52-3.86,7.46-4.05,2.17-.11,4,.63,3.98.89-.03.41-4.48-.61-7.88,2.17-.5.41-.88.82-1.13,1.13,1.24.14,2.49.28,3.73.42.2-.07.5-.17.87-.31,1.64-.59,2.69-1.03,3.04-1.17,2.48-.96,5.26-.3,5.26-.18,0,.11-2.08-.21-4.28,1.02-.7.39-1.23.84-1.61,1.2,4.47.43,8.93.86,13.4,1.29-4.71-.08-9.42-.15-14.13-.23-.01.15-.02.37.03.63.07.34.22.63.54,1.02.38.47.79.85,1.29,1.22.82.61,1.22.73,1.19.87-.04.2-.95.33-1.78-.01-1-.41-1.61-1.4-2.23-2.41-.56-.91-.59-1.23-1.04-1.5-.47-.28-.7-.1-1.92-.13-1.34-.04-2.32-.29-2.43.02-.03.1.05.16.1.59.03.22.03.37.03.47,0,0,.02.59.17,1.25.1.45.39.77,1.4,1.58,1.01.81,1.32.98,2.02,1.54.58.46,1.92,1.54,1.8,1.78-.12.23-1.49-.34-2.39-.8-1.1-.56-2.25-1.15-3.24-2.41-.33-.42-.74-1.2-1.57-2.75-.38-.71-.68-1.31-.89-1.73-1.82.08-3.65.15-5.47.23.54,1.34,1.15,2.33,1.64,3.03.54.77,1.11,1.4,2.23,2.64,1.57,1.74,2.24,2.35,2.12,2.56-.14.23-1.13-.22-1.63-.44-1.7-.77-2.89-1.72-3.42-2.18-1.32-1.12-2.58-2.19-3.66-4.02-.91-1.54-.89-2.26-1.79-2.83-.72-.46-1.51-.41-3.08-.3-2.06.14-2.23.69-4.68,1.14-.26.05-.74.13-1.27.48-.52.34-.75.73-1.14,1.24-.34.44-.85,1.05-1.58,1.72.8-.98,1.59-1.96,2.39-2.94.95-.71,2.59-1.75,4.84-2.27,1.86-.43,3.44-.35,4.49-.2.64-1.08,3.02-4.84,7.7-6.4,4.55-1.51,8.84-.14,8.84.23Z"/>
      <path class="cls-1" d="M294.37,358.28c-.42.35-.84.72-.84.72-.47.41-.8.71-.95.84-1.34,1.19-2.47,1.69-3.28,2.14-2.84,1.59-4.98,4.46-5.64,5.35-1.33,1.79-3.45,4.63-3.78,8.67-.18,2.18.21,4.02.7,6.29.47,2.18.59,1.6,1.59,5.39.56,2.14.9,3.74,1.47,3.76.23,0,.47-.26.56-.52.35-.95-1.2-1.88-.97-3.08.04-.23.15-.47.74-1.05,1.32-1.29,2.68-1.88,3.16-2.14,1.73-.95,1.6-.85,1.74-.93,2.45-1.51,3.64-3.97,3.85-4.43.59-1.27.55-1.91.99-4.81.51-3.37.58-2.59,1.31-6.97,1-5.96.79-6.88,1.86-9.06.82-1.66,1.76-2.77,1.54-3-.31-.32-2.59,1.59-4.07,2.82ZM291.26,368.65c.29-.17.55-.39.83-.66.46-.45.62-.7.66-.65.07.07-.13.7-.48,1.2-.43.6-.98.84-1.54,1.08-.51.22-.64.18-.87.44-.23.27-.23.46-.57,1.28-.38.9-.74,1.52-.65,1.65.03.04.07,0,.26.03.09.02.15.05.19.06,0,0,.24.09.54.11.21,0,.41-.13,1-.67.59-.54.74-.72,1.15-1.09.34-.31,1.12-1.03,1.18-.9.06.12-.54.95-.96,1.47-.52.65-1.06,1.32-1.82,1.77-.25.15-.67.29-1.5.58-.38.13-.7.23-.92.3l-1.38,3.75c.67-.13,1.22-.37,1.63-.58.45-.23.85-.5,1.64-1.04,1.11-.76,1.53-1.1,1.58-.98.05.13-.39.73-.61,1.02-.76,1.02-1.46,1.65-1.78,1.94-.8.7-1.56,1.36-2.57,1.77-.85.34-1.13.2-1.59.71-.38.41-.57.95-.95,2.03-.5,1.42-.33,1.63-.82,3.38-.05.18-.15.53-.15.94,0,.41.09.64.18.99.08.31.18.77.25,1.38-.17-.71-.34-1.43-.51-2.14-.02-.77.01-2.07.41-3.69.33-1.33.79-2.39,1.13-3.08-.25-.62-1.09-2.91-.44-6.36.63-3.35,2.33-6.02,2.47-5.95.08.04-.32.85-.65,2.47-.25,1.24-.29,2.27-.37,4.34,0,0-.02.64.05,1.45.06.59.08.88.18.9.18.03.64-.68,1.8-3.65-.16-.76-.57-3.07.42-5.78.54-1.49,1.32-2.6,1.42-2.54.15.1-1.45,2.93-1.27,5.73.03.41.09.74.14.97.39-.82.78-1.64,1.17-2.45.03-.15.07-.37.11-.65.21-1.21.32-2,.36-2.27.29-1.85,1.3-3.62,1.35-3.6.04.02-.64,1.37-.75,3.09-.03.54,0,.98.04,1.3,1.37-2.95,2.74-5.9,4.11-8.86-1.3,3.18-2.6,6.36-3.9,9.54.05.04.14.08.25.09.15.01.31-.04.55-.18Z"/>
    </g>
    <g>
      <path class="cls-1" d="M376.01,340.17c.66-.62,4.94-4.54,10.6-5.7,3.48-.71,3.84,1.79,7.75,1.07,2.85-.52,5.53-2.09,5.88-1.28.13.31-.11.87-.41,1.23-1.1,1.3-3.18,0-4.69,1.37-.29.26-.56.62-1.04,1.94-1.05,2.93-1.14,5.33-1.24,6.21-.46,3.89-.56,5.6-.69,6.61-1.02,8.24-9.38,16.03-11.22,17.75-2.79,2.6-5.11,4.76-8.47,6.09-1.13.44-6.54,2.44-8.8,3.72-.85.48-1.45.83-2.2,1.47-.84.73-1.14,1.22-1.34,1.16-.25-.08-.11-.94.7-3.75.57-1.96,1.02-3.35,1.18-3.83.91-2.87,1-4.89,1.18-6.38.76-6.31,4.38-13.97,5.2-15.71,2.55-5.4,4.11-8.7,7.6-11.96ZM368.81,357.34c.14.11,1.01-1.26,3.24-3.12,1.71-1.43,3.32-2.32,6.55-4.11,0,0,1-.55,2.38-1.06,1-.37,1.5-.55,1.64-.39.26.3-.39,1.69-3.87,6.11-1.4.31-5.54,1.43-8.79,5.34-1.79,2.16-2.71,4.43-2.5,4.56.32.2,3.11-4.92,7.78-6.82.69-.28,1.28-.44,1.7-.52-.88,1.35-1.76,2.69-2.64,4.04-.2.16-.52.41-.91.72-1.71,1.34-2.86,2.16-3.24,2.45-2.64,1.99-4.37,5.2-4.28,5.27.07.06,1.49-2.24,4.12-3.8.83-.49,1.57-.79,2.12-.97-3.22,4.8-6.44,9.59-9.66,14.39,3.66-4.85,7.33-9.7,10.99-14.54.12.07.28.19.42.38.19.26.28.58.31,1.12.04.65-.02,1.29-.15,2.01-.21,1.18-.44,1.65-.32,1.7.18.07.98-.78,1.39-1.82.49-1.25.27-2.43.04-3.62-.21-1.09-.42-1.29-.25-1.9.17-.63.48-.77,1.42-2.03,1.03-1.39,1.63-2.53,1.93-2.47.09.02.07.14.34.44.13.15.24.24.31.3,0,0,.41.35.76.88.24.36.24.83.02,2.31-.21,1.48-.34,1.9-.49,2.92-.13.85-.42,2.82-.15,2.83.25,0,.93-1.71,1.31-2.88.47-1.44.95-2.94.83-4.66-.04-.57-.27-1.43-.73-3.15-.21-.79-.4-1.43-.53-1.88l4.49-5.45c.53,1.3.76,2.48.87,3.37.12.99.13,1.92.13,3.75,0,2.58-.09,3.61.16,3.6.27-.01.73-1.27.97-1.91.79-2.17,1.05-3.91,1.14-4.72.24-1.98.47-3.86.01-5.99-.39-1.79-.92-2.17-.62-3.41.24-.99.9-1.77,2.22-3.31,1.73-2.02,2.25-1.89,4.51-4.14.24-.24.68-.69,1.34-1.02.65-.33,1.12-.36,1.78-.47.59-.1,1.43-.28,2.48-.65-1.33.26-2.66.52-3.99.78-1.26.57-3.3,1.66-5.45,3.67-1.77,1.65-2.96,3.32-3.69,4.47-1.27.04-5.85.37-10.66,4.26-4.68,3.79-7.08,8.94-6.82,9.14Z"/>
      <path class="cls-1" d="M368.76,325.81c.58-.23,1.18-.46,1.18-.46.67-.25,1.14-.42,1.36-.5,1.91-.7,3.15-1.57,4.13-2.15,3.38-2,7.13-2.57,8.29-2.75,2.33-.35,6.04-.92,9.2,1.01,1.7,1.04,2.71,2.47,3.95,4.25,1.19,1.7.68,1.5,2.6,4.65,1.09,1.77,1.97,3.02,1.54,3.61-.18.24-.56.33-.82.28-.95-.18-.4-2.28-1.44-2.72-.2-.08-.46-.11-1.34.17-1.96.62-3.46,1.68-4.02,2.02-2.05,1.23-1.88,1.16-2.05,1.25-3.01,1.65-5.72,1.48-6.22,1.44-1.38-.11-1.81-.51-4.23-1.69-2.82-1.37-2.31-.86-6.03-2.57-5.06-2.32-5.56-3.05-7.96-3.18-1.84-.1-3.38.24-3.36-.11.02-.5,3.19-1.75,5.23-2.56ZM378.65,328.46c-.35.2-.71.34-1.13.48-.68.22-.99.24-.99.31,0,.1.6.26,1.24.18.77-.1,1.38-.53,2-.97.56-.4.63-.55,1-.64.38-.09.51.02,1.36.14.94.12,1.67.1,1.69.27,0,.05-.06.07-.18.28-.06.11-.09.18-.11.23,0,0-.12.29-.35.61-.15.21-.42.34-1.27.64-.85.3-1.1.35-1.69.56-.49.17-1.62.57-1.58.7.04.12,1.1-.02,1.81-.15.87-.17,1.78-.34,2.71-.87.31-.18.74-.52,1.6-1.21.4-.32.72-.58.94-.77,1.26.23,2.52.46,3.78.69-.62.61-1.23,1.04-1.7,1.34-.52.33-1.03.59-2.04,1.09-1.42.71-2,.94-1.95,1.06.05.13.83,0,1.22-.05,1.33-.2,2.33-.56,2.79-.73,1.13-.42,2.2-.82,3.29-1.63.92-.67,1.03-1.04,1.77-1.23.59-.15,1.13-.04,2.2.18,1.41.29,1.43.58,3.06,1.06.17.05.5.14.8.37.3.23.39.45.57.74.16.26.4.62.79,1.03-.38-.57-.75-1.15-1.13-1.72-.53-.46-1.49-1.15-2.97-1.65-1.22-.41-2.34-.54-3.1-.57-.25-.61-1.23-2.74-4.21-4.01-2.9-1.24-6.15-1-6.22-.82-.03.1.87.15,2.28.72,1.08.44,1.85.98,3.4,2.06,0,0,.48.33,1,.87.38.39.57.58.5.69-.12.21-1,.27-4.03-.21-.42-.59-1.75-2.3-4.47-2.81-1.5-.28-2.91-.11-2.94.03-.05.21,3.24.17,5.11,1.92.28.26.46.5.58.68l-2.68-.18c-.13-.05-.32-.14-.55-.25-1.04-.47-1.69-.8-1.91-.9-1.56-.74-3.62-.71-3.64-.64-.02.05,1.49.11,2.8.96.42.27.71.55.9.77-3.2-.26-6.4-.51-9.59-.77,3.3.46,6.61.92,9.91,1.38-.02.08-.05.19-.14.31-.11.16-.27.29-.56.45Z"/>
    </g>
    <g>
      <path class="cls-1" d="M358.85,533.55c.17.83,1.2,6.12-1.58,11.83-1.71,3.51-4.53,3.05-6.54,6.97-1.47,2.86-1.73,5.89-2.81,5.96-.41.03-.82-.38-.98-.78-.57-1.46,2.23-3.01,1.89-4.86-.06-.35-.24-.73-1.27-1.6-2.27-1.94-4.67-2.78-5.5-3.16-3.67-1.68-5.36-2.33-6.3-2.76-7.75-3.61-9.88-13.99-10.35-16.28-.71-3.46-1.3-6.35-.31-9.94.33-1.2,2.08-6.96,2.35-9.5.1-.96.17-1.64.03-2.55-.16-1.03-.46-1.47-.25-1.64.26-.21,1.05.2,3.36,1.86,1.61,1.16,2.72,2.04,3.11,2.34,2.31,1.78,4.32,2.52,5.72,3.16,5.94,2.74,11.27,8.61,12.48,9.95,3.75,4.14,6.05,6.67,6.95,11ZM346.26,521.25c-.21.1.58,1.35.93,4.05.27,2.07.05,3.88-.38,7.5,0,0-.13,1.12-.58,2.59-.33,1.07-.49,1.6-.75,1.68-.49.15-1.46-.91-3.56-5.61.66-1.42,2.42-5.69.69-10.01-.96-2.38-2.65-3.98-2.93-3.82-.43.24,2.87,4.51,1.55,9.53-.2.74-.45,1.35-.66,1.77-.76-1.26-1.53-2.53-2.29-3.79-.02-.24-.06-.62-.1-1.09-.18-2.05-.22-3.39-.24-3.84-.19-3.13-2.27-5.79-2.41-5.73-.11.05,1.25,2.12,1.01,5.1-.08.94-.29,1.73-.5,2.32-2.67-4.58-5.33-9.15-8-13.73,2.41,5.01,4.81,10.02,7.22,15.04-.15.09-.39.21-.69.28-.4.09-.78.08-1.37-.07-.7-.17-1.31-.43-1.96-.78-1.06-.57-1.39-.94-1.53-.84-.19.15.11,1.18.89,1.9.94.87,2.3,1.03,3.69,1.19,1.27.15,1.61.02,2.13.37.53.36.45.7,1.09,1.99.7,1.42,1.46,2.35,1.18,2.61-.09.08-.19.03-.69.18-.25.08-.41.15-.52.2,0,0-.64.27-1.44.44-.54.11-1.02-.04-2.39-.72-1.37-.68-1.71-.93-2.66-1.4-.78-.39-2.6-1.3-2.8-1.05-.19.24,1.11,1.43,2.04,2.16,1.15.9,2.35,1.84,4.2,2.28.62.15,1.66.2,3.74.32.96.05,1.75.08,2.31.1.82,1.99,1.63,3.99,2.45,5.98-1.71.08-3.08-.08-4.07-.26-1.1-.2-2.06-.5-3.95-1.08-2.66-.82-3.64-1.24-3.81-1-.18.26.79,1.1,1.28,1.52,1.67,1.44,3.28,2.24,4.04,2.59,1.86.86,3.63,1.68,6.14,1.93,2.11.21,2.87-.17,3.94.51.85.55,1.18,1.41,1.84,3.15.86,2.28.36,2.73,1.08,5.59.08.3.23.86.11,1.6-.12.72-.42,1.17-.77,1.83-.31.58-.72,1.44-1.07,2.55.67-1.34,1.33-2.68,2-4.02.3-1.37.61-3.65.06-6.32-.45-2.2-1.32-3.86-2-4.92.85-1.22,3.73-5.64,3.1-11.43-.61-5.63-4.21-9.55-4.61-9.37Z"/>
      <path class="cls-1" d="M378.67,531.31c-.17.62-.36,1.26-.36,1.26-.21.71-.37,1.21-.44,1.44-.63,2.03-.6,3.48-.69,4.58-.31,3.83-2.36,7.55-2.99,8.7-1.27,2.31-3.29,5.99-7.49,8.36-2.26,1.27-4.44,1.76-7.13,2.37-2.58.58-2.01.16-6.6.97-2.58.46-4.48.89-4.79.29-.12-.24.05-.63.28-.86.85-.84,2.62.35,3.8-.49.22-.16.44-.4.77-1.32.74-2.05.7-3.8.75-4.45.17-2.33.12-2.14.15-2.33.42-3.37,2.49-5.87,2.88-6.33,1.08-1.26,1.79-1.54,4.7-3.45,3.39-2.22,2.51-1.9,6.86-4.86,5.93-4.03,7.03-4.26,8.85-6.49,1.39-1.71,2.12-3.26,2.47-3.14.5.18-.44,3.57-1.04,5.76ZM369.01,539.8c.04-.39.15-.78.3-1.22.25-.72.45-1.01.38-1.03-.1-.04-.69.48-1.06,1.12-.44.76-.42,1.47-.41,2.19.01.66.12.77-.05,1.15-.17.38-.38.47-1.1,1.24-.79.85-1.28,1.55-1.46,1.51-.06-.01-.03-.08-.16-.26-.07-.09-.13-.14-.16-.18,0,0-.22-.21-.38-.52-.11-.22-.06-.5.23-1.4.29-.9.41-1.15.61-1.77.17-.51.56-1.71.39-1.72-.16,0-.76,1.05-1.12,1.76-.44.88-.9,1.79-1.01,2.83-.04.35.02.86.12,1.9.05.48.1.87.13,1.13-1.12,1.12-2.24,2.23-3.36,3.35-.19-.78-.21-1.5-.18-2.03.03-.6.12-1.16.31-2.27.27-1.56.43-2.19.28-2.18-.17,0-.59.78-.8,1.17-.72,1.32-1.06,2.38-1.21,2.87-.36,1.2-.7,2.34-.64,3.63.05,1.08.34,1.31.02,2.06-.26.6-.75,1.08-1.73,2.02-1.29,1.24-1.6,1.17-3.24,2.55-.17.15-.5.42-.94.63-.44.21-.73.23-1.16.3-.37.06-.92.18-1.61.42.85-.17,1.71-.34,2.56-.51.84-.36,2.22-1.04,3.77-2.27,1.28-1.02,2.19-2.04,2.77-2.74.8-.04,3.67-.28,7.07-2.68,3.3-2.34,5.34-5.48,5.2-5.6-.08-.06-.76.77-2.34,1.92-1.21.88-2.31,1.44-4.5,2.55,0,0-.68.35-1.59.67-.66.23-.99.35-1.06.25-.13-.18.42-1.03,3.05-3.74.9-.2,3.59-.92,6.02-3.32,1.34-1.32,2.15-2.71,2.04-2.79-.18-.12-2.45,3.01-5.55,4.21-.46.18-.84.28-1.11.33l2.07-2.47c.14-.1.37-.26.64-.44,1.21-.83,2-1.34,2.27-1.52,1.85-1.23,3.27-3.19,3.22-3.23-.04-.04-1.16,1.37-2.96,2.34-.57.31-1.06.49-1.42.61,2.51-2.94,5.01-5.87,7.52-8.81-2.79,2.97-5.58,5.94-8.37,8.91-.07-.04-.16-.11-.22-.23-.09-.16-.11-.35-.07-.68Z"/>
    </g>
    <g>
      <path class="cls-1" d="M348.13,592.42c.4-.67,2.92-4.96,2.5-10.41-.26-3.35-2.68-3.54-3.05-7.3-.27-2.74.48-5.38-.37-5.67-.32-.11-.79.15-1.04.46-.92,1.12.84,3.03-.03,4.54-.16.29-.43.57-1.53,1.1-2.45,1.17-4.65,1.4-5.45,1.55-3.5.66-5.07.86-5.97,1.04-7.4,1.46-12.44,9.86-13.55,11.71-1.68,2.8-3.08,5.13-3.42,8.4-.12,1.1-.54,6.36-1.13,8.58-.22.84-.38,1.43-.79,2.17-.46.84-.84,1.16-.72,1.35.14.23.91.05,3.31-.89,1.67-.65,2.84-1.17,3.25-1.34,2.43-1.04,4.29-1.24,5.63-1.5,5.67-1.09,11.84-4.98,13.24-5.87,4.35-2.74,7.01-4.42,9.12-7.92ZM334.05,600.26c-.14-.13.9-1.03,2.04-3.26.87-1.7,1.28-3.29,2.09-6.47,0,0,.25-.98.36-2.33.08-.97.12-1.46-.07-1.58-.35-.23-1.47.47-4.66,4.03.08,1.35.14,5.35-2.64,8.67-1.53,1.83-3.41,2.84-3.58,2.65-.27-.29,3.75-3.24,4.29-7.79.08-.68.07-1.24.04-1.65-1.02.92-2.04,1.83-3.06,2.75-.1.2-.25.52-.43.9-.79,1.71-1.26,2.84-1.42,3.22-1.15,2.63-3.68,4.46-3.77,4.38-.08-.07,1.69-1.55,2.44-4.13.24-.82.32-1.54.34-2.08-3.61,3.34-7.22,6.68-10.83,10.03,3.54-3.77,7.08-7.53,10.62-11.3-.1-.11-.25-.26-.47-.38-.29-.16-.61-.23-1.12-.23-.62,0-1.19.09-1.83.26-1.04.27-1.42.51-1.5.4-.11-.16.47-.98,1.32-1.43,1.03-.54,2.19-.4,3.36-.25,1.07.14,1.31.32,1.83.13.54-.2.59-.5,1.51-1.47,1.02-1.06,1.92-1.69,1.78-1.98-.04-.09-.15-.06-.5-.3-.18-.12-.29-.22-.36-.28,0,0-.43-.37-1.02-.67-.4-.21-.84-.18-2.16.11-1.32.29-1.68.43-2.59.64-.76.17-2.52.56-2.59.31-.07-.24,1.35-.98,2.34-1.41,1.22-.53,2.49-1.08,4.12-1.06.55,0,1.41.17,3.12.51.79.15,1.44.3,1.89.4,1.3-1.53,2.59-3.06,3.89-4.58-1.35-.42-2.51-.58-3.37-.63-.95-.06-1.82,0-3.53.09-2.41.14-3.33.29-3.39.06-.06-.26.99-.77,1.52-1.03,1.81-.88,3.36-1.22,4.09-1.36,1.78-.35,3.47-.68,5.58-.37,1.77.26,2.27.74,3.34.38.86-.29,1.4-.96,2.49-2.3,1.42-1.76,1.16-2.25,2.66-4.53.16-.24.46-.69.6-1.34.14-.64.03-1.09-.04-1.72-.07-.56-.12-1.37-.05-2.4l.33,3.84c-.2,1.23-.67,3.23-1.97,5.39-1.07,1.78-2.3,3.01-3.18,3.77.3,1.21,1.21,5.58-1.14,10.38-2.29,4.67-6.45,7.26-6.7,7.02Z"/>
      <path class="cls-1" d="M363.41,598.46c.06-.56.11-1.15.11-1.15.06-.65.09-1.11.1-1.32.14-1.86.62-3.09.9-4.05.97-3.33.51-6.92.36-8.03-.29-2.24-.75-5.79-3.38-8.68-1.42-1.56-3.02-2.43-5-3.5-1.9-1.03-1.57-.55-5.02-2.2-1.94-.93-3.33-1.69-3.77-1.25-.18.18-.16.55-.05.79.42.89,2.23.25,2.91,1.21.13.18.23.43.2,1.29-.06,1.9-.65,3.39-.81,3.94-.61,2.02-.58,1.85-.62,2.02-.74,2.96.14,5.52.31,5.99.47,1.3.96,1.69,2.7,3.92,2.02,2.6,1.42,2.14,3.99,5.57,3.5,4.67,4.32,5.1,5.07,7.38.58,1.74.67,3.22.99,3.19.46-.05.79-3.13,1-5.12ZM358.32,589.22c-.09.34-.13.7-.14,1.1-.02.66.04.95-.03.96-.1.01-.41-.56-.5-1.17-.11-.74.13-1.34.37-1.95.22-.56.35-.63.33-.99-.02-.36-.16-.48-.49-1.29-.37-.89-.54-1.58-.7-1.59-.05,0-.05.06-.22.19-.08.06-.15.09-.19.12,0,0-.24.13-.47.37-.16.16-.21.41-.26,1.24-.05.83-.04,1.07-.07,1.64-.03.47-.1,1.58-.23,1.54-.13-.03-.28-1.05-.34-1.73-.08-.84-.16-1.71.09-2.62.08-.3.29-.73.7-1.59.19-.4.35-.72.47-.94-.55-1.18-1.1-2.37-1.65-3.55-.4.63-.65,1.23-.8,1.69-.17.51-.27,1.02-.47,2-.28,1.39-.35,1.95-.47,1.91-.13-.04-.23-.79-.28-1.16-.16-1.28-.1-2.25-.06-2.69.09-1.1.18-2.14.64-3.23.38-.91.69-1.04.67-1.75-.01-.57-.26-1.07-.75-2.08-.64-1.33-.92-1.33-1.8-2.85-.09-.16-.27-.46-.56-.74-.29-.27-.52-.35-.84-.5-.28-.13-.68-.35-1.17-.69.63.32,1.27.65,1.9.97.57.48,1.46,1.35,2.32,2.72.7,1.13,1.12,2.19,1.36,2.91.63.2,2.88,1,4.85,3.76,1.92,2.68,2.56,5.79,2.41,5.86-.08.04-.37-.81-1.28-2.12-.7-1-1.4-1.7-2.82-3.11,0,0-.44-.44-1.07-.9-.46-.34-.69-.5-.78-.44-.16.13.01.96,1.27,3.82.66.36,2.61,1.53,3.8,4.08.66,1.41.87,2.76.76,2.8-.18.06-1.02-3.07-3.14-4.74-.31-.25-.59-.41-.79-.52l.88,2.54c.08.12.21.29.37.51.71.96,1.19,1.56,1.35,1.76,1.1,1.43,1.62,3.4,1.57,3.43-.04.02-.5-1.41-1.64-2.61-.36-.38-.7-.64-.95-.81,1.09,3.02,2.18,6.05,3.26,9.07-1.3-3.11-2.61-6.22-3.91-9.34-.07.02-.16.06-.25.15-.12.11-.2.27-.27.56Z"/>
    </g>
    <path class="cls-3" d="M429.24,315.25c-2.62-2.2-12.16,6.94-36.24,24.71-18.24,13.47-18.8,12.68-25.03,18.71-7.61,7.37-12.99,14.61-23.45,28.79-10.84,14.7-8.77,13.29-13.42,18.94-9.05,11.01-28.15,34.23-47.53,31.82-7.42-.92-12.74-5.33-24.06-3.91-5.23.66-8.35,2.13-9.62.6-3.2-3.85,10.69-20.14,11.87-21.5,13.13-15.24,25.75-21.6,25.34-22.28-.55-.91-25.26,7.5-47.06,30.02-12.85,13.27-10.23,16.5-21.94,27.35-16.27,15.08-24.83,12.08-49.24,27.44-14.75,9.28-28.59,17.99-38.31,34.11-.79,1.31-.68,1.27-3.5,6.84-12.58,24.86-23.38,43.9-23.97,44.92-14.46,25.3-78.17,51.07-102.97,60.53v48.42c24.27-12.09,42.95-22,55.65-28.89,9.42-5.11,15.69-8.64,25.19-9.98,12.8-1.81,22.77,1.57,43.73,10.46,24.76,10.5,55.64,24.78,81.66,30.01,4.43.89,12.82,2.34,21.97-1.01,2.47-.91,6.57-2.74,16.71-12.48,2.39-2.3,18.93-18.41,29.52-36.54,11.27-19.31,7.66-19.22,13.89-25.61,1.73-1.78,19.15-19.65,41.36-21.36,3.17-.24,9.4-.39,14.4-4.73,3.57-3.1,6.88-8.65,5.3-10.93-2.74-3.95-19.37,3.24-44.79,14.25-16.95,7.34-25.51,11.08-29.97,14.97-12.09,10.55-10.29,17.59-26.14,35.95-6.82,7.91-11.86,13.75-20.53,19.27,0,0,0,0,0,0-6.74,5.27-17.96,7.59-38.26,1.55-18.78-5.59-19.66-10.7-41.36-20.44-26.23-11.77-38.3-10.3-40.88-19.01-1.84-6.22,3.97-8.11,16.6-30.09,10.5-18.27,22.75-45.96,24.77-50.02,3.88-7.8,4.02-8.1,4.48-8.83,8.63-13.54,22.25-21.46,49.49-37.29,17.3-10.05,29.98-17.42,48.89-21.2,14.46-2.89,17.21-.61,34.16-4.62,11.98-2.83,26.29-6.35,38.9-16.23,7.6-5.95,8.56-9.5,21.35-28.41,16.99-25.12,30.15-44.58,46.78-58.53,14.68-12.31,22.02-18.47,24.72-19.49,1.57-.59,6.57-2.34,9.6-7.07,1.93-3.02,3.48-7.9,1.9-9.22Z"/>
  </g>
</svg>