<?xml version="1.0" encoding="UTF-8"?>
<svg id="Layer_1" data-name="Layer 1" xmlns="http://www.w3.org/2000/svg" viewBox="0 0 1600 530.51">
  <defs>
    <style>
      .cls-1 {
        opacity: .2;
      }

      .cls-1, .cls-2 {
        fill: #de7226;
        isolation: isolate;
      }

      .cls-1, .cls-2, .cls-3 {
        stroke-width: 0px;
      }

      .cls-2 {
        opacity: .19;
      }

      .cls-3 {
        fill: #f4e5b6;
      }
    </style>
  </defs>
  <path class="cls-3" d="M0,210.89c196.03-85.81,348.84-91.13,451.61-80.44,160.45,16.68,211.74,73.13,523.5,136.25,158.44,32.08,233.26,34.52,279,34.19,146.95-1.06,266.48-32.72,345.3-59.93.2,96.52.39,193.04.59,289.55H0c0-106.54,0-213.08,0-319.63Z"/>
  <g>
    <path class="cls-3" d="M207.89,156.77c.77.54,1.63.45,2.11.4,6.72-.75,10.08-1.13,10.75-2.54,1.07-2.28-1.38-6.41-6.28-14.69-2.59-4.37-3.46-5.25-3.75-7.64-.42-3.51.78-7.06,2-10.66.4-1.17.89-2.4,1.87-4.83,1.49-3.7,1.85-4.27,2.84-6.71,1.63-4.01,2.66-7.43,3.26-9.46,1.39-4.66,1.24-5.17,2.3-7.38,1.18-2.45,1.8-2.71,2.6-5.1.53-1.57.65-2.63,1.57-4.9.77-1.9,1.25-2.53,1.87-2.96.72-.49,1.19-.38,1.64-1.01.69-.94.34-2.09.82-2.29.41-.17.65.67,1.4.8.97.17,1.26-1.11,3.23-2.03.64-.3.93-.32,1.44-.73.56-.46.55-.74,1.25-1.38.67-.63.84-.51,1.25-1.01.18-.22.63-.8.72-1.71.03-.26.12-1.19-.39-1.82-.38-.46-.76-.35-1.11-.91-.24-.38-.36-.91-.23-1.01.18-.16.89.54,1.25.94.33.39.33.49.89,1.27.54.77.81,1.15,1.18,1.45,0,0,.35.22,1.04.65.59.37.85.53,1.08.87.18.26.15.35.29.48.26.22.49.1,1.21.11.74.02.79.16,1.11.03.35-.14.44-.35.75-.36.31,0,.55.2.65.29.8.63,2.41.55,3.33-.11.13-.08.13-.11.98-1.34,1.35-1.94,1.46-2.07,1.54-2.47.15-.83-.22-1-.07-2.18.12-.84.3-.77.36-1.45.05-.56-.06-.86-.49-2.61-.24-1.01-.24-1.05-.29-1.24-.64-2.34-3.01-4-3.56-4.39-.82-.57-2.09-1.46-3.89-1.71-1.92-.26-3.03.4-5.56-.15-.35-.07-.51-.13-1.19-.27-1.49-.32-2.38-.52-3.46-.56-.94-.04-1.75.05-2.39.13-1.19.14-1.64.29-2.45.13-.69-.14-.64-.31-1.39-.43-.49-.08-.55-.02-2-.06-1.06-.03-1.23-.06-1.39-.13-.39-.14-.59-.3-1.06-.37-.36-.05-.62-.02-.85,0,0,0-.57.06-2.24.2-1.15.1-1.01-.03-2,.07-.46.05-.91.13-1.83.3-.65.12-.98.18-1.45.27-1.55.33-1.6.48-2.26.5-.3,0-.97.02-1.76-.27-.77-.29-.85-.57-1.52-.7-.62-.12-.72.1-1.43.02-.77-.08-.76-.35-1.57-.53-1.06-.24-1.26.17-2.31-.1-.64-.16-.54-.31-1.37-.55-.82-.23-1.09-.14-1.78-.37-.68-.22-1.05-.52-1.35-.7-1.64-.95-3.03.69-5.85.53-1.92-.11-1.86-.9-3.28-.69-1.47.21-1.6,1.06-4.03,2.48-2.11,1.24-2.35.79-4.03,2-1.19.86-1.25,1.2-2.67,2.13-.93.61-1.12.6-2.6,1.51-1.42.88-2.14,1.33-2.48,1.78-.56.79-.5,1.26-1.42,2.62-.24.35-.26.35-.74,1.03-.78,1.11-.79,1.21-1.05,1.37-.36.21-.69.22-.99.62-.08.11-.19.26-.16.4.06.2.39.2.86.3.61.12.68.23,1.12.33,1.09.23,2.1-.14,2.38-.25.85-.33,1.37-.83,1.68-.57.06.05.09.13.15.26.23.54.22.98.26,1.24.06.38.35.71.95,1.37.55.61.95,1.06,1.64,1.43.25.14.91.46,1.76.53,1.76.14,3.13-.9,3.52-1.19,1.32-1.02,1.82-2.28,2.21-2.09.18.08.17.38.33,1.39.04.22.19,1.17.38,1.81.21.76.65,1.5,1.55,2.97.41.68.62,1.02.84,1.26.48.51.89.7,1.97,1.2,3.02,1.43,2.89,1.43,3.17,1.49.67.14,1.29.52,1.97.7.07.02.23.06.35.21.2.26.1.61.1,1,0,.81.52,1.41.6,1.53.3.36.43.26,1.37.93.44.31.66.46.81.63.25.3.33.52.81,1.87.28.8.43,1.21.51,1.38.3.71.64,1.41.64,1.41.19.42.29.61.33.93.06.43-.07.49,0,.82.1.46.39.54.64,1.05.06.13.18.38.23,1,.19,1.96-.14,4.73-.14,4.73-.3,2.5-.16,2.09-.37,3.62-.12.8-.57,3.93-2.01,8.27-1.26,3.79-1.63,3.62-2.33,6.4-.43,1.71-.6,3.11-.94,5.91-.4,3.25-.59,4.88-.55,7.1.06,2.98.5,5.24.67,6.09.51,2.42.69,1.91,1.19,4.3.32,1.54.57,3.38,1.27,7.68.07.42.15.88.35,1.45.39,1.06.79,1.29,1.8,2.88.23.37.61.98,1.05,1.83.5.98.51,1.17.94,2,.55,1.01.84,1.55,1.37,1.92l-.02.02Z"/>
    <path class="cls-1" d="M208.59,82.99c.08,1.63.19,2.95.3,3.9.09.75.16,1.21.19,1.51.16.99.33,1.81.49,2.52.56,2.61.8,2.38,1.11,4.21.28,1.66.5,2.98.18,4.48-.25,1.18-.6,1.34-1.05,3.26-.18.79-.08.57-.4,2.2-.22,1.12-.12,1.75-.32,2.7-.35,1.56-1.19,2.38-1.07,2.43.14.06,1.29-1,1.69-2.2.05-.15.28-.75.44-1.44.18-.82.39-1.01,1.01-2.27.7-1.43,1.07-2.19,1.33-3.22.13-.49.47-1.95.32-3.67-.04-.5-.1-.71-.96-3.56-.63-2.09-.82-2.68-1.04-3.7-.23-1.07-.36-1.97-.41-2.43-.18-1.77.15-3.66.23-4.17-.67-.18-1.34-.36-2.01-.54l-.03-.02Z"/>
    <path class="cls-1" d="M213.97,107.14c.14.01.21-1.36.75-3.51.5-1.96.91-2.69,1.44-4.24,1.71-4.96.44-6.39,2-8.57.26-.37,2.5-3.41,2.86-3.84.03-.03.16-.18.29-.41.44-.71.27-.84.84-1.88.38-.69.76-1.18,1.09-1.6.06-.07.11-.14.14-.17-.34-.11-.67-.22-1.01-.33-.44.4-.72.8-.9,1.11,0,0-.54.92-.95,1.14,0,0-.02.01-.05.02-.19.1-.36.17-.38.11s.09-.21.21-.44c.19-.35.19-.42.41-.86.27-.55.5-.61.53-.99,0-.1,0-.18,0-.23-.13-.01-.28-.02-.44-.01-.18,0-.36.03-.51.07-.17.24-.26.46-.32.62-.11.3-.09.4-.21.63-.17.32-.36.38-.59,1.11-.15.46-.14.63-.2,1.07,0,0-.03.23-.14.69-.18.8-1.03,1.9-1.35,2.33-.7.94-1.05,1.4-1.27,1.89-.54,1.17-.17,1.89-.16,3.83,0,.42,0,3.01-.91,5.72-.5,1.49-.76,1.53-1.06,2.84-.45,2.02-.26,3.89-.1,3.9h0Z"/>
    <path class="cls-1" d="M206.08,106.64c-.14-.04.4-3.94.43-4.15.18-1.28.29-1.93.46-3.37.12-1.05.17-1.63.18-2.19,0-.73-.06-1.09-.12-1.5-.22-1.62-.05-2.16-.25-3.72-.15-1.1-.2-.67-.4-2.04-.1-.64-.12-1.01-.3-2.39-.09-.67-.14-.99-.16-1.13-.19-1.09-.82-1.89-.98-2.09-.72-.91-1.53-1.21-1.49-1.32.05-.11.68.38,1.68.4.61.01.87-.15,1.07.07.13.14.07.24.16,1.43,0,.18.05.53.12.91.04.19.06.22.13.87.05.46.1.99.26.91,0,0,.11-.05.16-.26.06-.25.03-.58,0-.91,0-.13-.29-1.24-.18-2.15.06-.5.25-1.03.38-1.02.16.02.05.84.34,2.29.16.74.3,1.13.3,1.87,0,.34-.05.38-.1.96-.18,2.26-.08,3.86-.05,4.38.05.68.07,1,.09,1.16.02.14.13.79.12,1.29,0,.17-.02.35-.02.35-.02.25-.06.45-.07.51-.06.34,0,.18-.57,3.73-.54,3.32-.53,3.03-.57,3.53-.09.86-.11,1.54-.32,2.52-.09.41-.25,1.1-.31,1.08h.03Z"/>
    <path class="cls-1" d="M206.29,95.78c-.02-.26-.05-.42-.07-.62-.18-1.44-.22-2.58-.25-3.04-.16-2.37-1.03-4.68-1.21-5.16-.53-1.4-.86-2.28-1.67-3.16-1.1-1.18-2.31-1.54-2.27-1.67.05-.12,1.2.01,2.17.83,1.05.88,1.58,2.26,1.8,2.85.09.23.38,1,.55,1.44.18.45.19.48.31.82.3.95.55,1.75.75,3.04.17,1.14.13,1.54.18,2.3.04.52.1.84.14,1.12.18,1.28.09,2.5.05,3.03-.12,1.47-.44,2.7-.5,2.69-.05-.01.08-.75.11-2.08,0-.45,0-1.33-.09-2.38v-.02Z"/>
    <path class="cls-1" d="M215.46,105.04c.13.03.24-1.15.99-3.01.89-2.18,1.83-3.25,2.55-4.55.07-.12.26-.45.58-.8.07-.07.14-.14.21-.2.48-.43.64-.41.83-.77.07-.13.04-.15.22-.71.17-.52.25-.78.29-.88.39-.97.71-1.01.71-1.73,0-.26-.04-.64-.15-.83-.16-.3-.38-.06-.45.02-.2.22-.25.53-.52,1.45-.3,1.06-.2.52-.46,1.37-.11.36-.2.76-.4.71,0,0-.07-.02-.11-.07-.03-.04-.05-.08-.05-.11-.21-.75-.32-1.12-.31-1.38.02-.5.2-.84.36-1.15.18-.36.2-.24.72-1,.28-.42.38-.58.55-.82.32-.48.45-.57.67-.89.35-.49.49-.86.75-1.47.37-.87.77-1.78,1.31-2.68.69-1.14,1.16-1.49,1.01-1.92-.12-.37-.63-.64-1.01-.53-.54.17-.46.97-1.28,2.62-.25.52-.51.92-.84,1.46-.43.71-.66,1.09-1.02,1.54-.72.93-1.21,1.24-1.93,2.28-.1.15-.22.34-.35.61-.3.64-.36,1.22-.39,1.47-.22,2.07-.32,1.6-.48,3.52-.11,1.25-.25,1.86-.43,2.44-.42,1.36-.79,1.48-1.22,2.7-.56,1.65-.53,3.28-.37,3.32h-.02Z"/>
    <path class="cls-1" d="M210.99,83.84c.2-.1.62.08,1.46.45.54.23.76.39,1.22.41.29.02.47-.03.5.06.09.22-.8.9-1.12,1.21-1.94,1.88-.3,7.26-.5,7.32-.25.07-2.66-8.94-1.56-9.45h0Z"/>
    <path class="cls-1" d="M214.98,85.02c.65-.22.9.07,1.58.06,1.76-.03,2.94-2.03,3.09-1.86.08.08-.36.77-1.24,2.14-.28.44-.42.65-.46.7-.83,1.05-1.61.95-2.63,1.83-.44.38-.69.73-1.01,1.19-1.18,1.68-1.34,3.2-1.52,3.16-.22-.05.25-2.43.25-3.91,0-.21,0-.84.27-1.59.02-.06.05-.13.08-.19.06-.13.56-1.19,1.58-1.53h0Z"/>
    <path class="cls-1" d="M213.66,102.3c.55-1.39,1.37-3.54,1.45-6.38.07-2.45-.5-2.78-.16-4.41.64-3.09,3.2-4.56,3.06-4.75-.14-.18-2.43,1.08-3.82,3.74-.24.48-.7,1.36-.91,2.63-.42,2.5.63,3.27.45,5.87-.08,1.03-.42,2.01-1.1,3.96-1.03,2.94-2,4.54-1.93,4.59.11.07,1.76-2.12,2.96-5.24h0Z"/>
    <path class="cls-1" d="M207.61,83.14c.16-.16.44-.08.65,0,0,.18.03.49.06.87.25,3.2.57,3.89.64,6.05.04,1.15-.05,1.26.06,2.01.19,1.36.55,1.64.7,2.68.16,1.08-.06,1.9-.41,3.24-.37,1.4-.7,1.76-1.07,3.46-.08.36-.07.36-.24,1.37-.38,2.18-.77,4.4-.91,4.38-.11-.01-.02-1.51.04-2.3.1-1.24.27-2.18.42-2.99,0-.07.18-.89.55-2.52.14-.65.27-1.26.54-2.05.13-.38.21-.61.25-.72.55-1.54-.36-3.03-.48-6.04-.02-.46-.04-1.41-.13-2.82-.03-.49-.06-.8-.12-1.21-.07-.43-.14-.69-.38-1.78-.26-1.14-.33-1.47-.18-1.64h0Z"/>
    <path class="cls-1" d="M225.38,84.41c.32-.19.56-.33.67-.23.22.2-.3,1.1-.99,2.86-.49,1.25-.95,2.65-1.85,3.93-.22.32-.53.71-.76.62-.18-.06-.26-.37-.26-.62,0-.59.55-.75,1.09-1.54.64-.94.79-2.03.83-2.27.11-.77-.06-.88.14-1.39.3-.84.97-1.25,1.14-1.35Z"/>
    <path class="cls-1" d="M220.46,96.97c1.07-1.85,1.43-3.14,1.52-3.1.11.04-.21,1.91-1.17,3.91-.69,1.45-1.01,1.47-2.21,3.44-1.05,1.74-1.7,3.2-2.21,4.33-1.13,2.53-1.58,4.15-1.62,4.14-.07-.02.94-3.84,2.69-7.51.36-.75.86-1.8,1.65-3.1.63-1.03.82-1.18,1.34-2.1Z"/>
    <path class="cls-2" d="M215.59,61.73c3.1.08,4.49-.69,8.38-.04,1.14.19,3.87.64,4.19,1.67.28.91-1.49,1.83-2.03,2.1-5.05,2.61-12.44.93-17.54-.23-.89-.2-2.77-.57-6.01-2.18-1.46-.73-2.62-1.3-3.03-2.06-.18-.33-.22-.71-.07-1.05.31-.69,1.39-.88,1.81-.96,3.13-.58,8.29,2.58,14.3,2.73h0Z"/>
  </g>
  <g>
    <path class="cls-3" d="M339.2,148.05c-1.17.76-2.48.64-3.22.56-10.25-1.05-15.39-1.59-16.4-3.58-1.63-3.21,2.11-9.02,9.58-20.67,3.95-6.15,5.27-7.38,5.72-10.76.64-4.93-1.19-9.94-3.05-15.01-.61-1.65-1.35-3.37-2.85-6.79-2.27-5.2-2.82-6-4.34-9.44-2.48-5.65-4.06-10.46-4.98-13.31-2.12-6.55-1.89-7.28-3.51-10.39-1.8-3.45-2.75-3.82-3.97-7.18-.8-2.21-1-3.7-2.39-6.89-1.17-2.67-1.9-3.57-2.85-4.16-1.1-.68-1.81-.53-2.51-1.43-1.05-1.32-.52-2.94-1.25-3.22-.62-.24-1,.94-2.14,1.13-1.49.24-1.92-1.56-4.93-2.85-.98-.42-1.43-.45-2.2-1.03-.86-.65-.85-1.04-1.9-1.95-1.03-.89-1.28-.71-1.9-1.43-.27-.31-.97-1.13-1.1-2.41-.04-.37-.18-1.68.59-2.56.58-.65,1.16-.49,1.69-1.28.37-.53.55-1.28.36-1.43-.28-.22-1.35.76-1.9,1.32-.51.55-.51.68-1.35,1.78-.82,1.08-1.23,1.62-1.8,2.04,0,0-.53.31-1.59.92-.91.52-1.29.74-1.65,1.22-.27.37-.22.49-.45.67-.4.31-.74.13-1.84.15-1.13.03-1.2.22-1.69.04-.53-.19-.67-.49-1.14-.51-.48,0-.83.28-1,.4-1.22.89-3.68.77-5.08-.15-.19-.12-.19-.15-1.5-1.89-2.07-2.73-2.23-2.91-2.35-3.48-.22-1.17.34-1.41.1-3.06-.18-1.19-.46-1.08-.55-2.04-.07-.79.09-1.2.74-3.67.37-1.43.37-1.47.45-1.74.98-3.3,4.59-5.63,5.44-6.18,1.25-.8,3.19-2.05,5.94-2.41,2.93-.37,4.62.56,8.48-.21.53-.1.77-.18,1.81-.39,2.27-.45,3.64-.73,5.27-.79,1.44-.06,2.67.07,3.66.18,1.81.19,2.5.4,3.74.18,1.05-.19.98-.43,2.12-.61.74-.12.83-.03,3.06-.09,1.62-.04,1.87-.09,2.12-.18.59-.19.91-.42,1.62-.52.55-.07.95-.03,1.29,0,0,0,.88.09,3.42.28,1.75.13,1.55-.04,3.05.1.7.07,1.4.18,2.79.42,1,.16,1.5.25,2.21.39,2.36.46,2.44.67,3.45.7.46,0,1.49.03,2.69-.39,1.17-.4,1.29-.8,2.32-.98.95-.16,1.1.13,2.18.03,1.17-.12,1.16-.49,2.39-.74,1.62-.34,1.92.24,3.52-.13.98-.22.82-.43,2.1-.77,1.25-.33,1.66-.19,2.72-.52,1.04-.31,1.6-.73,2.07-.98,2.5-1.34,4.62.97,8.93.74,2.93-.15,2.84-1.26,5.01-.97,2.24.3,2.44,1.49,6.15,3.49,3.22,1.74,3.58,1.11,6.15,2.81,1.81,1.2,1.9,1.69,4.07,3,1.43.86,1.71.85,3.97,2.12,2.17,1.23,3.27,1.87,3.79,2.51.86,1.11.76,1.77,2.17,3.68.37.49.4.49,1.13,1.46,1.19,1.56,1.2,1.71,1.6,1.93.55.3,1.05.31,1.52.88.12.15.3.37.24.56-.09.28-.59.28-1.31.42-.94.16-1.04.33-1.71.46-1.66.33-3.21-.19-3.64-.36-1.29-.46-2.1-1.17-2.57-.8-.09.07-.13.18-.22.37-.36.76-.34,1.38-.4,1.74-.09.53-.53,1-1.46,1.93-.85.86-1.46,1.49-2.5,2.01-.39.19-1.38.65-2.69.74-2.69.19-4.78-1.26-5.38-1.68-2.02-1.44-2.78-3.21-3.37-2.94-.27.12-.25.53-.51,1.96-.06.31-.3,1.65-.58,2.54-.33,1.07-1,2.11-2.36,4.18-.62.95-.95,1.44-1.28,1.77-.73.71-1.35.98-3,1.69-4.61,2.01-4.41,2.01-4.84,2.1-1.03.19-1.98.73-3,.98-.1.03-.36.09-.53.3-.31.37-.15.86-.15,1.41-.01,1.14-.79,1.99-.92,2.15-.46.51-.65.37-2.1,1.31-.67.43-1.01.65-1.23.89-.39.42-.51.73-1.23,2.63-.43,1.13-.65,1.71-.77,1.95-.46,1-.98,1.99-.98,1.99-.3.59-.45.86-.51,1.31-.09.61.1.68,0,1.16-.15.65-.59.76-.98,1.47-.09.18-.27.53-.36,1.41-.3,2.76.21,6.66.21,6.66.46,3.52.24,2.94.56,5.1.18,1.13.88,5.53,3.08,11.63,1.92,5.33,2.48,5.1,3.55,9,.65,2.41.92,4.38,1.44,8.32.61,4.58.91,6.86.85,9.98-.09,4.19-.76,7.37-1.03,8.57-.77,3.4-1.05,2.69-1.81,6.05-.49,2.17-.88,4.75-1.93,10.8-.1.59-.22,1.23-.53,2.04-.59,1.49-1.2,1.81-2.75,4.06-.36.52-.94,1.38-1.6,2.57-.76,1.38-.77,1.65-1.44,2.81-.85,1.43-1.28,2.18-2.1,2.7l.03.03Z"/>
    <path class="cls-1" d="M338.13,44.24c-.12,2.29-.3,4.15-.46,5.48-.13,1.05-.24,1.71-.3,2.12-.24,1.4-.51,2.54-.74,3.55-.86,3.67-1.22,3.34-1.69,5.93-.43,2.33-.76,4.19-.27,6.3.39,1.66.92,1.89,1.6,4.59.28,1.11.12.8.61,3.09.34,1.58.18,2.47.49,3.8.53,2.2,1.81,3.34,1.63,3.42-.21.09-1.98-1.41-2.59-3.09-.07-.21-.43-1.05-.67-2.02-.28-1.16-.59-1.43-1.55-3.19-1.07-2.01-1.63-3.08-2.04-4.53-.19-.68-.71-2.75-.49-5.17.06-.7.15-1,1.47-5.01.97-2.94,1.25-3.77,1.59-5.2.36-1.5.55-2.78.62-3.42.27-2.5-.22-5.16-.36-5.87,1.03-.25,2.05-.51,3.08-.76l.04-.03Z"/>
    <path class="cls-1" d="M329.93,78.22c-.21.01-.33-1.92-1.14-4.93-.76-2.76-1.38-3.79-2.2-5.97-2.62-6.98-.67-8.99-3.06-12.07-.4-.52-3.82-4.8-4.37-5.41-.04-.04-.24-.25-.45-.58-.67-1-.42-1.19-1.28-2.64-.58-.97-1.16-1.66-1.66-2.26-.09-.1-.16-.19-.21-.24.52-.15,1.03-.31,1.55-.46.67.56,1.1,1.13,1.37,1.56,0,0,.82,1.29,1.46,1.6,0,0,.03.01.07.03.3.13.55.24.58.15s-.13-.3-.33-.62c-.3-.49-.3-.59-.62-1.2-.42-.77-.76-.86-.8-1.4,0-.13,0-.25.01-.33.19-.01.43-.03.67-.01.28,0,.55.04.77.1.25.34.4.65.49.88.16.42.13.56.33.89.25.45.55.53.91,1.56.22.65.21.89.31,1.5,0,0,.04.33.21.97.28,1.13,1.58,2.67,2.07,3.28,1.07,1.32,1.6,1.98,1.93,2.66.82,1.65.25,2.66.24,5.39,0,.59,0,4.23,1.4,8.05.76,2.1,1.16,2.15,1.62,4,.68,2.84.4,5.47.15,5.48h0Z"/>
    <path class="cls-1" d="M341.97,77.52c.21-.06-.61-5.54-.65-5.84-.27-1.8-.45-2.72-.7-4.74-.18-1.47-.25-2.29-.27-3.08,0-1.03.09-1.53.18-2.11.34-2.27.07-3.05.39-5.23.22-1.55.31-.94.61-2.87.15-.91.18-1.43.46-3.36.13-.94.21-1.4.24-1.59.3-1.53,1.25-2.66,1.5-2.94,1.1-1.28,2.33-1.71,2.27-1.86-.07-.15-1.04.53-2.57.56-.94.01-1.32-.21-1.63.1-.19.19-.1.34-.24,2.01-.01.25-.07.74-.18,1.28-.06.27-.09.31-.19,1.22-.07.65-.15,1.4-.4,1.28-.01,0-.16-.07-.24-.37-.09-.36-.04-.82,0-1.28.01-.18.45-1.74.27-3.03-.09-.7-.39-1.46-.58-1.44-.24.03-.07,1.19-.52,3.22-.24,1.04-.46,1.59-.46,2.63,0,.48.07.53.15,1.35.28,3.18.12,5.44.07,6.17-.07.95-.1,1.41-.13,1.63-.03.19-.19,1.11-.18,1.81,0,.24.03.49.03.49.03.36.09.64.1.71.09.48,0,.25.88,5.25.82,4.67.8,4.26.88,4.96.13,1.2.16,2.17.49,3.55.13.58.39,1.55.48,1.52h-.04Z"/>
    <path class="cls-1" d="M341.66,62.23c.03-.37.07-.59.1-.88.27-2.02.34-3.63.39-4.28.24-3.33,1.58-6.58,1.84-7.27.8-1.98,1.31-3.21,2.56-4.44,1.68-1.66,3.52-2.17,3.46-2.35-.07-.16-1.83.01-3.31,1.17-1.6,1.23-2.41,3.18-2.75,4.01-.13.33-.58,1.41-.83,2.02-.27.64-.3.67-.48,1.16-.46,1.34-.85,2.47-1.14,4.28-.25,1.6-.19,2.17-.28,3.24-.06.73-.15,1.19-.21,1.58-.28,1.8-.13,3.52-.07,4.26.18,2.07.67,3.8.76,3.79.07-.01-.12-1.05-.16-2.93,0-.64,0-1.87.13-3.34v-.03Z"/>
    <path class="cls-1" d="M327.66,75.26c-.19.04-.37-1.62-1.52-4.23-1.35-3.06-2.79-4.58-3.89-6.4-.1-.16-.4-.64-.89-1.13-.1-.1-.21-.19-.33-.28-.73-.61-.98-.58-1.26-1.08-.1-.18-.06-.21-.34-1-.25-.73-.39-1.1-.45-1.23-.59-1.37-1.08-1.43-1.08-2.44,0-.37.06-.91.22-1.17.24-.42.58-.09.68.03.31.31.39.74.79,2.04.46,1.49.31.73.7,1.93.16.51.31,1.07.61,1,.01,0,.1-.03.16-.1.04-.06.07-.12.07-.15.33-1.05.49-1.58.48-1.95-.03-.7-.31-1.19-.55-1.62-.28-.51-.31-.34-1.1-1.41-.43-.59-.58-.82-.83-1.16-.49-.67-.68-.8-1.03-1.25-.53-.68-.74-1.2-1.14-2.07-.56-1.22-1.17-2.51-2.01-3.77-1.05-1.6-1.77-2.1-1.55-2.7.18-.52.97-.91,1.55-.74.82.24.7,1.37,1.96,3.68.39.73.77,1.29,1.28,2.05.65,1,1.01,1.53,1.56,2.17,1.1,1.31,1.84,1.74,2.94,3.21.15.21.34.48.53.86.46.91.55,1.72.59,2.07.34,2.91.49,2.26.73,4.95.16,1.75.39,2.62.65,3.43.64,1.92,1.2,2.08,1.86,3.8.86,2.32.8,4.62.56,4.67h.03Z"/>
    <path class="cls-1" d="M334.48,45.43c-.31-.13-.95.12-2.23.64-.82.33-1.16.55-1.86.58-.45.03-.71-.04-.76.09-.13.31,1.22,1.26,1.71,1.71,2.96,2.64.46,10.22.76,10.3.39.1,4.06-12.59,2.38-13.3h0Z"/>
    <path class="cls-1" d="M328.39,47.09c-1-.31-1.37.1-2.41.09-2.69-.04-4.49-2.85-4.71-2.62-.12.12.55,1.08,1.89,3.02.43.62.64.92.7.98,1.26,1.47,2.45,1.34,4.01,2.57.67.53,1.05,1.03,1.55,1.68,1.8,2.36,2.05,4.5,2.32,4.44.34-.07-.39-3.42-.39-5.5,0-.3-.01-1.19-.42-2.24-.03-.09-.07-.18-.12-.27-.09-.18-.86-1.68-2.41-2.15h-.01Z"/>
    <path class="cls-1" d="M330.41,71.41c-.83-1.96-2.1-4.98-2.21-8.97-.1-3.45.76-3.91.24-6.21-.98-4.35-4.89-6.42-4.67-6.69.21-.25,3.71,1.52,5.82,5.26.37.67,1.07,1.92,1.4,3.7.64,3.52-.97,4.61-.68,8.26.12,1.46.64,2.82,1.68,5.57,1.58,4.13,3.06,6.39,2.94,6.46-.16.1-2.69-2.99-4.52-7.37h0Z"/>
    <path class="cls-1" d="M339.64,44.45c-.24-.22-.67-.12-1,0-.01.25-.04.68-.09,1.22-.39,4.5-.88,5.47-.98,8.51-.06,1.62.07,1.77-.09,2.82-.3,1.92-.83,2.3-1.07,3.77-.24,1.52.09,2.67.62,4.56.56,1.98,1.07,2.48,1.63,4.87.12.51.1.51.37,1.93.58,3.06,1.17,6.2,1.38,6.17.16-.01.03-2.12-.06-3.24-.15-1.74-.42-3.06-.64-4.2-.01-.1-.28-1.25-.83-3.55-.21-.92-.42-1.77-.82-2.88-.19-.53-.33-.86-.39-1.01-.83-2.17.55-4.26.73-8.5.03-.65.06-1.99.19-3.97.04-.68.09-1.13.18-1.71.1-.61.21-.97.58-2.51.4-1.6.51-2.07.27-2.3h0Z"/>
    <path class="cls-1" d="M312.5,46.23c-.49-.27-.86-.46-1.03-.33-.34.28.46,1.55,1.52,4.03.74,1.75,1.46,3.73,2.82,5.53.34.45.8,1,1.16.88.27-.09.4-.52.4-.88,0-.83-.83-1.05-1.66-2.17-.98-1.32-1.2-2.85-1.26-3.19-.16-1.08.09-1.23-.21-1.96-.46-1.19-1.49-1.75-1.74-1.9Z"/>
    <path class="cls-1" d="M320.02,63.91c-1.63-2.6-2.18-4.41-2.32-4.37-.16.06.33,2.69,1.78,5.5,1.05,2.04,1.55,2.07,3.37,4.84,1.6,2.45,2.6,4.5,3.37,6.09,1.72,3.57,2.41,5.84,2.47,5.82.1-.03-1.44-5.41-4.1-10.56-.55-1.05-1.31-2.53-2.53-4.37-.97-1.46-1.25-1.66-2.05-2.96Z"/>
    <path class="cls-2" d="M327.45,14.33c-4.74.12-6.85-.97-12.79-.06-1.74.27-5.91.91-6.39,2.35-.43,1.28,2.27,2.57,3.11,2.96,7.71,3.67,18.99,1.31,26.78-.33,1.35-.28,4.23-.8,9.17-3.06,2.23-1.03,4-1.83,4.62-2.9.27-.46.34-1,.1-1.47-.48-.97-2.12-1.23-2.76-1.35-4.78-.82-12.66,3.63-21.83,3.85h0Z"/>
  </g>
  <g>
    <path class="cls-3" d="M1409.72,303.36c.77.54,1.63.45,2.11.4,6.72-.75,10.08-1.13,10.75-2.54,1.07-2.28-1.38-6.41-6.28-14.69-2.59-4.37-3.46-5.25-3.75-7.64-.42-3.51.78-7.06,2-10.66.4-1.17.89-2.4,1.87-4.83,1.49-3.7,1.85-4.27,2.84-6.71,1.63-4.01,2.66-7.43,3.26-9.46,1.39-4.66,1.24-5.17,2.3-7.38,1.18-2.45,1.8-2.71,2.6-5.1.53-1.57.65-2.63,1.57-4.9.77-1.9,1.25-2.53,1.87-2.96.72-.49,1.19-.38,1.64-1.01.69-.94.34-2.09.82-2.29.41-.17.65.67,1.4.8.97.17,1.26-1.11,3.23-2.03.64-.3.93-.32,1.44-.73.56-.46.55-.74,1.25-1.38.67-.63.84-.51,1.25-1.01.18-.22.63-.8.72-1.71.03-.26.12-1.19-.39-1.82-.38-.46-.76-.35-1.11-.91-.24-.38-.36-.91-.23-1.01.18-.16.89.54,1.25.94.33.39.33.49.89,1.27.54.77.81,1.15,1.18,1.45,0,0,.35.22,1.04.65.59.37.85.53,1.08.87.18.26.15.35.29.48.26.22.49.1,1.21.11.74.02.79.16,1.11.03.35-.14.44-.35.75-.36.31,0,.55.2.65.29.8.63,2.41.55,3.33-.11.13-.08.13-.11.98-1.34,1.35-1.94,1.46-2.07,1.54-2.47.15-.83-.22-1-.07-2.18.12-.84.3-.77.36-1.45.05-.56-.06-.86-.49-2.61-.24-1.01-.24-1.05-.29-1.24-.64-2.34-3.01-4-3.56-4.39-.82-.57-2.09-1.46-3.89-1.71-1.92-.26-3.03.4-5.56-.15-.35-.07-.51-.13-1.19-.27-1.49-.32-2.38-.52-3.46-.56-.94-.04-1.75.05-2.39.13-1.19.14-1.64.29-2.45.13-.69-.14-.64-.31-1.39-.43-.49-.08-.55-.02-2-.06-1.06-.03-1.23-.06-1.39-.13-.39-.14-.59-.3-1.06-.37-.36-.05-.62-.02-.85,0,0,0-.57.06-2.24.2-1.15.1-1.01-.03-2,.07-.46.05-.91.13-1.83.3-.65.12-.98.18-1.45.27-1.55.33-1.6.48-2.26.5-.3,0-.97.02-1.76-.27-.77-.29-.85-.57-1.52-.7-.62-.12-.72.1-1.43.02-.77-.08-.76-.35-1.57-.53-1.06-.24-1.26.17-2.31-.1-.64-.16-.54-.31-1.37-.55-.82-.23-1.09-.14-1.78-.37-.68-.22-1.05-.52-1.35-.7-1.64-.95-3.03.69-5.85.53-1.92-.11-1.86-.9-3.28-.69-1.47.21-1.6,1.06-4.03,2.48-2.11,1.24-2.35.79-4.03,2-1.19.86-1.25,1.2-2.67,2.13-.93.61-1.12.6-2.6,1.51-1.42.88-2.14,1.33-2.48,1.78-.56.79-.5,1.26-1.42,2.62-.24.35-.26.35-.74,1.03-.78,1.11-.79,1.21-1.05,1.37-.36.21-.69.22-.99.62-.08.11-.19.26-.16.4.06.2.39.2.86.3.61.12.68.23,1.12.33,1.09.23,2.1-.14,2.38-.25.85-.33,1.37-.83,1.68-.57.06.05.09.13.15.26.23.54.22.98.26,1.24.06.38.35.71.95,1.37.55.61.95,1.06,1.64,1.43.25.14.91.46,1.76.53,1.76.14,3.13-.9,3.52-1.19,1.32-1.02,1.82-2.28,2.21-2.09.18.08.17.38.33,1.39.04.22.19,1.17.38,1.81.21.76.65,1.5,1.55,2.97.41.68.62,1.02.84,1.26.48.51.89.7,1.97,1.2,3.02,1.43,2.89,1.43,3.17,1.49.67.14,1.29.52,1.97.7.07.02.23.06.35.21.2.26.1.61.1,1,0,.81.52,1.41.6,1.53.3.36.43.26,1.37.93.44.31.66.46.81.63.25.3.33.52.81,1.87.28.8.43,1.21.51,1.38.3.71.64,1.41.64,1.41.19.42.29.61.33.93.06.43-.07.49,0,.82.1.46.39.54.64,1.05.06.13.18.38.23,1,.19,1.96-.14,4.73-.14,4.73-.3,2.5-.16,2.09-.37,3.62-.12.8-.57,3.93-2.01,8.27-1.26,3.79-1.63,3.62-2.33,6.4-.43,1.71-.6,3.11-.94,5.91-.4,3.25-.59,4.88-.55,7.1.06,2.98.5,5.24.67,6.09.51,2.42.69,1.91,1.19,4.3.32,1.54.57,3.38,1.27,7.68.07.42.15.88.35,1.45.39,1.06.79,1.29,1.8,2.88.23.37.61.98,1.05,1.83.5.98.51,1.17.94,2,.55,1.01.84,1.55,1.37,1.92l-.02.02Z"/>
    <path class="cls-1" d="M1410.42,229.59c.08,1.63.19,2.95.3,3.9.09.75.16,1.21.19,1.51.16.99.33,1.81.49,2.52.56,2.61.8,2.38,1.11,4.21.28,1.66.5,2.98.18,4.48-.25,1.18-.6,1.34-1.05,3.26-.18.79-.08.57-.4,2.2-.22,1.12-.12,1.75-.32,2.7-.35,1.56-1.19,2.38-1.07,2.43.14.06,1.29-1,1.69-2.2.05-.15.28-.75.44-1.44.18-.82.39-1.01,1.01-2.27.7-1.43,1.07-2.19,1.33-3.22.13-.49.47-1.95.32-3.67-.04-.5-.1-.71-.96-3.56-.63-2.09-.82-2.68-1.04-3.7-.23-1.07-.36-1.97-.41-2.43-.18-1.77.15-3.66.23-4.17-.67-.18-1.34-.36-2.01-.54l-.03-.02Z"/>
    <path class="cls-1" d="M1415.79,253.73c.14.01.21-1.36.75-3.51.5-1.96.91-2.69,1.44-4.24,1.71-4.96.44-6.39,2-8.57.26-.37,2.5-3.41,2.86-3.84.03-.03.16-.18.29-.41.44-.71.27-.84.84-1.88.38-.69.76-1.18,1.09-1.6.06-.07.11-.14.14-.17-.34-.11-.67-.22-1.01-.33-.44.4-.72.8-.9,1.11,0,0-.54.92-.95,1.14,0,0-.02.01-.05.02-.19.1-.36.17-.38.11s.09-.21.21-.44c.19-.35.19-.42.41-.86.27-.55.5-.61.53-.99,0-.1,0-.18,0-.23-.13-.01-.28-.02-.44-.01-.18,0-.36.03-.51.07-.17.24-.26.46-.32.62-.11.3-.09.4-.21.63-.17.32-.36.38-.59,1.11-.15.46-.14.63-.2,1.07,0,0-.03.23-.14.69-.18.8-1.03,1.9-1.35,2.33-.7.94-1.05,1.4-1.27,1.89-.54,1.17-.17,1.89-.16,3.83,0,.42,0,3.01-.91,5.72-.5,1.49-.76,1.53-1.06,2.84-.45,2.02-.26,3.89-.1,3.9h0Z"/>
    <path class="cls-1" d="M1407.91,253.24c-.14-.04.4-3.94.43-4.15.18-1.28.29-1.93.46-3.37.12-1.05.17-1.63.18-2.19,0-.73-.06-1.09-.12-1.5-.22-1.62-.05-2.16-.25-3.72-.15-1.1-.2-.67-.4-2.04-.1-.64-.12-1.01-.3-2.39-.09-.67-.14-.99-.16-1.13-.19-1.09-.82-1.89-.98-2.09-.72-.91-1.53-1.21-1.49-1.32.05-.11.68.38,1.68.4.61.01.87-.15,1.07.07.13.14.07.24.16,1.43,0,.18.05.53.12.91.04.19.06.22.13.87.05.46.1.99.26.91,0,0,.11-.05.16-.26.06-.25.03-.58,0-.91,0-.13-.29-1.24-.18-2.15.06-.5.25-1.03.38-1.02.16.02.05.84.34,2.29.16.74.3,1.13.3,1.87,0,.34-.05.38-.1.96-.18,2.26-.08,3.86-.05,4.38.05.68.07,1,.09,1.16.02.14.13.79.12,1.29,0,.17-.02.35-.02.35-.02.25-.06.45-.07.51-.06.34,0,.18-.57,3.73-.54,3.32-.53,3.03-.57,3.53-.09.86-.11,1.54-.32,2.52-.09.41-.25,1.1-.31,1.08h.03Z"/>
    <path class="cls-1" d="M1408.11,242.37c-.02-.26-.05-.42-.07-.62-.18-1.44-.22-2.58-.25-3.04-.16-2.37-1.03-4.68-1.21-5.16-.53-1.4-.86-2.28-1.67-3.16-1.1-1.18-2.31-1.54-2.27-1.67.05-.12,1.2.01,2.17.83,1.05.88,1.58,2.26,1.8,2.85.09.23.38,1,.55,1.44.18.45.19.48.31.82.3.95.55,1.75.75,3.04.17,1.14.13,1.54.18,2.3.04.52.1.84.14,1.12.18,1.28.09,2.5.05,3.03-.12,1.47-.44,2.7-.5,2.69-.05-.01.08-.75.11-2.08,0-.45,0-1.33-.09-2.38v-.02Z"/>
    <path class="cls-1" d="M1417.28,251.63c.13.03.24-1.15.99-3.01.89-2.18,1.83-3.25,2.55-4.55.07-.12.26-.45.58-.8.07-.07.14-.14.21-.2.48-.43.64-.41.83-.77.07-.13.04-.15.22-.71.17-.52.25-.78.29-.88.39-.97.71-1.01.71-1.73,0-.26-.04-.64-.15-.83-.16-.3-.38-.06-.45.02-.2.22-.25.53-.52,1.45-.3,1.06-.2.52-.46,1.37-.11.36-.2.76-.4.71,0,0-.07-.02-.11-.07-.03-.04-.05-.08-.05-.11-.21-.75-.32-1.12-.31-1.38.02-.5.2-.84.36-1.15.18-.36.2-.24.72-1,.28-.42.38-.58.55-.82.32-.48.45-.57.67-.89.35-.49.49-.86.75-1.47.37-.87.77-1.78,1.31-2.68.69-1.14,1.16-1.49,1.01-1.92-.12-.37-.63-.64-1.01-.53-.54.17-.46.97-1.28,2.62-.25.52-.51.92-.84,1.46-.43.71-.66,1.09-1.02,1.54-.72.93-1.21,1.24-1.93,2.28-.1.15-.22.34-.35.61-.3.64-.36,1.22-.39,1.47-.22,2.07-.32,1.6-.48,3.52-.11,1.25-.25,1.86-.43,2.44-.42,1.36-.79,1.48-1.22,2.7-.56,1.65-.53,3.28-.37,3.32h-.02Z"/>
    <path class="cls-1" d="M1412.82,230.43c.2-.1.62.08,1.46.45.54.23.76.39,1.22.41.29.02.47-.03.5.06.09.22-.8.9-1.12,1.21-1.94,1.88-.3,7.26-.5,7.32-.25.07-2.66-8.94-1.56-9.45h0Z"/>
    <path class="cls-1" d="M1416.81,231.61c.65-.22.9.07,1.58.06,1.76-.03,2.94-2.03,3.09-1.86.08.08-.36.77-1.24,2.14-.28.44-.42.65-.46.7-.83,1.05-1.61.95-2.63,1.83-.44.38-.69.73-1.01,1.19-1.18,1.68-1.34,3.2-1.52,3.16-.22-.05.25-2.43.25-3.91,0-.21,0-.84.27-1.59.02-.06.05-.13.08-.19.06-.13.56-1.19,1.58-1.53h0Z"/>
    <path class="cls-1" d="M1415.48,248.9c.55-1.39,1.37-3.54,1.45-6.38.07-2.45-.5-2.78-.16-4.41.64-3.09,3.2-4.56,3.06-4.75-.14-.18-2.43,1.08-3.82,3.74-.24.48-.7,1.36-.91,2.63-.42,2.5.63,3.27.45,5.87-.08,1.03-.42,2.01-1.1,3.96-1.03,2.94-2,4.54-1.93,4.59.11.07,1.76-2.12,2.96-5.24h0Z"/>
    <path class="cls-1" d="M1409.44,229.73c.16-.16.44-.08.65,0,0,.18.03.49.06.87.25,3.2.57,3.89.64,6.05.04,1.15-.05,1.26.06,2.01.19,1.36.55,1.64.7,2.68.16,1.08-.06,1.9-.41,3.24-.37,1.4-.7,1.76-1.07,3.46-.08.36-.07.36-.24,1.37-.38,2.18-.77,4.4-.91,4.38-.11-.01-.02-1.51.04-2.3.1-1.24.27-2.18.42-2.99,0-.07.18-.89.55-2.52.14-.65.27-1.26.54-2.05.13-.38.21-.61.25-.72.55-1.54-.36-3.03-.48-6.04-.02-.46-.04-1.41-.13-2.82-.03-.49-.06-.8-.12-1.21-.07-.43-.14-.69-.38-1.78-.26-1.14-.33-1.47-.18-1.64h0Z"/>
    <path class="cls-1" d="M1427.21,231c.32-.19.56-.33.67-.23.22.2-.3,1.1-.99,2.86-.49,1.25-.95,2.65-1.85,3.93-.22.32-.53.71-.76.62-.18-.06-.26-.37-.26-.62,0-.59.55-.75,1.09-1.54.64-.94.79-2.03.83-2.27.11-.77-.06-.88.14-1.39.3-.84.97-1.25,1.14-1.35Z"/>
    <path class="cls-1" d="M1422.29,243.57c1.07-1.85,1.43-3.14,1.52-3.1.11.04-.21,1.91-1.17,3.91-.69,1.45-1.01,1.47-2.21,3.44-1.05,1.74-1.7,3.2-2.21,4.33-1.13,2.53-1.58,4.15-1.62,4.14-.07-.02.94-3.84,2.69-7.51.36-.75.86-1.8,1.65-3.1.63-1.03.82-1.18,1.34-2.1Z"/>
    <path class="cls-2" d="M1417.42,208.33c3.1.08,4.49-.69,8.38-.04,1.14.19,3.87.64,4.19,1.67.28.91-1.49,1.83-2.03,2.1-5.05,2.61-12.44.93-17.54-.23-.89-.2-2.77-.57-6.01-2.18-1.46-.73-2.62-1.3-3.03-2.06-.18-.33-.22-.71-.07-1.05.31-.69,1.39-.88,1.81-.96,3.13-.58,8.29,2.58,14.3,2.73h0Z"/>
  </g>
</svg>