<?xml version="1.0" encoding="UTF-8"?>
<svg id="Layer_1" data-name="Layer 1" xmlns="http://www.w3.org/2000/svg" viewBox="0 0 512.77 512.89">
  <defs>
    <style>
      .cls-1 {
        opacity: .2;
      }

      .cls-1, .cls-2, .cls-3 {
        isolation: isolate;
      }

      .cls-1, .cls-2, .cls-3, .cls-4 {
        stroke-width: 0px;
      }

      .cls-1, .cls-3 {
        fill: #de7226;
      }

      .cls-2, .cls-5, .cls-4 {
        fill: #03361f;
      }

      .cls-2, .cls-6 {
        opacity: .8;
      }

      .cls-5 {
        font-family: MyriadPro-Regular, 'Myriad Pro';
        font-size: 49.91px;
      }

      .cls-3 {
        opacity: .19;
      }
    </style>
  </defs>
  <path class="cls-4" d="M178.04,302.39c1.49.92,3.13.72,4.05.61,12.79-1.68,19.21-2.53,20.4-5.08,1.94-4.11-2.95-11.33-12.69-25.8-5.15-7.64-6.85-9.16-7.52-13.41-.97-6.21,1.15-12.6,3.3-19.07.71-2.11,1.58-4.31,3.34-8.68,2.67-6.65,3.33-7.68,5.11-12.07,2.91-7.22,4.72-13.36,5.78-17,2.44-8.35,2.11-9.27,4.03-13.25,2.13-4.42,3.31-4.92,4.72-9.2.93-2.83,1.12-4.71,2.76-8.8,1.38-3.42,2.26-4.57,3.43-5.35,1.35-.9,2.25-.74,3.09-1.89,1.28-1.71.55-3.74,1.45-4.12.77-.32,1.28,1.15,2.72,1.36,1.87.25,2.35-2.04,6.08-3.77,1.21-.56,1.77-.61,2.72-1.37,1.06-.86,1.02-1.34,2.31-2.52,1.25-1.16,1.57-.94,2.33-1.87.32-.4,1.17-1.46,1.29-3.08.04-.47.17-2.13-.83-3.21-.75-.81-1.47-.58-2.16-1.56-.48-.66-.73-1.6-.49-1.79.35-.29,1.72.91,2.42,1.61.65.68.66.85,1.75,2.21,1.06,1.34,1.6,2.01,2.32,2.51,0,0,.68.38,2.02,1.11,1.15.63,1.64.9,2.1,1.48.35.46.3.61.58.83.51.38.93.14,2.31.13,1.41,0,1.51.24,2.12,0,.66-.26.82-.64,1.41-.68.59-.02,1.05.33,1.26.47,1.55,1.09,4.64.85,6.35-.36.24-.16.24-.19,1.81-2.44,2.49-3.53,2.69-3.76,2.82-4.47.24-1.49-.48-1.77-.23-3.87.18-1.51.54-1.39.62-2.59.07-1-.15-1.52-1.05-4.61-.51-1.79-.51-1.85-.62-2.18-1.34-4.14-5.94-6.96-7.01-7.63-1.59-.97-4.07-2.48-7.52-2.84-3.67-.37-5.76.87-10.62.02-.67-.11-.97-.2-2.28-.43-2.86-.49-4.58-.8-6.63-.82-1.81-.03-3.34.18-4.57.35-2.26.31-3.11.59-4.68.35-1.33-.21-1.24-.51-2.68-.7-.93-.13-1.04,0-3.83,0-2.03,0-2.35-.05-2.66-.15-.75-.22-1.15-.5-2.04-.6-.69-.08-1.19,0-1.62.04,0,0-1.09.14-4.27.47-2.19.23-1.93,0-3.81.23-.87.12-1.74.27-3.48.62-1.24.24-1.87.37-2.76.56-2.94.66-3.03.93-4.29,1-.58.02-1.86.09-3.38-.4-1.48-.47-1.64-.97-2.93-1.16-1.2-.17-1.37.21-2.73.11-1.47-.11-1.47-.58-3.02-.86-2.04-.38-2.39.36-4.41-.05-1.23-.25-1.04-.52-2.65-.91-1.57-.37-2.09-.19-3.42-.57-1.31-.36-2.03-.87-2.62-1.17-3.17-1.61-5.75,1.38-11.15,1.24-3.67-.09-3.59-1.5-6.3-1.05-2.8.45-3,1.96-7.58,4.62-3.98,2.31-4.44,1.53-7.6,3.76-2.23,1.58-2.32,2.21-4.99,3.93-1.76,1.14-2.11,1.13-4.89,2.82-2.67,1.63-4.03,2.48-4.66,3.3-1.04,1.44-.89,2.26-2.59,4.73-.45.63-.49.63-1.36,1.88-1.43,2.01-1.45,2.2-1.94,2.5-.68.39-1.31.43-1.87,1.16-.14.19-.36.48-.28.72.12.35.75.34,1.65.48,1.18.18,1.31.38,2.15.52,2.09.36,4.01-.35,4.54-.57,1.6-.63,2.58-1.55,3.19-1.1.11.09.17.22.29.46.47.95.47,1.74.56,2.18.13.67.7,1.24,1.89,2.39,1.09,1.06,1.87,1.83,3.19,2.45.49.23,1.75.78,3.39.85,3.37.15,5.94-1.76,6.67-2.3,2.48-1.89,3.37-4.15,4.12-3.83.34.14.33.67.7,2.46.08.39.43,2.07.81,3.19.45,1.34,1.32,2.63,3.1,5.2.81,1.18,1.24,1.79,1.66,2.19.94.88,1.73,1.19,3.81,2.04,5.83,2.38,5.59,2.39,6.13,2.49,1.29.21,2.5.85,3.79,1.14.13.03.45.1.68.36.4.46.22,1.08.23,1.78.06,1.45,1.05,2.49,1.23,2.69.59.62.83.45,2.67,1.58.85.52,1.29.79,1.57,1.09.5.51.66.9,1.63,3.28.58,1.41.88,2.14,1.03,2.43.61,1.24,1.29,2.48,1.29,2.48.39.74.59,1.07.68,1.64.13.77-.11.87.04,1.46.21.82.77.94,1.28,1.83.12.22.35.67.49,1.77.47,3.48-.03,8.42-.03,8.42-.46,4.47-.2,3.73-.53,6.46-.18,1.43-.91,7.02-3.45,14.81-2.22,6.81-2.93,6.53-4.14,11.5-.74,3.06-1,5.57-1.52,10.57-.61,5.81-.9,8.71-.72,12.65.25,5.29,1.2,9.29,1.57,10.8,1.08,4.28,1.41,3.36,2.47,7.58.69,2.73,1.26,5.98,2.78,13.59.15.75.32,1.55.74,2.56.79,1.86,1.57,2.25,3.58,5.04.46.65,1.22,1.72,2.1,3.2,1,1.72,1.02,2.06,1.9,3.5,1.11,1.77,1.67,2.72,2.71,3.35l-.04.04Z"/>
  <path class="cls-1" d="M175.85,171.13c.23,2.89.51,5.23.76,6.91.2,1.33.36,2.15.44,2.68.34,1.76.72,3.19,1.05,4.46,1.2,4.61,1.64,4.18,2.32,7.44.62,2.93,1.09,5.27.55,7.95-.43,2.12-1.09,2.42-1.85,5.86-.32,1.42-.12,1.02-.66,3.93-.37,2-.14,3.12-.48,4.82-.59,2.8-2.15,4.29-1.93,4.37.26.11,2.42-1.85,3.13-3.99.09-.27.5-1.35.77-2.58.31-1.47.7-1.82,1.82-4.09,1.27-2.57,1.94-3.94,2.39-5.8.22-.87.8-3.5.44-6.55-.1-.88-.22-1.25-2.01-6.28-1.31-3.69-1.69-4.73-2.17-6.52-.5-1.88-.78-3.49-.9-4.3-.42-3.15.1-6.52.25-7.43-1.29-.28-2.58-.57-3.87-.85l-.06-.04Z"/>
  <path class="cls-1" d="M187.27,213.81c.26.01.34-2.43,1.26-6.27.85-3.52,1.6-4.84,2.55-7.62,3.03-8.92.53-11.39,3.42-15.35.48-.67,4.61-6.19,5.28-6.98.05-.06.29-.33.54-.75.8-1.28.48-1.52,1.51-3.39.69-1.24,1.39-2.14,2.01-2.91.11-.13.2-.25.25-.31-.66-.17-1.29-.36-1.95-.53-.82.74-1.34,1.46-1.66,2.02,0,0-.98,1.66-1.77,2.08,0,0-.04.02-.09.04-.37.18-.68.32-.72.21s.16-.38.39-.8c.36-.63.35-.76.74-1.54.49-.99.92-1.11.96-1.79,0-.17,0-.32-.03-.41-.24-.01-.54-.02-.84,0-.35,0-.69.07-.96.16-.3.44-.48.84-.58,1.12-.19.53-.15.72-.38,1.14-.3.57-.67.69-1.08,2-.26.83-.23,1.13-.34,1.91,0,0-.04.41-.23,1.23-.31,1.44-1.88,3.43-2.47,4.22-1.29,1.71-1.94,2.55-2.33,3.43-.97,2.11-.23,3.37-.11,6.83.02.75.14,5.35-1.47,10.23-.88,2.67-1.38,2.76-1.89,5.11-.76,3.61-.32,6.93,0,6.94v.02Z"/>
  <path class="cls-1" d="M172.19,213.33c-.26-.07.57-7.03.62-7.4.27-2.28.47-3.45.71-6.01.17-1.87.24-2.9.23-3.9-.03-1.3-.16-1.93-.29-2.66-.5-2.86-.2-3.85-.66-6.6-.33-1.95-.42-1.17-.86-3.6-.22-1.14-.27-1.8-.69-4.23-.2-1.18-.31-1.76-.35-2-.42-1.92-1.65-3.32-1.98-3.67-1.42-1.58-2.98-2.08-2.91-2.27.09-.19,1.32.64,3.24.63,1.17-.01,1.65-.31,2.05.08.25.24.14.43.37,2.53.03.32.12.94.27,1.61.08.34.12.39.28,1.53.12.82.23,1.76.55,1.6.02,0,.2-.1.28-.48.1-.45.03-1.03-.04-1.62-.02-.22-.62-2.18-.44-3.82.09-.89.43-1.85.68-1.84.3.03.13,1.5.76,4.06.33,1.31.63,1.99.67,3.31.02.6-.07.68-.14,1.71-.25,4.03.04,6.88.12,7.8.13,1.2.18,1.78.22,2.06.04.24.28,1.4.28,2.29,0,.3-.02.62-.02.62-.03.45-.09.81-.11.91-.1.6,0,.32-.92,6.66-.86,5.92-.86,5.42-.93,6.3-.13,1.53-.13,2.75-.49,4.51-.15.74-.43,1.97-.54,1.93l.06-.02Z"/>
  <path class="cls-1" d="M172.06,193.99c-.05-.47-.11-.75-.16-1.1-.4-2.55-.55-4.57-.63-5.4-.41-4.2-2.19-8.27-2.55-9.12-1.07-2.47-1.74-4.01-3.35-5.53-2.16-2.05-4.48-2.62-4.41-2.85.09-.21,2.29-.04,4.19,1.37,2.05,1.5,3.12,3.94,3.58,4.98.18.41.77,1.76,1.11,2.53.36.8.39.84.63,1.45.62,1.67,1.14,3.09,1.58,5.37.37,2.02.32,2.74.46,4.08.1.92.23,1.5.31,1.98.41,2.26.29,4.45.24,5.39-.15,2.62-.71,4.83-.82,4.81-.09-.02.11-1.34.11-3.71-.02-.81-.06-2.37-.28-4.22v-.04Z"/>
  <path class="cls-1" d="M190.01,209.99c.24.05.41-2.06,1.75-5.4,1.59-3.91,3.34-5.88,4.65-8.23.12-.21.48-.82,1.08-1.46.13-.13.25-.25.4-.37.89-.79,1.21-.77,1.54-1.41.12-.23.07-.26.39-1.27.29-.93.45-1.4.52-1.57.7-1.75,1.31-1.84,1.27-3.12-.01-.47-.11-1.14-.32-1.48-.31-.52-.73-.09-.85.06-.38.4-.46.95-.92,2.6-.53,1.89-.37.93-.81,2.47-.19.64-.35,1.36-.73,1.28-.02,0-.13-.03-.21-.13-.06-.07-.1-.15-.1-.19-.44-1.32-.67-1.97-.66-2.44.01-.88.35-1.51.63-2.07.34-.65.38-.44,1.33-1.82.52-.77.7-1.05,1-1.49.59-.86.83-1.04,1.24-1.61.65-.88.89-1.55,1.36-2.65.67-1.56,1.38-3.21,2.38-4.84,1.27-2.06,2.14-2.71,1.84-3.47-.24-.65-1.24-1.11-1.96-.89-1.01.33-.83,1.75-2.33,4.72-.46.93-.92,1.66-1.53,2.63-.78,1.28-1.21,1.97-1.88,2.79-1.33,1.69-2.25,2.26-3.57,4.16-.18.27-.41.61-.64,1.11-.55,1.16-.63,2.2-.67,2.63-.33,3.69-.54,2.87-.74,6.28-.14,2.22-.39,3.32-.7,4.36-.73,2.44-1.44,2.67-2.19,4.87-1,2.96-.85,5.87-.55,5.92l-.04.02Z"/>
  <path class="cls-1" d="M180.47,172.51c.39-.18,1.19.12,2.81.73,1.03.39,1.47.66,2.34.67.56.02.89-.08.95.09.18.39-1.48,1.64-2.08,2.22-3.61,3.44-.23,12.94-.6,13.04-.48.14-5.5-15.77-3.43-16.73v-.02Z"/>
  <path class="cls-1" d="M188.14,174.41c1.23-.43,1.71.09,3.01.03,3.36-.15,5.52-3.76,5.8-3.46.15.15-.65,1.39-2.26,3.88-.52.8-.77,1.19-.84,1.26-1.53,1.9-3.02,1.77-4.93,3.38-.82.7-1.29,1.33-1.88,2.17-2.17,3.05-2.41,5.76-2.75,5.69-.43-.08.37-4.33.3-6.96-.01-.38-.02-1.5.44-2.85.03-.11.09-.23.14-.34.11-.23,1.02-2.15,2.94-2.8h.02Z"/>
  <path class="cls-1" d="M186.44,205.22c.97-2.51,2.45-6.36,2.47-11.42.01-4.36-1.08-4.91-.51-7.84,1.08-5.54,5.9-8.28,5.61-8.61-.27-.31-4.6,2.04-7.11,6.84-.44.86-1.27,2.46-1.62,4.72-.68,4.47,1.36,5.79,1.14,10.42-.1,1.84-.7,3.59-1.91,7.1-1.83,5.27-3.61,8.18-3.46,8.27.21.13,3.26-3.87,5.4-9.47v-.02Z"/>
  <path class="cls-1" d="M173.98,171.44c.29-.29.83-.17,1.25-.03.03.32.08.86.15,1.54.64,5.68,1.28,6.88,1.52,10.73.13,2.05-.03,2.24.21,3.57.44,2.41,1.12,2.88,1.47,4.73.35,1.91-.02,3.38-.63,5.79-.64,2.52-1.25,3.17-1.88,6.22-.13.64-.11.64-.4,2.45-.62,3.89-1.26,7.87-1.52,7.84-.2-.01-.11-2.68-.04-4.1.13-2.2.42-3.88.66-5.34.02-.13.31-1.59.92-4.52.23-1.17.46-2.25.92-3.67.22-.68.38-1.1.45-1.29.97-2.77-.83-5.37-1.2-10.72-.06-.83-.14-2.51-.38-5.01-.08-.86-.15-1.42-.28-2.15-.15-.77-.29-1.21-.81-3.15-.56-2.01-.7-2.59-.41-2.9v.02Z"/>
  <path class="cls-1" d="M207.99,172.79c.6-.35,1.06-.61,1.27-.45.44.35-.52,1.97-1.76,5.14-.87,2.24-1.7,4.76-3.34,7.08-.41.57-.97,1.29-1.42,1.15-.34-.1-.52-.64-.53-1.09-.03-1.05,1.01-1.36,2.01-2.8,1.18-1.7,1.41-3.65,1.47-4.08.17-1.38-.15-1.56.19-2.49.54-1.52,1.8-2.27,2.11-2.46Z"/>
  <path class="cls-1" d="M199.18,195.39c1.96-3.34,2.58-5.65,2.75-5.6.21.07-.32,3.41-2.04,7.01-1.25,2.61-1.86,2.66-4.06,6.24-1.92,3.15-3.1,5.78-4.01,7.81-2.04,4.57-2.81,7.46-2.89,7.45-.13-.03,1.62-6.88,4.77-13.49.65-1.35,1.55-3.24,3.01-5.61,1.16-1.87,1.51-2.15,2.47-3.81Z"/>
  <path class="cls-3" d="M188.2,132.96c5.93,0,8.54-1.45,16-.5,2.18.28,7.43.95,8.07,2.75.58,1.6-2.76,3.33-3.78,3.84-9.52,4.9-23.71,2.29-33.51.49-1.7-.31-5.33-.87-11.57-3.56-2.82-1.22-5.06-2.18-5.88-3.51-.35-.57-.46-1.25-.18-1.86.56-1.24,2.62-1.63,3.41-1.8,5.96-1.19,15.96,4.16,27.44,4.13v.02Z"/>
  <path class="cls-4" d="M180.95,10.9C81.01,10.9,0,91.91,0,191.85s81.01,180.95,180.95,180.95,180.95-81.01,180.95-180.95S280.88,10.9,180.95,10.9ZM181.44,351.15c-87.98,0-159.31-71.32-159.31-159.31S93.46,32.54,181.44,32.54s159.31,71.32,159.31,159.31-71.32,159.31-159.31,159.31Z"/>
  <path class="cls-4" d="M350.87,318.45c-10.06-7.84-20.13-15.67-30.19-23.51-4.89,4.45-9.78,8.91-14.66,13.36,9.41,8.81,18.82,17.62,28.23,26.43-5.69,5.57-11.38,11.14-17.07,16.72-9.04-8.52-18.08-17.03-27.12-25.55l-8.59,10.73c7.74,9.01,15.49,18.03,23.23,27.04,45.24,49.74,90.47,99.48,135.71,149.22,11.32-5.91,27.07-15.74,42.61-31.51,14.69-14.91,24.02-29.85,29.76-40.85-53.96-40.69-107.93-81.38-161.89-122.07Z"/>
  <path class="cls-4" d="M181.44,38.19c-84.86,0-153.65,68.79-153.65,153.65s68.79,153.65,153.65,153.65,153.65-68.79,153.65-153.65S266.3,38.19,181.44,38.19ZM181.44,339.32c-81.45,0-147.48-66.03-147.48-147.48S99.99,44.37,181.44,44.37s147.48,66.03,147.48,147.48-66.03,147.48-147.48,147.48Z"/>
  <g class="cls-6">
    <path class="cls-2" d="M245.66,305.02c-1.45-1.73-3.28-3.12-4.66-4.85-.2-.25-.24-.55-.28-.85.02-.49.42-.87.41-1.26-.34-1.66-.99-3.32-1.83-4.96-.84-1.63-1.9-3.21-3.19-4.74-3.87-4.82-6.47-9.64-10.84-14.43-2.45-2.72-5.26-5.17-7.91-7.82-.74-.85-1.35-1.65-1.66-2.64-.03-.44.35-1.22,1.16-.96.82.26,1.69.65,2.39,1.07,3.13,1.91,6.24,3.36,9.35,5.32,3.24,2.01,3.31,4.64,4.99,7.04,1.74,2.32,4.03,4.05,6.03,6.21.41.6.41,1.34.06,1.83-.49.95-1.39.9-.61,1.97,1.14,1.35,2.78,2.34,3.86,3.8,1.67,2.52,2.63,4.8,5,7.16,1.93,1.83,3.79,3.78,3.77,5.94,0,1.73-1.25,3-2.03,4.44-.49,1-.24,2.12-.4,3.2-.04.22-.36.4-.58.64-1.48-1.14-2.28-2.74-2.5-4.27-.02-.21.2-.33.31-.5.02-.51-.49-.9-.86-1.33h.02Z"/>
    <path class="cls-2" d="M246.47,305.27c-1.44-1.75-3.25-3.16-4.63-4.9-.19-.25-.24-.55-.27-.86.02-.49.44-.87.42-1.26-.34-1.67-.97-3.33-1.82-4.96-.84-1.64-1.9-3.22-3.18-4.75-3.87-4.83-6.52-9.5-10.87-14.29-2.45-2.72-5.26-5.17-7.92-7.81-.74-.85-1.36-1.65-1.66-2.64-.03-.44-.41-1.56.41-1.3s1.69.65,2.39,1.07c3.13,1.91,6.24,3.36,9.35,5.32,3.24,2.01,3.3,4.64,4.99,7.04,1.74,2.32,4.03,4.05,6.03,6.21.41.6.4,1.34.06,1.83-.49.95-1.4.89-.62,1.96,1.14,1.35,2.78,2.34,3.86,3.8,1.67,2.52,2.64,4.8,5.01,7.16,1.93,1.83,3.79,3.78,3.77,5.94,0,1.73-1.25,3-2.03,4.44-.49,1-.24,2.12-.4,3.21-.04.22-.36.4-.58.64-1.48-1.13-1.61-2.45-1.8-4,0-.21.23-.34.33-.5,0-.52-.48-.92-.85-1.35h0Z"/>
    <path class="cls-2" d="M247.98,305.65c-1.4-1.8-3.21-3.24-4.56-5-.2-.25-.23-.56-.26-.86.02-.49.43-.87.42-1.27-.33-1.68-.76-3.29-1.4-4.87-.64-1.58-1.48-3.14-2.77-4.67-3.86-4.86-6.6-9.1-10.96-13.89-2.45-2.72-5.26-5.16-7.93-7.79-.74-.85-2.12-1.98-2.43-2.96-.03-.44-1.17-1.89-.35-1.64s1.69.65,2.39,1.06c3.13,1.91,6.25,3.35,9.35,5.31,3.24,2.01,3.31,4.64,4.99,7.04,1.74,2.32,4.04,4.05,6.03,6.22.42.61.4,1.35.06,1.83-.49.95-1.39.73-.61,1.8,1.14,1.35,2.78,2.35,3.86,3.81,1.67,2.52,2.63,4.8,5.01,7.18,1.92,1.85,3.79,3.82,3.76,5.99-.02,1.75-1.28,3.03-2.05,4.48-.51,1.01-.25,2.14-.44,3.25-.04.22-.36.4-.58.64-1.51-1.15-.91-2.18-1.04-3.77,0-.22.22-.34.33-.51.05-.53-.49-.94-.82-1.39h0Z"/>
    <path class="cls-2" d="M250.25,305.36c-1.15-1.46-2.77-1.69-4.37-3.92-.19-.26-.21-.57-.24-.88.03-.49.45-.87.45-1.28-.31-1.69-.71-3.32-1.36-4.91-.64-1.59-1.48-3.13-2.75-4.69-3.85-4.89-5.27-8.03-9.61-12.83-2.45-2.72-4.49-4.84-7.17-7.45-.75-.84-3.65-2.62-3.98-3.6-.03-.43-3.45-2.89-2.63-2.64.82.26,1.26.38,1.96.79,3.13,1.9,5.82,3.17,8.93,5.12,3.24,2.01,3.41,4.76,5.1,7.16,1.74,2.32,4.03,4.05,6.02,6.22.42.6.4,1.35.06,1.83-.49.95.02.55.78,1.62,1.14,1.36,1.41,2.51,2.49,3.98,1.67,2.52,2.63,4.8,5,7.18,1.91,1.85,3.79,3.83,3.75,6-.02,1.75-1.3,3.03-2.08,4.48-.53,1.01-.27,2.15-.46,3.26-.04.22-.36.4-.58.64-.78-.59-.78-1.04-.69-1.56.05-.26.16-.54.27-.86.08-.31.13-.66.12-1.06,0-.22.67-.49.78-.66-.04.65.02.17.1-.48.05-.32.07-.69.08-.98.02-.29.02-.49.02-.49h0Z"/>
  </g>
  <g class="cls-6">
    <path class="cls-2" d="M228.42,301.86c.63-1.05,1.1-2.06,1.57-3.04.47-.99.89-1.93,1.53-2.94.18-.29.53-.54.89-.79.63-.37,1.37-.48,1.85-.8,3.67-2.92,6.37-6.39,8.19-10.03,2.96-5.72,7.45-10.72,9.53-16.56.6-1.65.95-3.28,1.14-4.9.2-1.62.23-3.23.13-4.84.04-.5.04-.98.12-1.46.09-.48.18-.96.38-1.46.13-.21.42-.48.74-.64.32-.17.67-.22.96.01.56.46,1.11,1.09,1.43,1.71,1.37,2.81,2.67,5.38,3.07,8.5.21,1.61-.45,3.04-1.36,4.39-.92,1.35-2.06,2.62-2.9,4-1.53,2.71-2.08,5.16-3.32,7.79-.45.66-1.34,1.24-2.16,1.48-1.48.54-2.06.11-2.79,1.32-.81,1.6-.82,3.14-1.8,4.82-1.8,2.8-3.94,5.14-5.31,8.09-.51,1.18-1.04,2.34-1.83,3.45s-1.81,2.11-3.16,2.92c-2.16,1.31-4.59,1.74-6.87,2.65-1.55.65-2.64,1.77-3.9,2.78-.25.2-.71.28-1.14.45-.13-1.66,1.22-3.62,3.02-5.07.26-.2.57-.2.86-.3.67-.44.81-.99,1.11-1.51h0Z"/>
    <path class="cls-2" d="M228.67,302.42c1.27-2.11,1.94-4.03,3.18-6.01.19-.29.54-.54.89-.79.62-.37,1.39-.48,1.87-.8,3.7-2.92,6.42-6.39,8.25-10.04,2.96-5.72,7.21-10.62,9.38-16.47,1.22-3.32,1.54-6.55,1.45-9.8.07-1.01.14-1.92.56-2.94.27-.41.69-1.61,1.26-1.15.56.46,1.11,1.09,1.43,1.71,1.37,2.81,2.67,5.39,3.07,8.51.21,1.61-.45,3.04-1.36,4.39-.92,1.35-2.06,2.62-2.9,4-1.53,2.72-2.09,5.16-3.32,7.79-.45.66-1.34,1.24-2.16,1.48-1.48.54-2.05.1-2.78,1.3-.81,1.6-.82,3.14-1.8,4.82-1.8,2.8-3.94,5.14-5.31,8.09-.51,1.18-1.05,2.34-1.83,3.45-.79,1.11-1.81,2.11-3.17,2.92-2.16,1.31-4.59,1.74-6.87,2.65-1.56.65-2.64,1.77-3.9,2.78-.25.2-.71.28-1.14.44-.13-1.66,1.4-3.06,3.18-4.51.26-.2.58-.2.86-.3.67-.44.81-1,1.12-1.51h0Z"/>
    <path class="cls-2" d="M229.22,303.41c1.28-2.11,2.03-4.08,3.32-6.05.19-.29.55-.54.91-.8.64-.37,1.39-.48,1.88-.8,3.75-2.93,6.84-5.89,8.7-9.55,1.53-2.85,3.09-5.44,4.67-8.04,1.57-2.59,3.08-5.22,4.27-8.16,1.33-3.34,1.83-6.62,1.94-9.95.06-.52.05-1.15.05-1.78.02-.63.05-1.25.27-1.77.34-.42.27-2.16.84-1.69.56.47,1.11,1.11,1.4,1.74,1.33,2.85,2.59,5.45,2.94,8.58.21,1.63-.49,3.05-1.4,4.4-.93,1.35-2.09,2.62-2.94,4-1.54,2.72-2.12,5.17-3.33,7.78-.45.66-1.34,1.25-2.16,1.49-1.48.54-1.86-.03-2.59,1.18-.81,1.6-.82,3.14-1.8,4.82-1.81,2.81-3.98,5.15-5.35,8.12-.53,1.18-1.06,2.35-1.87,3.47-.81,1.11-1.83,2.11-3.19,2.92-2.17,1.31-4.6,1.74-6.88,2.65-1.55.65-2.63,1.77-3.88,2.77-.25.2-.71.28-1.13.44-.13-1.65,1.54-2.5,3.32-3.95.26-.2.58-.2.86-.31.67-.44.81-1,1.12-1.52h.02Z"/>
    <path class="cls-2" d="M231.18,304.17c.99-1.66.22-2.59,2.01-5.06.2-.29.58-.54.95-.79.65-.36,1.4-.48,1.91-.79,3.87-2.93,7.06-5.91,8.95-9.58,1.57-2.86,2.99-5.08,4.45-7.3,1.45-2.22,2.93-4.47,4.26-7.43,1.51-3.35,2.45-6.06,3.01-9.5.13-.53.05-1.49-.03-2.43-.06-.94-.16-1.87.13-2.39.15-.21.05-1.19-.16-2.05-.17-.85-.4-1.58-.12-1.34.57.49.87.74,1.18,1.37,1.29,2.87,2.34,5.13,2.7,8.26.21,1.63-.51,3.09-1.44,4.48-.95,1.39-2.13,2.69-2.98,4.08-1.54,2.72-2.12,5.16-3.34,7.78-.45.66-1.34,1.25-2.16,1.49-1.48.54-.65.45-1.38,1.66-.82,1.61-1.99,2.67-2.97,4.35-1.81,2.81-3.98,5.15-5.37,8.12-.53,1.18-1.07,2.35-1.89,3.47-.82,1.11-1.84,2.11-3.2,2.92-2.17,1.31-4.6,1.74-6.87,2.65-1.55.65-2.63,1.77-3.87,2.77-.24.2-.71.28-1.13.44-.14-1.65,1.72-1.94,3.5-3.4.26-.2,1.07-.15,1.36-.25-1.61,1.06,2.49-1.52,2.49-1.52h0Z"/>
  </g>
  <g class="cls-6">
    <path class="cls-2" d="M206.03,307.02c-4.12-1.79-7.91-3.43-11.31-5.77-.49-.33-.85-.76-1.18-1.18-.47-.68-.36-1.24-.74-1.79-.92-1.14-1.84-2.29-2.77-3.44-.89-1.14-1.85-2.27-2.82-3.39-1.92-2.26-3.98-4.48-6.12-6.68-6.6-6.94-10.82-13.99-16.79-21.16-3.36-4.08-6.99-7.84-10.57-11.78-1.03-1.26-1.91-2.42-2.54-3.81-.16-.6,0-1.65.96-1.21.96.44,2.02,1.07,2.91,1.72,3.94,2.99,7.71,5.4,11.57,8.51,4.02,3.2,4.74,6.85,7.23,10.34,2.52,3.39,5.54,6,8.46,9.09.66.85.91,1.86.74,2.49-.16,1.25-1.14,1.14.14,2.65.92.95,1.94,1.79,2.96,2.63,1.03.84,2.09,1.69,3.04,2.68,1.59,1.69,2.99,3.33,4.56,4.9,1.53,1.59,3.23,3.08,5.39,4.51,3.49,2.21,7.12,4.18,9.64,6.57,2.07,1.91,2.76,3.66,4.58,5.46,1.3,1.23,3.58,2.31,5.98,3.27.48.19.74.5,1.22.79-1.8-.01-3.91-.41-5.83-1.04-1.94-.63-3.61-1.42-5.11-2.29-.4-.25-.41-.47-.61-.7-.88-.61-1.99-.94-3.02-1.38h0Z"/>
    <path class="cls-2" d="M207.18,307.1c-4.12-1.75-7.93-3.35-11.34-5.66-.48-.33-.84-.75-1.19-1.17-.45-.68-.38-1.23-.75-1.78-.93-1.13-1.86-2.27-2.79-3.41-.93-1.14-1.84-2.27-2.84-3.38-.96-1.12-1.96-2.24-2.99-3.35-1-1.12-2.09-2.21-3.15-3.3-6.63-6.91-10.85-13.73-16.83-20.9-3.37-4.08-6.99-7.84-10.57-11.78-1.03-1.26-1.91-2.42-2.54-3.81-.16-.6-.9-2.19.05-1.75.96.44,2.02,1.07,2.91,1.72,3.94,2.99,7.71,5.4,11.57,8.51,4.02,3.2,4.74,6.85,7.22,10.34,2.52,3.39,5.54,6,8.45,9.08.66.85.91,1.86.74,2.49-.16,1.25-1.15,1.12.13,2.63.92.95,1.94,1.79,2.96,2.63,1.03.84,2.09,1.69,3.04,2.68,1.59,1.69,2.99,3.33,4.56,4.9,1.53,1.59,3.23,3.08,5.39,4.5,3.48,2.21,7.11,4.17,9.63,6.56,2.07,1.91,2.76,3.66,4.57,5.46,1.3,1.23,3.58,2.3,5.97,3.27.48.19.74.5,1.22.79-1.8-.01-3.6-.41-5.22-1.02-1.64-.61-3.08-1.38-4.56-2.23-.4-.24-.42-.46-.62-.69-.87-.6-1.99-.91-3.02-1.35h.02Z"/>
    <path class="cls-2" d="M209.2,307.13c-4.12-1.67-7.92-3.21-11.35-5.45-.49-.32-.86-.73-1.21-1.15-.48-.67-.39-1.22-.78-1.76-1.89-2.24-3.5-4.42-5.18-6.57-1.72-2.15-3.52-4.27-5.7-6.43-6.63-6.85-10.94-13.01-16.94-20.17-3.39-4.07-7.01-7.83-10.58-11.78-1.03-1.26-2.82-2.98-3.44-4.37-.16-.6-1.82-2.74-.87-2.3.96.44,2.02,1.08,2.91,1.73,3.94,2.99,7.7,5.4,11.56,8.52,4.01,3.2,4.74,6.84,7.23,10.33,2.53,3.38,5.54,5.99,8.47,9.06.65.86.93,1.85.76,2.48-.16,1.25-1.22.91.07,2.41.93.95,1.94,1.78,2.96,2.62,1.04.83,2.09,1.68,3.04,2.68.8.84,1.55,1.67,2.29,2.49.74.81,1.51,1.6,2.27,2.39,1.54,1.58,3.23,3.06,5.39,4.47,3.48,2.18,7.1,4.11,9.62,6.47,2.06,1.9,2.77,3.62,4.57,5.4,1.3,1.22,3.58,2.27,5.94,3.17.47.18.73.49,1.21.76-1.76.02-3.25-.36-4.59-.91-1.35-.56-2.56-1.31-4.03-2.13-.39-.23-.42-.45-.62-.68-.88-.58-1.99-.88-3.02-1.29h.02Z"/>
    <path class="cls-2" d="M210.8,306.11c-1.57-.63-2.83-.92-4.26-1.37-1.43-.44-3.05-1.03-5.2-2.35-.5-.3-.87-.7-1.24-1.1-.49-.65-.43-1.19-.84-1.72-1.95-2.17-3.62-4.29-5.35-6.4-.85-1.07-1.76-2.11-2.71-3.17-.93-1.06-1.98-2.1-3.06-3.18-3.38-3.37-5.64-6.2-7.9-9.04-2.25-2.84-4.43-5.72-7.47-9.27-3.42-4.04-6.15-7.24-9.71-11.2-1.03-1.27-4.63-4.09-5.25-5.48-.15-.61-4.56-4.39-3.61-3.95.96.44,1.48.66,2.37,1.31,3.94,2.99,7.18,5.09,11.05,8.21,4.01,3.2,4.88,7.02,7.38,10.52,2.53,3.38,5.54,5.99,8.48,9.06.65.86.93,1.85.76,2.48-.15,1.25.22.75,1.52,2.24,1.82,1.89,2.67,3.45,4.6,5.44.8.84,1.55,1.67,2.29,2.48.75.81,1.51,1.6,2.28,2.39,1.54,1.57,3.24,3.05,5.41,4.45,3.49,2.18,7.12,4.09,9.65,6.45,2.07,1.89,2.79,3.6,4.6,5.39,1.3,1.22,3.59,2.25,5.97,3.14.47.18.74.48,1.22.75-1.76.03-2.96-.35-4.02-.89-1.07-.54-2.05-1.26-3.52-2.06-.4-.23-.31-.76-.52-.98,1.07.69.29.17-.71-.54-1.02-.7-2.21-1.61-2.21-1.61h0Z"/>
  </g>
  <g class="cls-6">
    <path class="cls-2" d="M217.74,302.56c-.7-.91-1.73-1.71-2.07-2.61-.05-.13.09-.27.22-.41.29-.22.89-.35,1.11-.53,1.29-1.55,1.66-3.16,1.16-4.72-.62-2.45.1-4.83-1.02-7.26-.6-1.38-1.77-2.61-2.77-3.9-.23-.41-.36-.79-.13-1.28.2-.21.96-.61,1.58-.49.62.12,1.23.31,1.66.52.96.48,1.94.91,2.91,1.36.98.45,1.93.91,2.8,1.46,1.83,1.12.3,2.44.38,3.67.17,1.21,1.2,2.17,1.69,3.32,0,.31-.47.66-1.08.85-1.04.4-1.83.32-1.78.86.21.7,1.14,1.28,1.25,2.02.06,1.27-.45,2.39.4,3.63.74.98,1.47,1.96.49,2.9-.76.76-2.46,1.25-3.65,1.88-.78.44-.78.98-1.08,1.5-.05.1-.4.19-.64.3-1.4-.57-1.87-1.42-1.58-2.17.05-.1.32-.15.48-.22.2-.24-.16-.46-.33-.69h0Z"/>
    <path class="cls-2" d="M218.43,302.72c-.7-.91-1.73-1.71-2.07-2.62-.05-.13.09-.27.22-.41.29-.22.89-.35,1.11-.53,1.29-1.55,1.67-3.16,1.17-4.73-.62-2.46-.04-4.77-1.14-7.22-.61-1.39-1.76-2.63-2.75-3.92-.21-.41-.36-.8-.13-1.28.2-.21.44-.77,1.06-.65.62.12,1.23.31,1.66.52.96.48,1.94.91,2.91,1.36.98.45,1.93.91,2.8,1.46,1.83,1.12.3,2.44.38,3.67.17,1.21,1.2,2.17,1.69,3.32,0,.31-.47.66-1.08.86-1.04.4-1.83.31-1.78.85.21.7,1.13,1.28,1.25,2.02.06,1.27-.45,2.39.4,3.63.74.98,1.47,1.96.49,2.9-.76.76-2.46,1.25-3.65,1.88-.78.44-.78.98-1.08,1.5-.05.1-.4.19-.64.3-1.4-.57-1.25-1.25-.96-2,.05-.1.32-.15.48-.22.2-.24-.16-.46-.33-.69h0Z"/>
    <path class="cls-2" d="M219.74,303c-.7-.92-1.72-1.72-2.06-2.63-.05-.13.09-.27.22-.41.29-.22.9-.36,1.11-.54,1.29-1.55,2.3-3.02,1.81-4.61-.61-2.48-.42-4.63-1.5-7.1-.6-1.4-1.72-2.67-2.72-3.98-.21-.42-.85-.98-.64-1.46.2-.21-.09-.93.53-.81s1.23.31,1.66.52c1.9.96,3.97,1.75,5.71,2.84,1.83,1.13.29,2.45.37,3.69.16,1.21,1.19,2.18,1.69,3.34,0,.31-.47.66-1.08.86-1.04.4-1.73.24-1.69.79.21.7,1.13,1.28,1.25,2.03.05,1.27-.45,2.4.39,3.64.74.98,1.47,1.97.49,2.91-.76.76-2.46,1.25-3.65,1.89-.78.44-.79.98-1.08,1.5-.06.1-.4.19-.64.3-1.4-.57-.64-1.08-.34-1.83.05-.1.32-.15.48-.22.2-.25-.16-.46-.33-.69h.02Z"/>
    <path class="cls-2" d="M222.06,302.99c-.55-.72-2.05-.94-2.46-2.07-.05-.13.09-.27.22-.41.29-.22.9-.36,1.11-.54,1.29-1.56,2.33-3.03,1.84-4.64-.6-2.51.1-4.06-.92-6.59-.58-1.43-1.16-2.54-2.12-3.9-.19-.44-1.88-1.37-1.64-1.85.23-.22-1.66-1.44-1.03-1.32.62.12.97.19,1.41.4,1.89.97,3.67,1.66,5.41,2.74,1.83,1.13.31,2.51.39,3.76.16,1.21,1.19,2.18,1.68,3.34,0,.31-.47.66-1.08.86-1.04.4-.32.25-.27.8.21.71-.23,1.26-.12,2,.05,1.27-.45,2.4.39,3.65.74.98,1.47,1.97.49,2.91-.76.76-2.46,1.25-3.65,1.89-.78.44-.79.98-1.08,1.5-.05.1-.4.19-.64.3-1.4-.57-.02-.9.28-1.66.05-.1.79-.2.96-.28-.48.6.84-.88.84-.88h0Z"/>
  </g>
  <g class="cls-6">
    <path class="cls-2" d="M188.91,302.97c-.87-1.22-1.82-2.36-2.73-3.55-.89-1.16-1.75-2.33-2.47-3.61-.2-.36-.24-.78-.28-1.19.02-.65.45-1.1.45-1.63-.61-4.51-2.19-9.06-4.63-13.46-1.83-3.46-3.29-6.85-4.83-10.26-1.53-3.42-3.03-6.85-4.9-10.37-1.05-1.99-2.17-3.93-3.3-5.86-1.11-1.91-2.22-3.82-3.35-5.76-.61-1.19-1.13-2.25-1.45-3.44,0-.26.05-.61.24-.86.17-.26.46-.4.91-.2.88.38,1.81.98,2.52,1.62,1.58,1.47,3.03,2.89,4.45,4.3,1.41,1.42,2.81,2.82,4.23,4.39,2.93,3.22,2.58,6.58,4.01,9.97,1.49,3.28,3.72,5.88,5.59,9.01.37.85.3,1.8-.09,2.37-.59,1.14-1.5.94-.79,2.44,1.07,1.93,2.68,3.47,3.7,5.53,1.58,3.5,2.42,6.67,4.74,10.03,1.91,2.64,3.76,5.28,3.93,8.01.16,2.22-.93,3.84-1.52,5.74-.38,1.32.03,2.84-.1,4.29-.02.29-.34.53-.57.84-1.46-1.54-2.46-3.73-2.92-5.84-.05-.29.16-.45.24-.67-.05-.69-.65-1.26-1.07-1.86h0Z"/>
    <path class="cls-2" d="M189.77,303.34c-1.72-2.44-3.77-4.62-5.19-7.16-.2-.37-.24-.78-.28-1.19.02-.65.45-1.1.45-1.63-.6-4.51-2.18-9.07-4.62-13.46-1.83-3.46-3.31-6.81-4.85-10.16-1.55-3.37-3.08-6.74-4.96-10.25-1.06-1.99-2.19-3.92-3.32-5.85-1.14-1.92-2.25-3.88-3.36-5.79-.6-1.21-1.1-2.29-1.39-3.52,0-.53-.49-1.92.38-1.54.88.38,1.81.99,2.52,1.63,1.58,1.47,3.03,2.89,4.45,4.31,1.41,1.42,2.81,2.82,4.23,4.39,2.93,3.22,2.58,6.58,4.01,9.96,1.49,3.28,3.72,5.88,5.59,9.01.37.85.3,1.8-.09,2.37-.59,1.14-1.51.92-.79,2.42,1.07,1.93,2.68,3.47,3.69,5.53,1.58,3.5,2.42,6.67,4.74,10.03,1.91,2.64,3.76,5.28,3.93,8.01.16,2.22-.93,3.84-1.52,5.74-.38,1.33.04,2.84-.1,4.3-.03.29-.34.53-.57.84-1.47-1.53-1.74-3.32-2.16-5.44-.04-.29.17-.45.26-.68-.05-.7-.64-1.26-1.06-1.87h0Z"/>
    <path class="cls-2" d="M191.36,303.94c-.84-1.24-1.78-2.38-2.68-3.55-.91-1.17-1.76-2.35-2.48-3.62-.2-.37-.24-.78-.28-1.19.02-.65.45-1.1.45-1.63-.61-4.51-1.35-8.68-3.78-13.09-1.82-3.47-3.33-6.68-4.92-9.91-1.59-3.22-3.19-6.45-5.09-9.94-2.13-3.97-4.58-7.69-6.75-11.62-.58-1.24-1.76-2.93-2.01-4.2,0-.28-.27-.91-.47-1.41-.2-.5-.31-.88.13-.68.86.4,1.8,1.03,2.49,1.69,1.56,1.5,2.99,2.93,4.41,4.34,1.41,1.41,2.82,2.81,4.23,4.37,2.94,3.21,2.6,6.57,4.03,9.95,1.5,3.28,3.73,5.88,5.6,9.01.37.85.3,1.8-.09,2.37-.59,1.14-1.49.72-.78,2.22,1.07,1.93,2.68,3.47,3.69,5.53,1.57,3.5,2.42,6.67,4.74,10.04.95,1.32,1.89,2.64,2.61,3.97.72,1.34,1.22,2.65,1.32,4.04.16,2.23-.94,3.86-1.54,5.77-.38,1.33,0,2.87-.16,4.35-.02.3-.37.54-.6.85-.72-.79-.99-1.51-1.08-2.33-.1-.81-.06-1.7-.24-2.77-.04-.3.19-.45.27-.68-.04-.71-.61-1.28-1.03-1.89h.02Z"/>
    <path class="cls-2" d="M193.63,303.66c-1.34-1.99-3.1-2.38-4.88-5.54-.2-.37-.24-.78-.28-1.19.02-.65.46-1.1.45-1.63-.6-4.52-1.33-8.69-3.75-13.11-1.81-3.47-3.02-6.28-4.27-9.09-1.25-2.81-2.59-5.61-4.53-9.08-2.19-3.95-3.94-7.06-6.2-10.96-.63-1.23-3.19-4.12-3.35-5.45.02-.28-.74-1.38-1.47-2.32-.71-.95-1.42-1.72-.99-1.5.85.43,1.32.66,2.01,1.32,1.54,1.51,2.86,2.86,4.18,4.19,1.31,1.33,2.63,2.64,4.04,4.21,2.93,3.21,2.68,6.75,4.12,10.13,1.5,3.28,3.73,5.88,5.6,9.01.37.85.3,1.8-.09,2.37-.59,1.14-.03.71.67,2.21,1.07,1.94,1.26,3.47,2.27,5.52,1.57,3.5,2.42,6.67,4.74,10.04.95,1.32,1.89,2.64,2.61,3.97.72,1.34,1.23,2.65,1.32,4.04.16,2.23-.96,3.86-1.57,5.77-.38,1.33-.03,2.87-.2,4.36-.04.3-.38.53-.6.84-.74-.8-.79-1.4-.71-2.11.09-.7.35-1.49.19-2.57-.02-.3.62-.63.71-.86.03.87.05.23.04-.63s-.09-1.95-.09-1.95h.02Z"/>
  </g>
  <g class="cls-6">
    <path class="cls-2" d="M221.51,268.9c-.16.94-.24,1.83-.32,2.68-.1.87-.25,1.74-.6,2.62-.1.25-.38.48-.66.71-.51.33-1.22.44-1.62.72-2.92,2.53-5.12,5.33-6.59,8.3-1.23,2.3-2.8,4.46-4.36,6.61-1.54,2.14-3.03,4.3-4.12,6.64-.63,1.32-1.09,2.65-1.5,3.97-.42,1.31-.69,2.63-1.21,4.07-.42.88-.93,1.7-2.01,2.5-.27.15-.74.31-1.14.35-.39.02-.74-.04-.83-.3-.16-.54-.26-1.16-.27-1.71.02-1.24-.25-2.36-.51-3.5-.27-1.14-.48-2.32-.54-3.57-.14-2.59,2.78-4.27,4.3-6.43,1.38-2.13,1.78-4.14,2.75-6.22.38-.53,1.21-.97,1.99-1.12,1.4-.38,2.01,0,2.62-.96.66-1.29.53-2.55,1.29-3.89,1.41-2.23,3.13-4.1,3.71-6.52.38-1.91.72-3.83,2.63-5.3,1.49-1.17,3.56-1.68,5.22-2.67,1.11-.7,1.52-1.76,1.98-2.8.09-.21.46-.36.72-.6.65.65.96,1.48.95,2.31,0,.83-.31,1.67-.82,2.38-.16.2-.45.23-.67.35-.42.44-.31.92-.39,1.39h-.02Z"/>
    <path class="cls-2" d="M221.04,268.44c-.32,1.89-.22,3.52-.91,5.3-.09.25-.38.48-.66.71-.51.33-1.22.44-1.62.72-2.91,2.53-5.11,5.33-6.58,8.29-1.23,2.3-2.73,4.44-4.24,6.57-1.5,2.12-2.95,4.26-4.04,6.6-.64,1.33-1.11,2.65-1.51,3.97-.42,1.33-.71,2.62-1.19,4.04-.4.86-.87,1.67-1.88,2.45-.51.31-1.74,1.17-1.91.62-.16-.54-.27-1.16-.27-1.7.02-1.23-.26-2.36-.51-3.5-.27-1.14-.48-2.32-.54-3.57-.14-2.59,2.78-4.27,4.3-6.43,1.38-2.13,1.78-4.14,2.75-6.22.38-.53,1.21-.97,1.99-1.12,1.4-.38,1.99.02,2.6-.94.66-1.29.53-2.55,1.29-3.89,1.41-2.23,3.13-4.1,3.71-6.52.38-1.91.73-3.82,2.64-5.3,1.49-1.17,3.56-1.67,5.22-2.66,1.11-.7,1.52-1.76,1.97-2.79.09-.21.46-.36.72-.59.64.64.82,1.37.71,2.08-.12.72-.52,1.44-1,2.15-.15.2-.44.24-.67.35-.42.43-.3.92-.38,1.38h0Z"/>
    <path class="cls-2" d="M220.07,267.66c-.13.93-.2,1.82-.3,2.69-.1.86-.24,1.72-.59,2.6-.09.25-.38.48-.66.7-.51.33-1.22.44-1.62.72-2.91,2.53-5.48,4.88-6.93,7.84-1.22,2.3-2.56,4.37-3.9,6.45-1.36,2.07-2.68,4.16-3.8,6.51-1.29,2.66-1.96,5.3-2.76,8-.35.83-.57,2.13-1.51,2.9-.24.15-.6.57-.95.89-.35.32-.69.53-.78.27-.2-.52-.33-1.13-.35-1.67-.02-1.22-.31-2.33-.57-3.47-.26-1.15-.47-2.33-.53-3.58-.13-2.59,2.8-4.28,4.32-6.44,1.4-2.14,1.79-4.14,2.75-6.22.38-.53,1.21-.97,1.98-1.12,1.4-.38,1.82.11,2.43-.85.66-1.29.53-2.55,1.28-3.89,1.41-2.23,3.13-4.1,3.7-6.51.19-.96.37-1.91.74-2.81.36-.89.96-1.78,1.89-2.48,1.48-1.16,3.54-1.66,5.18-2.64,1.11-.69,1.47-1.73,1.9-2.74.09-.2.44-.36.71-.58.67.62.71,1.22.51,1.82-.21.6-.7,1.19-1.15,1.9-.14.19-.43.24-.65.35-.4.43-.27.9-.33,1.37l-.02-.02Z"/>
    <path class="cls-2" d="M217.87,267.21c-.18,1.41.96,2.14.13,4.29-.09.25-.38.48-.65.7-.51.33-1.22.44-1.62.72-2.89,2.52-5.46,4.87-6.89,7.83-1.21,2.29-2.45,4.06-3.69,5.83-1.23,1.77-2.52,3.55-3.69,5.9-1.34,2.67-2.26,4.81-3.15,7.52-.39.83-.12,3.1-.94,3.86-.22.15-.36.94-.55,1.65-.18.7-.43,1.32-.55,1.07-.24-.5-.42-.77-.45-1.3-.05-1.21-.32-2.26-.54-3.33-.23-1.08-.41-2.19-.46-3.44-.13-2.59,2.86-4.4,4.38-6.56.7-1.07,1.14-2.1,1.54-3.13.4-1.03.73-2.03,1.22-3.08.38-.53,1.21-.97,1.99-1.13,1.4-.38.6-.34,1.21-1.3.65-1.29,1.69-2.1,2.45-3.45,1.41-2.23,3.12-4.1,3.69-6.51.19-.96.37-1.91.74-2.81.36-.89.96-1.78,1.89-2.48,1.47-1.15,3.53-1.66,5.17-2.64,1.11-.69,1.44-1.73,1.87-2.75.08-.2.43-.36.69-.59.67.61.6,1.12.27,1.61-.33.5-.89.99-1.33,1.69-.13.2-.93.25-1.14.37.46-.52.09-.14-.42.36-.5.5-1.17,1.1-1.17,1.1h0Z"/>
  </g>
  <g class="cls-6">
    <path class="cls-2" d="M175.3,300.59c-1.72-1.2-3.9-2.05-5.76-3.25-.27-.17-.41-.42-.56-.67-.16-.42.05-.85-.12-1.2-1.94-2.82-4.71-5.39-8.35-7.45-2.77-1.64-5.34-3.26-8.18-4.67-2.88-1.42-6.03-2.69-9.64-3.62-4.08-1.08-8.31-1.62-12.65-2.27-1.32-.26-2.52-.53-3.71-1.06-.45-.28-1-.97-.2-1.16s1.78-.31,2.67-.33c4.01-.07,7.6-.4,11.78-.22,2.16.09,3.92.64,5.52,1.34,1.6.7,3.06,1.53,4.73,2.22,1.66.65,3.3,1.15,4.91,1.69,1.62.53,3.27,1.1,4.82,1.81.75.43,1.15,1.1,1.11,1.6.05.96-.77,1.12.45,1.88,1.68.92,3.63,1.45,5.25,2.52,2.6,1.88,4.35,3.77,7.42,5.36,2.5,1.22,5.08,2.67,5.78,4.67.56,1.6-.32,3.02-1.11,4.28-.53.85-.64,1.76-1.03,2.77-.07.2-.43.35-.68.58-.67-.62-1.04-1.36-1.29-1.97-.12-.31-.21-.59-.27-.82-.06-.22-.12-.43-.17-.7-.02-.15.22-.26.3-.4-.02-.4-.58-.65-1.01-.94h0Z"/>
    <path class="cls-2" d="M176.13,300.68c-1.72-1.25-3.88-2.12-5.73-3.34-.27-.18-.41-.42-.55-.68-.15-.41.08-.84-.09-1.19-1.94-2.82-4.72-5.41-8.36-7.5-2.79-1.66-5.34-3.28-8.19-4.69-2.85-1.42-6.01-2.68-9.61-3.64-4.1-1.1-8.33-1.67-12.66-2.32-1.32-.26-2.52-.53-3.71-1.06-.45-.28-1.83-.87-1.04-1.05.8-.19,1.78-.31,2.67-.33,4.01-.07,7.61-.4,11.79-.22,2.16.09,3.92.64,5.53,1.34,1.61.7,3.06,1.53,4.74,2.22,1.66.65,3.3,1.16,4.92,1.7,1.62.53,3.28,1.1,4.82,1.81.75.43,1.15,1.1,1.11,1.61.05.96-.78,1.11.43,1.87,1.68.92,3.63,1.45,5.25,2.53,2.6,1.88,4.35,3.77,7.42,5.36,2.5,1.23,5.09,2.67,5.78,4.67.56,1.6-.31,3.02-1.11,4.29-.53.86-.64,1.77-1.03,2.78-.08.2-.43.35-.69.58-.67-.62-.9-1.25-.98-1.82-.04-.29-.04-.56-.03-.81,0-.26.02-.46-.02-.74,0-.15.21-.26.31-.4,0-.4-.56-.68-.96-.98h0Z"/>
    <path class="cls-2" d="M177.66,300.81c-1.69-1.36-3.85-2.27-5.7-3.53-.27-.18-.4-.43-.55-.69-.15-.42.09-.84-.07-1.18-1.94-2.82-3.89-5.41-7.55-7.57-2.8-1.72-5.35-3.3-8.19-4.73-2.83-1.41-5.92-2.66-9.56-3.7-4.12-1.19-8.38-1.81-12.72-2.49-1.32-.27-3.36-.45-4.55-.98-.45-.28-2.68-.76-1.88-.95s1.79-.3,2.67-.33c4.02-.07,7.62-.38,11.83-.19,2.18.1,3.94.67,5.55,1.38,1.62.71,3.07,1.56,4.75,2.26,1.68.66,3.3,1.19,4.94,1.74,1.65.56,3.28,1.14,4.84,1.87.74.45,1.15,1.11,1.1,1.62.05.96-.86.97.35,1.74,1.69.93,3.64,1.48,5.25,2.55,2.6,1.89,4.35,3.78,7.42,5.37,2.52,1.25,5.11,2.72,5.82,4.77.55,1.65-.31,3.09-1.15,4.43-.57.91-.71,1.87-1.09,2.88-.07.2-.43.35-.67.58-1.39-1.23-.34-2.15-.29-3.36.02-.16.25-.27.35-.41.05-.44-.53-.75-.91-1.09h0Z"/>
    <path class="cls-2" d="M179.83,300.31c-.7-.61-1.51-.89-2.37-1.23-.87-.34-1.8-.75-2.92-1.57-.27-.19-.39-.45-.53-.72-.14-.43.12-.85-.04-1.2-1.91-2.84-3.87-5.44-7.5-7.66-2.79-1.77-4.95-3.23-7.28-4.62-2.35-1.39-4.96-2.69-8.6-3.88-4.14-1.35-7.59-2.17-11.97-2.97-1.34-.31-5.07-.34-6.26-.87-.45-.29-5.21-.47-4.41-.65.8-.19,1.22-.3,2.12-.32,4.03-.06,7.15-.32,11.35-.13,2.18.1,3.99.68,5.65,1.4,1.66.72,3.16,1.59,4.85,2.29,1.68.65,3.29,1.2,4.93,1.75,1.65.57,3.26,1.15,4.82,1.88.74.45,1.14,1.11,1.09,1.62.05.96.31.48,1.54,1.26,1.7.96,2.47,1.93,4.08,3.01,2.61,1.89,4.35,3.78,7.42,5.37,2.53,1.27,5.11,2.73,5.81,4.8.28.82.18,1.6-.08,2.34-.27.74-.67,1.43-1.14,2.1-.6.91-.75,1.87-1.12,2.88-.07.2-.42.36-.67.59-1.4-1.23.21-1.79.39-3.14.03-.18.73-.4.85-.55-.13.57.05.16.1-.43.06-.59-.08-1.35-.08-1.35h-.02Z"/>
  </g>
  <g class="cls-6">
    <path class="cls-2" d="M181.42,301.89c-.45-1.84-1.22-3.49-1.28-5.32,0-.26.17-.53.35-.79.36-.4,1-.61,1.27-.95,1.77-2.92,2.7-6,2.71-9.11.1-2.44.46-4.75.78-7.14.33-2.38.69-4.77.82-7.29.2-2.85.05-5.63.63-8.55.13-.45.29-.88.53-1.29.22-.42.52-.83.93-1.23.44-.33,1.55-.7,1.9-.21.34.5.6,1.09.71,1.64.47,2.48,1.62,4.52,2.5,6.86.94,2.4-1.16,4.36-1.58,6.68-.15,1.13-.04,2.18.13,3.23.17,1.05.4,2.08.48,3.22-.09.6-.66,1.19-1.32,1.49-1.15.63-1.91.37-2.03,1.42,0,1.38.71,2.59.58,4.03-.36,2.43-1.23,4.55-.8,7.01.42,1.94.84,3.87-.39,5.6-.96,1.39-2.78,2.24-4.12,3.4-.88.82-1.01,1.87-1.4,2.87-.08.2-.44.35-.71.56-1.29-1.19-1.58-2.89-1.08-4.35.09-.2.36-.28.53-.41.26-.47-.04-.91-.15-1.37h0Z"/>
    <path class="cls-2" d="M182.06,302.26c-.45-1.84-1.23-3.49-1.28-5.31,0-.26.17-.52.35-.79.36-.4,1-.62,1.27-.95,1.77-2.91,2.71-6,2.72-9.12.1-2.44.44-4.74.71-7.08.29-2.35.58-4.7.71-7.21.15-2.84,0-5.61.5-8.51.26-.89.6-1.7,1.4-2.52.44-.32,1.34-1.24,1.69-.75.34.5.6,1.09.71,1.64.48,2.47,1.63,4.52,2.5,6.86.94,2.4-1.16,4.36-1.58,6.67-.15,1.13-.04,2.18.13,3.23.17,1.04.4,2.08.48,3.22-.09.6-.66,1.19-1.32,1.49-1.15.63-1.91.36-2.02,1.41,0,1.38.71,2.59.58,4.04-.36,2.43-1.23,4.55-.8,7.01.42,1.94.84,3.87-.39,5.6-.96,1.39-2.78,2.24-4.12,3.4-.88.82-1.01,1.87-1.4,2.87-.08.2-.44.35-.71.56-1.29-1.19-1-2.52-.51-3.97.09-.2.35-.28.53-.41.26-.47-.04-.91-.15-1.37v-.02Z"/>
    <path class="cls-2" d="M183.29,302.88c-.45-1.83-1.24-3.48-1.29-5.31,0-.26.17-.52.35-.79.36-.4,1-.62,1.27-.95,1.77-2.92,3.28-5.63,3.32-8.76.11-2.45.37-4.69.53-6.95.17-2.26.32-4.52.38-7,.09-2.81-.16-5.53.2-8.39.22-.88.23-2.19,1.02-3,.4-.32,1.09-1.76,1.43-1.27.34.49.6,1.08.74,1.62.49,2.45,1.7,4.48,2.59,6.81.96,2.39-1.12,4.34-1.54,6.66-.15,1.13-.03,2.18.14,3.23.09.52.18,1.05.27,1.58.09.54.16,1.09.2,1.66-.09.6-.67,1.19-1.32,1.49-1.15.63-1.79.23-1.91,1.29,0,1.38.7,2.59.58,4.04-.37,2.44-1.24,4.55-.8,7.01.42,1.94.85,3.87-.39,5.59-.96,1.39-2.78,2.24-4.11,3.39-.88.82-1.01,1.87-1.4,2.87-.08.2-.44.35-.71.56-1.29-1.19-.42-2.14.05-3.6.09-.2.35-.28.53-.41.26-.47-.05-.91-.16-1.37h0Z"/>
    <path class="cls-2" d="M185.61,303.01c-.35-1.43-1.8-1.95-1.86-4.2,0-.26.17-.52.34-.79.36-.4,1-.62,1.27-.95,1.77-2.92,3.29-5.63,3.34-8.77.13-2.46.46-4.4.74-6.36.27-1.97.45-3.91.43-6.37,0-2.78-.02-4.98.08-7.75.12-.85-.6-3.11.13-3.93.21-.16.21-.97.28-1.69.05-.72.14-1.34.32-1.1.34.48.59.73.71,1.27.53,2.43,1.57,4.19,2.45,6.53.96,2.39-1.14,4.46-1.54,6.78-.29,2.27.47,4.18.62,6.46-.09.6-.67,1.19-1.33,1.49-1.15.63-.41.44-.53,1.5,0,1.38-.64,2.38-.76,3.82-.37,2.44-1.24,4.55-.8,7.01.42,1.94.85,3.87-.38,5.59-.96,1.39-2.78,2.23-4.11,3.39-.88.81-1,1.87-1.4,2.87-.08.2-.44.35-.71.56-1.29-1.18.15-1.78.63-3.23.08-.2.84-.34,1.02-.48-.62,1.13,1.06-1.65,1.06-1.65h0Z"/>
  </g>
  <g class="cls-6">
    <path class="cls-2" d="M188.77,305.76c.89-2.8.94-5.38,1.69-8.22.1-.41.39-.81.68-1.22.53-.62,1.25-.93,1.66-1.45,2.98-4.53,4.6-9.5,5.13-14.56.51-3.96,1.23-7.79,2.04-11.65.4-1.94.85-3.85,1.16-5.78.31-1.94.53-3.9.61-5.91.19-4.55-.37-8.89-.84-13.38-.05-1.4-.03-2.69.37-4.11.27-.59,1.16-1.49,1.72-.85s1.1,1.5,1.43,2.32c1.48,3.74,3.18,6.91,4.35,10.81,1.23,4.03-.96,7.55-1.71,11.4-.32,1.89-.45,3.66-.49,5.35-.04,1.71,0,3.41-.13,5.22-.19.95-.85,1.9-1.57,2.38-1.25,1.02-1.98.6-2.27,2.3-.23,2.23.28,4.21-.14,6.56-.86,3.97-2.38,7.43-2.99,11.42-.37,3.15-.93,6.4-3.39,9.11-1.97,2.18-4.5,3.27-6.94,4.74-1.67,1.04-2.97,2.51-4.71,3.71-.34.24-.89.31-1.4.49.62-1.89,2.22-4.11,3.94-6.14.25-.28.58-.33.87-.5.65-.64.7-1.35.93-2.04h0Z"/>
    <path class="cls-2" d="M189.13,306.4c.94-2.82,1.04-5.4,1.81-8.24.11-.4.41-.81.7-1.22.53-.61,1.26-.93,1.67-1.45,3.03-4.55,4.68-9.53,5.23-14.59.52-3.96,1.2-7.75,1.95-11.55.37-1.91.79-3.81,1.1-5.73.31-1.92.53-3.87.62-5.88.21-4.56-.32-8.9-.78-13.4-.04-1.41-.02-2.69.38-4.12.27-.59.71-2.23,1.26-1.58.56.64,1.09,1.5,1.43,2.32,1.48,3.74,3.18,6.91,4.35,10.81,1.23,4.03-.96,7.55-1.71,11.41-.32,1.89-.45,3.66-.49,5.35-.04,1.71,0,3.41-.13,5.22-.19.95-.85,1.9-1.57,2.38-1.25,1.02-1.98.57-2.26,2.28-.23,2.23.28,4.21-.15,6.56-.86,3.97-2.38,7.44-2.99,11.43-.38,3.16-.93,6.41-3.4,9.11-1.97,2.18-4.51,3.27-6.94,4.75-1.68,1.04-2.97,2.51-4.71,3.72-.34.24-.89.31-1.4.49.6-1.88,2.32-3.49,4.16-5.51.27-.27.59-.33.89-.5.67-.64.74-1.35.98-2.04h0Z"/>
    <path class="cls-2" d="M189.85,307.5c1.07-2.84,1.22-5.45,2.04-8.3.12-.41.41-.81.71-1.22.54-.61,1.27-.93,1.69-1.44,1.5-2.29,2.85-4.52,3.87-6.83,1.02-2.31,1.72-4.68,2.03-7.23.56-3.97,1.12-7.63,1.72-11.3.57-3.67,1.35-7.34,1.55-11.37.29-4.57-.19-8.93-.6-13.45-.02-1.41-.44-3.43-.03-4.86.28-.59.26-2.96.82-2.32.56.65,1.09,1.5,1.43,2.32,1.47,3.75,3.17,6.93,4.32,10.83,1.21,4.04-.99,7.56-1.76,11.42-.16.95-.28,1.86-.36,2.76-.08.88-.12,1.73-.13,2.58-.04,1.71,0,3.41-.12,5.22-.19.95-.85,1.9-1.57,2.39-1.25,1.02-1.83.37-2.12,2.08-.24,2.23.27,4.21-.16,6.57-.45,1.99-1.05,3.85-1.62,5.72-.57,1.87-1.14,3.74-1.43,5.74-.38,3.16-.98,6.43-3.47,9.15-2,2.19-4.56,3.29-7.03,4.77-1.71,1.04-3.07,2.52-4.86,3.74-.37.24-.89.31-1.42.5.16-.49.42-.89.71-1.29.28-.4.65-.75,1.06-1.12.38-.38.85-.74,1.32-1.15.45-.42.97-.85,1.43-1.36.27-.28.61-.33.92-.5.71-.64.81-1.37,1.07-2.07h-.02Z"/>
    <path class="cls-2" d="M191.98,308.06c.44-1.15.36-1.97.38-2.94-.02-.97.08-2.08.64-3.86.14-.41.45-.81.75-1.23.56-.61,1.3-.92,1.72-1.44,1.55-2.29,2.94-4.53,4.04-6.85,1.09-2.32,1.85-4.72,2.2-7.27.62-4,1.22-7.15,1.83-10.32.31-1.58.6-3.17.89-4.85.27-1.69.58-3.47.77-5.51.42-4.6.47-8.24.19-12.78.02-1.42-1.2-4.94-.78-6.36.31-.6-1.04-5.17-.49-4.52.56.65.88.98,1.22,1.8,1.47,3.75,2.91,6.51,4.07,10.41,1.21,4.04-1,7.77-1.8,11.63-.16.95-.29,1.86-.36,2.75-.08.88-.12,1.73-.13,2.58-.04,1.71,0,3.41-.12,5.22-.19.95-.85,1.9-1.58,2.39-1.26,1.02-.48.71-.77,2.43-.24,2.24-1.03,3.86-1.47,6.22-.45,1.99-1.06,3.86-1.63,5.72-.29.93-.57,1.87-.82,2.82-.25.95-.46,1.9-.61,2.91-.2,1.59-.45,3.19-.96,4.75-.52,1.55-1.31,3.06-2.56,4.42-2.03,2.19-4.59,3.28-7.07,4.76-1.72,1.04-3.1,2.51-4.92,3.72-.36.24-.89.31-1.41.5.16-.49.4-.86.72-1.19.31-.33.66-.61,1.09-.89.44-.28.89-.58,1.4-.92.52-.34,1.01-.75,1.53-1.25.31-.27,1.16-.33,1.47-.5-.86.79-.2.22.69-.55.45-.39.9-.84,1.28-1.19.38-.35.62-.61.62-.61h-.02Z"/>
  </g>
  <g class="cls-6">
    <path class="cls-2" d="M131.61,301.1c-1.45-1.73-3.28-3.12-4.66-4.85-.2-.25-.24-.55-.28-.85.02-.49.42-.87.41-1.26-.34-1.66-.99-3.32-1.83-4.96-.84-1.63-1.9-3.21-3.19-4.74-3.87-4.82-6.47-9.64-10.84-14.43-2.45-2.72-5.26-5.17-7.91-7.82-.74-.85-1.35-1.65-1.66-2.64-.03-.44.35-1.22,1.16-.96.82.26,1.69.65,2.39,1.07,3.13,1.91,6.24,3.36,9.35,5.32,3.24,2.01,3.31,4.64,4.99,7.04,1.74,2.32,4.03,4.05,6.03,6.21.41.6.41,1.34.06,1.83-.49.95-1.39.9-.6,1.97,1.14,1.35,2.78,2.34,3.86,3.8,1.67,2.52,2.63,4.8,5,7.16,1.93,1.83,3.79,3.78,3.77,5.94,0,1.73-1.25,3-2.03,4.44-.49,1-.24,2.12-.4,3.2-.04.22-.36.4-.58.64-1.48-1.14-2.28-2.74-2.5-4.27-.02-.21.2-.33.31-.5.02-.51-.49-.9-.86-1.33h.02Z"/>
    <path class="cls-2" d="M132.42,301.33c-1.44-1.75-3.25-3.16-4.63-4.9-.19-.25-.24-.55-.27-.86.02-.49.44-.87.42-1.26-.34-1.67-.97-3.33-1.82-4.96-.84-1.64-1.9-3.22-3.18-4.75-3.87-4.83-6.52-9.5-10.87-14.29-2.45-2.72-5.26-5.17-7.92-7.81-.74-.85-1.36-1.65-1.66-2.64-.03-.44-.41-1.56.41-1.3s1.69.65,2.39,1.07c3.13,1.91,6.24,3.36,9.35,5.32,3.24,2.01,3.3,4.64,4.99,7.04,1.74,2.32,4.03,4.05,6.03,6.21.41.6.4,1.34.06,1.83-.49.95-1.4.89-.62,1.96,1.14,1.35,2.78,2.34,3.86,3.8,1.67,2.52,2.64,4.8,5.01,7.16,1.93,1.83,3.79,3.78,3.77,5.94,0,1.73-1.25,3-2.03,4.44-.49,1-.24,2.12-.4,3.21-.04.22-.36.4-.58.64-1.48-1.13-1.61-2.45-1.8-4,0-.21.23-.34.33-.5,0-.52-.48-.92-.85-1.35h0Z"/>
    <path class="cls-2" d="M133.93,301.72c-1.4-1.8-3.21-3.24-4.56-5-.2-.25-.23-.56-.26-.86.02-.49.43-.87.42-1.27-.33-1.68-.76-3.29-1.4-4.87-.64-1.58-1.48-3.14-2.77-4.67-3.86-4.86-6.6-9.1-10.96-13.89-2.45-2.72-5.26-5.16-7.93-7.79-.74-.85-2.12-1.98-2.43-2.96-.03-.44-1.17-1.89-.35-1.64s1.69.65,2.39,1.06c3.13,1.91,6.25,3.35,9.35,5.31,3.24,2.01,3.31,4.64,4.99,7.04,1.74,2.32,4.04,4.05,6.03,6.22.42.61.4,1.35.06,1.83-.49.95-1.39.73-.61,1.8,1.14,1.35,2.78,2.35,3.86,3.81,1.67,2.52,2.63,4.8,5.01,7.18,1.92,1.85,3.79,3.82,3.76,5.99-.02,1.75-1.28,3.03-2.05,4.48-.51,1.01-.25,2.14-.44,3.25-.04.22-.36.4-.58.64-1.51-1.15-.91-2.18-1.04-3.77,0-.22.22-.34.33-.51.05-.53-.49-.94-.82-1.39h0Z"/>
    <path class="cls-2" d="M136.2,301.43c-1.15-1.46-2.77-1.69-4.37-3.92-.19-.26-.21-.57-.24-.88.03-.49.45-.87.45-1.28-.31-1.69-.71-3.32-1.36-4.91-.64-1.59-1.48-3.13-2.75-4.69-3.85-4.89-5.27-8.03-9.61-12.83-2.45-2.72-4.49-4.84-7.17-7.45-.75-.84-3.65-2.62-3.98-3.6-.03-.43-3.45-2.89-2.63-2.64.82.26,1.26.38,1.96.79,3.13,1.9,5.82,3.17,8.93,5.12,3.24,2.01,3.41,4.76,5.1,7.16,1.74,2.32,4.03,4.05,6.02,6.22.42.6.4,1.35.06,1.83-.49.95.02.55.78,1.62,1.14,1.36,1.41,2.51,2.49,3.98,1.67,2.52,2.63,4.8,5,7.18,1.91,1.85,3.79,3.83,3.75,6-.02,1.75-1.3,3.03-2.08,4.48-.53,1.01-.27,2.15-.46,3.26-.04.22-.36.4-.58.64-.78-.59-.78-1.04-.69-1.56.05-.26.16-.54.27-.86.08-.31.13-.66.12-1.06,0-.22.67-.49.78-.66-.04.65.02.17.1-.48.05-.32.07-.69.08-.98.02-.29.02-.49.02-.49h0Z"/>
  </g>
  <g class="cls-6">
    <path class="cls-2" d="M110.44,300.12c.08-.76.04-1.49.02-2.19-.02-.7-.03-1.39.15-2.11.05-.2.28-.39.51-.58.43-.28,1.11-.37,1.44-.6,2.33-2.12,3.73-4.57,4.3-7.12,1.03-4,3.54-7.52,4.05-11.54.31-2.28-.08-4.46-.49-6.64-.03-.68,0-1.29.38-1.99.27-.28,1.14-.74,1.72-.42.56.31,1.1.74,1.44,1.16,1.47,1.89,3.07,3.6,4.1,5.7,1.07,2.18-1.22,3.86-2,5.77-.67,1.89-.38,3.58-.71,5.42-.21.47-.89.88-1.6,1.06-1.25.4-1.96.11-2.27.95-.26,1.12.24,2.18-.13,3.35-.78,1.97-2,3.62-2.11,5.71,0,.83-.04,1.67-.28,2.46-.26.8-.74,1.55-1.62,2.16-1.39.99-3.42,1.36-5.1,2.07-1.13.5-1.62,1.32-2.33,2.07-.14.15-.54.21-.86.34-.86-1.17-.53-2.61.44-3.68.15-.15.44-.16.65-.24.4-.33.27-.73.31-1.1h-.02Z"/>
    <path class="cls-2" d="M110.94,300.51c.08-.76.05-1.49.04-2.2s-.02-1.39.17-2.12c.05-.2.28-.39.52-.58.44-.27,1.11-.37,1.44-.6,2.34-2.12,3.76-4.58,4.32-7.13,1.03-3.99,3.35-7.45,3.89-11.48.32-2.28-.03-4.48-.42-6.68-.02-.69,0-1.31.41-2,.27-.28.7-1.09,1.26-.78s1.1.74,1.44,1.16c1.47,1.89,3.07,3.6,4.1,5.7,1.07,2.18-1.22,3.86-2,5.77-.67,1.89-.38,3.58-.71,5.42-.21.47-.89.88-1.6,1.06-1.25.4-1.95.1-2.26.94-.26,1.12.24,2.18-.13,3.35-.78,1.97-2,3.62-2.11,5.71,0,.83-.04,1.67-.28,2.46-.26.8-.74,1.55-1.62,2.16-1.39.99-3.42,1.36-5.1,2.07-1.13.5-1.62,1.32-2.33,2.07-.14.15-.54.21-.86.34-.85-1.17-.1-2.21.86-3.29.15-.15.44-.16.65-.24.41-.33.27-.73.31-1.11h0Z"/>
    <path class="cls-2" d="M111.93,301.21c.18-1.54-.09-2.95.27-4.37.05-.2.29-.39.53-.58.44-.28,1.12-.37,1.45-.6,2.36-2.14,4.3-4.24,4.87-6.8,1.03-3.98,2.82-7.23,3.47-11.3.37-2.3.09-4.54-.22-6.79.02-.7-.38-1.7.04-2.4.31-.29.25-1.46.82-1.15.56.32,1.11.75,1.43,1.17,1.45,1.91,3.04,3.64,4.05,5.75,1.05,2.2-1.25,3.87-2.04,5.79-.67,1.89-.39,3.59-.71,5.43-.21.47-.89.88-1.6,1.06-1.25.4-1.81,0-2.12.86-.26,1.12.24,2.18-.14,3.35-.78,1.97-2.01,3.63-2.13,5.73,0,.83-.05,1.67-.3,2.47-.27.81-.75,1.55-1.63,2.17-1.4,1-3.43,1.36-5.1,2.07-1.13.5-1.61,1.32-2.31,2.06-.14.15-.53.21-.86.34-.86-1.17.31-1.81,1.27-2.89.15-.15.44-.16.65-.24.41-.33.27-.73.31-1.11h.02Z"/>
    <path class="cls-2" d="M114.1,301.7c.13-1.21-1.06-1.86-.51-3.65.05-.21.3-.39.54-.59.45-.28,1.13-.37,1.47-.6,2.41-2.15,4.39-4.27,4.98-6.84.54-2,1.22-3.55,1.9-5.1.67-1.56,1.33-3.14,1.72-5.19.44-2.32.63-4.19.49-6.52.08-.73-1.06-2.56-.61-3.26.33-.3-.99-2.61-.45-2.28.56.32.89.5,1.22.92,1.43,1.92,2.79,3.43,3.79,5.54,1.06,2.2-1.27,3.98-2.06,5.89-.67,1.89-.4,3.59-.72,5.42-.21.47-.89.88-1.6,1.06-1.25.4-.49.32-.79,1.16-.26,1.12-1.04,1.87-1.42,3.05-.78,1.97-2.01,3.63-2.14,5.73-.02.84-.05,1.67-.31,2.48-.27.81-.75,1.55-1.63,2.17-1.4.99-3.43,1.36-5.1,2.06-1.13.5-1.61,1.32-2.31,2.06-.14.15-.53.21-.85.34-.86-1.16.74-1.42,1.69-2.5.15-.15.93-.13,1.14-.21-.98.8,1.58-1.14,1.58-1.14h0Z"/>
  </g>
  <g class="cls-6">
    <path class="cls-2" d="M147.17,305.2c-.69-1.44-1.72-2.71-2.04-4.16-.05-.2.09-.43.23-.65.3-.34.9-.54,1.12-.82,1.32-2.41,1.8-4.92,1.46-7.43-.34-3.93.79-7.6.52-11.6-.15-2.27-.71-4.44-1.02-6.72.02-.7.11-1.35.6-2.04.31-.28,1.25-.68,1.76-.33.52.35.99.8,1.29,1.22.63.95,1.35,1.83,2.08,2.7.71.88,1.44,1.75,2.07,2.69,1.32,1.95-.58,3.6-.85,5.47-.14,1.83.68,3.38.98,5.14-.05.47-.56.94-1.2,1.2-1.1.53-1.88.34-1.9,1.18.14,1.09.98,2.03,1.04,3.18-.05,1.94-.6,3.66.21,5.6.71,1.52,1.43,3.05.44,4.49-.77,1.16-2.47,1.91-3.65,2.88-.78.69-.79,1.52-1.09,2.33-.05.16-.41.29-.65.46-1.4-.9-1.86-2.23-1.56-3.4.05-.16.32-.23.49-.35.2-.38-.16-.72-.33-1.08h0Z"/>
    <path class="cls-2" d="M147.85,305.47c-.7-1.44-1.72-2.71-2.04-4.16-.05-.2.09-.43.23-.65.3-.34.9-.54,1.12-.82,1.32-2.41,1.8-4.92,1.45-7.42-.35-3.93.63-7.5.34-11.49-.14-2.26-.74-4.44-1.03-6.7,0-.7.1-1.35.59-2.04.31-.28.85-1.07,1.36-.72.52.35.99.8,1.29,1.22.63.95,1.35,1.83,2.08,2.7.71.87,1.44,1.75,2.07,2.69,1.32,1.95-.58,3.6-.84,5.47-.14,1.83.68,3.38.98,5.14-.05.47-.56.94-1.21,1.2-1.1.53-1.88.33-1.89,1.17.14,1.09.98,2.03,1.04,3.18-.05,1.94-.6,3.66.21,5.6.71,1.53,1.43,3.05.44,4.49-.77,1.16-2.47,1.91-3.65,2.88-.78.69-.8,1.52-1.09,2.33-.06.16-.41.29-.65.46-1.4-.9-1.24-1.96-.94-3.13.05-.16.32-.23.49-.35.2-.38-.16-.72-.32-1.08h-.02Z"/>
    <path class="cls-2" d="M149.17,305.9c-.69-1.44-1.71-2.71-2.04-4.16-.05-.2.09-.43.23-.65.3-.34.9-.54,1.12-.82,1.32-2.41,2.41-4.64,2.06-7.14-.36-3.92.18-7.21-.15-11.18-.16-2.25-.78-4.41-1.1-6.66,0-.7-.34-1.72.15-2.41.31-.28.44-1.45.96-1.1.52.35.99.79,1.29,1.21,1.27,1.9,2.91,3.49,4.16,5.38,1.33,1.94-.57,3.6-.83,5.47-.13,1.82.68,3.38,1,5.13-.05.47-.56.94-1.2,1.2-1.1.53-1.77.23-1.78,1.07.13,1.09.98,2.03,1.04,3.18-.05,1.94-.6,3.66.21,5.6.71,1.52,1.43,3.05.44,4.49-.77,1.16-2.47,1.91-3.65,2.89-.78.69-.8,1.52-1.09,2.33-.06.16-.41.29-.65.46-1.4-.9-.63-1.69-.32-2.86.05-.16.32-.23.49-.35.2-.38-.16-.72-.33-1.08Z"/>
    <path class="cls-2" d="M151.49,305.92c-.54-1.13-2.05-1.49-2.45-3.27-.05-.2.09-.43.23-.65.3-.34.9-.54,1.12-.82,1.32-2.41,2.41-4.64,2.05-7.14-.37-3.91.54-6.21.15-10.16-.18-2.24-.42-4.01-.78-6.24-.03-.69-1.22-2.46-.74-3.14.28-.28-.78-2.59-.27-2.25.52.35.82.52,1.11.94,1.28,1.9,2.67,3.28,3.94,5.16,1.33,1.94-.57,3.7-.82,5.56-.13,1.82.69,3.38,1,5.13-.05.47-.56.94-1.21,1.2-1.09.53-.37.36-.38,1.19.13,1.09-.38,1.89-.31,3.04-.05,1.94-.59,3.66.21,5.6.71,1.52,1.43,3.05.44,4.49-.77,1.16-2.47,1.91-3.66,2.89-.78.69-.8,1.52-1.1,2.33-.06.16-.41.29-.65.46-1.4-.9-.02-1.41.3-2.59.05-.16.79-.3.96-.42-.48.92.85-1.36.85-1.36h.02Z"/>
  </g>
  <g class="cls-6">
    <path class="cls-2" d="M160.65,301.79c-1.37-.84-3.1-1.39-4.41-2.34-.2-.14-.24-.34-.28-.55,0-.35.36-.69.34-.98-.18-.57-.43-1.15-.68-1.69-.25-.54-.55-1.07-.89-1.58-.69-1.02-1.57-1.99-2.63-2.9-.79-.72-1.5-1.46-2.16-2.2-.32-.38-.64-.75-.97-1.12-.31-.37-.61-.8-.91-1.19-1.14-1.58-2.2-3.17-3.56-4.76-1.51-1.81-3.32-3.48-4.83-5.33-.38-.6-.64-1.16-.53-1.84.15-.3.83-.82,1.5-.63.67.19,1.34.47,1.83.75,2.2,1.31,4.57,2.25,6.79,3.45,2.31,1.21,1.54,2.95,2.48,4.46.52.72,1.2,1.32,1.95,1.89.38.3.74.54,1.11.8.38.27.82.57,1.21.88.31.37.2.89-.16,1.27-.56.73-1.38.82-.78,1.47.92.79,2.34,1.25,3.22,2.11,1.38,1.49,2.1,3,4.22,4.16,1.74.9,3.61,1.91,3.76,3.45.13,1.22-.99,2.3-1.74,3.31-.49.69-.28,1.35-.53,1.99-.05.13-.4.23-.64.36-1.38-.66-2.05-1.33-2.21-2.19,0-.12.2-.22.31-.34.02-.31-.47-.48-.81-.68h0Z"/>
    <path class="cls-2" d="M161.41,301.81c-1.37-.87-3.09-1.43-4.4-2.38-.19-.13-.24-.34-.28-.55,0-.34.37-.69.34-.97-.18-.56-.42-1.13-.68-1.68-.25-.54-.54-1.07-.89-1.58-.69-1.02-1.57-1.99-2.63-2.89-.79-.72-1.51-1.45-2.17-2.18-.66-.74-1.32-1.44-1.91-2.24-1.17-1.54-2.25-3.08-3.62-4.67-1.54-1.79-3.34-3.45-4.86-5.29-.38-.59-.64-1.15-.54-1.83.15-.3.25-1.07.92-.88.67.19,1.33.47,1.83.75,2.2,1.31,4.57,2.25,6.79,3.44,2.31,1.2,1.54,2.94,2.48,4.46.52.72,1.2,1.32,1.95,1.89.38.3.74.54,1.11.8.38.27.82.57,1.21.88.31.37.2.89-.16,1.27-.56.73-1.39.81-.78,1.46.92.79,2.34,1.25,3.22,2.11,1.38,1.49,2.1,3,4.22,4.16,1.74.9,3.61,1.92,3.76,3.45.13,1.23-.98,2.31-1.73,3.31-.49.69-.28,1.36-.52,2-.05.13-.4.23-.64.36-.69-.33-1.04-.62-1.24-.97-.2-.34-.21-.73-.3-1.17,0-.12.22-.22.33-.34,0-.32-.46-.5-.81-.7h0Z"/>
    <path class="cls-2" d="M162.85,301.83c-1.37-.95-3.1-1.54-4.39-2.5-.19-.14-.23-.34-.27-.55,0-.34.37-.69.34-.97-.74-2.26-1.32-4.3-3.46-6.1-1.58-1.44-2.87-2.83-4.18-4.21-1.22-1.41-2.38-2.85-3.77-4.39-1.56-1.75-3.39-3.37-4.94-5.16-.38-.58-1.26-1.36-1.16-2.03.13-.3-.34-1.3.33-1.11.67.19,1.33.46,1.83.74,2.2,1.3,4.58,2.22,6.8,3.4,2.31,1.19,1.54,2.92,2.49,4.43.5.71,1.21,1.3,1.95,1.87.38.28.71.5,1.11.79.42.29.83.58,1.22.89.31.37.2.89-.16,1.27-.56.73-1.36.7-.76,1.35.92.79,2.34,1.25,3.22,2.1.68.75,1.22,1.49,1.83,2.2.63.73,1.29,1.33,2.38,1.94,1.74.9,3.63,1.94,3.79,3.51.14,1.25-.99,2.35-1.74,3.38-.48.71-.3,1.41-.56,2.09-.06.13-.4.24-.64.37-.35-.18-.57-.34-.69-.5-.15-.16-.2-.31-.2-.48-.02-.34.13-.73.07-1.21,0-.13.22-.23.32-.35.04-.34-.46-.54-.79-.77h.02Z"/>
    <path class="cls-2" d="M165.01,301.31c-1.16-.83-2.71-.69-4.27-1.9-.19-.14-.23-.35-.27-.55.02-.34.38-.69.36-.97-.34-1.12-.72-2.18-1.2-3.18-.5-1.01-1.19-1.97-2.25-2.87-1.58-1.43-2.6-2.66-3.64-3.88-.53-.61-1.07-1.22-1.57-1.84-.53-.64-1.14-1.31-1.85-2.06-1.61-1.7-2.88-3.05-4.48-4.74-.42-.55-2.5-1.72-2.43-2.39.13-.29-2.12-1.97-1.44-1.79.66.18,1.04.27,1.54.55,2.2,1.29,4.26,2.09,6.47,3.27,2.31,1.19,1.59,3,2.56,4.5.5.71,1.22,1.3,1.96,1.87.38.27.7.5,1.12.79.42.29.83.58,1.22.89.31.37.2.89-.16,1.27-.56.73-.05.38.55,1.02.91.79,1.06,1.55,1.94,2.41.68.75,1.22,1.49,1.83,2.2.31.36.64.7,1.01,1.01.38.32.83.63,1.37.93,1.75.91,3.64,1.95,3.79,3.53.13,1.26-1.01,2.36-1.77,3.38-.48.71-.32,1.41-.59,2.1-.05.13-.4.24-.64.37-.71-.36-.7-.6-.56-.9.09-.15.21-.32.31-.51.1-.2.19-.41.16-.66,0-.13.67-.37.78-.5-.08.43.05.11.09-.32.08-.44.05-.99.05-.99h0Z"/>
  </g>
  <g class="cls-6">
    <path class="cls-2" d="M124.75,303.92c.67-.85,1.2-1.69,1.77-2.5.53-.83,1.07-1.64,1.81-2.43.21-.23.6-.4.95-.58.63-.25,1.36-.25,1.85-.48.95-.53,1.93-1.07,2.75-1.67.85-.6,1.65-1.22,2.42-1.87,1.44-1.32,2.77-2.71,3.69-4.22.41-.58.82-1.14,1.22-1.71.38-.57.78-1.13,1.18-1.69l.61-.84.56-.85,1.13-1.69c.72-1.13,1.36-2.29,1.97-3.47.26-.6.51-1.19.74-1.8.24-.6.45-1.22.58-1.85.16-.71.3-1.42.42-2.12.08-.7.09-1.41.13-2.11l.03-1.05c0-.35-.04-.7-.05-1.05-.03-.69-.07-1.39-.1-2.1,0-.88.06-1.67.53-2.55.31-.36,1.22-.92,1.76-.5.53.41,1.02.97,1.32,1.5.33.61.68,1.2,1.03,1.79.31.59.63,1.17.94,1.76.31.59.64,1.19.89,1.8.24.61.46,1.25.66,1.91.45,1.38-.11,2.61-.78,3.79-.33.6-.78,1.16-1.21,1.74-.42.58-.82,1.16-1.12,1.77-.6,1.19-.99,2.32-1.32,3.46-.41,1.12-.74,2.26-1.3,3.43-.45.59-1.33,1.08-2.14,1.25-1.47.4-2.01,0-2.75,1.01-.91,1.34-.95,2.73-2.13,4.1-.51.57-1.04,1.12-1.56,1.66-.56.52-1.11,1.04-1.65,1.56-1.03,1.05-2.09,2.08-2.94,3.31-.6.99-1.35,1.93-2.2,2.81-.84.89-1.94,1.64-3.3,2.21-2.16.95-4.57,1.01-6.81,1.5-1.51.38-2.78,1.14-4.16,1.79-.27.13-.71.1-1.14.17.29-1.45,1.87-2.84,3.65-3.87.27-.13.56-.1.84-.15.67-.3.89-.75,1.21-1.18h0Z"/>
    <path class="cls-2" d="M124.93,304.46c.67-.86,1.22-1.7,1.8-2.51.58-.81,1.09-1.65,1.85-2.44.21-.23.59-.4.97-.58.64-.25,1.36-.25,1.86-.48,3.94-2.08,6.99-4.79,8.98-7.77.4-.58.82-1.15,1.24-1.71.39-.57.78-1.13,1.18-1.69.83-1.11,1.54-2.23,2.27-3.36.18-.28.37-.56.54-.85l.48-.86c.31-.58.62-1.16.93-1.74.3-.59.51-1.19.74-1.8.22-.61.47-1.22.61-1.85.33-1.43.58-2.84.58-4.25,0-.7.08-1.4.02-2.1-.03-.7-.07-1.4-.1-2.11.08-.88.08-1.68.57-2.56.31-.36.81-1.39,1.34-.97.53.41,1.02.97,1.32,1.5.33.61.68,1.2,1.03,1.79.31.59.63,1.17.94,1.76.31.59.64,1.19.89,1.8s.46,1.25.66,1.91c.45,1.38-.12,2.61-.79,3.79-.33.6-.78,1.17-1.21,1.74-.42.58-.82,1.16-1.12,1.78-.61,1.19-.99,2.32-1.32,3.47-.41,1.12-.74,2.26-1.31,3.43-.45.59-1.33,1.08-2.14,1.25-1.47.4-1.99-.02-2.74,1-.92,1.34-.95,2.73-2.13,4.1-.52.57-1.04,1.12-1.56,1.66-.56.52-1.11,1.04-1.65,1.56-1.03,1.05-2.09,2.09-2.94,3.31-.6.99-1.35,1.93-2.2,2.81-.84.89-1.94,1.64-3.3,2.21-2.16.95-4.57,1.01-6.81,1.51-1.51.38-2.78,1.14-4.16,1.79-.27.13-.71.1-1.14.17.15-.72.62-1.31,1.29-1.84.69-.52,1.54-1.01,2.45-1.53.27-.13.56-.1.84-.15.67-.3.88-.77,1.23-1.18h0Z"/>
    <path class="cls-2" d="M125.34,305.39c.75-.83,1.26-1.71,1.86-2.53.6-.82,1.17-1.65,1.92-2.45.22-.23.6-.4.98-.59.66-.24,1.41-.24,1.91-.47,3.95-2.1,7.34-4.32,9.48-7.34,1.66-2.36,3.27-4.5,4.6-6.72.33-.56.67-1.11,1-1.67.31-.56.58-1.14.86-1.72.27-.59.57-1.17.79-1.78.22-.61.43-1.23.63-1.87.11-.36.24-.72.31-1.08.06-.36.13-.72.2-1.08.11-.72.23-1.43.27-2.14.04-1.43.13-2.84.03-4.28.04-.45,0-.99,0-1.54.02-.54,0-1.09.25-1.53.31-.36.4-1.87.93-1.45s1.01.98,1.32,1.52c.7,1.23,1.31,2.38,1.94,3.57.67,1.19,1.11,2.4,1.51,3.74.22.69.17,1.35,0,1.98s-.47,1.24-.82,1.83c-.75,1.18-1.75,2.3-2.38,3.53-.65,1.19-.98,2.34-1.36,3.47-.2.57-.4,1.13-.6,1.7-.21.57-.42,1.16-.74,1.73-.45.59-1.34,1.08-2.15,1.25-1.47.4-1.79-.12-2.57.89-.91,1.35-.98,2.74-2.16,4.12-.53.58-1.03,1.13-1.58,1.66-.56.53-1.12,1.04-1.65,1.57-1.03,1.06-2.13,2.09-2.97,3.32-1.31,1.94-2.78,3.9-5.56,5.04-1.09.47-2.23.73-3.4.92-1.16.2-2.31.34-3.44.59-1.53.37-2.81,1.14-4.19,1.8-.28.13-.71.1-1.14.17.16-.72.64-1.19,1.34-1.59.69-.41,1.62-.75,2.54-1.27.27-.13.56-.1.85-.15.68-.3.89-.78,1.25-1.19h-.02Z"/>
    <path class="cls-2" d="M127.09,306.32c.6-.66.68-1.26.9-1.9.2-.66.57-1.36,1.54-2.36.22-.23.6-.41.99-.6.66-.25,1.4-.24,1.93-.46,4.02-2.11,7.62-4.3,9.8-7.37,1.81-2.36,3.3-4.22,4.69-6.13,1.37-1.91,2.6-3.87,3.58-6.45,1.01-2.93,1.6-5.28,1.74-8.23.06-.46-.05-1.27-.23-2.08-.17-.81-.28-1.6,0-2.05.09-.09.09-.35.06-.67-.05-.32-.16-.72-.25-1.09-.19-.73-.34-1.36-.08-1.15.53.42.84.65,1.14,1.19.71,1.23,1.22,2.32,1.8,3.44.61,1.12,1,2.26,1.4,3.59.22.69.17,1.36-.02,2-.18.64-.48,1.27-.83,1.88-.78,1.21-1.77,2.37-2.41,3.59-.66,1.19-.97,2.34-1.38,3.47-.2.57-.4,1.13-.6,1.7-.2.58-.43,1.15-.75,1.73-.45.59-1.34,1.08-2.15,1.25-1.47.4-.61.37-1.43,1.4-.92,1.38-2.11,2.24-3.29,3.62-.53.58-1.03,1.13-1.59,1.66s-1.12,1.04-1.65,1.57c-1.03,1.06-2.15,2.08-2.99,3.32-1.32,1.94-2.79,3.9-5.57,5.04-.55.23-1.11.42-1.67.57-.58.14-1.16.25-1.74.35-1.16.2-2.31.34-3.44.59-1.54.37-2.81,1.14-4.19,1.79-.27.13-.71.1-1.14.17.3-1.45,2.04-1.34,3.97-2.34.27-.13,1.02.02,1.3-.03-.82.36-.2.11.65-.23.85-.35,1.91-.79,1.91-.79h0Z"/>
  </g>
  <text class="cls-5" transform="translate(301.66 40.78) rotate(41) scale(.92 1)"><tspan x="0" y="0">V</tspan></text>
  <text class="cls-5" transform="translate(320.27 57.39) rotate(46.56) scale(.92 1)"><tspan x="0" y="0">I</tspan></text>
  <text class="cls-5" transform="translate(327.56 64.7) rotate(51.52) scale(.92 1)"><tspan x="0" y="0">L</tspan></text>
  <text class="cls-5" transform="translate(340.72 80.63) rotate(59.47) scale(.92 1)"><tspan x="0" y="0">D</tspan></text>
  <text class="cls-5" transform="translate(355.42 106.57) rotate(65.61) scale(.92 1)"><tspan x="0" y="0"> </tspan></text>
  <text class="cls-5" transform="translate(359.89 114.24) rotate(72.71) scale(.92 1)"><tspan x="0" y="0">M</tspan></text>
  <text class="cls-5" transform="translate(370.15 147.97) rotate(82.34) scale(.92 1)"><tspan x="0" y="0">A</tspan></text>
  <text class="cls-5" transform="translate(373.94 174.73) rotate(91.11) scale(.92 1)"><tspan x="0" y="0">D</tspan></text>
  <g class="cls-6">
    <path class="cls-2" d="M244.9,304.65c-1.45-1.73-3.28-3.12-4.66-4.85-.2-.25-.24-.55-.28-.85.02-.49.42-.87.41-1.26-.34-1.66-.99-3.32-1.83-4.96-.84-1.63-1.9-3.21-3.19-4.74-3.87-4.82-6.47-9.64-10.84-14.43-2.45-2.72-5.26-5.17-7.91-7.82-.74-.85-1.35-1.65-1.66-2.64-.03-.44.35-1.22,1.16-.96.82.26,1.69.65,2.39,1.07,3.13,1.91,6.24,3.36,9.35,5.32,3.24,2.01,3.31,4.64,4.99,7.04,1.74,2.32,4.03,4.05,6.03,6.21.41.6.41,1.34.06,1.83-.49.95-1.39.9-.61,1.97,1.14,1.35,2.78,2.34,3.86,3.8,1.67,2.52,2.63,4.8,5,7.16,1.93,1.83,3.79,3.78,3.77,5.94,0,1.73-1.25,3-2.03,4.44-.49,1-.24,2.12-.4,3.2-.04.22-.36.4-.58.64-1.48-1.14-2.28-2.74-2.5-4.27-.02-.21.2-.33.31-.5.02-.51-.49-.9-.86-1.33h.02Z"/>
    <path class="cls-2" d="M245.71,304.89c-1.44-1.75-3.25-3.16-4.63-4.9-.19-.25-.24-.55-.27-.86.02-.49.44-.87.42-1.26-.34-1.67-.97-3.33-1.82-4.96-.84-1.64-1.9-3.22-3.18-4.75-3.87-4.83-6.52-9.5-10.87-14.29-2.45-2.72-5.26-5.17-7.92-7.81-.74-.85-1.36-1.65-1.66-2.64-.03-.44-.41-1.56.41-1.3s1.69.65,2.39,1.07c3.13,1.91,6.24,3.36,9.35,5.32,3.24,2.01,3.3,4.64,4.99,7.04,1.74,2.32,4.03,4.05,6.03,6.21.41.6.4,1.34.06,1.83-.49.95-1.4.89-.62,1.96,1.14,1.35,2.78,2.34,3.86,3.8,1.67,2.52,2.64,4.8,5.01,7.16,1.93,1.83,3.79,3.78,3.77,5.94,0,1.73-1.25,3-2.03,4.44-.49,1-.24,2.12-.4,3.21-.04.22-.36.4-.58.64-1.48-1.13-1.61-2.45-1.8-4,0-.21.23-.34.33-.5,0-.52-.48-.92-.85-1.35h0Z"/>
    <path class="cls-2" d="M247.22,305.28c-1.4-1.8-3.21-3.24-4.56-5-.2-.25-.23-.56-.26-.86.02-.49.43-.87.42-1.27-.33-1.68-.76-3.29-1.4-4.87-.64-1.58-1.48-3.14-2.77-4.67-3.86-4.86-6.6-9.1-10.96-13.89-2.45-2.72-5.26-5.16-7.93-7.79-.74-.85-2.12-1.98-2.43-2.96-.03-.44-1.17-1.89-.35-1.64s1.69.65,2.39,1.06c3.13,1.91,6.25,3.35,9.35,5.31,3.24,2.01,3.31,4.64,4.99,7.04,1.74,2.32,4.04,4.05,6.03,6.22.42.61.4,1.35.06,1.83-.49.95-1.39.73-.61,1.8,1.14,1.35,2.78,2.35,3.86,3.81,1.67,2.52,2.63,4.8,5.01,7.18,1.92,1.85,3.79,3.82,3.76,5.99-.02,1.75-1.28,3.03-2.05,4.48-.51,1.01-.25,2.14-.44,3.25-.04.22-.36.4-.58.64-1.51-1.15-.91-2.18-1.04-3.77,0-.22.22-.34.33-.51.05-.53-.49-.94-.82-1.39h0Z"/>
    <path class="cls-2" d="M249.49,304.98c-1.15-1.46-2.77-1.69-4.37-3.92-.19-.26-.21-.57-.24-.88.03-.49.45-.87.45-1.28-.31-1.69-.71-3.32-1.36-4.91-.64-1.59-1.48-3.13-2.75-4.69-3.85-4.89-5.27-8.03-9.61-12.83-2.45-2.72-4.49-4.84-7.17-7.45-.75-.84-3.65-2.62-3.98-3.6-.03-.43-3.45-2.89-2.63-2.64.82.26,1.26.38,1.96.79,3.13,1.9,5.82,3.17,8.93,5.12,3.24,2.01,3.41,4.76,5.1,7.16,1.74,2.32,4.03,4.05,6.02,6.22.42.6.4,1.35.06,1.83-.49.95.02.55.78,1.62,1.14,1.36,1.41,2.51,2.49,3.98,1.67,2.52,2.63,4.8,5,7.18,1.91,1.85,3.79,3.83,3.75,6-.02,1.75-1.3,3.03-2.08,4.48-.53,1.01-.27,2.15-.46,3.26-.04.22-.36.4-.58.64-.78-.59-.78-1.04-.69-1.56.05-.26.16-.54.27-.86.08-.31.13-.66.12-1.06,0-.22.67-.49.78-.66-.04.65.02.17.1-.48.05-.32.07-.69.08-.98.02-.29.02-.49.02-.49h0Z"/>
  </g>
  <g class="cls-6">
    <path class="cls-2" d="M227.66,301.49c.63-1.05,1.1-2.06,1.57-3.04.47-.99.89-1.93,1.53-2.94.18-.29.53-.54.89-.79.63-.37,1.37-.48,1.85-.8,3.67-2.92,6.37-6.39,8.19-10.03,2.96-5.72,7.45-10.72,9.53-16.56.6-1.65.95-3.28,1.14-4.9.2-1.62.23-3.23.13-4.84.04-.5.04-.98.12-1.46.09-.48.18-.96.38-1.46.13-.21.42-.48.74-.64.32-.17.67-.22.96.01.56.46,1.11,1.09,1.43,1.71,1.37,2.81,2.67,5.38,3.07,8.5.21,1.61-.45,3.04-1.36,4.39-.92,1.35-2.06,2.62-2.9,4-1.53,2.71-2.08,5.16-3.32,7.79-.45.66-1.34,1.24-2.16,1.48-1.48.54-2.06.11-2.79,1.32-.81,1.6-.82,3.14-1.8,4.82-1.8,2.8-3.94,5.14-5.31,8.09-.51,1.18-1.04,2.34-1.83,3.45s-1.81,2.11-3.16,2.92c-2.16,1.31-4.59,1.74-6.87,2.65-1.55.65-2.64,1.77-3.9,2.78-.25.2-.71.28-1.14.45-.13-1.66,1.22-3.62,3.02-5.07.26-.2.57-.2.86-.3.67-.44.81-.99,1.11-1.51h0Z"/>
    <path class="cls-2" d="M227.91,302.05c1.27-2.11,1.94-4.03,3.18-6.01.19-.29.54-.54.89-.79.62-.37,1.39-.48,1.87-.8,3.7-2.92,6.42-6.39,8.25-10.04,2.96-5.72,7.21-10.62,9.38-16.47,1.22-3.32,1.54-6.55,1.45-9.8.07-1.01.14-1.92.56-2.94.27-.41.69-1.61,1.26-1.15.56.46,1.11,1.09,1.43,1.71,1.37,2.81,2.67,5.39,3.07,8.51.21,1.61-.45,3.04-1.36,4.39-.92,1.35-2.06,2.62-2.9,4-1.53,2.72-2.09,5.16-3.32,7.79-.45.66-1.34,1.24-2.16,1.48-1.48.54-2.05.1-2.78,1.3-.81,1.6-.82,3.14-1.8,4.82-1.8,2.8-3.94,5.14-5.31,8.09-.51,1.18-1.05,2.34-1.83,3.45-.79,1.11-1.81,2.11-3.17,2.92-2.16,1.31-4.59,1.74-6.87,2.65-1.56.65-2.64,1.77-3.9,2.78-.25.2-.71.28-1.14.44-.13-1.66,1.4-3.06,3.18-4.51.26-.2.58-.2.86-.3.67-.44.81-1,1.12-1.51h0Z"/>
    <path class="cls-2" d="M228.46,303.04c1.28-2.11,2.03-4.08,3.32-6.05.19-.29.55-.54.91-.8.64-.37,1.39-.48,1.88-.8,3.75-2.93,6.84-5.89,8.7-9.55,1.53-2.85,3.09-5.44,4.67-8.04,1.57-2.59,3.08-5.22,4.27-8.16,1.33-3.34,1.83-6.62,1.94-9.95.06-.52.05-1.15.05-1.78.02-.63.05-1.25.27-1.77.34-.42.27-2.16.84-1.69.56.47,1.11,1.11,1.4,1.74,1.33,2.85,2.59,5.45,2.94,8.58.21,1.63-.49,3.05-1.4,4.4-.93,1.35-2.09,2.62-2.94,4-1.54,2.72-2.12,5.17-3.33,7.78-.45.66-1.34,1.25-2.16,1.49-1.48.54-1.86-.03-2.59,1.18-.81,1.6-.82,3.14-1.8,4.82-1.81,2.81-3.98,5.15-5.35,8.12-.53,1.18-1.06,2.35-1.87,3.47-.81,1.11-1.83,2.11-3.19,2.92-2.17,1.31-4.6,1.74-6.88,2.65-1.55.65-2.63,1.77-3.88,2.77-.25.2-.71.28-1.13.44-.13-1.65,1.54-2.5,3.32-3.95.26-.2.58-.2.86-.31.67-.44.81-1,1.12-1.52h.02Z"/>
    <path class="cls-2" d="M230.42,303.79c.99-1.66.22-2.59,2.01-5.06.2-.29.58-.54.95-.79.65-.36,1.4-.48,1.91-.79,3.87-2.93,7.06-5.91,8.95-9.58,1.57-2.86,2.99-5.08,4.45-7.3,1.45-2.22,2.93-4.47,4.26-7.43,1.51-3.35,2.45-6.06,3.01-9.5.13-.53.05-1.49-.03-2.43-.06-.94-.16-1.87.13-2.39.15-.21.05-1.19-.16-2.05-.17-.85-.4-1.58-.12-1.34.57.49.87.74,1.18,1.37,1.29,2.87,2.34,5.13,2.7,8.26.21,1.63-.51,3.09-1.44,4.48-.95,1.39-2.13,2.69-2.98,4.08-1.54,2.72-2.12,5.16-3.34,7.78-.45.66-1.34,1.25-2.16,1.49-1.48.54-.65.45-1.38,1.66-.82,1.61-1.99,2.67-2.97,4.35-1.81,2.81-3.98,5.15-5.37,8.12-.53,1.18-1.07,2.35-1.89,3.47-.82,1.11-1.84,2.11-3.2,2.92-2.17,1.31-4.6,1.74-6.87,2.65-1.55.65-2.63,1.77-3.87,2.77-.24.2-.71.28-1.13.44-.14-1.65,1.72-1.94,3.5-3.4.26-.2,1.07-.15,1.36-.25-1.61,1.06,2.49-1.52,2.49-1.52h0Z"/>
  </g>
  <g class="cls-6">
    <path class="cls-2" d="M205.27,306.64c-4.12-1.79-7.91-3.43-11.31-5.77-.49-.33-.85-.76-1.18-1.18-.47-.68-.36-1.24-.74-1.79-.92-1.14-1.84-2.29-2.77-3.44-.89-1.14-1.85-2.27-2.82-3.39-1.92-2.26-3.98-4.48-6.12-6.68-6.6-6.94-10.82-13.99-16.79-21.16-3.36-4.08-6.99-7.84-10.57-11.78-1.03-1.26-1.91-2.42-2.54-3.81-.16-.6,0-1.65.96-1.21.96.44,2.02,1.07,2.91,1.72,3.94,2.99,7.71,5.4,11.57,8.51,4.02,3.2,4.74,6.85,7.23,10.34,2.52,3.39,5.54,6,8.46,9.09.66.85.91,1.86.74,2.49-.16,1.25-1.14,1.14.14,2.65.92.95,1.94,1.79,2.96,2.63,1.03.84,2.09,1.69,3.04,2.68,1.59,1.69,2.99,3.33,4.56,4.9,1.53,1.59,3.23,3.08,5.39,4.51,3.49,2.21,7.12,4.18,9.64,6.57,2.07,1.91,2.76,3.66,4.58,5.46,1.3,1.23,3.58,2.31,5.98,3.27.48.19.74.5,1.22.79-1.8-.01-3.91-.41-5.83-1.04-1.94-.63-3.61-1.42-5.11-2.29-.4-.25-.41-.47-.61-.7-.88-.61-1.99-.94-3.02-1.38h0Z"/>
    <path class="cls-2" d="M206.42,306.73c-4.12-1.75-7.93-3.35-11.34-5.66-.48-.33-.84-.75-1.19-1.17-.45-.68-.38-1.23-.75-1.78-.93-1.13-1.86-2.27-2.79-3.41-.93-1.14-1.84-2.27-2.84-3.38-.96-1.12-1.96-2.24-2.99-3.35-1-1.12-2.09-2.21-3.15-3.3-6.63-6.91-10.85-13.73-16.83-20.9-3.37-4.08-6.99-7.84-10.57-11.78-1.03-1.26-1.91-2.42-2.54-3.81-.16-.6-.9-2.19.05-1.75.96.44,2.02,1.07,2.91,1.72,3.94,2.99,7.71,5.4,11.57,8.51,4.02,3.2,4.74,6.85,7.22,10.34,2.52,3.39,5.54,6,8.45,9.08.66.85.91,1.86.74,2.49-.16,1.25-1.15,1.12.13,2.63.92.95,1.94,1.79,2.96,2.63,1.03.84,2.09,1.69,3.04,2.68,1.59,1.69,2.99,3.33,4.56,4.9,1.53,1.59,3.23,3.08,5.39,4.5,3.48,2.21,7.11,4.17,9.63,6.56,2.07,1.91,2.76,3.66,4.57,5.46,1.3,1.23,3.58,2.3,5.97,3.27.48.19.74.5,1.22.79-1.8-.01-3.6-.41-5.22-1.02-1.64-.61-3.08-1.38-4.56-2.23-.4-.24-.42-.46-.62-.69-.87-.6-1.99-.91-3.02-1.35h.02Z"/>
    <path class="cls-2" d="M208.44,306.76c-4.12-1.67-7.92-3.21-11.35-5.45-.49-.32-.86-.73-1.21-1.15-.48-.67-.39-1.22-.78-1.76-1.89-2.24-3.5-4.42-5.18-6.57-1.72-2.15-3.52-4.27-5.7-6.43-6.63-6.85-10.94-13.01-16.94-20.17-3.39-4.07-7.01-7.83-10.58-11.78-1.03-1.26-2.82-2.98-3.44-4.37-.16-.6-1.82-2.74-.87-2.3.96.44,2.02,1.08,2.91,1.73,3.94,2.99,7.7,5.4,11.56,8.52,4.01,3.2,4.74,6.84,7.23,10.33,2.53,3.38,5.54,5.99,8.47,9.06.65.86.93,1.85.76,2.48-.16,1.25-1.22.91.07,2.41.93.95,1.94,1.78,2.96,2.62,1.04.83,2.09,1.68,3.04,2.68.8.84,1.55,1.67,2.29,2.49.74.81,1.51,1.6,2.27,2.39,1.54,1.58,3.23,3.06,5.39,4.47,3.48,2.18,7.1,4.11,9.62,6.47,2.06,1.9,2.77,3.62,4.57,5.4,1.3,1.22,3.58,2.27,5.94,3.17.47.18.73.49,1.21.76-1.76.02-3.25-.36-4.59-.91-1.35-.56-2.56-1.31-4.03-2.13-.39-.23-.42-.45-.62-.68-.88-.58-1.99-.88-3.02-1.29h.02Z"/>
    <path class="cls-2" d="M210.04,305.73c-1.57-.63-2.83-.92-4.26-1.37-1.43-.44-3.05-1.03-5.2-2.35-.5-.3-.87-.7-1.24-1.1-.49-.65-.43-1.19-.84-1.72-1.95-2.17-3.62-4.29-5.35-6.4-.85-1.07-1.76-2.11-2.71-3.17-.93-1.06-1.98-2.1-3.06-3.18-3.38-3.37-5.64-6.2-7.9-9.04-2.25-2.84-4.43-5.72-7.47-9.27-3.42-4.04-6.15-7.24-9.71-11.2-1.03-1.27-4.63-4.09-5.25-5.48-.15-.61-4.56-4.39-3.61-3.95.96.44,1.48.66,2.37,1.31,3.94,2.99,7.18,5.09,11.05,8.21,4.01,3.2,4.88,7.02,7.38,10.52,2.53,3.38,5.54,5.99,8.48,9.06.65.86.93,1.85.76,2.48-.15,1.25.22.75,1.52,2.24,1.82,1.89,2.67,3.45,4.6,5.44.8.84,1.55,1.67,2.29,2.48.75.81,1.51,1.6,2.28,2.39,1.54,1.57,3.24,3.05,5.41,4.45,3.49,2.18,7.12,4.09,9.65,6.45,2.07,1.89,2.79,3.6,4.6,5.39,1.3,1.22,3.59,2.25,5.97,3.14.47.18.74.48,1.22.75-1.76.03-2.96-.35-4.02-.89-1.07-.54-2.05-1.26-3.52-2.06-.4-.23-.31-.76-.52-.98,1.07.69.29.17-.71-.54-1.02-.7-2.21-1.61-2.21-1.61h0Z"/>
  </g>
  <g class="cls-6">
    <path class="cls-2" d="M216.98,302.19c-.7-.91-1.73-1.71-2.07-2.61-.05-.13.09-.27.22-.41.29-.22.89-.35,1.11-.53,1.29-1.55,1.66-3.16,1.16-4.72-.62-2.45.1-4.83-1.02-7.26-.6-1.38-1.77-2.61-2.77-3.9-.23-.41-.36-.79-.13-1.28.2-.21.96-.61,1.58-.49.62.12,1.23.31,1.66.52.96.48,1.94.91,2.91,1.36.98.45,1.93.91,2.8,1.46,1.83,1.12.3,2.44.38,3.67.17,1.21,1.2,2.17,1.69,3.32,0,.31-.47.66-1.08.85-1.04.4-1.83.32-1.78.86.21.7,1.14,1.28,1.25,2.02.06,1.27-.45,2.39.4,3.63.74.98,1.47,1.96.49,2.9-.76.76-2.46,1.25-3.65,1.88-.78.44-.78.98-1.08,1.5-.05.1-.4.19-.64.3-1.4-.57-1.87-1.42-1.58-2.17.05-.1.32-.15.48-.22.2-.24-.16-.46-.33-.69h0Z"/>
    <path class="cls-2" d="M217.67,302.35c-.7-.91-1.73-1.71-2.07-2.62-.05-.13.09-.27.22-.41.29-.22.89-.35,1.11-.53,1.29-1.55,1.67-3.16,1.17-4.73-.62-2.46-.04-4.77-1.14-7.22-.61-1.39-1.76-2.63-2.75-3.92-.21-.41-.36-.8-.13-1.28.2-.21.44-.77,1.06-.65.62.12,1.23.31,1.66.52.96.48,1.94.91,2.91,1.36.98.45,1.93.91,2.8,1.46,1.83,1.12.3,2.44.38,3.67.17,1.21,1.2,2.17,1.69,3.32,0,.31-.47.66-1.08.86-1.04.4-1.83.31-1.78.85.21.7,1.13,1.28,1.25,2.02.06,1.27-.45,2.39.4,3.63.74.98,1.47,1.96.49,2.9-.76.76-2.46,1.25-3.65,1.88-.78.44-.78.98-1.08,1.5-.05.1-.4.19-.64.3-1.4-.57-1.25-1.25-.96-2,.05-.1.32-.15.48-.22.2-.24-.16-.46-.33-.69h0Z"/>
    <path class="cls-2" d="M218.98,302.62c-.7-.92-1.72-1.72-2.06-2.63-.05-.13.09-.27.22-.41.29-.22.9-.36,1.11-.54,1.29-1.55,2.3-3.02,1.81-4.61-.61-2.48-.42-4.63-1.5-7.1-.6-1.4-1.72-2.67-2.72-3.98-.21-.42-.85-.98-.64-1.46.2-.21-.09-.93.53-.81s1.23.31,1.66.52c1.9.96,3.97,1.75,5.71,2.84,1.83,1.13.29,2.45.37,3.69.16,1.21,1.19,2.18,1.69,3.34,0,.31-.47.66-1.08.86-1.04.4-1.73.24-1.69.79.21.7,1.13,1.28,1.25,2.03.05,1.27-.45,2.4.39,3.64.74.98,1.47,1.97.49,2.91-.76.76-2.46,1.25-3.65,1.89-.78.44-.79.98-1.08,1.5-.06.1-.4.19-.64.3-1.4-.57-.64-1.08-.34-1.83.05-.1.32-.15.48-.22.2-.25-.16-.46-.33-.69h.02Z"/>
    <path class="cls-2" d="M221.3,302.61c-.55-.72-2.05-.94-2.46-2.07-.05-.13.09-.27.22-.41.29-.22.9-.36,1.11-.54,1.29-1.56,2.33-3.03,1.84-4.64-.6-2.51.1-4.06-.92-6.59-.58-1.43-1.16-2.54-2.12-3.9-.19-.44-1.88-1.37-1.64-1.85.23-.22-1.66-1.44-1.03-1.32.62.12.97.19,1.41.4,1.89.97,3.67,1.66,5.41,2.74,1.83,1.13.31,2.51.39,3.76.16,1.21,1.19,2.18,1.68,3.34,0,.31-.47.66-1.08.86-1.04.4-.32.25-.27.8.21.71-.23,1.26-.12,2,.05,1.27-.45,2.4.39,3.65.74.98,1.47,1.97.49,2.91-.76.76-2.46,1.25-3.65,1.89-.78.44-.79.98-1.08,1.5-.05.1-.4.19-.64.3-1.4-.57-.02-.9.28-1.66.05-.1.79-.2.96-.28-.48.6.84-.88.84-.88h0Z"/>
  </g>
  <g class="cls-6">
    <path class="cls-2" d="M188.15,302.59c-.87-1.22-1.82-2.36-2.73-3.55-.89-1.16-1.75-2.33-2.47-3.61-.2-.36-.24-.78-.28-1.19.02-.65.45-1.1.45-1.63-.61-4.51-2.19-9.06-4.63-13.46-1.83-3.46-3.29-6.85-4.83-10.26-1.53-3.42-3.03-6.85-4.9-10.37-1.05-1.99-2.17-3.93-3.3-5.86-1.11-1.91-2.22-3.82-3.35-5.76-.61-1.19-1.13-2.25-1.45-3.44,0-.26.05-.61.24-.86.17-.26.46-.4.91-.2.88.38,1.81.98,2.52,1.62,1.58,1.47,3.03,2.89,4.45,4.3,1.41,1.42,2.81,2.82,4.23,4.39,2.93,3.22,2.58,6.58,4.01,9.97,1.49,3.28,3.72,5.88,5.59,9.01.37.85.3,1.8-.09,2.37-.59,1.14-1.5.94-.79,2.44,1.07,1.93,2.68,3.47,3.7,5.53,1.58,3.5,2.42,6.67,4.74,10.03,1.91,2.64,3.76,5.28,3.93,8.01.16,2.22-.93,3.84-1.52,5.74-.38,1.32.03,2.84-.1,4.29-.02.29-.34.53-.57.84-1.46-1.54-2.46-3.73-2.92-5.84-.05-.29.16-.45.24-.67-.05-.69-.65-1.26-1.07-1.86h0Z"/>
    <path class="cls-2" d="M189.01,302.97c-1.72-2.44-3.77-4.62-5.19-7.16-.2-.37-.24-.78-.28-1.19.02-.65.45-1.1.45-1.63-.6-4.51-2.18-9.07-4.62-13.46-1.83-3.46-3.31-6.81-4.85-10.16-1.55-3.37-3.08-6.74-4.96-10.25-1.06-1.99-2.19-3.92-3.32-5.85-1.14-1.92-2.25-3.88-3.36-5.79-.6-1.21-1.1-2.29-1.39-3.52,0-.53-.49-1.92.38-1.54.88.38,1.81.99,2.52,1.63,1.58,1.47,3.03,2.89,4.45,4.31,1.41,1.42,2.81,2.82,4.23,4.39,2.93,3.22,2.58,6.58,4.01,9.96,1.49,3.28,3.72,5.88,5.59,9.01.37.85.3,1.8-.09,2.37-.59,1.14-1.51.92-.79,2.42,1.07,1.93,2.68,3.47,3.69,5.53,1.58,3.5,2.42,6.67,4.74,10.03,1.91,2.64,3.76,5.28,3.93,8.01.16,2.22-.93,3.84-1.52,5.74-.38,1.33.04,2.84-.1,4.3-.03.29-.34.53-.57.84-1.47-1.53-1.74-3.32-2.16-5.44-.04-.29.17-.45.26-.68-.05-.7-.64-1.26-1.06-1.87h0Z"/>
    <path class="cls-2" d="M190.6,303.57c-.84-1.24-1.78-2.38-2.68-3.55-.91-1.17-1.76-2.35-2.48-3.62-.2-.37-.24-.78-.28-1.19.02-.65.45-1.1.45-1.63-.61-4.51-1.35-8.68-3.78-13.09-1.82-3.47-3.33-6.68-4.92-9.91-1.59-3.22-3.19-6.45-5.09-9.94-2.13-3.97-4.58-7.69-6.75-11.62-.58-1.24-1.76-2.93-2.01-4.2,0-.28-.27-.91-.47-1.41-.2-.5-.31-.88.13-.68.86.4,1.8,1.03,2.49,1.69,1.56,1.5,2.99,2.93,4.41,4.34,1.41,1.41,2.82,2.81,4.23,4.37,2.94,3.21,2.6,6.57,4.03,9.95,1.5,3.28,3.73,5.88,5.6,9.01.37.85.3,1.8-.09,2.37-.59,1.14-1.49.72-.78,2.22,1.07,1.93,2.68,3.47,3.69,5.53,1.57,3.5,2.42,6.67,4.74,10.04.95,1.32,1.89,2.64,2.61,3.97.72,1.34,1.22,2.65,1.32,4.04.16,2.23-.94,3.86-1.54,5.77-.38,1.33,0,2.87-.16,4.35-.02.3-.37.54-.6.85-.72-.79-.99-1.51-1.08-2.33-.1-.81-.06-1.7-.24-2.77-.04-.3.19-.45.27-.68-.04-.71-.61-1.28-1.03-1.89h.02Z"/>
    <path class="cls-2" d="M192.87,303.29c-1.34-1.99-3.1-2.38-4.88-5.54-.2-.37-.24-.78-.28-1.19.02-.65.46-1.1.45-1.63-.6-4.52-1.33-8.69-3.75-13.11-1.81-3.47-3.02-6.28-4.27-9.09-1.25-2.81-2.59-5.61-4.53-9.08-2.19-3.95-3.94-7.06-6.2-10.96-.63-1.23-3.19-4.12-3.35-5.45.02-.28-.74-1.38-1.47-2.32-.71-.95-1.42-1.72-.99-1.5.85.43,1.32.66,2.01,1.32,1.54,1.51,2.86,2.86,4.18,4.19,1.31,1.33,2.63,2.64,4.04,4.21,2.93,3.21,2.68,6.75,4.12,10.13,1.5,3.28,3.73,5.88,5.6,9.01.37.85.3,1.8-.09,2.37-.59,1.14-.03.71.67,2.21,1.07,1.94,1.26,3.47,2.27,5.52,1.57,3.5,2.42,6.67,4.74,10.04.95,1.32,1.89,2.64,2.61,3.97.72,1.34,1.23,2.65,1.32,4.04.16,2.23-.96,3.86-1.57,5.77-.38,1.33-.03,2.87-.2,4.36-.04.3-.38.53-.6.84-.74-.8-.79-1.4-.71-2.11.09-.7.35-1.49.19-2.57-.02-.3.62-.63.71-.86.03.87.05.23.04-.63s-.09-1.95-.09-1.95h.02Z"/>
  </g>
  <g class="cls-6">
    <path class="cls-2" d="M220.75,268.52c-.16.94-.24,1.83-.32,2.68-.1.87-.25,1.74-.6,2.62-.1.25-.38.48-.66.71-.51.33-1.22.44-1.62.72-2.92,2.53-5.12,5.33-6.59,8.3-1.23,2.3-2.8,4.46-4.36,6.61-1.54,2.14-3.03,4.3-4.12,6.64-.63,1.32-1.09,2.65-1.5,3.97-.42,1.31-.69,2.63-1.21,4.07-.42.88-.93,1.7-2.01,2.5-.27.15-.74.31-1.14.35-.39.02-.74-.04-.83-.3-.16-.54-.26-1.16-.27-1.71.02-1.24-.25-2.36-.51-3.5-.27-1.14-.48-2.32-.54-3.57-.14-2.59,2.78-4.27,4.3-6.43,1.38-2.13,1.78-4.14,2.75-6.22.38-.53,1.21-.97,1.99-1.12,1.4-.38,2.01,0,2.62-.96.66-1.29.53-2.55,1.29-3.89,1.41-2.23,3.13-4.1,3.71-6.52.38-1.91.72-3.83,2.63-5.3,1.49-1.17,3.56-1.68,5.22-2.67,1.11-.7,1.52-1.76,1.98-2.8.09-.21.46-.36.72-.6.65.65.96,1.48.95,2.31,0,.83-.31,1.67-.82,2.38-.16.2-.45.23-.67.35-.42.44-.31.92-.39,1.39h-.02Z"/>
    <path class="cls-2" d="M220.28,268.06c-.32,1.89-.22,3.52-.91,5.3-.09.25-.38.48-.66.71-.51.33-1.22.44-1.62.72-2.91,2.53-5.11,5.33-6.58,8.29-1.23,2.3-2.73,4.44-4.24,6.57-1.5,2.12-2.95,4.26-4.04,6.6-.64,1.33-1.11,2.65-1.51,3.97-.42,1.33-.71,2.62-1.19,4.04-.4.86-.87,1.67-1.88,2.45-.51.31-1.74,1.17-1.91.62-.16-.54-.27-1.16-.27-1.7.02-1.23-.26-2.36-.51-3.5-.27-1.14-.48-2.32-.54-3.57-.14-2.59,2.78-4.27,4.3-6.43,1.38-2.13,1.78-4.14,2.75-6.22.38-.53,1.21-.97,1.99-1.12,1.4-.38,1.99.02,2.6-.94.66-1.29.53-2.55,1.29-3.89,1.41-2.23,3.13-4.1,3.71-6.52.38-1.91.73-3.82,2.64-5.3,1.49-1.17,3.56-1.67,5.22-2.66,1.11-.7,1.52-1.76,1.97-2.79.09-.21.46-.36.72-.59.64.64.82,1.37.71,2.08-.12.72-.52,1.44-1,2.15-.15.2-.44.24-.67.35-.42.43-.3.92-.38,1.38h0Z"/>
    <path class="cls-2" d="M219.31,267.28c-.13.93-.2,1.82-.3,2.69-.1.86-.24,1.72-.59,2.6-.09.25-.38.48-.66.7-.51.33-1.22.44-1.62.72-2.91,2.53-5.48,4.88-6.93,7.84-1.22,2.3-2.56,4.37-3.9,6.45-1.36,2.07-2.68,4.16-3.8,6.51-1.29,2.66-1.96,5.3-2.76,8-.35.83-.57,2.13-1.51,2.9-.24.15-.6.57-.95.89-.35.32-.69.53-.78.27-.2-.52-.33-1.13-.35-1.67-.02-1.22-.31-2.33-.57-3.47-.26-1.15-.47-2.33-.53-3.58-.13-2.59,2.8-4.28,4.32-6.44,1.4-2.14,1.79-4.14,2.75-6.22.38-.53,1.21-.97,1.98-1.12,1.4-.38,1.82.11,2.43-.85.66-1.29.53-2.55,1.28-3.89,1.41-2.23,3.13-4.1,3.7-6.51.19-.96.37-1.91.74-2.81.36-.89.96-1.78,1.89-2.48,1.48-1.16,3.54-1.66,5.18-2.64,1.11-.69,1.47-1.73,1.9-2.74.09-.2.44-.36.71-.58.67.62.71,1.22.51,1.82-.21.6-.7,1.19-1.15,1.9-.14.19-.43.24-.65.35-.4.43-.27.9-.33,1.37l-.02-.02Z"/>
    <path class="cls-2" d="M217.11,266.84c-.18,1.41.96,2.14.13,4.29-.09.25-.38.48-.65.7-.51.33-1.22.44-1.62.72-2.89,2.52-5.46,4.87-6.89,7.83-1.21,2.29-2.45,4.06-3.69,5.83-1.23,1.77-2.52,3.55-3.69,5.9-1.34,2.67-2.26,4.81-3.15,7.52-.39.83-.12,3.1-.94,3.86-.22.15-.36.94-.55,1.65-.18.7-.43,1.32-.55,1.07-.24-.5-.42-.77-.45-1.3-.05-1.21-.32-2.26-.54-3.33-.23-1.08-.41-2.19-.46-3.44-.13-2.59,2.86-4.4,4.38-6.56.7-1.07,1.14-2.1,1.54-3.13.4-1.03.73-2.03,1.22-3.08.38-.53,1.21-.97,1.99-1.13,1.4-.38.6-.34,1.21-1.3.65-1.29,1.69-2.1,2.45-3.45,1.41-2.23,3.12-4.1,3.69-6.51.19-.96.37-1.91.74-2.81.36-.89.96-1.78,1.89-2.48,1.47-1.15,3.53-1.66,5.17-2.64,1.11-.69,1.44-1.73,1.87-2.75.08-.2.43-.36.69-.59.67.61.6,1.12.27,1.61-.33.5-.89.99-1.33,1.69-.13.2-.93.25-1.14.37.46-.52.09-.14-.42.36-.5.5-1.17,1.1-1.17,1.1h0Z"/>
  </g>
  <g class="cls-6">
    <path class="cls-2" d="M174.54,300.22c-1.72-1.2-3.9-2.05-5.76-3.25-.27-.17-.41-.42-.56-.67-.16-.42.05-.85-.12-1.2-1.94-2.82-4.71-5.39-8.35-7.45-2.77-1.64-5.34-3.26-8.18-4.67-2.88-1.42-6.03-2.69-9.64-3.62-4.08-1.08-8.31-1.62-12.65-2.27-1.32-.26-2.52-.53-3.71-1.06-.45-.28-1-.97-.2-1.16s1.78-.31,2.67-.33c4.01-.07,7.6-.4,11.78-.22,2.16.09,3.92.64,5.52,1.34,1.6.7,3.06,1.53,4.73,2.22,1.66.65,3.3,1.15,4.91,1.69,1.62.53,3.27,1.1,4.82,1.81.75.43,1.15,1.1,1.11,1.6.05.96-.77,1.12.45,1.88,1.68.92,3.63,1.45,5.25,2.52,2.6,1.88,4.35,3.77,7.42,5.36,2.5,1.22,5.08,2.67,5.78,4.67.56,1.6-.32,3.02-1.11,4.28-.53.85-.64,1.76-1.03,2.77-.07.2-.43.35-.68.58-.67-.62-1.04-1.36-1.29-1.97-.12-.31-.21-.59-.27-.82-.06-.22-.12-.43-.17-.7-.02-.15.22-.26.3-.4-.02-.4-.58-.65-1.01-.94h0Z"/>
    <path class="cls-2" d="M175.37,300.3c-1.72-1.25-3.88-2.12-5.73-3.34-.27-.18-.41-.42-.55-.68-.15-.41.08-.84-.09-1.19-1.94-2.82-4.72-5.41-8.36-7.5-2.79-1.66-5.34-3.28-8.19-4.69-2.85-1.42-6.01-2.68-9.61-3.64-4.1-1.1-8.33-1.67-12.66-2.32-1.32-.26-2.52-.53-3.71-1.06-.45-.28-1.83-.87-1.04-1.05.8-.19,1.78-.31,2.67-.33,4.01-.07,7.61-.4,11.79-.22,2.16.09,3.92.64,5.53,1.34,1.61.7,3.06,1.53,4.74,2.22,1.66.65,3.3,1.16,4.92,1.7,1.62.53,3.28,1.1,4.82,1.81.75.43,1.15,1.1,1.11,1.61.05.96-.78,1.11.43,1.87,1.68.92,3.63,1.45,5.25,2.53,2.6,1.88,4.35,3.77,7.42,5.36,2.5,1.23,5.09,2.67,5.78,4.67.56,1.6-.31,3.02-1.11,4.29-.53.86-.64,1.77-1.03,2.78-.08.2-.43.35-.69.58-.67-.62-.9-1.25-.98-1.82-.04-.29-.04-.56-.03-.81,0-.26.02-.46-.02-.74,0-.15.21-.26.31-.4,0-.4-.56-.68-.96-.98h0Z"/>
    <path class="cls-2" d="M176.9,300.43c-1.69-1.36-3.85-2.27-5.7-3.53-.27-.18-.4-.43-.55-.69-.15-.42.09-.84-.07-1.18-1.94-2.82-3.89-5.41-7.55-7.57-2.8-1.72-5.35-3.3-8.19-4.73-2.83-1.41-5.92-2.66-9.56-3.7-4.12-1.19-8.38-1.81-12.72-2.49-1.32-.27-3.36-.45-4.55-.98-.45-.28-2.68-.76-1.88-.95s1.79-.3,2.67-.33c4.02-.07,7.62-.38,11.83-.19,2.18.1,3.94.67,5.55,1.38,1.62.71,3.07,1.56,4.75,2.26,1.68.66,3.3,1.19,4.94,1.74,1.65.56,3.28,1.14,4.84,1.87.74.45,1.15,1.11,1.1,1.62.05.96-.86.97.35,1.74,1.69.93,3.64,1.48,5.25,2.55,2.6,1.89,4.35,3.78,7.42,5.37,2.52,1.25,5.11,2.72,5.82,4.77.55,1.65-.31,3.09-1.15,4.43-.57.91-.71,1.87-1.09,2.88-.07.2-.43.35-.67.58-1.39-1.23-.34-2.15-.29-3.36.02-.16.25-.27.35-.41.05-.44-.53-.75-.91-1.09h0Z"/>
    <path class="cls-2" d="M179.07,299.93c-.7-.61-1.51-.89-2.37-1.23-.87-.34-1.8-.75-2.92-1.57-.27-.19-.39-.45-.53-.72-.14-.43.12-.85-.04-1.2-1.91-2.84-3.87-5.44-7.5-7.66-2.79-1.77-4.95-3.23-7.28-4.62-2.35-1.39-4.96-2.69-8.6-3.88-4.14-1.35-7.59-2.17-11.97-2.97-1.34-.31-5.07-.34-6.26-.87-.45-.29-5.21-.47-4.41-.65.8-.19,1.22-.3,2.12-.32,4.03-.06,7.15-.32,11.35-.13,2.18.1,3.99.68,5.65,1.4,1.66.72,3.16,1.59,4.85,2.29,1.68.65,3.29,1.2,4.93,1.75,1.65.57,3.26,1.15,4.82,1.88.74.45,1.14,1.11,1.09,1.62.05.96.31.48,1.54,1.26,1.7.96,2.47,1.93,4.08,3.01,2.61,1.89,4.35,3.78,7.42,5.37,2.53,1.27,5.11,2.73,5.81,4.8.28.82.18,1.6-.08,2.34-.27.74-.67,1.43-1.14,2.1-.6.91-.75,1.87-1.12,2.88-.07.2-.42.36-.67.59-1.4-1.23.21-1.79.39-3.14.03-.18.73-.4.85-.55-.13.57.05.16.1-.43.06-.59-.08-1.35-.08-1.35h-.02Z"/>
  </g>
  <g class="cls-6">
    <path class="cls-2" d="M180.66,301.51c-.45-1.84-1.22-3.49-1.28-5.32,0-.26.17-.53.35-.79.36-.4,1-.61,1.27-.95,1.77-2.92,2.7-6,2.71-9.11.1-2.44.46-4.75.78-7.14.33-2.38.69-4.77.82-7.29.2-2.85.05-5.63.63-8.55.13-.45.29-.88.53-1.29.22-.42.52-.83.93-1.23.44-.33,1.55-.7,1.9-.21.34.5.6,1.09.71,1.64.47,2.48,1.62,4.52,2.5,6.86.94,2.4-1.16,4.36-1.58,6.68-.15,1.13-.04,2.18.13,3.23.17,1.05.4,2.08.48,3.22-.09.6-.66,1.19-1.32,1.49-1.15.63-1.91.37-2.03,1.42,0,1.38.71,2.59.58,4.03-.36,2.43-1.23,4.55-.8,7.01.42,1.94.84,3.87-.39,5.6-.96,1.39-2.78,2.24-4.12,3.4-.88.82-1.01,1.87-1.4,2.87-.08.2-.44.35-.71.56-1.29-1.19-1.58-2.89-1.08-4.35.09-.2.36-.28.53-.41.26-.47-.04-.91-.15-1.37h0Z"/>
    <path class="cls-2" d="M181.3,301.89c-.45-1.84-1.23-3.49-1.28-5.31,0-.26.17-.52.35-.79.36-.4,1-.62,1.27-.95,1.77-2.91,2.71-6,2.72-9.12.1-2.44.44-4.74.71-7.08.29-2.35.58-4.7.71-7.21.15-2.84,0-5.61.5-8.51.26-.89.6-1.7,1.4-2.52.44-.32,1.34-1.24,1.69-.75.34.5.6,1.09.71,1.64.48,2.47,1.63,4.52,2.5,6.86.94,2.4-1.16,4.36-1.58,6.67-.15,1.13-.04,2.18.13,3.23.17,1.04.4,2.08.48,3.22-.09.6-.66,1.19-1.32,1.49-1.15.63-1.91.36-2.02,1.41,0,1.38.71,2.59.58,4.04-.36,2.43-1.23,4.55-.8,7.01.42,1.94.84,3.87-.39,5.6-.96,1.39-2.78,2.24-4.12,3.4-.88.82-1.01,1.87-1.4,2.87-.08.2-.44.35-.71.56-1.29-1.19-1-2.52-.51-3.97.09-.2.35-.28.53-.41.26-.47-.04-.91-.15-1.37v-.02Z"/>
    <path class="cls-2" d="M182.53,302.5c-.45-1.83-1.24-3.48-1.29-5.31,0-.26.17-.52.35-.79.36-.4,1-.62,1.27-.95,1.77-2.92,3.28-5.63,3.32-8.76.11-2.45.37-4.69.53-6.95.17-2.26.32-4.52.38-7,.09-2.81-.16-5.53.2-8.39.22-.88.23-2.19,1.02-3,.4-.32,1.09-1.76,1.43-1.27.34.49.6,1.08.74,1.62.49,2.45,1.7,4.48,2.59,6.81.96,2.39-1.12,4.34-1.54,6.66-.15,1.13-.03,2.18.14,3.23.09.52.18,1.05.27,1.58.09.54.16,1.09.2,1.66-.09.6-.67,1.19-1.32,1.49-1.15.63-1.79.23-1.91,1.29,0,1.38.7,2.59.58,4.04-.37,2.44-1.24,4.55-.8,7.01.42,1.94.85,3.87-.39,5.59-.96,1.39-2.78,2.24-4.11,3.39-.88.82-1.01,1.87-1.4,2.87-.08.2-.44.35-.71.56-1.29-1.19-.42-2.14.05-3.6.09-.2.35-.28.53-.41.26-.47-.05-.91-.16-1.37h0Z"/>
    <path class="cls-2" d="M184.85,302.64c-.35-1.43-1.8-1.95-1.86-4.2,0-.26.17-.52.34-.79.36-.4,1-.62,1.27-.95,1.77-2.92,3.29-5.63,3.34-8.77.13-2.46.46-4.4.74-6.36.27-1.97.45-3.91.43-6.37,0-2.78-.02-4.98.08-7.75.12-.85-.6-3.11.13-3.93.21-.16.21-.97.28-1.69.05-.72.14-1.34.32-1.1.34.48.59.73.71,1.27.53,2.43,1.57,4.19,2.45,6.53.96,2.39-1.14,4.46-1.54,6.78-.29,2.27.47,4.18.62,6.46-.09.6-.67,1.19-1.33,1.49-1.15.63-.41.44-.53,1.5,0,1.38-.64,2.38-.76,3.82-.37,2.44-1.24,4.55-.8,7.01.42,1.94.85,3.87-.38,5.59-.96,1.39-2.78,2.23-4.11,3.39-.88.81-1,1.87-1.4,2.87-.08.2-.44.35-.71.56-1.29-1.18.15-1.78.63-3.23.08-.2.84-.34,1.02-.48-.62,1.13,1.06-1.65,1.06-1.65h0Z"/>
  </g>
  <g class="cls-6">
    <path class="cls-2" d="M188.01,305.38c.89-2.8.94-5.38,1.69-8.22.1-.41.39-.81.68-1.22.53-.62,1.25-.93,1.66-1.45,2.98-4.53,4.6-9.5,5.13-14.56.51-3.96,1.23-7.79,2.04-11.65.4-1.94.85-3.85,1.16-5.78.31-1.94.53-3.9.61-5.91.19-4.55-.37-8.89-.84-13.38-.05-1.4-.03-2.69.37-4.11.27-.59,1.16-1.49,1.72-.85s1.1,1.5,1.43,2.32c1.48,3.74,3.18,6.91,4.35,10.81,1.23,4.03-.96,7.55-1.71,11.4-.32,1.89-.45,3.66-.49,5.35-.04,1.71,0,3.41-.13,5.22-.19.95-.85,1.9-1.57,2.38-1.25,1.02-1.98.6-2.27,2.3-.23,2.23.28,4.21-.14,6.56-.86,3.97-2.38,7.43-2.99,11.42-.37,3.15-.93,6.4-3.39,9.11-1.97,2.18-4.5,3.27-6.94,4.74-1.67,1.04-2.97,2.51-4.71,3.71-.34.24-.89.31-1.4.49.62-1.89,2.22-4.11,3.94-6.14.25-.28.58-.33.87-.5.65-.64.7-1.35.93-2.04h0Z"/>
    <path class="cls-2" d="M188.37,306.02c.94-2.82,1.04-5.4,1.81-8.24.11-.4.41-.81.7-1.22.53-.61,1.26-.93,1.67-1.45,3.03-4.55,4.68-9.53,5.23-14.59.52-3.96,1.2-7.75,1.95-11.55.37-1.91.79-3.81,1.1-5.73.31-1.92.53-3.87.62-5.88.21-4.56-.32-8.9-.78-13.4-.04-1.41-.02-2.69.38-4.12.27-.59.71-2.23,1.26-1.58.56.64,1.09,1.5,1.43,2.32,1.48,3.74,3.18,6.91,4.35,10.81,1.23,4.03-.96,7.55-1.71,11.41-.32,1.89-.45,3.66-.49,5.35-.04,1.71,0,3.41-.13,5.22-.19.95-.85,1.9-1.57,2.38-1.25,1.02-1.98.57-2.26,2.28-.23,2.23.28,4.21-.15,6.56-.86,3.97-2.38,7.44-2.99,11.43-.38,3.16-.93,6.41-3.4,9.11-1.97,2.18-4.51,3.27-6.94,4.75-1.68,1.04-2.97,2.51-4.71,3.72-.34.24-.89.31-1.4.49.6-1.88,2.32-3.49,4.16-5.51.27-.27.59-.33.89-.5.67-.64.74-1.35.98-2.04h0Z"/>
    <path class="cls-2" d="M189.09,307.13c1.07-2.84,1.22-5.45,2.04-8.3.12-.41.41-.81.71-1.22.54-.61,1.27-.93,1.69-1.44,1.5-2.29,2.85-4.52,3.87-6.83,1.02-2.31,1.72-4.68,2.03-7.23.56-3.97,1.12-7.63,1.72-11.3.57-3.67,1.35-7.34,1.55-11.37.29-4.57-.19-8.93-.6-13.45-.02-1.41-.44-3.43-.03-4.86.28-.59.26-2.96.82-2.32.56.65,1.09,1.5,1.43,2.32,1.47,3.75,3.17,6.93,4.32,10.83,1.21,4.04-.99,7.56-1.76,11.42-.16.95-.28,1.86-.36,2.76-.08.88-.12,1.73-.13,2.58-.04,1.71,0,3.41-.12,5.22-.19.95-.85,1.9-1.57,2.39-1.25,1.02-1.83.37-2.12,2.08-.24,2.23.27,4.21-.16,6.57-.45,1.99-1.05,3.85-1.62,5.72-.57,1.87-1.14,3.74-1.43,5.74-.38,3.16-.98,6.43-3.47,9.15-2,2.19-4.56,3.29-7.03,4.77-1.71,1.04-3.07,2.52-4.86,3.74-.37.24-.89.31-1.42.5.16-.49.42-.89.71-1.29.28-.4.65-.75,1.06-1.12.38-.38.85-.74,1.32-1.15.45-.42.97-.85,1.43-1.36.27-.28.61-.33.92-.5.71-.64.81-1.37,1.07-2.07h-.02Z"/>
    <path class="cls-2" d="M191.22,307.68c.44-1.15.36-1.97.38-2.94-.02-.97.08-2.08.64-3.86.14-.41.45-.81.75-1.23.56-.61,1.3-.92,1.72-1.44,1.55-2.29,2.94-4.53,4.04-6.85,1.09-2.32,1.85-4.72,2.2-7.27.62-4,1.22-7.15,1.83-10.32.31-1.58.6-3.17.89-4.85.27-1.69.58-3.47.77-5.51.42-4.6.47-8.24.19-12.78.02-1.42-1.2-4.94-.78-6.36.31-.6-1.04-5.17-.49-4.52.56.65.88.98,1.22,1.8,1.47,3.75,2.91,6.51,4.07,10.41,1.21,4.04-1,7.77-1.8,11.63-.16.95-.29,1.86-.36,2.75-.08.88-.12,1.73-.13,2.58-.04,1.71,0,3.41-.12,5.22-.19.95-.85,1.9-1.58,2.39-1.26,1.02-.48.71-.77,2.43-.24,2.24-1.03,3.86-1.47,6.22-.45,1.99-1.06,3.86-1.63,5.72-.29.93-.57,1.87-.82,2.82-.25.95-.46,1.9-.61,2.91-.2,1.59-.45,3.19-.96,4.75-.52,1.55-1.31,3.06-2.56,4.42-2.03,2.19-4.59,3.28-7.07,4.76-1.72,1.04-3.1,2.51-4.92,3.72-.36.24-.89.31-1.41.5.16-.49.4-.86.72-1.19.31-.33.66-.61,1.09-.89.44-.28.89-.58,1.4-.92.52-.34,1.01-.75,1.53-1.25.31-.27,1.16-.33,1.47-.5-.86.79-.2.22.69-.55.45-.39.9-.84,1.28-1.19.38-.35.62-.61.62-.61h-.02Z"/>
  </g>
  <g class="cls-6">
    <path class="cls-2" d="M130.85,300.72c-1.45-1.73-3.28-3.12-4.66-4.85-.2-.25-.24-.55-.28-.85.02-.49.42-.87.41-1.26-.34-1.66-.99-3.32-1.83-4.96-.84-1.63-1.9-3.21-3.19-4.74-3.87-4.82-6.47-9.64-10.84-14.43-2.45-2.72-5.26-5.17-7.91-7.82-.74-.85-1.35-1.65-1.66-2.64-.03-.44.35-1.22,1.16-.96.82.26,1.69.65,2.39,1.07,3.13,1.91,6.24,3.36,9.35,5.32,3.24,2.01,3.31,4.64,4.99,7.04,1.74,2.32,4.03,4.05,6.03,6.21.41.6.41,1.34.06,1.83-.49.95-1.39.9-.6,1.97,1.14,1.35,2.78,2.34,3.86,3.8,1.67,2.52,2.63,4.8,5,7.16,1.93,1.83,3.79,3.78,3.77,5.94,0,1.73-1.25,3-2.03,4.44-.49,1-.24,2.12-.4,3.2-.04.22-.36.4-.58.64-1.48-1.14-2.28-2.74-2.5-4.27-.02-.21.2-.33.31-.5.02-.51-.49-.9-.86-1.33h.02Z"/>
    <path class="cls-2" d="M131.66,300.96c-1.44-1.75-3.25-3.16-4.63-4.9-.19-.25-.24-.55-.27-.86.02-.49.44-.87.42-1.26-.34-1.67-.97-3.33-1.82-4.96-.84-1.64-1.9-3.22-3.18-4.75-3.87-4.83-6.52-9.5-10.87-14.29-2.45-2.72-5.26-5.17-7.92-7.81-.74-.85-1.36-1.65-1.66-2.64-.03-.44-.41-1.56.41-1.3s1.69.65,2.39,1.07c3.13,1.91,6.24,3.36,9.35,5.32,3.24,2.01,3.3,4.64,4.99,7.04,1.74,2.32,4.03,4.05,6.03,6.21.41.6.4,1.34.06,1.83-.49.95-1.4.89-.62,1.96,1.14,1.35,2.78,2.34,3.86,3.8,1.67,2.52,2.64,4.8,5.01,7.16,1.93,1.83,3.79,3.78,3.77,5.94,0,1.73-1.25,3-2.03,4.44-.49,1-.24,2.12-.4,3.21-.04.22-.36.4-.58.64-1.48-1.13-1.61-2.45-1.8-4,0-.21.23-.34.33-.5,0-.52-.48-.92-.85-1.35h0Z"/>
    <path class="cls-2" d="M133.17,301.35c-1.4-1.8-3.21-3.24-4.56-5-.2-.25-.23-.56-.26-.86.02-.49.43-.87.42-1.27-.33-1.68-.76-3.29-1.4-4.87-.64-1.58-1.48-3.14-2.77-4.67-3.86-4.86-6.6-9.1-10.96-13.89-2.45-2.72-5.26-5.16-7.93-7.79-.74-.85-2.12-1.98-2.43-2.96-.03-.44-1.17-1.89-.35-1.64s1.69.65,2.39,1.06c3.13,1.91,6.25,3.35,9.35,5.31,3.24,2.01,3.31,4.64,4.99,7.04,1.74,2.32,4.04,4.05,6.03,6.22.42.61.4,1.35.06,1.83-.49.95-1.39.73-.61,1.8,1.14,1.35,2.78,2.35,3.86,3.81,1.67,2.52,2.63,4.8,5.01,7.18,1.92,1.85,3.79,3.82,3.76,5.99-.02,1.75-1.28,3.03-2.05,4.48-.51,1.01-.25,2.14-.44,3.25-.04.22-.36.4-.58.64-1.51-1.15-.91-2.18-1.04-3.77,0-.22.22-.34.33-.51.05-.53-.49-.94-.82-1.39h0Z"/>
    <path class="cls-2" d="M135.44,301.05c-1.15-1.46-2.77-1.69-4.37-3.92-.19-.26-.21-.57-.24-.88.03-.49.45-.87.45-1.28-.31-1.69-.71-3.32-1.36-4.91-.64-1.59-1.48-3.13-2.75-4.69-3.85-4.89-5.27-8.03-9.61-12.83-2.45-2.72-4.49-4.84-7.17-7.45-.75-.84-3.65-2.62-3.98-3.6-.03-.43-3.45-2.89-2.63-2.64.82.26,1.26.38,1.96.79,3.13,1.9,5.82,3.17,8.93,5.12,3.24,2.01,3.41,4.76,5.1,7.16,1.74,2.32,4.03,4.05,6.02,6.22.42.6.4,1.35.06,1.83-.49.95.02.55.78,1.62,1.14,1.36,1.41,2.51,2.49,3.98,1.67,2.52,2.63,4.8,5,7.18,1.91,1.85,3.79,3.83,3.75,6-.02,1.75-1.3,3.03-2.08,4.48-.53,1.01-.27,2.15-.46,3.26-.04.22-.36.4-.58.64-.78-.59-.78-1.04-.69-1.56.05-.26.16-.54.27-.86.08-.31.13-.66.12-1.06,0-.22.67-.49.78-.66-.04.65.02.17.1-.48.05-.32.07-.69.08-.98.02-.29.02-.49.02-.49h0Z"/>
  </g>
  <g class="cls-6">
    <path class="cls-2" d="M109.68,299.74c.08-.76.04-1.49.02-2.19-.02-.7-.03-1.39.15-2.11.05-.2.28-.39.51-.58.43-.28,1.11-.37,1.44-.6,2.33-2.12,3.73-4.57,4.3-7.12,1.03-4,3.54-7.52,4.05-11.54.31-2.28-.08-4.46-.49-6.64-.03-.68,0-1.29.38-1.99.27-.28,1.14-.74,1.72-.42.56.31,1.1.74,1.44,1.16,1.47,1.89,3.07,3.6,4.1,5.7,1.07,2.18-1.22,3.86-2,5.77-.67,1.89-.38,3.58-.71,5.42-.21.47-.89.88-1.6,1.06-1.25.4-1.96.11-2.27.95-.26,1.12.24,2.18-.13,3.35-.78,1.97-2,3.62-2.11,5.71,0,.83-.04,1.67-.28,2.46-.26.8-.74,1.55-1.62,2.16-1.39.99-3.42,1.36-5.1,2.07-1.13.5-1.62,1.32-2.33,2.07-.14.15-.54.21-.86.34-.86-1.17-.53-2.61.44-3.68.15-.15.44-.16.65-.24.4-.33.27-.73.31-1.1h-.02Z"/>
    <path class="cls-2" d="M110.18,300.13c.08-.76.05-1.49.04-2.2s-.02-1.39.17-2.12c.05-.2.28-.39.52-.58.44-.27,1.11-.37,1.44-.6,2.34-2.12,3.76-4.58,4.32-7.13,1.03-3.99,3.35-7.45,3.89-11.48.32-2.28-.03-4.48-.42-6.68-.02-.69,0-1.31.41-2,.27-.28.7-1.09,1.26-.78s1.1.74,1.44,1.16c1.47,1.89,3.07,3.6,4.1,5.7,1.07,2.18-1.22,3.86-2,5.77-.67,1.89-.38,3.58-.71,5.42-.21.47-.89.88-1.6,1.06-1.25.4-1.95.1-2.26.94-.26,1.12.24,2.18-.13,3.35-.78,1.97-2,3.62-2.11,5.71,0,.83-.04,1.67-.28,2.46-.26.8-.74,1.55-1.62,2.16-1.39.99-3.42,1.36-5.1,2.07-1.13.5-1.62,1.32-2.33,2.07-.14.15-.54.21-.86.34-.85-1.17-.1-2.21.86-3.29.15-.15.44-.16.65-.24.41-.33.27-.73.31-1.11h0Z"/>
    <path class="cls-2" d="M111.17,300.83c.18-1.54-.09-2.95.27-4.37.05-.2.29-.39.53-.58.44-.28,1.12-.37,1.45-.6,2.36-2.14,4.3-4.24,4.87-6.8,1.03-3.98,2.82-7.23,3.47-11.3.37-2.3.09-4.54-.22-6.79.02-.7-.38-1.7.04-2.4.31-.29.25-1.46.82-1.15.56.32,1.11.75,1.43,1.17,1.45,1.91,3.04,3.64,4.05,5.75,1.05,2.2-1.25,3.87-2.04,5.79-.67,1.89-.39,3.59-.71,5.43-.21.47-.89.88-1.6,1.06-1.25.4-1.81,0-2.12.86-.26,1.12.24,2.18-.14,3.35-.78,1.97-2.01,3.63-2.13,5.73,0,.83-.05,1.67-.3,2.47-.27.81-.75,1.55-1.63,2.17-1.4,1-3.43,1.36-5.1,2.07-1.13.5-1.61,1.32-2.31,2.06-.14.15-.53.21-.86.34-.86-1.17.31-1.81,1.27-2.89.15-.15.44-.16.65-.24.41-.33.27-.73.31-1.11h.02Z"/>
    <path class="cls-2" d="M113.34,301.32c.13-1.21-1.06-1.86-.51-3.65.05-.21.3-.39.54-.59.45-.28,1.13-.37,1.47-.6,2.41-2.15,4.39-4.27,4.98-6.84.54-2,1.22-3.55,1.9-5.1.67-1.56,1.33-3.14,1.72-5.19.44-2.32.63-4.19.49-6.52.08-.73-1.06-2.56-.61-3.26.33-.3-.99-2.61-.45-2.28.56.32.89.5,1.22.92,1.43,1.92,2.79,3.43,3.79,5.54,1.06,2.2-1.27,3.98-2.06,5.89-.67,1.89-.4,3.59-.72,5.42-.21.47-.89.88-1.6,1.06-1.25.4-.49.32-.79,1.16-.26,1.12-1.04,1.87-1.42,3.05-.78,1.97-2.01,3.63-2.14,5.73-.02.84-.05,1.67-.31,2.48-.27.81-.75,1.55-1.63,2.17-1.4.99-3.43,1.36-5.1,2.06-1.13.5-1.61,1.32-2.31,2.06-.14.15-.53.21-.85.34-.86-1.16.74-1.42,1.69-2.5.15-.15.93-.13,1.14-.21-.98.8,1.58-1.14,1.58-1.14h0Z"/>
  </g>
  <g class="cls-6">
    <path class="cls-2" d="M146.41,304.82c-.69-1.44-1.72-2.71-2.04-4.16-.05-.2.09-.43.23-.65.3-.34.9-.54,1.12-.82,1.32-2.41,1.8-4.92,1.46-7.43-.34-3.93.79-7.6.52-11.6-.15-2.27-.71-4.44-1.02-6.72.02-.7.11-1.35.6-2.04.31-.28,1.25-.68,1.76-.33.52.35.99.8,1.29,1.22.63.95,1.35,1.83,2.08,2.7.71.88,1.44,1.75,2.07,2.69,1.32,1.95-.58,3.6-.85,5.47-.14,1.83.68,3.38.98,5.14-.05.47-.56.94-1.2,1.2-1.1.53-1.88.34-1.9,1.18.14,1.09.98,2.03,1.04,3.18-.05,1.94-.6,3.66.21,5.6.71,1.52,1.43,3.05.44,4.49-.77,1.16-2.47,1.91-3.65,2.88-.78.69-.79,1.52-1.09,2.33-.05.16-.41.29-.65.46-1.4-.9-1.86-2.23-1.56-3.4.05-.16.32-.23.49-.35.2-.38-.16-.72-.33-1.08h0Z"/>
    <path class="cls-2" d="M147.09,305.09c-.7-1.44-1.72-2.71-2.04-4.16-.05-.2.09-.43.23-.65.3-.34.9-.54,1.12-.82,1.32-2.41,1.8-4.92,1.45-7.42-.35-3.93.63-7.5.34-11.49-.14-2.26-.74-4.44-1.03-6.7,0-.7.1-1.35.59-2.04.31-.28.85-1.07,1.36-.72.52.35.99.8,1.29,1.22.63.95,1.35,1.83,2.08,2.7.71.87,1.44,1.75,2.07,2.69,1.32,1.95-.58,3.6-.84,5.47-.14,1.83.68,3.38.98,5.14-.05.47-.56.94-1.21,1.2-1.1.53-1.88.33-1.89,1.17.14,1.09.98,2.03,1.04,3.18-.05,1.94-.6,3.66.21,5.6.71,1.53,1.43,3.05.44,4.49-.77,1.16-2.47,1.91-3.65,2.88-.78.69-.8,1.52-1.09,2.33-.06.16-.41.29-.65.46-1.4-.9-1.24-1.96-.94-3.13.05-.16.32-.23.49-.35.2-.38-.16-.72-.32-1.08h-.02Z"/>
    <path class="cls-2" d="M148.41,305.53c-.69-1.44-1.71-2.71-2.04-4.16-.05-.2.09-.43.23-.65.3-.34.9-.54,1.12-.82,1.32-2.41,2.41-4.64,2.06-7.14-.36-3.92.18-7.21-.15-11.18-.16-2.25-.78-4.41-1.1-6.66,0-.7-.34-1.72.15-2.41.31-.28.44-1.45.96-1.1.52.35.99.79,1.29,1.21,1.27,1.9,2.91,3.49,4.16,5.38,1.33,1.94-.57,3.6-.83,5.47-.13,1.82.68,3.38,1,5.13-.05.47-.56.94-1.2,1.2-1.1.53-1.77.23-1.78,1.07.13,1.09.98,2.03,1.04,3.18-.05,1.94-.6,3.66.21,5.6.71,1.52,1.43,3.05.44,4.49-.77,1.16-2.47,1.91-3.65,2.89-.78.69-.8,1.52-1.09,2.33-.06.16-.41.29-.65.46-1.4-.9-.63-1.69-.32-2.86.05-.16.32-.23.49-.35.2-.38-.16-.72-.33-1.08Z"/>
    <path class="cls-2" d="M150.73,305.54c-.54-1.13-2.05-1.49-2.45-3.27-.05-.2.09-.43.23-.65.3-.34.9-.54,1.12-.82,1.32-2.41,2.41-4.64,2.05-7.14-.37-3.91.54-6.21.15-10.16-.18-2.24-.42-4.01-.78-6.24-.03-.69-1.22-2.46-.74-3.14.28-.28-.78-2.59-.27-2.25.52.35.82.52,1.11.94,1.28,1.9,2.67,3.28,3.94,5.16,1.33,1.94-.57,3.7-.82,5.56-.13,1.82.69,3.38,1,5.13-.05.47-.56.94-1.21,1.2-1.09.53-.37.36-.38,1.19.13,1.09-.38,1.89-.31,3.04-.05,1.94-.59,3.66.21,5.6.71,1.52,1.43,3.05.44,4.49-.77,1.16-2.47,1.91-3.66,2.89-.78.69-.8,1.52-1.1,2.33-.06.16-.41.29-.65.46-1.4-.9-.02-1.41.3-2.59.05-.16.79-.3.96-.42-.48.92.85-1.36.85-1.36h.02Z"/>
  </g>
  <g class="cls-6">
    <path class="cls-2" d="M159.89,301.41c-1.37-.84-3.1-1.39-4.41-2.34-.2-.14-.24-.34-.28-.55,0-.35.36-.69.34-.98-.18-.57-.43-1.15-.68-1.69-.25-.54-.55-1.07-.89-1.58-.69-1.02-1.57-1.99-2.63-2.9-.79-.72-1.5-1.46-2.16-2.2-.32-.38-.64-.75-.97-1.12-.31-.37-.61-.8-.91-1.19-1.14-1.58-2.2-3.17-3.56-4.76-1.51-1.81-3.32-3.48-4.83-5.33-.38-.6-.64-1.16-.53-1.84.15-.3.83-.82,1.5-.63.67.19,1.34.47,1.83.75,2.2,1.31,4.57,2.25,6.79,3.45,2.31,1.21,1.54,2.95,2.48,4.46.52.72,1.2,1.32,1.95,1.89.38.3.74.54,1.11.8.38.27.82.57,1.21.88.31.37.2.89-.16,1.27-.56.73-1.38.82-.78,1.47.92.79,2.34,1.25,3.22,2.11,1.38,1.49,2.1,3,4.22,4.16,1.74.9,3.61,1.91,3.76,3.45.13,1.22-.99,2.3-1.74,3.31-.49.69-.28,1.35-.53,1.99-.05.13-.4.23-.64.36-1.38-.66-2.05-1.33-2.21-2.19,0-.12.2-.22.31-.34.02-.31-.47-.48-.81-.68h0Z"/>
    <path class="cls-2" d="M160.65,301.43c-1.37-.87-3.09-1.43-4.4-2.38-.19-.13-.24-.34-.28-.55,0-.34.37-.69.34-.97-.18-.56-.42-1.13-.68-1.68-.25-.54-.54-1.07-.89-1.58-.69-1.02-1.57-1.99-2.63-2.89-.79-.72-1.51-1.45-2.17-2.18-.66-.74-1.32-1.44-1.91-2.24-1.17-1.54-2.25-3.08-3.62-4.67-1.54-1.79-3.34-3.45-4.86-5.29-.38-.59-.64-1.15-.54-1.83.15-.3.25-1.07.92-.88.67.19,1.33.47,1.83.75,2.2,1.31,4.57,2.25,6.79,3.44,2.31,1.2,1.54,2.94,2.48,4.46.52.72,1.2,1.32,1.95,1.89.38.3.74.54,1.11.8.38.27.82.57,1.21.88.31.37.2.89-.16,1.27-.56.73-1.39.81-.78,1.46.92.79,2.34,1.25,3.22,2.11,1.38,1.49,2.1,3,4.22,4.16,1.74.9,3.61,1.92,3.76,3.45.13,1.23-.98,2.31-1.73,3.31-.49.69-.28,1.36-.52,2-.05.13-.4.23-.64.36-.69-.33-1.04-.62-1.24-.97-.2-.34-.21-.73-.3-1.17,0-.12.22-.22.33-.34,0-.32-.46-.5-.81-.7h0Z"/>
    <path class="cls-2" d="M162.08,301.45c-1.37-.95-3.1-1.54-4.39-2.5-.19-.14-.23-.34-.27-.55,0-.34.37-.69.34-.97-.74-2.26-1.32-4.3-3.46-6.1-1.58-1.44-2.87-2.83-4.18-4.21-1.22-1.41-2.38-2.85-3.77-4.39-1.56-1.75-3.39-3.37-4.94-5.16-.38-.58-1.26-1.36-1.16-2.03.13-.3-.34-1.3.33-1.11.67.19,1.33.46,1.83.74,2.2,1.3,4.58,2.22,6.8,3.4,2.31,1.19,1.54,2.92,2.49,4.43.5.71,1.21,1.3,1.95,1.87.38.28.71.5,1.11.79.42.29.83.58,1.22.89.31.37.2.89-.16,1.27-.56.73-1.36.7-.76,1.35.92.79,2.34,1.25,3.22,2.1.68.75,1.22,1.49,1.83,2.2.63.73,1.29,1.33,2.38,1.94,1.74.9,3.63,1.94,3.79,3.51.14,1.25-.99,2.35-1.74,3.38-.48.71-.3,1.41-.56,2.09-.06.13-.4.24-.64.37-.35-.18-.57-.34-.69-.5-.15-.16-.2-.31-.2-.48-.02-.34.13-.73.07-1.21,0-.13.22-.23.32-.35.04-.34-.46-.54-.79-.77h.02Z"/>
    <path class="cls-2" d="M164.25,300.94c-1.16-.83-2.71-.69-4.27-1.9-.19-.14-.23-.35-.27-.55.02-.34.38-.69.36-.97-.34-1.12-.72-2.18-1.2-3.18-.5-1.01-1.19-1.97-2.25-2.87-1.58-1.43-2.6-2.66-3.64-3.88-.53-.61-1.07-1.22-1.57-1.84-.53-.64-1.14-1.31-1.85-2.06-1.61-1.7-2.88-3.05-4.48-4.74-.42-.55-2.5-1.72-2.43-2.39.13-.29-2.12-1.97-1.44-1.79.66.18,1.04.27,1.54.55,2.2,1.29,4.26,2.09,6.47,3.27,2.31,1.19,1.59,3,2.56,4.5.5.71,1.22,1.3,1.96,1.87.38.27.7.5,1.12.79.42.29.83.58,1.22.89.31.37.2.89-.16,1.27-.56.73-.05.38.55,1.02.91.79,1.06,1.55,1.94,2.41.68.75,1.22,1.49,1.83,2.2.31.36.64.7,1.01,1.01.38.32.83.63,1.37.93,1.75.91,3.64,1.95,3.79,3.53.13,1.26-1.01,2.36-1.77,3.38-.48.71-.32,1.41-.59,2.1-.05.13-.4.24-.64.37-.71-.36-.7-.6-.56-.9.09-.15.21-.32.31-.51.1-.2.19-.41.16-.66,0-.13.67-.37.78-.5-.08.43.05.11.09-.32.08-.44.05-.99.05-.99h0Z"/>
  </g>
  <g class="cls-6">
    <path class="cls-2" d="M123.99,303.55c.67-.85,1.2-1.69,1.77-2.5.53-.83,1.07-1.64,1.81-2.43.21-.23.6-.4.95-.58.63-.25,1.36-.25,1.85-.48.95-.53,1.93-1.07,2.75-1.67.85-.6,1.65-1.22,2.42-1.87,1.44-1.32,2.77-2.71,3.69-4.22.41-.58.82-1.14,1.22-1.71.38-.57.78-1.13,1.18-1.69l.61-.84.56-.85,1.13-1.69c.72-1.13,1.36-2.29,1.97-3.47.26-.6.51-1.19.74-1.8.24-.6.45-1.22.58-1.85.16-.71.3-1.42.42-2.12.08-.7.09-1.41.13-2.11l.03-1.05c0-.35-.04-.7-.05-1.05-.03-.69-.07-1.39-.1-2.1,0-.88.06-1.67.53-2.55.31-.36,1.22-.92,1.76-.5.53.41,1.02.97,1.32,1.5.33.61.68,1.2,1.03,1.79.31.59.63,1.17.94,1.76.31.59.64,1.19.89,1.8.24.61.46,1.25.66,1.91.45,1.38-.11,2.61-.78,3.79-.33.6-.78,1.16-1.21,1.74-.42.58-.82,1.16-1.12,1.77-.6,1.19-.99,2.32-1.32,3.46-.41,1.12-.74,2.26-1.3,3.43-.45.59-1.33,1.08-2.14,1.25-1.47.4-2.01,0-2.75,1.01-.91,1.34-.95,2.73-2.13,4.1-.51.57-1.04,1.12-1.56,1.66-.56.52-1.11,1.04-1.65,1.56-1.03,1.05-2.09,2.08-2.94,3.31-.6.99-1.35,1.93-2.2,2.81-.84.89-1.94,1.64-3.3,2.21-2.16.95-4.57,1.01-6.81,1.5-1.51.38-2.78,1.14-4.16,1.79-.27.13-.71.1-1.14.17.29-1.45,1.87-2.84,3.65-3.87.27-.13.56-.1.84-.15.67-.3.89-.75,1.21-1.18h0Z"/>
    <path class="cls-2" d="M124.17,304.08c.67-.86,1.22-1.7,1.8-2.51.58-.81,1.09-1.65,1.85-2.44.21-.23.59-.4.97-.58.64-.25,1.36-.25,1.86-.48,3.94-2.08,6.99-4.79,8.98-7.77.4-.58.82-1.15,1.24-1.71.39-.57.78-1.13,1.18-1.69.83-1.11,1.54-2.23,2.27-3.36.18-.28.37-.56.54-.85l.48-.86c.31-.58.62-1.16.93-1.74.3-.59.51-1.19.74-1.8.22-.61.47-1.22.61-1.85.33-1.43.58-2.84.58-4.25,0-.7.08-1.4.02-2.1-.03-.7-.07-1.4-.1-2.11.08-.88.08-1.68.57-2.56.31-.36.81-1.39,1.34-.97.53.41,1.02.97,1.32,1.5.33.61.68,1.2,1.03,1.79.31.59.63,1.17.94,1.76.31.59.64,1.19.89,1.8s.46,1.25.66,1.91c.45,1.38-.12,2.61-.79,3.79-.33.6-.78,1.17-1.21,1.74-.42.58-.82,1.16-1.12,1.78-.61,1.19-.99,2.32-1.32,3.47-.41,1.12-.74,2.26-1.31,3.43-.45.59-1.33,1.08-2.14,1.25-1.47.4-1.99-.02-2.74,1-.92,1.34-.95,2.73-2.13,4.1-.52.57-1.04,1.12-1.56,1.66-.56.52-1.11,1.04-1.65,1.56-1.03,1.05-2.09,2.09-2.94,3.31-.6.99-1.35,1.93-2.2,2.81-.84.89-1.94,1.64-3.3,2.21-2.16.95-4.57,1.01-6.81,1.51-1.51.38-2.78,1.14-4.16,1.79-.27.13-.71.1-1.14.17.15-.72.62-1.31,1.29-1.84.69-.52,1.54-1.01,2.45-1.53.27-.13.56-.1.84-.15.67-.3.88-.77,1.23-1.18h0Z"/>
    <path class="cls-2" d="M124.58,305.02c.75-.83,1.26-1.71,1.86-2.53.6-.82,1.17-1.65,1.92-2.45.22-.23.6-.4.98-.59.66-.24,1.41-.24,1.91-.47,3.95-2.1,7.34-4.32,9.48-7.34,1.66-2.36,3.27-4.5,4.6-6.72.33-.56.67-1.11,1-1.67.31-.56.58-1.14.86-1.72.27-.59.57-1.17.79-1.78.22-.61.43-1.23.63-1.87.11-.36.24-.72.31-1.08.06-.36.13-.72.2-1.08.11-.72.23-1.43.27-2.14.04-1.43.13-2.84.03-4.28.04-.45,0-.99,0-1.54.02-.54,0-1.09.25-1.53.31-.36.4-1.87.93-1.45s1.01.98,1.32,1.52c.7,1.23,1.31,2.38,1.94,3.57.67,1.19,1.11,2.4,1.51,3.74.22.69.17,1.35,0,1.98s-.47,1.24-.82,1.83c-.75,1.18-1.75,2.3-2.38,3.53-.65,1.19-.98,2.34-1.36,3.47-.2.57-.4,1.13-.6,1.7-.21.57-.42,1.16-.74,1.73-.45.59-1.34,1.08-2.15,1.25-1.47.4-1.79-.12-2.57.89-.91,1.35-.98,2.74-2.16,4.12-.53.58-1.03,1.13-1.58,1.66-.56.53-1.12,1.04-1.65,1.57-1.03,1.06-2.13,2.09-2.97,3.32-1.31,1.94-2.78,3.9-5.56,5.04-1.09.47-2.23.73-3.4.92-1.16.2-2.31.34-3.44.59-1.53.37-2.81,1.14-4.19,1.8-.28.13-.71.1-1.14.17.16-.72.64-1.19,1.34-1.59.69-.41,1.62-.75,2.54-1.27.27-.13.56-.1.85-.15.68-.3.89-.78,1.25-1.19h-.02Z"/>
    <path class="cls-2" d="M126.32,305.94c.6-.66.68-1.26.9-1.9.2-.66.57-1.36,1.54-2.36.22-.23.6-.41.99-.6.66-.25,1.4-.24,1.93-.46,4.02-2.11,7.62-4.3,9.8-7.37,1.81-2.36,3.3-4.22,4.69-6.13,1.37-1.91,2.6-3.87,3.58-6.45,1.01-2.93,1.6-5.28,1.74-8.23.06-.46-.05-1.27-.23-2.08-.17-.81-.28-1.6,0-2.05.09-.09.09-.35.06-.67-.05-.32-.16-.72-.25-1.09-.19-.73-.34-1.36-.08-1.15.53.42.84.65,1.14,1.19.71,1.23,1.22,2.32,1.8,3.44.61,1.12,1,2.26,1.4,3.59.22.69.17,1.36-.02,2-.18.64-.48,1.27-.83,1.88-.78,1.21-1.77,2.37-2.41,3.59-.66,1.19-.97,2.34-1.38,3.47-.2.57-.4,1.13-.6,1.7-.2.58-.43,1.15-.75,1.73-.45.59-1.34,1.08-2.15,1.25-1.47.4-.61.37-1.43,1.4-.92,1.38-2.11,2.24-3.29,3.62-.53.58-1.03,1.13-1.59,1.66s-1.12,1.04-1.65,1.57c-1.03,1.06-2.15,2.08-2.99,3.32-1.32,1.94-2.79,3.9-5.57,5.04-.55.23-1.11.42-1.67.57-.58.14-1.16.25-1.74.35-1.16.2-2.31.34-3.44.59-1.54.37-2.81,1.14-4.19,1.79-.27.13-.71.1-1.14.17.3-1.45,2.04-1.34,3.97-2.34.27-.13,1.02.02,1.3-.03-.82.36-.2.11.65-.23.85-.35,1.91-.79,1.91-.79h0Z"/>
  </g>
  <text class="cls-5" transform="translate(300.9 40.41) rotate(41) scale(.92 1)"><tspan x="0" y="0">V</tspan></text>
  <text class="cls-5" transform="translate(319.51 57.01) rotate(46.56) scale(.92 1)"><tspan x="0" y="0">I</tspan></text>
  <text class="cls-5" transform="translate(326.8 64.32) rotate(51.52) scale(.92 1)"><tspan x="0" y="0">L</tspan></text>
  <text class="cls-5" transform="translate(339.96 80.26) rotate(59.47) scale(.92 1)"><tspan x="0" y="0">D</tspan></text>
  <text class="cls-5" transform="translate(354.66 106.19) rotate(65.61) scale(.92 1)"><tspan x="0" y="0"> </tspan></text>
  <text class="cls-5" transform="translate(359.13 113.86) rotate(72.71) scale(.92 1)"><tspan x="0" y="0">M</tspan></text>
  <text class="cls-5" transform="translate(369.39 147.59) rotate(82.34) scale(.92 1)"><tspan x="0" y="0">A</tspan></text>
  <text class="cls-5" transform="translate(373.18 174.35) rotate(91.11) scale(.92 1)"><tspan x="0" y="0">D</tspan></text>
</svg>