<?xml version="1.0" encoding="UTF-8"?>
<svg id="Layer_1" data-name="Layer 1" xmlns="http://www.w3.org/2000/svg" viewBox="0 0 179.87 312.87">
  <defs>
    <style>
      .cls-1 {
        fill: #ffecca;
      }

      .cls-1, .cls-2, .cls-3, .cls-4 {
        stroke: #000;
        stroke-miterlimit: 10;
        stroke-width: .25px;
      }

      .cls-2 {
        fill: #513f31;
      }

      .cls-3 {
        fill: #8e6f5e;
      }

      .cls-4 {
        fill: none;
      }
    </style>
  </defs>
  <g>
    <path class="cls-1" d="M75.38,275.27c1.49-.32,1.76-5.93,1.27-10.16-.6-5.14-2.54-10.09-12.07-23.5-5.22-7.35-7.83-11.02-9.53-12.7-7.31-7.24-12.97-8.57-23.5-17.15-.97-.79-6.99-5.72-6.99-5.72h0s-4.39-.09-4.87,1.06c-.5,1.18,3.23,3.49,6.78,6.35,6.15,4.96,5.13,6.23,12.92,13.76,5.4,5.22,5.96,4.68,10.8,9.53,4.88,4.89,8.02,9.15,9.53,11.22,10.96,15.02,13.36,27.82,15.67,27.32Z"/>
    <path class="cls-1" d="M75.23,229.03c2.33,9.67,2.06,20.66,0,21.1-2.32.49-6.89-12.42-9.96-21.1-2.14-6.04-3.99-11.34-5.27-18.75-1.53-8.82-.25-9.05-1.76-15.82-.69-3.11-2.6-11.35-8.2-19.92-2.72-4.17-6.04-7.99-8.79-15.24-1.19-3.14-1.7-5.39-.59-7.03,1.6-2.36,6.22-2.99,8.79-1.17,3.38,2.4.58,7.2,2.93,15.24,1.53,5.23,3.2,4.87,9.38,15.24,4.31,7.23,6.46,10.85,7.62,15.24,2.15,8.15-.48,10.01,1.76,19.92,1.42,6.28,2.59,6.03,4.1,12.31Z"/>
    <path class="cls-1" d="M80.74,122.62c1.83,1.2.15,5.35-.66,13.26-.67,6.46-1.06,10.25,0,14.59,1.82,7.49,5.77,7.64,7.96,15.91.78,2.94,1.87,7.07.66,11.93-1.15,4.64-3.48,6.3-7.96,16.57-.59,1.35-.88,2.03-1.2,2.86-3.19,8.46-2.88,15.7-2.78,15.71.16.01,3.95-17.13,1.33-36.46-1.69-12.47-4.22-12.28-5.3-25.19-1.03-12.26,0-27.15,0-27.18h0s5.82-3.39,7.96-1.99Z"/>
    <path class="cls-1" d="M108.36,298.11s2.43-5.88,2.73-6.64c3.13-7.85-2.83-15.43-1.17-27.74,1.2-8.89,5.73-15.51,6.64-16.8,2.12-3.01,2.81-3,6.64-7.81,6.07-7.63,9.64-12.12,8.2-15.63-1.15-2.82-5.39-4.63-7.81-3.52-2.57,1.19-1.58,4.99-4.3,10.55-1.93,3.94-3.33,3.89-7.03,8.59-2.27,2.89-2.68,4.1-8.99,16.8-5.89,11.85-5.9,11.53-6.25,12.89-1.02,3.92-.68,9.13,0,19.53.47,7.27.96,9.6,2.73,10.55,2.85,1.51,8.59-.78,8.59-.78h0Z"/>
    <path class="cls-1" d="M94.5,255.06c.49,3.92.52,3.16,3.52,21.49,2.99,18.24,3.32,21.22,1.17,24.22-4.68,6.54-17.36,7.91-21.88,3.13-2.67-2.83-1.74-7-1.17-13.28.93-10.31-1.03-5.13-1.56-31.64-.5-25-.75-37.5,2.73-53.52,2.67-12.29,5.74-18.58,7.81-22.27,3.49-6.2,6.03-8.35,11.72-16.41,0,0,6.31-8.94,12.63-20.83,9-16.9,23.59-52.45,21.35-70.59-.15-1.2-.71-5.11,1.56-7.81,2.96-3.52,10.11-4.29,13.28-1.17.73.72,1.74,2.12,1.56,11.33-.08,4.26-.15,7.88-.78,11.72-3.79,23.11-17.19,48.83-17.19,48.83-14.24,27.34-26.56,46.49-26.57,46.49-2.87,4.3-7.48,11.65-9.38,22.27-.66,3.71-.58,8.64-.39,18.36.27,13.56.4,20.34,1.56,29.69Z"/>
    <path class="cls-3" d="M112.74,220.99c.49.48.97.15,2.84.61,1.92.47,1.85.92,3.18,1.17,2.26.43,2.95-.76,4.85-.26,1.26.33,1.28.94,2.76,1.84,2.44,1.48,3.51.52,6.29,1.54,3.52,1.29,3.86,3.58,6.11,3.51,1.56-.05,2.8-1.19,3.9-2.53,4.55-5.47,6.2-13.32,6.66-15.61,3.4-16.87,1.05-22.31,0-24.34-.88-1.69-1.76-2.75-2.98-3.44-4.75-2.69-11.78,1.78-13.32,2.76-8.35,5.31-8.86,12.21-16.53,22.96,0,0-1.46,2.05-2.98,5.97-1.78,4.58-1.05,5.54-.77,5.82Z"/>
    <path class="cls-3" d="M106.06,81.36c.72.53,2.58,1.66,10.79.37,7.99-1.25,8-2.6,14.51-3.72,4.8-.83,13.04-1.52,19.34-1.12.83.05,2.77.2,5.21-.37,3.03-.71,4.27-1.94,6.32-2.98,6.5-3.28,10.6.69,14.51-2.6,2.62-2.21,2.9-5.79,2.98-6.7.36-4.55-2.45-7.04-4.46-11.53-2.78-6.18-1.11-9.59-1.86-16-1.64-14.12-12.79-23.85-14.88-25.67-3.79-3.31-15.25-13.3-28.27-10.42-9.05,2.01-14.55,9.27-18.23,14.14-.2.26-.36.49-.54.75-.93,1.4-7.12,10.2-9.88,20.46-2.04,7.58.47,5.94,1.12,31.99.16,6.42.19,11.04,3.35,13.39Z"/>
    <path class="cls-3" d="M56.78,135.48c1.43-.2,3.92-2.95,5.48-3.23.39-.07.76-.07.76-.07.77.03,1.34.4,4.08.71,3.19.37,3.23-.05,5.81.32,3.35.48,3.66,1.23,5.48.97,2.03-.29,2.22-1.31,4.52-2.26,2.35-.97,3.36-.41,8.07-.65,4.52-.23,6.79-.34,7.74-1.29,1.58-1.57.95-4.06-.65-12.9-2.07-11.46-1.65-10.89-2.26-12.26-2.27-5.15-4.52-5.13-9.36-13.23-2.18-3.65-1.9-3.94-3.55-6.13-1.99-2.63-4.88-6.46-10-8.07-.91-.29-7.42-2.22-12.9,1.29-4.35,2.79-5.6,7.44-7.42,14.2-1.04,3.88-.64,4.13-2.26,16.13-1.23,9.09-1.56,9.68-1.29,12.26.83,7.93,5.25,14.55,7.74,14.2Z"/>
    <path class="cls-3" d="M19.75,158.29c1.54.94,5.24-.48,5.24-.48h0c9.48-.77,10.48-.96,10.48-.96,6.38-1.19,6.84-2.87,10.48-2.39,2.74.36,3.32,1.42,6.29,1.43,2.37,0,3.3-.67,6.29-1.43,6.26-1.61,7.89-.12,9.44-1.43,3.16-2.69-1.07-11.19-5.24-19.6-3.62-7.3-5.52-11.01-9.44-14.34-2.89-2.45-8.17-6.94-15.73-6.69-7.54.25-12.5,5.05-13.63,6.21-1.96,2.03-3.41,6.13-6.29,14.34-2.27,6.47-2.29,7.82-2.1,9.08.64,4.15,3.2,4.86,3.67,9.56.36,3.59-.87,5.84.52,6.69Z"/>
    <path class="cls-3" d="M48.05,203.97c-.78,1.19-3.02.09-4.95,1.8-1.63,1.44-.92,3-2.48,4.05-1.56,1.05-2.73-.22-5.18.45-2.25.62-1.96,1.89-5.18,4.05-3.3,2.21-4.71,1.61-6.08,3.6-1.17,1.7-.68,2.93-1.8,3.6-1.77,1.06-4.77-.93-5.4-1.35-3.15-2.09-4.34-4.81-6.53-9.23-4.3-8.68-4.69-8.26-7.43-14.63-3.24-7.56-3.15-9.23-2.7-10.58,1.3-3.93,5.74-5.65,7.43-6.3,5.51-2.14,10.71-.7,14.85.45,2.22.61,6.12,1.92,10.35,4.73,4.33,2.86,6.63,5.81,11.25,11.7,3.63,4.63,4.5,6.63,3.83,7.65Z"/>
  </g>
  <path class="cls-3" d="M163.31,38.32c1.35,4.67,2.62,10.14,3.47,16.31.92,6.68,1.15,12.72,1.06,17.88"/>
  <path class="cls-3" d="M121.49,52.48c-1.05,4.26-1.98,9.87-1.9,16.46.06,4.56.58,8.59,1.25,11.93"/>
  <path class="cls-3" d="M171.39,54.02c.99,2.21,2.05,5.12,2.74,8.63.73,3.66.84,6.87.76,9.36"/>
  <path class="cls-3" d="M151.16,46.77c-.24,4.06-.24,8.84.3,14.15.62,6.09,1.81,11.38,3.07,15.7"/>
  <path class="cls-3" d="M137.54,54.2c.82,3.52,1.53,7.78,1.76,12.62.19,3.82.05,7.27-.24,10.28"/>
  <path class="cls-3" d="M108.86,60.04c-.85,3.63-1.55,8.46-1.23,14.13.17,3.03.61,5.74,1.14,8.07"/>
  <path class="cls-2" d="M71.95,272.88c-2.13-.16-4.67,3.36-5.44,6.93-.53,2.43.18,2.99,0,5.94-.26,4.4-1.99,5.83-2.47,8.41-1.16,6.16,5.63,14.23,12.86,17.32,2.19.94,1.62.21,17.32.99,7.81.39,11.23.73,12.86-1.48,1.66-2.26-.42-4.63,1.48-8.41,1.68-3.35,3.89-2.62,5.44-5.44,1.5-2.73-.17-4.11-3.46-17.32-.65-2.61-1.1-4.63-2.97-5.94-1.77-1.24-4.51-1.63-6.43-.49-1.91,1.13-2.44,3.42-3.46,7.92-.28,1.23-.51,2.22-.65,3.64-.23,2.28,0,3.15-.34,3.29-1.18.47-5.48-10.01-7.92-9.4-.48.12-.9,1.09-1.74,3.04-1.3,3.02-1.72,4.88-1.9,4.85-.28-.05,1.12-4.81.84-10.96-.18-4.04-1.02-7.04-2.11-10.96-.54-1.95-1.49-5.35-2.11-5.27-.57.08-.29,3.01-1.05,7.8-.46,2.92-1.26,7.93-3.16,8.22-.21.03-.38,0-3.58-1.69-1.72-.9-1.78-.95-2.01-.97Z"/>
  <path class="cls-4" d="M92.36,113.34c.74,2.07,1.45,4.58,1.92,7.46.66,4.07.65,7.64.42,10.42"/>
  <path class="cls-4" d="M81.43,116.42c-.42,1.97-.79,4.69-.6,7.91.19,3.26.88,5.94,1.54,7.86"/>
  <path class="cls-4" d="M62.31,119.28c.17,1.1.31,2.24.43,3.41.34,3.41.4,6.6.28,9.5"/>
  <path class="cls-4" d="M86.82,123.97c.27.95.52,2.01.72,3.16.27,1.55.39,2.97.43,4.23"/>
  <path class="cls-4" d="M56.25,110.23c-.49,1.35-1.02,3.21-1.22,5.46-.19,2.06-.06,3.83.15,5.19"/>
  <path class="cls-4" d="M69.71,113.74c-.19,4.17-.1,8.88.55,14.01.24,1.91.54,3.74.88,5.47"/>
  <path class="cls-4" d="M140.58,216.28c-.82,1.89-1.63,3.92-2.4,6.09-.73,2.04-1.35,4.01-1.89,5.88"/>
  <path class="cls-4" d="M122.59,207.88c-1.82,2-3.94,4.73-5.76,8.26-.99,1.91-1.72,3.72-2.27,5.35"/>
  <path class="cls-4" d="M127.76,212.6c-.7,1.05-1.47,2.37-2.13,3.97-.96,2.33-1.39,4.45-1.58,6.06"/>
  <path class="cls-4" d="M134.6,214.31c-.17,1.2-.45,2.54-.89,3.98-.92,3-2.23,5.37-3.39,7.09"/>
  <path class="cls-4" d="M54.13,140.24c.1,1.27.29,2.64.58,4.08.86,4.2,2.39,7.61,3.83,10.14"/>
  <path class="cls-4" d="M59.38,135.76c1.42,3.15,2.81,6.65,4.08,10.5.85,2.56,1.55,5.03,2.14,7.37"/>
  <path class="cls-4" d="M27.7,145.05c-.07,1.61-.05,3.46.17,5.5.28,2.69.83,5.01,1.41,6.91"/>
  <path class="cls-4" d="M33.73,140.98c.36,2.18.84,4.52,1.48,6.99.81,3.13,1.74,5.96,2.69,8.48"/>
  <path class="cls-4" d="M45.51,138.79c-.14,1.96-.2,4.1-.13,6.4.11,3.5.51,6.63,1.02,9.34"/>
  <path class="cls-4" d="M21.62,147.14c.7,1.41,1.52,3.41,1.97,5.91.36,2,.39,3.75.31,5.12"/>
  <path class="cls-4" d="M37.04,194.09c1.58,1.71,3.56,4.32,4.94,7.88.53,1.36.88,2.64,1.13,3.8"/>
  <path class="cls-4" d="M17.49,206.88c.45,1.5,1.23,3.53,2.62,5.69,1.51,2.33,3.18,3.95,4.44,5"/>
  <path class="cls-4" d="M23.11,199.34c1.65,1.54,3.34,3.22,5.06,5.06,2.12,2.27,4.01,4.5,5.69,6.62"/>
  <path class="cls-4" d="M40.63,209.82c-.98-.74-2.07-1.7-3.16-2.92-1.87-2.09-3.03-4.18-3.76-5.79"/>
  <path class="cls-4" d="M23.53,207.96c.66,1.05,1.65,2.37,3.07,3.69,1.33,1.24,2.64,2.09,3.68,2.67"/>
  <path class="cls-4" d="M15.6,213.61c.61,1.18,1.48,2.63,2.73,4.11,1.43,1.71,2.9,2.95,4.08,3.8"/>
</svg>