<?xml version="1.0" encoding="UTF-8"?>
<svg id="Layer_1" data-name="Layer 1" xmlns="http://www.w3.org/2000/svg" viewBox="0 0 121.42 122.03">
  <defs>
    <style>
      .cls-1, .cls-2, .cls-3 {
        stroke: #04361f;
        stroke-miterlimit: 10;
        stroke-width: .25px;
      }

      .cls-1, .cls-4 {
        fill: #04361f;
      }

      .cls-2 {
        fill: #aaba95;
      }

      .cls-4 {
        stroke-width: 0px;
      }

      .cls-3 {
        fill: none;
      }
    </style>
  </defs>
  <g>
    <path class="cls-3" d="M49.05,25.93c-.41.78-.34,1.27.64,9.02,1.01,7.95,1.07,8.49.97,9.66-.51,5.64-3.46,9.93-4.19,10.95-3.27,4.56-4.91,6.84-6.44,8.05,0,0,0,0,0,0,0,0-1.1.99-1.05,1.37.04.25.63.54,3.3.62,1.08-1.14,2.59-2.88,4.09-5.19,2.7-4.15,3.83-7.76,3.83-7.76s-1.13,3.61-3.83,7.76c-1.51,2.32-3.02,4.06-4.09,5.19,0,.06-.05,1.33.72,1.72.47.24,1,.03,1.29-.08,1.33-.54,1.33-1.71,2.58-2.09.15-.05.88-.27,1.29.08.4.34.08.88.4,1.29.48.6,1.48-.18,3.14.16,1.18.25,1.41.79,2.5.72.52-.03,1-.2,1.37-.32,1.13-.38,1.62-.86,1.93-.64.25.17.01.55.24.89.39.56,1.49.07,3.38.08.68,0,1.47.08,3.06.24.6.06,1.16.12,1.85-.08.12-.04.39-.12,1.29-.64,1.29-.75,1.94-1.27,2.09-1.13.13.12-.31.55-.16,1.05.12.42.58.63.81.72.61.27,1.08.18,2.17.08,1.44-.13,2.15-.19,2.66-.08.98.21,1.3.63,1.77.4.5-.24.33-.81.89-1.29.72-.62,1.58-.16,1.85-.56.39-.58-1.01-2.09-2.01-3.54-1.9-2.76-1.03-3.47-3.4-8.69-1.05-2.3-1.26-2.26-2.16-4.45-.68-1.65-1.4-3.44-1.68-5.7-.25-2.03-.12-3.58.08-4.59.9-4.58,1.95-9.93.64-12.64-2.75-5.7-18.94-6.02-21.82-.56Z"/>
    <path class="cls-1" d="M1.74,38.46c-.11-.43.07-.95-.12-2.05-.18-1.06-.81-1.32-1.21-2.17-.69-1.48.03-3.21.36-3.99,1.01-2.4,2.91-2.98,5.19-4.83,2.99-2.43,2.43-3.63,5.31-6.88,2.42-2.73,5.03-4.2,10.27-7.13,1.96-1.1,5.47-3.04,10.39-4.95,10.02-3.88,18.65-4.8,22.58-5.07,6.71-.47,11.56.09,19.2.97,5.14.59,8.03.94,11.96,2.17,5.8,1.82,9.95,4.35,13.29,6.4,5.16,3.18,3.8,3.21,10.87,7.85,1.82,1.2,3.55,2.65,7,5.56,2.09,1.76,3.7,3.21,3.62,5.07-.05,1.07-.64,1.91-1.09,2.54h0s-2.32,2.32-3.99,3.5c-1.19.84-19.52,5-45.44,6.57,0-.36.01-.72.02-1.08,5.09-.32,12.03-.84,19.1-1.64,3.41-.39,5.59-.7,7.42-.99,3.55-.57,3.86-.75,8.9-1.67,6.23-1.14,8.61-1.38,8.59-1.81-.02-.36-2.27-.67-6.78-1.28-2.23-.3-2.88-.34-4.53-.62-2.55-.44-4.41-.93-5.01-1.08-4.45-1.14-11.92-2.23-19.45-3.36-19.24-2.88-17.17-2.77-19.14-2.93,0,0-16.66-1.34-36.33,3.96-4.65,1.25-8.33,3.38-8.33,3.38h0c-.87.52-2.15,1.23-3.76,1.96-4.24,1.92-7.19,2.32-7.14,2.69.06.41,3.63,0,9.24.15,2.72.07,4.55.29,6.99.45,5.41.37,5.97,1.88,12.52,2.47,2.02.18,3.06.27,4.46.06,4.1-.59,6.95-2.88,7.33-2.38.31.42-1.61,2.04-1.21,2.66.29.45,1.55-.06,3.41-.26,1.7-.18,3.14-.03,4.18.16.03.24.05.48.08.71-1.92-.38-3.24-.28-4.11-.11-.86.17-1.76.14-2.63.29-.43.08-.82.16-1.11-.07-.39-.3-.38-1-.26-1.46.26-.97,1.16-1.41,1.1-1.51-.1-.14-2.05,1.29-4.74,2.07,0,0-.87.25-2.02.42-4.09.62-13.47-1.4-15.22-1.74-9.91-1.97-19.25,1.06-19.79-1.02Z"/>
    <path class="cls-2" d="M20.15,20.42c-.35-.29-.58-.49-.57-.77.02-.33.37-.6.69-.7.38-.12.52.07.98.04.79-.05.89-.64,1.57-.66.62-.02,1.09.45,1.23.59.17.17.46.45.42.81-.03.35-.34.57-.67.8-.45.32-1.24.87-2.22.71-.58-.1-.94-.39-1.44-.81Z"/>
    <path class="cls-2" d="M94.39,20.29c-.32-.27-.54-.46-.52-.73.02-.31.34-.57.64-.66.35-.11.48.06.9.03.74-.05.9-.68,1.45-.62.31.03.6.25.66.48.04.15-.04.26-.27.64-.41.7-.32.63-.46.81-.26.34-.59.77-1.07.81-.43.04-.75-.26-1.34-.76Z"/>
    <path class="cls-2" d="M8.87,28.34c.32-.27.54-.46.52-.73-.02-.31-.34-.57-.64-.66-.35-.11-.48.06-.9.03-.74-.05-.9-.68-1.45-.62-.31.03-.6.25-.66.48-.04.15.04.26.27.64.41.7.32.63.46.81.26.34.59.77,1.07.81.43.04.75-.26,1.34-.76Z"/>
    <path class="cls-3" d="M48.16,65.22c.87-2.62,1.74-5.23,2.61-7.85"/>
    <path class="cls-3" d="M56.97,51.73c-.5,2.15-.95,5.19-.63,8.81.2,2.31.67,4.3,1.16,5.89"/>
    <path class="cls-3" d="M67.87,51.41c-.37,2.16-.63,5.27-.01,8.92.37,2.16.96,3.99,1.55,5.46"/>
    <path class="cls-3" d="M72.69,57.51c-.09,1.38,0,2.56.12,3.43.21,1.61.59,2.8.84,3.57.4,1.24.86,2.26,1.25,3.04"/>
    <path class="cls-3" d="M48.89,28.36c-2.65,1.77-5.77,3.61-9.35,5.33-5.51,2.65-10.65,4.29-14.95,5.34"/>
    <path class="cls-3" d="M15.91,32.13c4.94-.61,10.17-1.43,15.65-2.49,6.24-1.22,12.07-2.62,17.44-4.11"/>
    <path class="cls-3" d="M3.59,37.31c7.85-1.34,16.16-3.03,24.87-5.18,7.19-1.77,13.99-3.68,20.39-5.68"/>
    <path class="cls-3" d="M48.82,27.33c-4.43,2.3-9.71,4.66-15.79,6.74-5.4,1.84-10.42,3.1-14.88,3.98"/>
    <path class="cls-3" d="M47.12,40.87c.49-.95.99-2.06,1.44-3.32.46-1.28.78-2.47,1.02-3.53"/>
    <path class="cls-3" d="M49.31,31.91c-.63,1.09-1.46,2.33-2.54,3.61-.93,1.12-1.87,2.04-2.71,2.79"/>
    <path class="cls-3" d="M32.76,40.46c2.74-1.32,5.66-2.87,8.69-4.69,2.82-1.69,5.39-3.4,7.7-5.06"/>
    <path class="cls-3" d="M70.58,37.27c0,.72.09,1.61.36,2.58.1.36.22.7.34,1"/>
    <path class="cls-3" d="M71.47,29.43c2.53,1.89,6.13,4.14,10.8,5.81,7.78,2.79,14.66,2.61,18.63,2.19"/>
    <path class="cls-3" d="M76.73,40.46c-1.04-.53-2.27-1.27-3.54-2.31-.95-.78-1.73-1.56-2.35-2.26"/>
    <path class="cls-3" d="M85.73,39.96c-2.63-.84-5.81-2.13-9.17-4.14-2.01-1.2-3.73-2.46-5.19-3.65"/>
    <path class="cls-3" d="M71.23,27.59c5.99,1.33,12.31,2.57,18.92,3.68,7.64,1.27,14.95,2.25,21.91,2.97"/>
    <path class="cls-3" d="M71.35,28.11c4.08,2.3,10.1,5.1,17.82,6.75,8.79,1.88,16.28,1.52,21.23.88"/>
    <path class="cls-2" d="M72.54,3.68c-.45.07-.75.13-.88.38-.15.29.01.7.24.96.27.3.48.21.86.46.65.45.44,1.01,1.01,1.37.52.33,1.17.17,1.36.12.24-.06.62-.16.78-.48.15-.32,0-.67-.17-1.03-.23-.51-.62-1.38-1.55-1.74-.55-.21-1.01-.14-1.65-.04Z"/>
    <path class="cls-2" d="M114.88,27.23c-.86-.63-1.1-.62-1.2-.92-.14-.45.22-1.1.76-1.36.61-.29,1.33-.03,1.69.37.41.45.13.84.58,1.59.37.62.79.75.72.95-.1.28-.98.35-1.67.03-.3-.14-.29-.22-.88-.66Z"/>
    <path class="cls-2" d="M23.01,10.6c-.56-.23-.6-.38-.8-.3-.3.12-.62.64-.67,1.09-.05.5.25.82.57.86.36.04.53-.31,1.08-.39.45-.06.62.13.73,0,.15-.19,0-.75-.32-1.03-.15-.12-.19-.07-.58-.23Z"/>
    <path class="cls-2" d="M84.51,2.33c-.3-.1-.57-.02-.91.08-.39.12-.79.24-1.06.62-.29.41-.41,1.07-.13,1.37.2.2.41.05,1.14.2.6.13.64.28,1.02.28.38,0,.96-.15,1.12-.55.11-.28-.03-.59-.15-.86-.1-.23-.22-.38-.32-.51-.23-.29-.41-.53-.71-.63Z"/>
    <path class="cls-2" d="M49.9.5c-.54.2-.91.34-1.12.72-.24.44-.14,1,.08,1.3.06.08.11.13.17.17.31.2.59.27.74.3.64.13.61.53,1.18.67.72.18,1.41-.29,1.57-.41.26-.18.66-.46.78-.93.21-.83-.57-1.86-1.46-2.13-.6-.19-1.16.02-1.95.3Z"/>
    <path class="cls-2" d="M35.58,10.88c-.29-.27-.48-.46-.47-.73.02-.31.3-.57.57-.66.32-.11.43.06.81.03.66-.05.8-.68,1.3-.62.28.03.54.25.59.48.03.15-.04.26-.24.64-.37.7-.28.63-.41.81-.23.34-.53.77-.96.81-.38.04-.67-.26-1.19-.76Z"/>
    <path class="cls-2" d="M108.48,19.99c-.35-.2-.72-.4-.7-.65.02-.28.45-.51.85-.59.15-.03.63-.17,1.2.03.49.17,1.25.66,1.17,1.22-.04.29-.3.55-.58.63-.19.05-.28-.01-.99-.27-.65-.24-.72-.24-.96-.37Z"/>
    <path class="cls-3" d="M77.39,62.6c-1.9-2.76-1.03-3.47-3.4-8.69-1.05-2.3-1.26-2.26-2.16-4.45-.68-1.65-1.4-3.44-1.68-5.7-.25-2.03-.12-3.58.08-4.59.9-4.58,1.95-9.93.64-12.64-2.75-5.7-18.94-6.02-21.82-.56-.41.78-.34,1.27.64,9.02,1.01,7.95,1.07,8.49.97,9.66-.51,5.64-3.46,9.93-4.19,10.95-3.27,4.56-4.91,6.84-6.44,8.05,0,0,0,0,0,0,0,0-1.1.99-1.05,1.37.04.25.63.54,3.3.62,0,.06-.05,1.33.72,1.72.47.24,1,.03,1.29-.08,1.33-.54,1.33-1.71,2.58-2.09.15-.05.88-.27,1.29.08.4.34.08.88.4,1.29.15.19.36.24.62.23.79,4.23,1.87,9.5-.46,16.19-.74,2.14-1.74,4.16-2.25,7.73,0,0-.46,3.22,0,11.59-1.01,3.82-.64,4.51-.64,4.51.59,1.1,4.34,2.49,3.22,1.93,0,0,4.42-1.31,8.7-.32,1.66.39,1.62.73,3.22.97,2.29.34,4.23-.1,5.15-.32,1.84-.43,1.6-.72,3.86-1.29,1.93-.49,2.52-.38,3.22-.97.95-.79,1.15-2.04,1.29-3.54.41-4.38.69-7.44-.64-11.92-.77-2.58-.98-1.94-1.61-4.19-1.12-3.98-.3-5.36-.64-11.92-.21-4.03-.55-4.02-.64-7.47.33,0,.73-.05,1.28-.1,1.44-.13,2.15-.19,2.66-.08.98.21,1.3.63,1.77.4.5-.24.33-.81.89-1.29.72-.62,1.58-.16,1.85-.56.39-.58-1.01-2.09-2.01-3.54Z"/>
  </g>
  <g>
    <g>
      <path class="cls-3" d="M81.76,96.29c.23.09,1.28.52,1.36,1.25.04.38-.21.52-.59,1.25-.4.76-.29.91-.93,2.79-.09.27-.23.69-.42,1.18-.45,1.15-.83,2.14-1.45,3.09-.77,1.17-1.03.92-2.02,2.28-.39.53-.96,1.32-1.36,2.42-.26.71-.71,1.98-.42,3.53.35,1.87,1.59,3.05,2.63,4.04,1.25,1.19,2.29,2.18,3.81,2.28,1.18.07,1.37-.27,2.88-.29,2.05-.03,2.26.74,4.65,1.13,2.27.37,2.64-.24,5.68.19,1.56.22,1.36.34,2.37.44,2.8.28,5.18-.87,6.27-1.4,1.61-.78,1.08-.89,4.15-2.79,2.28-1.42,2.83-1.51,3.3-2.35.71-1.25.75-3.04-.08-4.04-.16-.19-.48-.5-.89-1.09,0,0-.2-.29-.38-.6-.72-1.21-1-3.42-2.03-5.36,0,0-1.84-3.46-1.95-4.19,0-.02,0-.05,0-.05-.05-.45.11-.71.17-.98.06-.28,0-.81-1.02-2.06"/>
      <path class="cls-4" d="M92.52,97.98c3.19.01,3.87.03,5.63,0,3.65-.05,5.5-.09,6.93-.38,3.11-.62,5.19-1.98,6.61-2.91,1.4-.92,6.34-4.25,8.23-10.24,1.25-3.98.54-7.16-.22-10.52-.66-2.93-1.69-7.53-5.85-12.12-4.87-5.37-10.98-7.37-13.54-8.17-2.81-.88-5.74-1.8-9.64-1.5-5,.38-8.55,2.53-12.13,4.7-2.71,1.64-4.82,2.92-6.71,5.35-2.06,2.65-2.74,5.22-3.47,7.98-.16.63-.84,3.26-.97,6.86-.11,2.82-.18,4.73.54,7.23,1.21,4.2,3.78,6.92,4.66,7.8.6.6,2.06,1.97,4.33,3.29.9.52,2.63,1.51,4.98,2.16,1.85.51,2.74.44,10.61.47Z"/>
      <path class="cls-2" d="M84.64,55.76c.42.44,1.31.6,2.04.37.9-.28,1.32-1.09,1.31-1.72,0-.12,0-.7-.45-1.08-.28-.24-.45-.16-.83-.43-.53-.38-.48-.73-.81-.81-.42-.1-.92.34-1.15.61-.54.63-.59,1.56-.59,1.56h0s0,.99.48,1.49Z"/>
    </g>
    <path class="cls-2" d="M109.83,82.25c0-.31,0-.61.17-.81.41-.5,1.64-.18,2.34,0,.98.25,1.55.4,1.82.89.3.55.06,1.22-.17,1.87-.18.5-.27.76-.52.98-.88.78-2.55.22-3.29-.16-.33-.17-.86-.44-.87-.81,0-.39.55-.5.64-1.07.05-.32-.12-.38-.11-.88Z"/>
    <path class="cls-2" d="M88.08,78.42c.62-.67.54-1.71.09-2.38-.07-.1-.54-.79-1.22-.82-.46-.02-.54.28-1.22.41-.73.14-1-.15-1.31.08-.35.26-.35.89-.21,1.29.12.33.26.31.47.76.25.53.11.68.31.92.4.49,1.34.38,1.6.35.34-.04,1.01-.11,1.48-.62Z"/>
    <path class="cls-2" d="M78.35,62.72c.86-.21,1.09-.04,1.34-.29.34-.34.24-1.02,0-1.45-.4-.7-1.39-1.13-2.26-.87-.85.26-1.16,1.05-1.23,1.26-.1.26-.31.81,0,1.26.24.35.65.44.7.45.46.1.65-.15,1.46-.35Z"/>
    <path class="cls-2" d="M112.42,65.44c-.39.49,0,1.57,0,1.57.03.19.24.66.29.8.18.43.43.33.69.8.24.42.12.64.35.81.27.2.68.09.89.04.8-.19,1.92-.89,1.94-1.93.01-.7-.47-1.19-.75-1.47-.78-.79-1.78-.89-2.05-.91-.42-.03-1.08-.07-1.37.29Z"/>
    <path class="cls-2" d="M119.34,77.53c-.23.23-.68.69-.84,1.42-.02.1-.31,1.52.47,1.93.4.21.88.05,1.04,0,.71-.24,1.16-.91,1.26-1.54.17-1.1-.72-2.28-1.34-2.23-.19.01-.33.15-.59.42Z"/>
    <path class="cls-2" d="M95.72,53.52c.51-.13.65-.03.8-.17.21-.21.14-.61,0-.87-.24-.42-.83-.68-1.35-.52-.51.15-.69.63-.74.75-.06.15-.18.48,0,.75.14.21.39.26.42.27.28.06.39-.09.87-.21Z"/>
    <path class="cls-2" d="M74.19,92.21c.45.27.61.21.7.4.13.25-.06.62-.28.83-.36.33-1.01.41-1.46.11-.43-.29-.45-.8-.46-.93,0-.16-.02-.51.25-.72.2-.16.45-.14.49-.14.28.02.34.2.76.45Z"/>
    <path class="cls-2" d="M92.73,66.48c.45-.34.39-.86.06-1.19-.05-.05-.39-.4-.89-.41-.34,0-.4.14-.89.2-.54.07-.73-.07-.96.04-.26.13-.26.44-.15.64.08.16.19.16.35.38.19.26.08.34.23.46.29.24.98.19,1.17.18.25-.02.74-.06,1.09-.31Z"/>
    <path class="cls-2" d="M103.89,91.19c0-.15,0-.3-.09-.41-.21-.25-.83-.09-1.18,0-.5.13-.78.2-.92.45-.15.28-.03.61.09.93.09.25.14.38.26.49.44.39,1.29.11,1.66-.08.17-.09.43-.22.44-.41,0-.19-.28-.25-.32-.53-.02-.16.06-.19.06-.44Z"/>
    <path class="cls-2" d="M101.56,66.57c.42.35,1.31.48,2.04.3.9-.23,1.32-.87,1.31-1.38,0-.09,0-.56-.45-.86-.28-.19-.45-.13-.83-.34-.53-.3-.48-.58-.81-.65-.42-.08-.92.27-1.15.49-.54.51-.59,1.25-.59,1.25h0s0,.79.48,1.2Z"/>
    <path class="cls-2" d="M68.48,78.75c.27-.36.24-.92.04-1.27-.03-.05-.24-.42-.54-.44-.2,0-.24.15-.54.22-.32.07-.44-.08-.58.04-.16.14-.16.48-.09.69.05.17.11.17.21.41.11.28.05.36.14.49.18.26.59.2.71.19.15-.02.45-.06.66-.33Z"/>
    <path class="cls-2" d="M100.36,74.82c0-.11,0-.22.06-.3.15-.18.6-.07.85,0,.36.09.56.15.66.33.11.2.02.44-.06.68-.07.18-.1.28-.19.36-.32.29-.93.08-1.2-.06-.12-.06-.31-.16-.32-.3,0-.14.2-.18.23-.39.02-.12-.04-.14-.04-.32Z"/>
    <path class="cls-2" d="M91.02,97.31c-.95.13-1.2.03-1.48.17-.38.21-.27.61,0,.87.44.42,1.54.68,2.5.52.94-.15,1.28-.63,1.36-.75.11-.15.34-.48,0-.75-.26-.21-.72-.26-.78-.27-.51-.06-.72.09-1.61.21Z"/>
    <path class="cls-2" d="M75.87,71.18c.25.3,0,.98,0,.98-.02.12-.15.41-.19.5-.12.27-.28.2-.45.5-.16.26-.08.4-.23.5-.17.12-.44.05-.58.02-.52-.12-1.25-.55-1.27-1.2,0-.43.31-.74.49-.92.51-.49,1.17-.56,1.34-.57.28-.02.71-.04.9.18Z"/>
    <path class="cls-2" d="M82.19,91.57c-.42.45-.36,1.15-.06,1.6.04.07.36.53.82.55.31.01.37-.19.82-.28.49-.09.67.1.88-.06.24-.18.24-.6.14-.87-.08-.22-.17-.21-.32-.51-.17-.36-.08-.46-.21-.62-.27-.33-.9-.26-1.08-.24-.23.03-.68.07-1,.42Z"/>
    <path class="cls-2" d="M111.13,93.04c0-.17,0-.34.08-.46.19-.28.76-.1,1.09,0,.46.14.72.23.85.5.14.31.03.69-.08,1.05-.08.28-.13.43-.24.55-.41.44-1.19.12-1.53-.09-.16-.1-.4-.25-.41-.46,0-.22.26-.28.3-.6.02-.18-.06-.21-.05-.5Z"/>
    <path class="cls-2" d="M107.15,57.72c.12.14.34.43.77.6.06.02.89.34,1.23,0,.18-.18.13-.44.12-.53-.06-.39-.42-.7-.79-.83-.65-.22-1.47.09-1.52.41-.01.1.05.18.19.35Z"/>
  </g>
</svg>