<?xml version="1.0" encoding="UTF-8"?>
<svg id="Layer_1" data-name="Layer 1" xmlns="http://www.w3.org/2000/svg" viewBox="0 0 125.93 114.44">
  <defs>
    <style>
      .cls-1 {
        fill: #fef8e0;
      }

      .cls-1, .cls-2, .cls-3, .cls-4, .cls-5 {
        stroke: #231f20;
        stroke-miterlimit: 10;
        stroke-width: .25px;
      }

      .cls-2, .cls-6 {
        fill: #ffecca;
      }

      .cls-3 {
        fill: #d7bb88;
      }

      .cls-4 {
        fill: #942926;
      }

      .cls-6 {
        stroke-width: 0px;
      }

      .cls-5 {
        fill: none;
      }
    </style>
  </defs>
  <path class="cls-1" d="M52.23,60.71c-4.43,5.24,3.12,13.07-1.35,25.9-.78,2.23-1.82,4.34-2.35,8.07,0,0-.48,3.36,0,12.11-1.05,3.99-.67,4.71-.67,4.71.62,1.15,4.53,2.6,3.36,2.02,0,0,4.62-1.37,9.08-.34,1.74.4,1.69.76,3.36,1.01,2.39.35,4.41-.11,5.38-.34,1.92-.45,1.68-.75,4.04-1.35,2.01-.51,2.63-.4,3.36-1.01,1-.83,1.2-2.13,1.35-3.7.42-4.58.72-7.77-.67-12.45-.8-2.69-1.02-2.02-1.68-4.37-1.17-4.16-.31-5.6-.67-12.45-.23-4.32-.59-4.18-.67-8.07-.12-5.59.63-6.28,0-7.74-2.28-5.28-17.03-7.73-21.86-2.02Z"/>
  <path class="cls-6" d="M55.93,40.99c-1.3,1.16-2.85,1.59-2.85,1.59-1.28.35-1.66.03-3.87.1-2.72.08-4.22.63-4.46.11-.17-.37.32-1.23.78-1.71.27-.28.59-.5.58-.83-.01-.22-.18-.4-.31-.51-.34.12-.83.3-1.42.56-.74.33-1.13.56-1.53.77-1.73.9-3.36,1.2-3.91,1.28-.24.04-1.01.15-2.01.15-.97,0-1.67-.11-2.22-.18-2.25-.32-2.57-.26-3.97-.47-2.9-.42-3.97-1.01-6.43-1.57-1.16-.26-2.54-.49-6.9-.69-10.38-.46-13.29.38-13.64-.64-.54-1.62,6.19-5.75,11.82-8.07.26-.11.65-.26,1.33-.52,3.05-1.14,8.75-2.89,24.33-6.04,8.74-1.77,10.32-1.9,12.11-1.01,5.57,2.75,6.5,14.16,2.6,17.66Z"/>
  <path class="cls-6" d="M65.4,43.11c12.42-.37,16.64-.67,17.77-.89.13-.03,1.3-.25,2.91-.51.39-.06.83-.13,1.41-.21,3.66-.5,5.56-.4,17.88-2.41,10.18-1.66,15.26-2.51,15.3-3.48.06-1.78-10.5-1.64-26.4-6.7-12.91-4.11-16.65-7.59-21.19-5.48-3.19,1.48-6.97,5.83-7.68,19.68Z"/>
  <path class="cls-3" d="M51.22,27.07c-.43.81-.36,1.33.67,9.42,1.06,8.31,1.12,8.86,1.01,10.09-.54,5.89-3.61,10.37-4.37,11.44-3.42,4.76-5.12,7.14-6.73,8.41,0,0,0,0,0,0,0,0-1.15,1.03-1.09,1.43.04.26.66.57,3.45.64,1.13-1.19,2.7-3,4.28-5.42,2.82-4.33,4-8.1,4-8.1s-1.18,3.77-4,8.1c-1.57,2.42-3.15,4.24-4.28,5.42,0,.06-.05,1.38.75,1.79.49.25,1.05.04,1.35-.08,1.39-.56,1.39-1.78,2.69-2.19.15-.05.92-.29,1.35.08.42.36.08.92.42,1.35.5.62,1.55-.19,3.28.17,1.23.26,1.48.83,2.61.76.55-.04,1.04-.21,1.43-.34,1.18-.4,1.69-.89,2.02-.67.27.18.01.58.25.92.41.58,1.55.08,3.53.08.71,0,1.54.09,3.2.25.62.06,1.21.13,1.93-.08.13-.04.41-.13,1.35-.67,1.34-.78,2.03-1.33,2.19-1.18.14.13-.32.57-.17,1.09.13.44.61.65.84.76.64.28,1.13.18,2.27.08,1.5-.13,2.25-.2,2.77-.08,1.02.22,1.36.65,1.85.42.52-.25.34-.84.92-1.35.75-.65,1.65-.17,1.93-.59.41-.6-1.06-2.18-2.1-3.7-1.98-2.88-1.08-3.62-3.56-9.07-1.09-2.41-1.32-2.36-2.25-4.65-.71-1.73-1.46-3.59-1.76-5.96-.27-2.12-.12-3.74.08-4.79.94-4.78,2.04-10.37.67-13.2-2.87-5.95-19.78-6.29-22.79-.59Z"/>
  <path class="cls-4" d="M1.81,40.17c-.12-.45.07-.99-.13-2.14-.19-1.11-.85-1.38-1.26-2.27-.72-1.55.04-3.35.38-4.16,1.06-2.51,3.04-3.11,5.42-5.05,3.12-2.53,2.54-3.79,5.55-7.19,2.53-2.85,5.26-4.38,10.72-7.44,2.05-1.15,5.71-3.18,10.85-5.17C43.81,2.68,52.83,1.73,56.93,1.44c7.01-.49,12.07.09,20.06,1.01,5.36.62,8.38.98,12.49,2.27,6.06,1.9,10.4,4.54,13.87,6.69,5.39,3.32,3.97,3.36,11.35,8.2,1.9,1.25,3.71,2.77,7.32,5.8,2.19,1.84,3.87,3.36,3.78,5.3-.05,1.12-.67,1.99-1.14,2.65h0s-2.42,2.42-4.16,3.66c-1.24.88-20.38,5.22-47.46,6.86,0-.38.01-.75.02-1.13,5.31-.33,12.57-.87,19.95-1.71,3.56-.41,5.84-.73,7.75-1.04,3.7-.59,4.03-.78,9.3-1.74,6.51-1.19,8.99-1.45,8.97-1.89-.02-.38-2.37-.7-7.08-1.33-2.33-.31-3.01-.35-4.73-.65-2.66-.46-4.6-.97-5.23-1.13-4.65-1.19-12.45-2.33-20.31-3.5-20.1-3.01-17.93-2.9-19.99-3.06,0,0-17.4-1.4-37.94,4.14-4.86,1.31-8.7,3.53-8.7,3.53h0c-.91.54-2.25,1.29-3.92,2.04-4.43,2-7.51,2.42-7.46,2.81.06.43,3.79,0,9.65.16,2.84.08,4.75.3,7.3.47,5.66.38,6.23,1.97,13.08,2.58,2.11.19,3.2.28,4.66.07,4.28-.62,7.26-3.01,7.65-2.48.33.44-1.68,2.13-1.26,2.77.31.47,1.62-.06,3.56-.28,1.77-.19,3.28-.03,4.36.17.03.25.06.5.09.74-2.01-.4-3.38-.29-4.29-.11-.9.18-1.84.14-2.74.3-.45.08-.86.17-1.16-.07-.4-.32-.4-1.04-.27-1.52.27-1.02,1.21-1.48,1.15-1.57-.1-.15-2.15,1.35-4.95,2.16,0,0-.91.26-2.1.44-4.28.64-14.06-1.46-15.9-1.82-10.35-2.05-20.11,1.11-20.67-1.06Z"/>
  <path class="cls-1" d="M21.04,21.32c-.36-.3-.61-.51-.59-.81.02-.34.38-.63.72-.73.4-.12.54.07,1.02.04.82-.05.93-.67,1.64-.69.65-.02,1.14.47,1.29.62.18.18.48.47.44.85-.03.36-.36.6-.7.84-.47.33-1.29.91-2.32.74-.61-.1-.98-.41-1.51-.85Z"/>
  <path class="cls-1" d="M98.58,21.19c-.34-.28-.56-.48-.55-.76.02-.32.36-.59.67-.69.37-.12.5.07.94.04.77-.05.94-.71,1.52-.65.32.03.63.26.69.5.04.16-.04.27-.28.67-.43.73-.33.66-.48.85-.27.36-.62.8-1.12.84-.45.04-.78-.28-1.39-.8Z"/>
  <path class="cls-1" d="M9.26,29.6c.34-.28.56-.48.55-.76-.02-.32-.36-.59-.67-.69-.37-.12-.5.07-.94.04-.77-.05-.94-.71-1.52-.65-.32.03-.63.26-.69.5-.04.16.04.27.28.67.43.73.33.66.48.85.27.36.62.8,1.12.84.45.04.78-.28,1.39-.8Z"/>
  <path class="cls-3" d="M50.29,68.11c.91-2.73,1.82-5.47,2.73-8.2"/>
  <path class="cls-3" d="M59.49,54.02c-.52,2.24-.99,5.42-.66,9.2.21,2.42.7,4.49,1.22,6.15"/>
  <path class="cls-3" d="M70.88,53.69c-.39,2.25-.66,5.51-.01,9.31.38,2.25,1,4.17,1.62,5.7"/>
  <path class="cls-3" d="M75.91,60.06c-.09,1.45,0,2.67.12,3.59.22,1.68.62,2.92.88,3.73.42,1.3.9,2.36,1.3,3.17"/>
  <path class="cls-5" d="M51.06,29.61c-2.77,1.85-6.02,3.77-9.76,5.56-5.76,2.76-11.12,4.48-15.61,5.57"/>
  <path class="cls-5" d="M16.61,33.55c5.16-.64,10.62-1.49,16.34-2.61,6.52-1.27,12.6-2.74,18.22-4.3"/>
  <path class="cls-5" d="M3.75,38.96c8.2-1.4,16.88-3.17,25.97-5.41,7.51-1.85,14.61-3.85,21.3-5.93"/>
  <path class="cls-5" d="M50.98,28.54c-4.63,2.4-10.14,4.87-16.49,7.04-5.64,1.92-10.88,3.24-15.54,4.15"/>
  <path class="cls-5" d="M49.2,42.67c.51-.99,1.03-2.15,1.51-3.46.48-1.33.82-2.58,1.06-3.68"/>
  <path class="cls-5" d="M51.49,33.32c-.66,1.14-1.53,2.43-2.65,3.77-.98,1.17-1.95,2.13-2.83,2.91"/>
  <path class="cls-5" d="M34.21,42.25c2.86-1.38,5.91-3,9.08-4.9,2.95-1.76,5.63-3.55,8.05-5.29"/>
  <path class="cls-5" d="M73.71,38.92c0,.75.1,1.68.38,2.69.11.38.23.73.35,1.05"/>
  <path class="cls-5" d="M74.64,30.73c2.64,1.97,6.4,4.32,11.28,6.07,8.13,2.92,15.31,2.73,19.45,2.29"/>
  <path class="cls-2" d="M80.13,42.25c-1.08-.55-2.37-1.33-3.7-2.41-.99-.81-1.81-1.62-2.46-2.36"/>
  <path class="cls-2" d="M89.53,41.73c-2.75-.88-6.07-2.22-9.58-4.32-2.1-1.26-3.9-2.57-5.42-3.81"/>
  <path class="cls-2" d="M74.39,28.81c6.26,1.39,12.85,2.69,19.76,3.84,7.97,1.33,15.62,2.35,22.88,3.11"/>
  <path class="cls-2" d="M74.51,29.36c4.26,2.4,10.55,5.33,18.61,7.05,9.18,1.96,17,1.58,22.17.92"/>
  <path class="cls-1" d="M75.75,3.84c-.47.08-.78.13-.92.39-.16.3.01.74.25,1,.28.31.5.22.9.49.68.47.46,1.05,1.06,1.43.55.35,1.22.17,1.42.12.25-.06.65-.16.81-.5.16-.33,0-.7-.17-1.08-.24-.53-.65-1.44-1.62-1.82-.58-.22-1.05-.15-1.73-.04Z"/>
  <path class="cls-1" d="M119.97,28.43c-.9-.66-1.15-.65-1.25-.96-.15-.47.23-1.15.79-1.42.63-.31,1.39-.03,1.77.38.42.47.13.87.6,1.66.39.65.83.78.75,1-.1.29-1.02.36-1.74.03-.32-.14-.3-.23-.92-.69Z"/>
  <path class="cls-1" d="M24.03,11.06c-.59-.24-.63-.4-.84-.31-.32.13-.65.67-.7,1.14-.05.53.27.86.6.9.37.04.56-.32,1.13-.4.47-.06.64.14.76,0,.15-.2,0-.78-.34-1.07-.15-.13-.2-.08-.61-.24Z"/>
  <path class="cls-1" d="M88.26,2.42c-.32-.11-.59-.02-.95.08-.4.12-.82.25-1.1.64-.31.42-.43,1.12-.13,1.43.2.21.42.05,1.19.21.63.14.67.29,1.06.29.39,0,1.01-.15,1.17-.57.11-.29-.03-.62-.15-.9-.1-.24-.23-.4-.33-.53-.24-.3-.43-.55-.74-.66Z"/>
  <path class="cls-1" d="M52.1.52c-.57.21-.95.35-1.17.75-.25.46-.14,1.04.08,1.36.06.08.12.14.18.18.32.21.62.28.78.32.67.13.63.55,1.23.7.75.19,1.47-.31,1.64-.43.27-.18.69-.48.81-.97.22-.87-.59-1.94-1.52-2.23-.63-.19-1.21.02-2.03.32Z"/>
  <path class="cls-1" d="M37.15,11.36c-.3-.28-.5-.48-.49-.76.02-.32.32-.59.6-.69.33-.12.45.07.84.04.69-.05.83-.71,1.35-.65.29.03.56.26.61.5.03.16-.04.27-.25.67-.38.73-.3.66-.43.85-.24.36-.55.8-1,.84-.4.04-.7-.28-1.24-.8Z"/>
  <path class="cls-1" d="M113.29,20.87c-.36-.21-.75-.42-.73-.68.02-.29.47-.53.89-.62.15-.03.66-.18,1.25.03.51.18,1.31.69,1.22,1.28-.04.3-.32.58-.61.66-.2.05-.3-.01-1.03-.28-.68-.25-.76-.25-1-.39Z"/>
</svg>